<svg width="40" height="40" viewBox="0 0 40 40" fill="none" xmlns="http://www.w3.org/2000/svg">
<path d="M20 37C29.3888 37 37 29.3888 37 20C37 10.6112 29.3888 3 20 3C10.6112 3 3 10.6112 3 20C3 29.3888 10.6112 37 20 37Z" fill="#FFD749" stroke="black" stroke-width="2"/>
<path d="M16 13.6706C16.3226 12.7802 16.9594 12.0293 17.7975 11.5511C18.6357 11.0728 19.6211 10.898 20.5793 11.0575C21.5375 11.2171 22.4066 11.7008 23.0327 12.4229C23.6588 13.1451 24 14 24 15.003C24 19 20 18 20 23" stroke="black" stroke-width="2" stroke-linecap="round" stroke-linejoin="round"/>
<path d="M20 29H20.0199" stroke="black" stroke-width="2" stroke-linecap="round" stroke-linejoin="round"/>
</svg>
