<svg width="40" height="40" viewBox="0 0 40 40" fill="none" xmlns="http://www.w3.org/2000/svg">
<path d="M3 36.9996V6.59961H37V36.9996H3Z" fill="#FFD749" stroke="black" stroke-width="2" stroke-linecap="round"/>
<path d="M10.2002 22.6V21H11.8002V22.6H10.2002Z" fill="#FFD749" stroke="black" stroke-width="2" stroke-linecap="round"/>
<path d="M10.2002 29.8002V28.2002H11.8002V29.8002H10.2002Z" fill="#FFD749" stroke="black" stroke-width="2" stroke-linecap="round"/>
<path d="M10.2002 15.3998V13.7998H11.8002V15.3998H10.2002Z" fill="#FFD749" stroke="black" stroke-width="2" stroke-linecap="round"/>
<path d="M10 5V3H12V5H10Z" fill="#FFD749" stroke="black" stroke-width="2" stroke-linecap="round"/>
<path d="M19.2002 22.6V21H20.8002V22.6H19.2002Z" fill="#FFD749" stroke="black" stroke-width="2" stroke-linecap="round"/>
<path d="M19.2002 29.8002V28.2002H20.8002V29.8002H19.2002Z" fill="#FFD749" stroke="black" stroke-width="2" stroke-linecap="round"/>
<path d="M19.2002 15.3998V13.7998H20.8002V15.3998H19.2002Z" fill="#FFD749" stroke="black" stroke-width="2" stroke-linecap="round"/>
<path d="M19 5V3H21V5H19Z" fill="#FFD749" stroke="black" stroke-width="2" stroke-linecap="round"/>
<path d="M28.2002 22.6V21H29.8002V22.6H28.2002Z" fill="#FFD749" stroke="black" stroke-width="2" stroke-linecap="round"/>
<path d="M28.2002 29.8002V28.2002H29.8002V29.8002H28.2002Z" fill="#FFD749" stroke="black" stroke-width="2" stroke-linecap="round"/>
<path d="M28.2002 15.3998V13.7998H29.8002V15.3998H28.2002Z" fill="#FFD749" stroke="black" stroke-width="2" stroke-linecap="round"/>
<path d="M28 5V3H30V5H28Z" fill="#FFD749" stroke="black" stroke-width="2" stroke-linecap="round"/>
</svg>
