<svg width="40" height="40" viewBox="0 0 40 40" fill="none" xmlns="http://www.w3.org/2000/svg">
<mask id="path-1-inside-1" fill="white">
<path fill-rule="evenodd" clip-rule="evenodd" d="M2 3H38V29.5727H6.5764L2 37.2V29.5727V28.2V3Z"/>
</mask>
<path fill-rule="evenodd" clip-rule="evenodd" d="M2 3H38V29.5727H6.5764L2 37.2V29.5727V28.2V3Z" fill="#FFD749"/>
<path d="M38 3H40V1H38V3ZM2 3V1H0V3H2ZM38 29.5727V31.5727H40V29.5727H38ZM6.5764 29.5727V27.5727H5.44402L4.86141 28.5437L6.5764 29.5727ZM2 37.2H0V44.4206L3.71499 38.229L2 37.2ZM38 1H2V5H38V1ZM40 29.5727V3H36V29.5727H40ZM6.5764 31.5727H38V27.5727H6.5764V31.5727ZM3.71499 38.229L8.29138 30.6017L4.86141 28.5437L0.285014 36.171L3.71499 38.229ZM0 29.5727V37.2H4V29.5727H0ZM0 28.2V29.5727H4V28.2H0ZM0 3V28.2H4V3H0Z" fill="black" mask="url(#path-1-inside-1)"/>
<path d="M10.1998 11.2002L29.7998 11.2002L29.7998 12.2002L10.1998 12.2002L10.1998 11.2002Z" fill="#FFD749" stroke="black" stroke-width="2" stroke-linecap="round"/>
<path d="M10.1998 18.4004L29.7998 18.4004L29.7998 19.4004L10.1998 19.4004L10.1998 18.4004Z" fill="#FFD749" stroke="black" stroke-width="2" stroke-linecap="round"/>
</svg>
