<svg width="40" height="40" viewBox="0 0 40 40" fill="none" xmlns="http://www.w3.org/2000/svg">
<path d="M13.425 30.1811L13.4256 30.1811C14.8899 30.1661 16.2178 29.4433 17.0316 28.2828L17.0321 28.2821C17.845 27.1208 17.8429 26.0179 17.8353 25.3579L18.1459 24.5919L17.2286 24.2122C14.5978 23.1232 12.7503 20.5319 12.7503 17.5112V17.2503V16.2503H11.7503C11.1163 16.2503 10.667 15.7609 10.667 15.2053V8.95866C10.667 4.93178 13.9318 1.66699 17.9587 1.66699H22.1253C26.1522 1.66699 29.417 4.93178 29.417 8.95866V15.0837C29.417 15.728 28.8947 16.2503 28.2503 16.2503H27.2503V17.2503V17.5112C27.2503 20.5319 25.4029 23.1232 22.772 24.2122L21.8548 24.5919L22.165 25.3569C22.1555 25.9995 22.1462 27.1202 22.9636 28.288L22.964 28.2886C23.7465 29.4045 25.075 30.165 26.5746 30.1811L26.5756 30.1811C29.4875 30.2094 31.8337 32.5122 31.8337 35.377V38.3337H8.16699V35.377C8.16699 32.5122 10.5131 30.2094 13.425 30.1811Z" fill="white" stroke="black" stroke-width="2"/>
<path d="M30.417 8.95866V15.0837C30.417 16.2803 29.447 17.2503 28.2503 17.2503C28.2503 14.7052 28.2517 13.3868 28.2511 12.6832C28.2507 12.2343 27.8163 11.915 27.3874 12.0476C26.1094 12.4427 24.5292 12.6826 22.8337 12.3336C19.8828 11.7269 19.0828 10.5594 16.7503 10.0002C14.1087 9.36691 11.7128 11.3902 11.7295 13.9786C11.7345 14.8294 11.7487 15.8927 11.7503 17.2502C10.5624 17.2502 9.66699 16.3115 9.66699 15.2052V8.95866C9.66699 4.37933 13.3793 0.666992 17.9587 0.666992H22.1253C26.7047 0.666992 30.417 4.37933 30.417 8.95866Z" fill="black"/>
<path d="M27.0921 11.0918L27.0922 11.0917C28.1615 10.7612 29.2501 11.5568 29.2512 12.6814C29.2515 13.0431 29.2513 13.5674 29.251 14.336C29.2508 15.1149 29.2504 16.1447 29.2504 17.5107C29.2504 21.3679 26.89 24.6714 23.538 26.0593C17.4698 28.5782 10.7504 24.1052 10.7504 17.5107C10.7504 16.4623 10.7431 15.6286 10.7368 14.9031C10.734 14.5785 10.7313 14.2755 10.7296 13.9846L27.0921 11.0918ZM27.0921 11.0918C25.9229 11.4533 24.5195 11.6592 23.0353 11.3537L23.0351 11.3537M27.0921 11.0918L23.0351 11.3537M23.0351 11.3537C21.6847 11.076 20.8376 10.6765 20.0135 10.2574C19.938 10.2189 19.862 10.18 19.7853 10.1407C19.0119 9.74408 18.168 9.31138 16.9836 9.02742M23.0351 11.3537L16.7504 9.99987L16.9836 9.02742M16.9836 9.02742C13.6911 8.23807 10.7092 10.7671 10.7296 13.9841L16.9836 9.02742Z" fill="white" stroke="black" stroke-width="2"/>
<path d="M13.425 30.1805L13.426 30.1805C14.4607 30.1695 15.4284 29.8053 16.1941 29.1822C16.2611 29.2566 16.326 29.3287 16.3889 29.3986C17.8579 31.031 18.239 31.4546 18.7609 32.0349L18.7615 32.0357C19.4237 32.7707 20.5769 32.7707 21.2391 32.0357L21.2398 32.035C21.7566 31.4602 22.1401 31.034 23.4815 29.5434C23.5833 29.4302 23.6907 29.3109 23.8042 29.1848C24.558 29.793 25.5247 30.1693 26.5747 30.1805L26.5756 30.1805C29.4875 30.2087 31.8337 32.5116 31.8337 35.3763V38.333H8.16699V35.3763C8.16699 32.5116 10.5131 30.2087 13.425 30.1805Z" fill="#FFD749" stroke="black" stroke-width="2"/>
<path d="M23.6674 20.0089C24.2785 20.219 24.4445 21.0112 23.9413 21.4168C22.8713 22.2795 21.5279 22.3129 20.4036 21.6672C20.1465 21.5196 19.833 21.5196 19.5758 21.6672C18.4526 22.3122 17.1093 22.2805 16.0381 21.4168C15.5351 21.0112 15.701 20.2191 16.3121 20.0089C17.3305 19.6587 17.5096 18.928 18.2993 18.7192C18.5948 18.6407 19.0342 18.6199 19.6482 18.8985C19.8661 18.9974 20.1134 18.9974 20.3313 18.8985C20.9453 18.6199 21.3848 18.6408 21.6803 18.7192C22.47 18.928 22.6491 19.6587 23.6674 20.0089Z" fill="black"/>
<path d="M25.2987 29.3691C25.2883 29.3997 24.4658 34.6038 24.4711 34.5707C24.3626 35.2553 23.7396 35.4758 23.409 34.9465C21.2209 31.4419 21.5194 31.8989 21.2979 31.621L23.8295 27.708C24.1962 28.436 24.7045 29.0144 25.2987 29.3691Z" fill="black"/>
<path d="M16.2543 27.708L18.726 31.5283L16.6757 34.9075C16.3481 35.4476 15.7174 35.2311 15.6081 34.5409C15.6028 34.5079 14.7956 29.3994 14.7852 29.3688C15.3793 29.0143 15.8877 28.4359 16.2543 27.708Z" fill="black"/>
</svg>
