<svg width="540" height="254" viewBox="0 0 540 254" fill="none" xmlns="http://www.w3.org/2000/svg">
    <g clip-path="url(#clip0)">
        <rect width="540" height="254" rx="8" fill="#FEF6E0"/>
        <path d="M408.544 140.508V262.411H91V140.508C90.9996 100.053 106.493 61.1283 134.307 31.7078C162.122 2.28729 200.151 -15.4026 240.606 -17.7385C243.637 -17.915 246.693 -18.0021 249.772 -18C251.527 -18 253.275 -17.9738 255.01 -17.9085C295.296 -16.6358 333.576 -0.0627556 362.039 28.428C362.897 29.2843 363.741 30.1471 364.586 31.023C392.81 60.508 408.555 99.7243 408.544 140.508Z" fill="white" stroke="black" stroke-width="3" stroke-linecap="round"/>
        <path d="M255.012 -17.9084V262.411H240.607V-17.7385C243.639 -17.915 246.694 -18.0021 249.774 -18C251.528 -18 253.276 -17.9738 255.012 -17.9084Z" fill="#FFD749" stroke="black" stroke-width="3" stroke-linecap="round"/>
        <path fill-rule="evenodd" clip-rule="evenodd" d="M384.378 86.584H271.836V276.793H384.378V86.584ZM311.082 118.717H294.059V135.712H311.082V118.717ZM321.486 118.717H338.51V135.712H321.486V118.717ZM365.935 118.717H348.912V135.712H365.935V118.717ZM294.533 157.428H311.557V174.423H294.533V157.428ZM338.982 157.428H321.959V174.423H338.982V157.428ZM349.385 157.428H366.408V174.423H349.385V157.428Z" fill="#FFD749"/>
        <path d="M271.836 86.584V85.084H270.336V86.584H271.836ZM384.378 86.584H385.878V85.084H384.378V86.584ZM271.836 276.793H270.336V278.293H271.836V276.793ZM384.378 276.793V278.293H385.878V276.793H384.378ZM294.059 118.717V117.217H292.559V118.717H294.059ZM311.082 118.717H312.582V117.217H311.082V118.717ZM294.059 135.712H292.559V137.212H294.059V135.712ZM311.082 135.712V137.212H312.582V135.712H311.082ZM338.51 118.717H340.01V117.217H338.51V118.717ZM321.486 118.717V117.217H319.986V118.717H321.486ZM338.51 135.712V137.212H340.01V135.712H338.51ZM321.486 135.712H319.986V137.212H321.486V135.712ZM348.912 118.717V117.217H347.412V118.717H348.912ZM365.935 118.717H367.435V117.217H365.935V118.717ZM348.912 135.712H347.412V137.212H348.912V135.712ZM365.935 135.712V137.212H367.435V135.712H365.935ZM311.557 157.428H313.057V155.928H311.557V157.428ZM294.533 157.428V155.928H293.033V157.428H294.533ZM311.557 174.423V175.923H313.057V174.423H311.557ZM294.533 174.423H293.033V175.923H294.533V174.423ZM321.959 157.428V155.928H320.459V157.428H321.959ZM338.982 157.428H340.482V155.928H338.982V157.428ZM321.959 174.423H320.459V175.923H321.959V174.423ZM338.982 174.423V175.923H340.482V174.423H338.982ZM366.408 157.428H367.908V155.928H366.408V157.428ZM349.385 157.428V155.928H347.885V157.428H349.385ZM366.408 174.423V175.923H367.908V174.423H366.408ZM349.385 174.423H347.885V175.923H349.385V174.423ZM271.836 88.084H384.378V85.084H271.836V88.084ZM273.336 276.793V86.584H270.336V276.793H273.336ZM384.378 275.293H271.836V278.293H384.378V275.293ZM382.878 86.584V276.793H385.878V86.584H382.878ZM294.059 120.217H311.082V117.217H294.059V120.217ZM295.559 135.712V118.717H292.559V135.712H295.559ZM311.082 134.212H294.059V137.212H311.082V134.212ZM309.582 118.717V135.712H312.582V118.717H309.582ZM338.51 117.217H321.486V120.217H338.51V117.217ZM340.01 135.712V118.717H337.01V135.712H340.01ZM321.486 137.212H338.51V134.212H321.486V137.212ZM319.986 118.717V135.712H322.986V118.717H319.986ZM348.912 120.217H365.935V117.217H348.912V120.217ZM350.412 135.712V118.717H347.412V135.712H350.412ZM365.935 134.212H348.912V137.212H365.935V134.212ZM364.435 118.717V135.712H367.435V118.717H364.435ZM311.557 155.928H294.533V158.928H311.557V155.928ZM313.057 174.423V157.428H310.057V174.423H313.057ZM294.533 175.923H311.557V172.923H294.533V175.923ZM293.033 157.428V174.423H296.033V157.428H293.033ZM321.959 158.928H338.982V155.928H321.959V158.928ZM323.459 174.423V157.428H320.459V174.423H323.459ZM338.982 172.923H321.959V175.923H338.982V172.923ZM337.482 157.428V174.423H340.482V157.428H337.482ZM366.408 155.928H349.385V158.928H366.408V155.928ZM367.908 174.423V157.428H364.908V174.423H367.908ZM349.385 175.923H366.408V172.923H349.385V175.923ZM347.885 157.428V174.423H350.885V157.428H347.885Z" fill="black"/>
        <path d="M128.746 223.735C141.704 223.735 152.208 213.248 152.208 200.312C152.208 187.376 141.704 176.889 128.746 176.889C115.788 176.889 105.283 187.376 105.283 200.312C105.283 213.248 115.788 223.735 128.746 223.735Z" fill="#FFD749" stroke="black" stroke-width="3" stroke-linecap="round"/>
        <path d="M128.812 200.312H128.877L130.037 266.721H127.588L128.812 200.312Z" fill="#FFD749" stroke="black" stroke-width="3" stroke-linecap="round"/>
        <path d="M197.726 201.354C217.431 201.354 233.405 185.407 233.405 165.735C233.405 146.063 217.431 130.115 197.726 130.115C178.021 130.115 162.047 146.063 162.047 165.735C162.047 185.407 178.021 201.354 197.726 201.354Z" fill="#FFD749" stroke="black" stroke-width="3" stroke-linecap="round"/>
        <path d="M197.823 165.734H197.921L199.685 266.721H195.961L197.823 165.734Z" fill="#FFD749" stroke="black" stroke-width="3" stroke-linecap="round"/>
        <path d="M375.788 319.094L384.299 320.402L397.721 252.75L420.964 213.205L449.117 328.245L459.593 330.206C458.418 265.422 464.152 183.863 451.082 173.986L394.12 180.523L369.24 247.194L375.788 319.094Z" fill="black"/>
        <path d="M417.034 73.3258C427.882 73.3258 436.676 64.5465 436.676 53.7166C436.676 42.8868 427.882 34.1074 417.034 34.1074C406.187 34.1074 397.393 42.8868 397.393 53.7166C397.393 64.5465 406.187 73.3258 417.034 73.3258Z" fill="white" stroke="black" stroke-width="3" stroke-linecap="round"/>
        <path d="M444.535 83.7822L420.965 87.7041L418 66.4629L432.095 61.5586L444.535 83.7822Z" fill="white" stroke="black" stroke-width="3" stroke-linecap="round"/>
        <path d="M454.354 176.599L391.5 182.481C396.539 164.989 401.156 147.558 397.393 130.19C392.614 114.685 397.226 105.464 409.832 98.1619L418.344 79.2063L441.26 76.5918C447.328 86.3326 449.81 97.8787 448.28 109.248C445.015 133.97 445.897 156.911 454.354 176.599Z" fill="#FFD749" stroke="black" stroke-width="3" stroke-linecap="round"/>
        <path d="M416.593 30.557C410.038 32.0522 402.577 34.1707 402.158 36.1397C395.415 37.8361 390.325 41.8996 389.286 48.0944C389.199 48.6298 389.231 49.1777 389.379 49.6995C389.528 50.2213 389.789 50.7044 390.144 51.1146C390.499 51.5248 390.941 51.8522 391.437 52.0737C391.932 52.2953 392.471 52.4056 393.014 52.3968C396.681 52.3497 402.187 51.999 405.822 50.4832C416.382 57.2762 418.155 74.9439 413.543 86.9699L420.8 86.3059L428.308 64.3639L430.225 85.4433L446.786 83.2574L444.653 56.3772C443.997 50.0418 441.838 43.9539 438.353 38.6187C437.991 38.0829 437.595 37.5708 437.168 37.0856C434.649 34.2441 431.405 32.1367 427.783 30.9872C424.16 29.8377 420.293 29.6891 416.593 30.557Z" fill="black"/>
        <path d="M334.896 242.36H339.953V230.37L341.103 228.074C341.334 227.613 341.453 227.104 341.449 226.589C341.446 226.073 341.32 225.566 341.083 225.108C340.846 224.651 340.504 224.255 340.085 223.955C339.666 223.654 339.181 223.456 338.671 223.378C338.204 223.306 337.727 223.336 337.273 223.466C336.819 223.595 336.398 223.821 336.04 224.128C335.681 224.435 335.393 224.816 335.196 225.245C334.999 225.673 334.896 226.139 334.896 226.611V242.36Z" fill="white" stroke="black" stroke-width="3" stroke-linecap="round"/>
        <path d="M360.18 220.906H372.189V207.024H360.18V220.906Z" fill="white" stroke="black" stroke-width="3" stroke-linecap="round"/>
        <path d="M403.579 218.126L399.156 220.574L393.334 210.087L391.213 208.635C390.787 208.343 390.436 207.956 390.189 207.503C389.942 207.051 389.805 206.546 389.79 206.031C389.776 205.516 389.883 205.005 390.103 204.539C390.324 204.073 390.652 203.666 391.06 203.35C391.433 203.062 391.865 202.857 392.325 202.751C392.785 202.644 393.263 202.638 393.726 202.733C394.189 202.828 394.625 203.022 395.006 203.301C395.387 203.581 395.702 203.939 395.931 204.351L397.757 207.64L403.579 218.126Z" fill="white" stroke="black" stroke-width="3" stroke-linecap="round"/>
        <path fill-rule="evenodd" clip-rule="evenodd" d="M385.463 217.125L385.463 217.119L372.189 216.488L358.283 218.381L351.33 224.061L351.415 225.433L343.113 239.203L340.585 236.679L333 242.358L341.849 254.348L352.686 245.988L354.49 275.174C365.121 281.723 376.359 281.083 387.991 275.805L386.099 231.882L395.611 226.84L404.427 222.168L405.692 214.595L400.003 208.916L393.05 213.333L393.682 218.381L385.465 217.119L385.463 217.125Z" fill="#FFD749"/>
        <path d="M385.463 217.119L386.961 217.055L386.902 215.686L385.534 215.621L385.463 217.119ZM385.463 217.125L383.964 217.19L386.876 217.629L385.463 217.125ZM372.189 216.488L372.26 214.99L372.123 214.983L371.986 215.002L372.189 216.488ZM358.283 218.381L358.081 216.895L357.662 216.952L357.334 217.22L358.283 218.381ZM351.33 224.061L350.381 222.899L349.785 223.386L349.833 224.153L351.33 224.061ZM351.415 225.433L352.7 226.208L352.941 225.807L352.912 225.341L351.415 225.433ZM343.113 239.203L342.054 240.265L343.409 241.618L344.398 239.978L343.113 239.203ZM340.585 236.679L341.645 235.618L340.726 234.7L339.686 235.478L340.585 236.679ZM333 242.358L332.101 241.158L330.908 242.051L331.793 243.249L333 242.358ZM341.849 254.348L340.642 255.239L341.552 256.472L342.765 255.536L341.849 254.348ZM352.686 245.988L354.183 245.896L354.009 243.073L351.77 244.8L352.686 245.988ZM354.49 275.174L352.993 275.267L353.041 276.043L353.704 276.451L354.49 275.174ZM387.991 275.805L388.611 277.171L389.533 276.753L389.49 275.741L387.991 275.805ZM386.099 231.882L385.396 230.556L384.559 231L384.6 231.946L386.099 231.882ZM395.611 226.84L394.908 225.515L395.611 226.84ZM404.427 222.168L405.13 223.493L405.785 223.146L405.907 222.415L404.427 222.168ZM405.692 214.595L407.171 214.842L407.298 214.08L406.751 213.534L405.692 214.595ZM400.003 208.916L401.063 207.854L400.213 207.006L399.199 207.65L400.003 208.916ZM393.05 213.333L392.246 212.067L391.444 212.577L391.562 213.52L393.05 213.333ZM393.682 218.381L393.454 219.864L395.417 220.166L395.17 218.195L393.682 218.381ZM385.465 217.119L385.693 215.637L384.468 215.449L384.052 216.616L385.465 217.119ZM383.964 217.184L383.964 217.19L386.961 217.061L386.961 217.055L383.964 217.184ZM372.118 217.987L385.391 218.618L385.534 215.621L372.26 214.99L372.118 217.987ZM358.485 219.868L372.391 217.975L371.986 215.002L358.081 216.895L358.485 219.868ZM352.279 225.222L359.232 219.543L357.334 217.22L350.381 222.899L352.279 225.222ZM352.912 225.341L352.827 223.968L349.833 224.153L349.918 225.526L352.912 225.341ZM344.398 239.978L352.7 226.208L350.13 224.659L341.829 238.429L344.398 239.978ZM339.525 237.741L342.054 240.265L344.173 238.142L341.645 235.618L339.525 237.741ZM333.899 243.559L341.484 237.88L339.686 235.478L332.101 241.158L333.899 243.559ZM343.056 253.457L334.207 241.468L331.793 243.249L340.642 255.239L343.056 253.457ZM351.77 244.8L340.933 253.16L342.765 255.536L353.602 247.176L351.77 244.8ZM355.988 275.082L354.183 245.896L351.189 246.081L352.993 275.267L355.988 275.082ZM387.371 274.439C376.056 279.573 365.368 280.114 355.277 273.897L353.704 276.451C364.874 283.333 376.663 282.592 388.611 277.171L387.371 274.439ZM384.6 231.946L386.492 275.87L389.49 275.741L387.597 231.817L384.6 231.946ZM386.801 233.207L396.313 228.166L394.908 225.515L385.396 230.556L386.801 233.207ZM396.313 228.166L405.13 223.493L403.725 220.842L394.908 225.515L396.313 228.166ZM405.907 222.415L407.171 214.842L404.212 214.348L402.948 221.921L405.907 222.415ZM406.751 213.534L401.063 207.854L398.943 209.978L404.632 215.657L406.751 213.534ZM399.199 207.65L392.246 212.067L393.854 214.599L400.807 210.182L399.199 207.65ZM391.562 213.52L392.194 218.568L395.17 218.195L394.538 213.147L391.562 213.52ZM393.91 216.899L385.693 215.637L385.237 218.602L393.454 219.864L393.91 216.899ZM384.052 216.616L384.05 216.622L386.876 217.629L386.878 217.623L384.052 216.616Z" fill="black"/>
        <path d="M367.449 210.494C375.129 210.494 381.355 204.278 381.355 196.611C381.355 188.944 375.129 182.729 367.449 182.729C359.769 182.729 353.543 188.944 353.543 196.611C353.543 204.278 359.769 210.494 367.449 210.494Z" fill="black"/>
        <path d="M375.036 187.144C378.527 187.144 381.357 184.319 381.357 180.834C381.357 177.349 378.527 174.523 375.036 174.523C371.545 174.523 368.715 177.349 368.715 180.834C368.715 184.319 371.545 187.144 375.036 187.144Z" fill="black"/>
        <path d="M374.728 186.11C375.981 186.763 377.417 186.978 378.807 186.72C380.197 186.462 381.46 185.747 382.394 184.688C383.328 183.629 383.88 182.288 383.961 180.879C384.042 179.47 383.647 178.075 382.84 176.916C383.571 177.465 384.174 178.166 384.607 178.97C385.04 179.774 385.293 180.663 385.348 181.574C385.403 182.485 385.26 183.398 384.927 184.248C384.595 185.099 384.081 185.867 383.422 186.5C382.763 187.133 381.974 187.616 381.11 187.915C380.246 188.214 379.327 188.322 378.417 188.231C377.507 188.141 376.628 187.854 375.839 187.391C375.051 186.928 374.373 186.3 373.852 185.55C374.128 185.76 374.421 185.948 374.728 186.11Z" fill="black"/>
        <path d="M413.761 196.209L414.195 211.384C414.255 213.476 413.519 215.513 412.134 217.084C410.75 218.656 408.821 219.645 406.735 219.854C405.4 219.987 404.051 219.794 402.806 219.292C401.562 218.79 400.458 217.994 399.589 216.972C398.721 215.949 398.115 214.732 397.822 213.424C397.53 212.115 397.56 210.756 397.91 209.462L401.321 196.863L411.142 143.265L410.487 111.89L431.439 111.236L427.51 146.533L413.761 196.209Z" fill="white" stroke="black" stroke-width="3" stroke-linecap="round"/>
        <path d="M432.75 114.502C425.159 111.616 416.77 111.616 409.18 114.502L410.489 88.3567C410.489 85.583 411.593 82.9229 413.557 80.9616C415.522 79.0003 418.187 77.8984 420.965 77.8984C423.743 77.8984 426.408 79.0003 428.372 80.9616C430.337 82.9229 431.441 85.583 431.441 88.3567L432.75 114.502Z" fill="#FFD749" stroke="black" stroke-width="3" stroke-linecap="round"/>
    </g>
    <defs>
        <clipPath id="clip0">
            <rect width="540" height="254" rx="8" fill="white"/>
        </clipPath>
    </defs>
</svg>
