<svg width="540" height="254" viewBox="0 0 540 254" fill="none" xmlns="http://www.w3.org/2000/svg">
    <g clip-path="url(#clip0)">
        <rect width="540" height="254" rx="8" fill="#FEF6E0"/>
        <path d="M478.391 140.508V262.411H158.477V140.508C158.476 100.053 174.085 61.1283 202.107 31.7078C230.129 2.28729 268.442 -15.4026 309.199 -17.7385C312.253 -17.915 315.331 -18.0021 318.434 -18C320.201 -18 321.963 -17.9738 323.711 -17.9085C364.297 -16.6358 402.863 -0.0627556 431.538 28.428C432.402 29.2843 433.253 30.1471 434.104 31.023C462.538 60.508 478.401 99.7243 478.391 140.508Z" fill="white" stroke="black" stroke-width="3" stroke-linecap="round"/>
        <path d="M323.713 -17.9084V262.411H309.201V-17.7385C312.255 -17.915 315.333 -18.0021 318.436 -18C320.204 -18 321.965 -17.9738 323.713 -17.9084Z" fill="#FFD749" stroke="black" stroke-width="3" stroke-linecap="round"/>
        <path fill-rule="evenodd" clip-rule="evenodd" d="M454.044 86.584H340.662V276.793H454.044V86.584ZM380.201 118.717H363.051V135.712H380.201V118.717ZM390.683 118.717H407.833V135.712H390.683V118.717ZM435.464 118.717H418.313V135.712H435.464V118.717ZM363.529 157.428H380.679V174.423H363.529V157.428ZM408.31 157.428H391.159V174.423H408.31V157.428ZM418.79 157.428H435.94V174.423H418.79V157.428Z" fill="#FFD749"/>
        <path d="M340.662 86.584V85.084H339.162V86.584H340.662ZM454.044 86.584H455.544V85.084H454.044V86.584ZM340.662 276.793H339.162V278.293H340.662V276.793ZM454.044 276.793V278.293H455.544V276.793H454.044ZM363.051 118.717V117.217H361.551V118.717H363.051ZM380.201 118.717H381.701V117.217H380.201V118.717ZM363.051 135.712H361.551V137.212H363.051V135.712ZM380.201 135.712V137.212H381.701V135.712H380.201ZM407.833 118.717H409.333V117.217H407.833V118.717ZM390.683 118.717V117.217H389.183V118.717H390.683ZM407.833 135.712V137.212H409.333V135.712H407.833ZM390.683 135.712H389.183V137.212H390.683V135.712ZM418.313 118.717V117.217H416.813V118.717H418.313ZM435.464 118.717H436.964V117.217H435.464V118.717ZM418.313 135.712H416.813V137.212H418.313V135.712ZM435.464 135.712V137.212H436.964V135.712H435.464ZM380.679 157.428H382.179V155.928H380.679V157.428ZM363.529 157.428V155.928H362.029V157.428H363.529ZM380.679 174.423V175.923H382.179V174.423H380.679ZM363.529 174.423H362.029V175.923H363.529V174.423ZM391.159 157.428V155.928H389.659V157.428H391.159ZM408.31 157.428H409.81V155.928H408.31V157.428ZM391.159 174.423H389.659V175.923H391.159V174.423ZM408.31 174.423V175.923H409.81V174.423H408.31ZM435.94 157.428H437.44V155.928H435.94V157.428ZM418.79 157.428V155.928H417.29V157.428H418.79ZM435.94 174.423V175.923H437.44V174.423H435.94ZM418.79 174.423H417.29V175.923H418.79V174.423ZM340.662 88.084H454.044V85.084H340.662V88.084ZM342.162 276.793V86.584H339.162V276.793H342.162ZM454.044 275.293H340.662V278.293H454.044V275.293ZM452.544 86.584V276.793H455.544V86.584H452.544ZM363.051 120.217H380.201V117.217H363.051V120.217ZM364.551 135.712V118.717H361.551V135.712H364.551ZM380.201 134.212H363.051V137.212H380.201V134.212ZM378.701 118.717V135.712H381.701V118.717H378.701ZM407.833 117.217H390.683V120.217H407.833V117.217ZM409.333 135.712V118.717H406.333V135.712H409.333ZM390.683 137.212H407.833V134.212H390.683V137.212ZM389.183 118.717V135.712H392.183V118.717H389.183ZM418.313 120.217H435.464V117.217H418.313V120.217ZM419.813 135.712V118.717H416.813V135.712H419.813ZM435.464 134.212H418.313V137.212H435.464V134.212ZM433.964 118.717V135.712H436.964V118.717H433.964ZM380.679 155.928H363.529V158.928H380.679V155.928ZM382.179 174.423V157.428H379.179V174.423H382.179ZM363.529 175.923H380.679V172.923H363.529V175.923ZM362.029 157.428V174.423H365.029V157.428H362.029ZM391.159 158.928H408.31V155.928H391.159V158.928ZM392.659 174.423V157.428H389.659V174.423H392.659ZM408.31 172.923H391.159V175.923H408.31V172.923ZM406.81 157.428V174.423H409.81V157.428H406.81ZM435.94 155.928H418.79V158.928H435.94V155.928ZM437.44 174.423V157.428H434.44V174.423H437.44ZM418.79 175.923H435.94V172.923H418.79V175.923ZM417.29 157.428V174.423H420.29V157.428H417.29Z" fill="black"/>
        <path d="M196.505 223.735C209.559 223.735 220.142 213.248 220.142 200.312C220.142 187.376 209.559 176.889 196.505 176.889C183.45 176.889 172.867 187.376 172.867 200.312C172.867 213.248 183.45 223.735 196.505 223.735Z" fill="#FFD749" stroke="black" stroke-width="3" stroke-linecap="round"/>
        <path d="M196.571 200.312H196.636L197.805 266.721H195.338L196.571 200.312Z" fill="#FFD749" stroke="black" stroke-width="3" stroke-linecap="round"/>
        <path d="M265.998 201.354C285.85 201.354 301.943 185.407 301.943 165.735C301.943 146.063 285.85 130.115 265.998 130.115C246.146 130.115 230.053 146.063 230.053 165.735C230.053 185.407 246.146 201.354 265.998 201.354Z" fill="#FFD749" stroke="black" stroke-width="3" stroke-linecap="round"/>
        <path d="M266.097 165.734H266.195L267.973 266.721H264.221L266.097 165.734Z" fill="#FFD749" stroke="black" stroke-width="3" stroke-linecap="round"/>
        <path d="M118.423 342.102L118.408 342.096C117.95 341.888 117.543 341.585 117.215 341.208C116.87 340.606 116.691 339.926 116.695 339.234L116.695 339.211L116.693 339.187C116.003 331.357 114.432 323.629 112.01 316.145C111.226 313.704 110.346 311.274 109.469 308.851L109.417 308.705C108.521 306.231 107.631 303.764 106.842 301.284C105.264 296.324 104.102 291.343 104.134 286.229L104.134 286.226L104.134 286.224V286.223V286.221V286.22V286.218V286.217V286.215V286.214V286.212V286.211V286.209V286.208V286.206V286.205V286.203V286.202V286.2V286.199V286.197V286.196V286.194V286.193V286.192V286.19V286.189V286.187V286.186V286.184V286.183V286.181V286.18V286.178V286.177V286.175V286.174V286.172V286.171V286.169V286.168V286.166V286.165V286.163V286.162V286.16V286.159V286.157V286.156V286.154V286.153V286.151V286.15V286.148V286.147V286.145V286.144V286.142V286.141V286.139V286.138V286.136V286.135V286.133V286.132V286.13V286.129V286.127V286.126V286.124V286.123V286.121V286.12V286.118V286.117V286.115V286.114V286.112V286.111V286.109V286.108V286.106V286.104V286.103V286.101V286.1V286.098V286.097V286.095V286.094V286.092V286.091V286.089V286.088V286.086V286.085V286.083V286.082V286.08V286.079V286.077V286.076V286.074V286.073V286.071V286.07V286.068V286.067V286.065V286.064V286.062V286.061V286.059V286.058V286.056V286.055V286.053V286.052V286.05V286.049V286.047V286.046V286.044V286.042V286.041V286.039V286.038V286.036V286.035V286.033V286.032V286.03V286.029V286.027V286.026V286.024V286.023V286.021V286.02V286.018V286.017V286.015V286.014V286.012V286.011V286.009V286.008V286.006V286.005V286.003V286.002V286V285.998V285.997V285.995V285.994V285.992V285.991V285.989V285.988V285.986V285.985V285.983V285.982V285.98V285.979V285.977V285.976V285.974V285.973V285.971V285.97V285.968V285.967V285.965V285.964V285.962V285.961V285.959V285.958V285.956V285.954V285.953V285.951V285.95V285.948V285.947V285.945V285.944V285.942V285.941V285.939V285.938V285.936V285.935V285.933V285.932V285.93V285.929V285.927V285.926V285.924V285.923V285.921V285.92V285.918V285.917V285.915V285.914V285.912V285.911V285.909V285.907V285.906V285.904V285.903V285.901V285.9V285.898V285.897V285.895V285.894V285.892V285.891V285.889V285.888V285.886V285.885V285.883V285.882V285.88V285.879V285.877V285.876V285.874V285.873V285.871V285.87V285.868V285.867V285.865V285.864V285.862V285.861V285.859V285.858V285.856V285.855V285.853V285.852V285.85V285.849V285.847V285.846V285.844V285.843V285.841V285.84V285.838V285.837V285.835V285.834V285.832V285.831V285.829V285.828V285.826V285.825V285.823V285.822V285.82V285.819V285.817V285.816V285.814V285.813V285.811V285.81V285.808V285.807V285.805V285.804V285.802V285.801V285.799V285.798V285.796V285.795V285.793V285.792V285.79V285.789V285.787V285.786V285.784V285.783V285.781V285.78V285.778V285.777V285.775V285.774V285.772V285.771V285.769V285.768V285.766V285.765V285.763V285.762V285.76V285.759V285.757V285.756V285.755V285.753V285.752V285.75V285.749V285.747V285.746V285.744V285.743V285.741V285.74V285.738V285.737V285.735V285.734V285.732V285.731V285.729V285.728V285.726V285.725V285.724V285.722V285.721V285.719V285.718V285.716V285.715V285.713V285.712V285.71V285.709V285.707V285.706V285.704V285.703V285.702V285.7V285.699V285.697V285.696V285.694V285.693V285.691V285.69V285.688V285.687V285.686V285.684V285.683V285.681V285.68V285.678V285.677V285.675V285.674V285.672V285.671V285.67V285.668V285.667V285.665V285.664V285.662V285.661V285.659V285.658V285.657V285.655V285.654V285.652V285.651V285.649V285.648V285.646V285.645V285.644V285.642V285.641V285.639V285.638V285.636V285.635V285.634V285.632V285.631V285.629V285.628V285.626V285.625V285.624V285.622V285.621V285.619V285.618V285.616V285.615V285.614V285.612V285.611V285.609V285.608V285.607V285.605V285.604V285.602V285.601V285.599V285.598V285.597V285.595V285.594V285.592V285.591V285.59V285.588V285.587V285.585V285.584V285.583V285.581V285.58V285.578V285.577V285.576V285.574V285.573V285.571V285.57V285.569V285.567V285.566V285.564V285.563V285.562V285.56V285.559V285.557V285.556V285.555V285.553V285.552V285.551V285.549V285.548V285.546V285.545V285.544V285.542V285.541V285.539V285.538V285.537V285.535V285.534V285.533V285.531V285.53V285.529V285.527V285.526V285.524V285.523V285.522V285.52V285.519V285.518V285.516V285.515V285.514V285.512V285.511V285.509V285.508V285.507V285.505V285.504V285.503V285.501V285.5V285.499V285.497V285.496V285.495V285.493V285.492V285.491V285.489V285.488V285.487V285.485V285.484V285.483V285.481V285.48C104.195 283.278 104.481 281.11 104.771 278.912C104.906 277.892 105.041 276.866 105.155 275.826L105.155 275.826C105.734 270.512 105.692 265.161 105.65 259.859C105.649 259.728 105.648 259.597 105.647 259.466C105.692 257.305 105.541 255.145 105.194 253.011L105.193 253.003L105.191 252.995C105.1 252.529 104.948 252.072 104.793 251.642C104.747 251.513 104.701 251.388 104.656 251.266C104.546 250.968 104.442 250.685 104.352 250.4C104.101 249.598 104.032 248.959 104.323 248.389L104.323 248.389C104.976 247.111 106.539 246.167 108.413 245.53C110.262 244.902 112.292 244.614 113.707 244.563C117.538 244.429 121.321 245.422 125.118 246.435C126.293 246.752 127.371 247.059 128.135 247.765C129.149 248.706 129.479 250.227 129.521 251.779L129.521 251.78C129.619 255.199 128.675 258.515 127.637 261.909C127.57 262.128 127.503 262.347 127.435 262.566C126.465 265.726 125.471 268.963 125.316 272.313M118.423 342.102L125.815 272.336M118.423 342.102L118.438 342.11C123.415 344.772 129.268 345.244 135.053 345.667M118.423 342.102L118.202 342.551M125.316 272.313L125.815 272.336M125.316 272.313C125.316 272.313 125.316 272.313 125.316 272.313L125.815 272.336M125.316 272.313C125.308 272.49 125.302 272.664 125.296 272.834C125.28 273.302 125.265 273.748 125.205 274.189C125.127 274.77 124.976 275.281 124.677 275.712M125.815 272.336C125.808 272.499 125.802 272.664 125.797 272.829C125.759 273.947 125.72 275.103 125.072 276.019M124.677 275.712C124.682 275.706 124.687 275.7 124.692 275.694L125.072 276.019M124.677 275.712C124.207 276.26 123.697 276.772 123.152 277.246L123.13 277.265L123.112 277.285C121.36 279.189 121.341 282.012 121.451 284.334L121.451 284.336C121.499 285.285 121.552 286.235 121.616 287.185L121.616 287.186C122.486 299.867 125.071 312.376 129.302 324.375M124.677 275.712C124.672 275.718 124.668 275.725 124.664 275.731L125.072 276.019M125.072 276.019L129.302 324.375M129.302 324.375C129.301 324.373 129.3 324.37 129.3 324.368L129.776 324.216M129.302 324.375L121.95 284.311C121.998 285.258 122.051 286.205 122.115 287.152C122.982 299.791 125.559 312.257 129.776 324.216M129.302 324.375C129.303 324.378 129.304 324.38 129.305 324.382L129.776 324.216M129.302 324.375C129.718 325.681 130.264 326.943 130.932 328.142L130.94 328.157L130.949 328.17C132.043 329.86 133.408 331.36 134.992 332.611M129.776 324.216C130.183 325.493 130.716 326.727 131.369 327.899C132.434 329.544 133.765 331.005 135.308 332.223M134.992 332.611C134.99 332.609 134.988 332.607 134.985 332.605L135.308 332.223M134.992 332.611C134.994 332.612 134.996 332.614 134.999 332.616L135.308 332.223M134.992 332.611C137.199 334.477 139.563 336.154 142.058 337.621L142.058 337.621C142.221 337.716 142.382 337.81 142.543 337.904C144.061 338.785 145.499 339.621 146.453 340.917C146.961 341.607 147.27 342.476 147.295 343.307C147.32 344.132 147.068 344.884 146.498 345.411M135.308 332.223C137.495 334.074 139.838 335.736 142.311 337.19C142.474 337.285 142.638 337.38 142.802 337.475C144.304 338.346 145.836 339.235 146.856 340.62C147.987 342.156 148.236 344.487 146.835 345.781M146.498 345.411C146.499 345.411 146.5 345.41 146.501 345.409L146.835 345.781M146.498 345.411C146.497 345.412 146.496 345.413 146.495 345.414L146.835 345.781M146.498 345.411C146.011 345.847 145.377 346.077 144.643 346.179C143.904 346.282 143.102 346.25 142.31 346.193L135.053 345.667M146.835 345.781C145.661 346.833 143.867 346.807 142.274 346.691L135.016 346.165M135.016 346.165L135.053 345.667M135.016 346.165C129.251 345.744 123.288 345.271 118.202 342.551M135.016 346.165L135.052 345.667L135.053 345.667M118.202 342.551C117.664 342.307 117.187 341.948 116.806 341.499C116.401 340.811 116.191 340.028 116.195 339.231M118.202 342.551L116.195 339.231M104.658 275.772C104.547 276.788 104.413 277.802 104.279 278.815C103.987 281.03 103.696 283.243 103.634 285.473L104.658 275.772ZM104.658 275.772C105.234 270.487 105.192 265.162 105.15 259.851L105.147 259.462L104.658 275.772ZM116.195 339.231C115.508 331.439 113.945 323.747 111.534 316.298L116.195 339.231Z" fill="white" stroke="black"/>
        <path d="M146.835 345.781C145.661 346.833 143.867 346.807 142.274 346.691L135.016 346.165C129.251 345.744 123.288 345.271 118.202 342.551C117.664 342.307 117.187 341.948 116.806 341.499C116.401 340.811 116.191 340.028 116.195 339.231C115.508 331.439 113.945 323.747 111.534 316.298C108.348 306.381 103.57 296.606 103.634 286.226C103.634 285.973 103.634 285.7 103.634 285.473C103.724 282.222 104.303 279.007 104.658 275.772C105.248 270.358 105.189 264.902 105.147 259.462C105.192 257.33 105.043 255.197 104.701 253.091C104.366 251.381 103.108 249.666 103.878 248.162C105.37 245.242 110.78 244.168 113.689 244.063C117.607 243.926 121.462 244.942 125.247 245.952C126.4 246.262 127.605 246.594 128.475 247.399C129.643 248.483 129.978 250.182 130.02 251.765C130.222 258.789 126.139 265.323 125.815 272.336C125.757 273.599 125.815 274.967 125.072 276.019C124.582 276.592 124.049 277.128 123.479 277.624C121.887 279.355 121.839 281.964 121.95 284.311C121.998 285.258 122.051 286.205 122.115 287.152C122.982 299.791 125.559 312.257 129.776 324.216C130.183 325.493 130.716 326.727 131.369 327.899C132.434 329.544 133.765 331.005 135.308 332.223C137.495 334.074 139.838 335.736 142.311 337.19C143.962 338.158 145.725 339.084 146.856 340.62C147.987 342.156 148.236 344.487 146.835 345.781Z" fill="white" stroke="black" stroke-width="3" stroke-linecap="round"/>
        <path d="M141.524 353.146C140.351 354.199 138.556 354.172 136.964 354.057L129.706 353.531C123.94 353.11 117.978 352.636 112.892 349.916C112.353 349.672 111.876 349.313 111.495 348.864C111.091 348.176 110.88 347.393 110.885 346.596C110.198 338.804 108.634 331.112 106.223 323.663C103.038 313.746 98.2593 303.971 98.3231 293.591C98.3231 293.338 98.3231 293.065 98.3231 292.839C98.4133 289.587 98.992 286.373 99.3477 283.137C99.9371 277.723 99.8787 272.268 99.8362 266.828C99.8816 264.695 99.7323 262.563 99.3902 260.456C99.0557 258.747 97.7975 257.032 98.5673 255.527C100.059 252.607 105.469 251.534 108.379 251.428C112.297 251.292 116.151 252.307 119.937 253.317C121.089 253.628 122.294 253.959 123.165 254.764C124.333 255.848 124.667 257.547 124.71 259.131C124.912 266.154 120.829 272.689 120.505 279.702C120.447 280.964 120.505 282.332 119.762 283.384C119.271 283.957 118.739 284.494 118.169 284.989C116.576 286.72 116.528 289.329 116.64 291.676C116.688 292.623 116.741 293.57 116.804 294.517C117.672 307.156 120.248 319.622 124.466 331.581C124.872 332.858 125.406 334.092 126.058 335.264C127.124 336.91 128.454 338.371 129.998 339.589C132.185 341.439 134.528 343.101 137.001 344.555C138.652 345.523 140.414 346.449 141.545 347.985C142.676 349.522 142.926 351.852 141.524 353.146Z" fill="white" stroke="black" stroke-width="3" stroke-linecap="round"/>
        <path d="M150.498 140.389C147.912 137.233 147.843 132.824 147.907 128.773C147.907 127.195 147.955 125.564 148.013 123.959V123.922C148.085 120.973 148.399 118.035 148.953 115.136C149.232 113.745 149.605 112.374 150.068 111.032C149.718 110.954 149.367 110.88 149.006 110.817C143.441 109.728 137.715 109.728 132.149 110.817C131.188 111.006 128.757 110.964 127.371 111.432C126.977 111.526 126.633 111.765 126.41 112.101C126.139 112.663 126.697 114.294 127.1 115.741C127.322 116.393 127.447 117.074 127.472 117.761C127.418 118.408 127.319 119.049 127.175 119.682C126.925 120.844 126.596 121.997 126.442 123.175C126.171 125.185 126.41 127.231 126.277 129.257C126.145 131.282 125.555 133.413 124 134.734C133.038 135.502 141.942 137.402 150.498 140.389Z" fill="white" stroke="black" stroke-width="3" stroke-linecap="round"/>
        <path opacity="0.1" d="M126.376 118.795C127.082 118.853 127.783 118.921 128.499 119C135.571 119.749 142.55 121.194 149.333 123.314V123.278L150.273 114.492C150.273 113.966 150.273 113.439 150.273 112.887C150.273 111.987 150.299 111.077 150.32 110.172C144.755 109.083 139.029 109.083 133.464 110.172C132.503 110.362 130.071 110.32 128.685 110.788C128.685 111.645 128.685 112.503 128.653 113.36C128.619 113.944 128.539 114.525 128.415 115.097C128.161 116.517 127.445 117.816 126.376 118.795Z" fill="black"/>
        <path d="M139.77 121.209C128.921 121.209 120.126 112.494 120.126 101.743C120.126 90.9926 128.921 82.2773 139.77 82.2773C150.619 82.2773 159.414 90.9926 159.414 101.743C159.414 112.494 150.619 121.209 139.77 121.209Z" fill="white" stroke="black" stroke-width="3" stroke-linecap="round"/>
        <path d="M157.024 175.144C160.512 162.912 157.327 149.775 148.997 140.116C147.144 137.964 145.28 135.754 142.849 134.465C139.955 132.94 136.531 132.887 133.255 132.855C130.361 132.855 127.378 132.855 124.718 133.997C121.123 135.518 118.644 138.822 116.552 142.099C114.322 145.593 112.305 149.375 111.965 153.5C111.784 155.946 112.22 158.43 111.853 160.866C111.386 163.954 109.65 166.721 108.939 169.762C108.551 171.404 108.471 173.103 108.222 174.776C107.846 177.065 107.299 179.323 106.587 181.531C101.312 198.888 94.0883 215.603 85.0526 231.364C82.398 236.01 79.5575 240.603 77.7736 245.638C76.9666 247.916 76.3826 250.373 77.041 252.719C78.14 256.612 83.1041 258.901 86.8152 257.223C86.6779 257.655 86.7059 258.122 86.8939 258.536C87.0819 258.949 87.4167 259.279 87.8346 259.464C88.717 259.859 89.6816 260.039 90.6485 259.99L123.438 260.853C124.299 260.874 125.156 260.989 125.992 261.195C129.846 262.173 128.397 263.825 128.811 265.204C129.315 266.887 131.752 266.75 133.451 266.256C133.191 268.713 133.133 271.717 136.334 272.432C137.165 272.599 138.023 272.57 138.84 272.348C144.65 270.865 150.673 270.385 156.647 270.928C158.835 271.128 161.335 271.37 162.955 269.876C164.176 268.765 164.494 266.998 164.701 265.367C167.966 239.587 161.25 213.771 156.207 188.302C155.527 184.867 155.771 179.3 156.791 175.944L157.024 175.144Z" fill="#FFD749" stroke="black" stroke-width="3" stroke-linecap="round"/>
        <path fill-rule="evenodd" clip-rule="evenodd" d="M112.983 158.777C113.156 158.311 113.328 157.844 113.492 157.376C115.542 151.34 116.644 145.034 116.765 138.678L126.674 134.533C128.809 133.644 131.012 132.734 133.327 132.697C137.839 132.623 141.88 136.006 143.642 140.125C145.405 144.245 145.256 148.922 144.471 153.326C144.159 155.485 143.49 157.579 142.49 159.523C141.435 161.41 139.912 162.968 138.387 164.529C137.612 165.323 136.835 166.118 136.119 166.957C135.007 168.265 134.038 169.685 133.069 171.104C131.984 172.692 130.9 174.28 129.616 175.712C127.992 177.427 126.233 179.01 124.354 180.447C118.537 185.126 112.685 189.825 106.341 193.761C105.957 193.272 105.615 192.759 105.417 192.168C104.86 190.506 105.621 188.736 106.317 187.116C106.338 187.069 106.358 187.022 106.378 186.975C107.87 183.298 109.131 179.533 110.153 175.701C110.8 173.731 111.229 171.697 111.432 169.635C111.481 168.815 111.46 167.991 111.439 167.168C111.412 166.128 111.386 165.087 111.501 164.053C111.706 162.231 112.345 160.503 112.983 158.777ZM108.333 198.405C108.763 198.309 109.188 198.188 109.605 198.061C114.304 196.635 118.689 194.367 122.937 191.9C126.203 190.049 129.313 187.938 132.233 185.587C141.827 177.648 147.805 166.047 150.815 154.02C151.92 149.653 152.626 144.897 150.815 140.773C149.914 138.897 148.717 137.176 147.269 135.675C145.145 133.344 142.788 131.129 139.836 130.05C136.746 128.93 133.337 129.167 130.083 129.63C126.087 130.115 122.181 131.168 118.487 132.755L118.391 132.799C117.759 133.086 117.076 133.397 116.404 133.743C115.058 129.481 110.116 126.551 105.916 125.636C102.481 124.894 98.9449 125.026 95.4196 125.199L92.9827 125.32L91.4696 125.389C88.1195 125.541 84.7322 125.805 81.913 127.493C77.1666 130.34 75.4836 136.332 74.9155 141.798C74.3316 147.436 74.4865 153.167 74.641 158.882C74.8925 168.188 75.1428 177.453 72.2025 186.207C71.9926 186.831 71.7666 187.451 71.5405 188.07C71.0461 189.426 70.5517 190.781 70.2274 192.179C70.026 193.046 69.8892 193.928 69.7525 194.809C69.5685 195.994 69.3847 197.179 69.0435 198.329C68.5139 200.125 67.6213 201.782 66.7282 203.44C66.3947 204.059 66.0612 204.678 65.7465 205.305C63.8473 209.09 62.6223 213.171 62.1256 217.369C61.9012 218.597 61.9795 219.86 62.3539 221.051C63.4847 223.987 67.302 224.803 70.4716 224.576C71.1293 224.529 71.7949 224.458 72.4626 224.386C75.0126 224.113 77.5915 223.836 79.8636 224.908C80.4378 225.172 81.0164 225.522 81.5965 225.872C83.1995 226.841 84.8133 227.816 86.3727 227.012C86.987 226.637 87.5122 226.134 87.9124 225.539L94.3312 217.284C96.0794 215.165 97.6441 212.904 99.0086 210.524C99.2494 210.073 99.4776 209.613 99.7057 209.153C100.388 207.778 101.071 206.402 102.093 205.263C102.79 204.488 103.623 203.856 104.458 203.222C105.125 202.716 105.793 202.209 106.394 201.627C107.304 200.747 108.082 199.604 108.333 198.405Z" fill="white"/>
        <path d="M113.492 157.376L114.913 157.859L114.908 157.872L113.492 157.376ZM112.983 158.777L111.576 158.257L111.576 158.257L112.983 158.777ZM116.765 138.678L115.266 138.649L115.284 137.671L116.187 137.294L116.765 138.678ZM126.674 134.533L126.095 133.149L126.097 133.148L126.674 134.533ZM133.327 132.697L133.351 134.197L133.351 134.197L133.327 132.697ZM143.642 140.125L145.022 139.535L143.642 140.125ZM144.471 153.326L142.986 153.111L142.99 153.087L142.994 153.062L144.471 153.326ZM142.49 159.523L143.824 160.209L143.812 160.233L143.799 160.256L142.49 159.523ZM138.387 164.529L139.46 165.578H139.46L138.387 164.529ZM136.119 166.957L134.977 165.985L134.978 165.983L136.119 166.957ZM133.069 171.104L131.83 170.258L133.069 171.104ZM129.616 175.712L130.732 176.713L130.719 176.728L130.705 176.743L129.616 175.712ZM124.354 180.447L123.414 179.278L123.428 179.266L123.443 179.255L124.354 180.447ZM106.341 193.761L107.132 195.035L105.991 195.743L105.162 194.687L106.341 193.761ZM105.417 192.168L106.839 191.691L105.417 192.168ZM106.317 187.116L107.695 187.708L107.695 187.709L106.317 187.116ZM106.378 186.975L107.768 187.539L107.762 187.553L107.756 187.567L106.378 186.975ZM110.153 175.701L108.703 175.314L108.714 175.273L108.728 175.233L110.153 175.701ZM111.432 169.635L112.929 169.725L112.928 169.753L112.925 169.782L111.432 169.635ZM111.439 167.168L109.94 167.207V167.207L111.439 167.168ZM111.501 164.053L110.01 163.886L110.011 163.885L111.501 164.053ZM109.605 198.061L109.168 196.626L109.17 196.625L109.605 198.061ZM108.333 198.405L106.865 198.098L107.063 197.153L108.005 196.941L108.333 198.405ZM122.937 191.9L122.183 190.603L122.19 190.599L122.197 190.595L122.937 191.9ZM132.233 185.587L133.189 186.742L133.182 186.749L133.174 186.755L132.233 185.587ZM150.815 154.02L149.36 153.656L149.361 153.652L150.815 154.02ZM150.815 140.773L152.167 140.123L152.178 140.146L152.189 140.17L150.815 140.773ZM147.269 135.675L146.189 136.716L146.174 136.7L146.16 136.685L147.269 135.675ZM139.836 130.05L140.347 128.64L140.351 128.642L139.836 130.05ZM130.083 129.63L130.294 131.115L130.279 131.117L130.264 131.119L130.083 129.63ZM118.487 132.755L117.866 131.389L117.881 131.383L117.895 131.376L118.487 132.755ZM118.391 132.799L119.012 134.164L119.012 134.164L118.391 132.799ZM116.404 133.743L117.091 135.077L115.509 135.892L114.973 134.195L116.404 133.743ZM105.916 125.636L106.233 124.17L106.235 124.171L105.916 125.636ZM95.4196 125.199L95.3452 123.701L95.3458 123.701L95.4196 125.199ZM92.9827 125.32L93.0571 126.819L93.0504 126.819L92.9827 125.32ZM91.4696 125.389L91.4013 123.89L91.4018 123.89L91.4696 125.389ZM81.913 127.493L81.1416 126.207L81.1422 126.207L81.913 127.493ZM74.9155 141.798L73.4235 141.644L73.4235 141.643L74.9155 141.798ZM74.641 158.882L76.1404 158.842V158.842L74.641 158.882ZM72.2025 186.207L73.6244 186.685L73.6242 186.685L72.2025 186.207ZM71.5405 188.07L72.9497 188.584V188.584L71.5405 188.07ZM70.2274 192.179L71.6886 192.518V192.518L70.2274 192.179ZM69.7525 194.809L68.2703 194.579V194.578L69.7525 194.809ZM69.0435 198.329L67.6047 197.905L67.6054 197.902L69.0435 198.329ZM66.7282 203.44L65.4077 202.729L65.4077 202.729L66.7282 203.44ZM65.7465 205.305L64.4058 204.632L64.406 204.632L65.7465 205.305ZM62.1256 217.369L63.6152 217.545L63.6096 217.592L63.6011 217.638L62.1256 217.369ZM62.3539 221.051L60.9541 221.591L60.9371 221.546L60.9229 221.501L62.3539 221.051ZM70.4716 224.576L70.3649 223.08H70.3649L70.4716 224.576ZM72.4626 224.386L72.3026 222.895L72.3026 222.895L72.4626 224.386ZM79.8636 224.908L79.2366 226.271L79.2238 226.265L79.8636 224.908ZM81.5965 225.872L80.8207 227.156L81.5965 225.872ZM86.3727 227.012L87.155 228.292L87.1084 228.321L87.0598 228.346L86.3727 227.012ZM87.9124 225.539L86.6676 224.702L86.6965 224.659L86.7283 224.618L87.9124 225.539ZM94.3312 217.284L93.1471 216.364L93.1604 216.347L93.1741 216.33L94.3312 217.284ZM99.0086 210.524L100.332 211.231L100.321 211.251L100.31 211.27L99.0086 210.524ZM99.7057 209.153L98.362 208.487L98.362 208.487L99.7057 209.153ZM102.093 205.263L100.977 204.261L100.978 204.26L102.093 205.263ZM104.458 203.222L105.365 204.417L104.458 203.222ZM106.394 201.627L107.437 202.705V202.705L106.394 201.627ZM114.908 157.872C114.739 158.355 114.562 158.833 114.39 159.298L111.576 158.257C111.75 157.788 111.918 157.334 112.076 156.881L114.908 157.872ZM118.265 138.706C118.141 145.217 117.012 151.676 114.912 157.859L112.072 156.894C114.072 151.004 115.147 144.851 115.266 138.649L118.265 138.706ZM127.253 135.917L117.344 140.062L116.187 137.294L126.095 133.149L127.253 135.917ZM133.351 134.197C131.371 134.228 129.434 135.008 127.251 135.918L126.097 133.148C128.183 132.279 130.652 131.239 133.303 131.197L133.351 134.197ZM142.263 140.716C140.67 136.992 137.094 134.136 133.351 134.197L133.302 131.197C138.585 131.111 143.089 135.02 145.022 139.535L142.263 140.716ZM142.994 153.062C143.76 148.771 143.857 144.439 142.263 140.716L145.022 139.535C146.954 144.051 146.753 149.073 145.947 153.589L142.994 153.062ZM141.156 158.837C142.08 157.041 142.698 155.106 142.986 153.111L145.955 153.54C145.62 155.864 144.9 158.118 143.824 160.209L141.156 158.837ZM137.314 163.481C138.864 161.894 140.239 160.474 141.181 158.791L143.799 160.256C142.63 162.345 140.96 164.042 139.46 165.578L137.314 163.481ZM134.978 165.983C135.733 165.1 136.545 164.269 137.314 163.481L139.46 165.578C138.679 166.378 137.938 167.137 137.26 167.931L134.978 165.983ZM131.83 170.258C132.792 168.85 133.804 167.364 134.977 165.985L137.262 167.929C136.21 169.166 135.284 170.52 134.308 171.95L131.83 170.258ZM128.499 174.71C129.706 173.365 130.736 171.86 131.83 170.258L134.308 171.95C133.232 173.524 132.094 175.196 130.732 176.713L128.499 174.71ZM123.443 179.255C125.258 177.867 126.958 176.338 128.526 174.681L130.705 176.743C129.027 178.516 127.208 180.153 125.265 181.638L123.443 179.255ZM105.55 192.486C111.804 188.606 117.585 183.966 123.414 179.278L125.294 181.615C119.488 186.286 113.566 191.043 107.132 195.035L105.55 192.486ZM106.839 191.691C106.957 192.042 107.176 192.396 107.52 192.834L105.162 194.687C104.738 194.148 104.273 193.476 103.995 192.645L106.839 191.691ZM107.695 187.709C107.337 188.541 107.027 189.272 106.854 189.981C106.686 190.672 106.681 191.221 106.839 191.691L103.995 192.645C103.595 191.453 103.693 190.286 103.94 189.271C104.182 188.275 104.601 187.311 104.939 186.524L107.695 187.709ZM107.756 187.567C107.736 187.614 107.716 187.662 107.695 187.708L104.939 186.524C104.96 186.476 104.98 186.43 104.999 186.384L107.756 187.567ZM111.602 176.087C110.564 179.98 109.283 183.804 107.768 187.539L104.988 186.411C106.456 182.792 107.697 179.086 108.703 175.314L111.602 176.087ZM112.925 169.782C112.711 171.953 112.259 174.095 111.578 176.169L108.728 175.233C109.34 173.367 109.747 171.44 109.939 169.487L112.925 169.782ZM112.939 167.13C112.959 167.942 112.983 168.83 112.929 169.725L109.935 169.545C109.98 168.8 109.961 168.041 109.94 167.207L112.939 167.13ZM112.992 164.219C112.89 165.134 112.911 166.072 112.939 167.13L109.94 167.207C109.913 166.184 109.882 165.04 110.01 163.886L112.992 164.219ZM114.39 159.298C113.741 161.054 113.173 162.61 112.992 164.22L110.011 163.885C110.239 161.851 110.949 159.952 111.576 158.257L114.39 159.298ZM110.043 199.495C109.609 199.628 109.143 199.76 108.662 199.869L108.005 196.941C108.382 196.857 108.767 196.748 109.168 196.626L110.043 199.495ZM123.69 193.197C119.409 195.684 114.906 198.02 110.041 199.496L109.17 196.625C113.702 195.25 117.969 193.051 122.183 190.603L123.69 193.197ZM133.174 186.755C130.19 189.157 127.013 191.315 123.676 193.205L122.197 190.595C125.393 188.784 128.435 186.719 131.292 184.418L133.174 186.755ZM152.27 154.384C149.207 166.623 143.097 178.543 133.189 186.742L131.277 184.431C140.556 176.752 146.403 165.471 149.36 153.656L152.27 154.384ZM152.189 140.17C154.218 144.794 153.381 149.992 152.269 154.388L149.361 153.652C150.458 149.315 151.033 145.001 149.442 141.375L152.189 140.17ZM148.349 134.633C149.907 136.25 151.196 138.103 152.167 140.123L149.463 141.422C148.631 139.692 147.526 138.103 146.189 136.716L148.349 134.633ZM140.351 128.642C143.664 129.852 146.227 132.305 148.377 134.664L146.16 136.685C144.063 134.383 141.911 132.406 139.321 131.459L140.351 128.642ZM129.871 128.145C133.155 127.677 136.884 127.384 140.347 128.64L139.324 131.461C136.607 130.475 133.52 130.656 130.294 131.115L129.871 128.145ZM117.895 131.376C121.721 129.733 125.764 128.644 129.902 128.141L130.264 131.119C126.409 131.587 122.642 132.602 119.079 134.133L117.895 131.376ZM117.77 131.433L117.866 131.389L119.109 134.12L119.012 134.164L117.77 131.433ZM115.717 132.41C116.427 132.044 117.143 131.719 117.77 131.433L119.012 134.164C118.375 134.454 117.726 134.749 117.091 135.077L115.717 132.41ZM106.235 124.171C108.523 124.669 110.999 125.71 113.103 127.215C115.2 128.714 117.033 130.755 117.834 133.292L114.973 134.195C114.429 132.47 113.118 130.914 111.358 129.655C109.604 128.4 107.509 127.518 105.597 127.102L106.235 124.171ZM95.3458 123.701C98.8538 123.529 102.578 123.381 106.233 124.17L105.599 127.102C102.384 126.408 99.0361 126.523 95.4934 126.698L95.3458 123.701ZM92.9083 123.822L95.3452 123.701L95.494 126.698L93.0571 126.819L92.9083 123.822ZM91.4018 123.89L92.915 123.822L93.0504 126.819L91.5373 126.887L91.4018 123.89ZM81.1422 126.207C84.328 124.298 88.0837 124.042 91.4013 123.89L91.5378 126.887C88.1552 127.041 85.1364 127.311 82.6838 128.78L81.1422 126.207ZM73.4235 141.643C73.9968 136.127 75.7301 129.452 81.1416 126.207L82.6844 128.78C78.6031 131.227 76.9704 136.537 76.4074 141.953L73.4235 141.643ZM73.1415 158.923C72.9875 153.224 72.8279 147.395 73.4235 141.644L76.4075 141.953C75.8354 147.476 75.9855 153.109 76.1404 158.842L73.1415 158.923ZM70.7805 185.73C73.6219 177.27 73.3943 168.278 73.1415 158.923L76.1404 158.842C76.3906 168.098 76.6638 177.636 73.6244 186.685L70.7805 185.73ZM70.1314 187.556C70.3585 186.934 70.5779 186.332 70.7807 185.729L73.6242 186.685C73.4073 187.33 73.1746 187.968 72.9497 188.584L70.1314 187.556ZM68.7663 191.839C69.1147 190.338 69.6423 188.897 70.1314 187.556L72.9497 188.584C72.4498 189.955 71.9888 191.224 71.6886 192.518L68.7663 191.839ZM68.2703 194.578C68.4056 193.707 68.5502 192.771 68.7663 191.839L71.6886 192.518C71.5018 193.322 71.3729 194.149 71.2348 195.039L68.2703 194.578ZM67.6054 197.902C67.9131 196.865 68.0837 195.781 68.2703 194.579L71.2348 195.039C71.0534 196.207 70.8562 197.492 70.4816 198.755L67.6054 197.902ZM65.4077 202.729C66.3137 201.047 67.1267 199.526 67.6047 197.905L70.4823 198.753C69.9011 200.724 68.9288 202.518 68.0488 204.151L65.4077 202.729ZM64.406 204.632C64.732 203.983 65.0759 203.345 65.4077 202.729L68.0488 204.151C67.7136 204.774 67.3903 205.374 67.0869 205.978L64.406 204.632ZM60.636 217.192C61.1532 212.821 62.4287 208.572 64.4058 204.632L67.0871 205.978C65.2659 209.607 64.0915 213.52 63.6152 217.545L60.636 217.192ZM60.9229 221.501C60.4754 220.077 60.3817 218.567 60.65 217.099L63.6011 217.638C63.4206 218.626 63.4835 219.643 63.7849 220.602L60.9229 221.501ZM70.5784 226.073C68.8466 226.196 66.8775 226.043 65.1356 225.409C63.3847 224.773 61.7245 223.591 60.9541 221.591L63.7536 220.512C64.1141 221.448 64.928 222.142 66.1609 222.59C67.4027 223.042 68.9271 223.183 70.3649 223.08L70.5784 226.073ZM72.6226 225.878C71.9597 225.949 71.2673 226.023 70.5784 226.073L70.3649 223.08C70.9913 223.035 71.6302 222.967 72.3026 222.895L72.6226 225.878ZM79.2238 226.265C77.3998 225.404 75.2662 225.594 72.6226 225.878L72.3026 222.895C74.759 222.631 77.7833 222.268 80.5035 223.551L79.2238 226.265ZM80.8207 227.156C80.2249 226.796 79.7201 226.493 79.2366 226.27L80.4907 223.545C81.1554 223.851 81.8079 224.247 82.3722 224.588L80.8207 227.156ZM87.0598 228.346C85.8115 228.989 84.5745 228.877 83.5296 228.531C82.5399 228.203 81.5857 227.618 80.8207 227.156L82.3722 224.588C83.2103 225.095 83.8644 225.482 84.4723 225.683C85.0249 225.866 85.3745 225.839 85.6856 225.679L87.0598 228.346ZM89.1572 226.376C88.636 227.151 87.9528 227.805 87.155 228.292L85.5904 225.732C86.0212 225.469 86.3884 225.117 86.6676 224.702L89.1572 226.376ZM95.5154 218.205L89.0965 226.46L86.7283 224.618L93.1471 216.364L95.5154 218.205ZM100.31 211.27C98.9032 213.723 97.2903 216.055 95.4883 218.239L93.1741 216.33C94.8685 214.276 96.385 212.084 97.7074 209.778L100.31 211.27ZM101.049 209.82C100.823 210.277 100.585 210.757 100.332 211.231L97.6855 209.817C97.9139 209.39 98.1322 208.95 98.362 208.487L101.049 209.82ZM103.21 206.265C102.347 207.227 101.748 208.412 101.049 209.82L98.362 208.487C99.0283 207.144 99.795 205.578 100.977 204.261L103.21 206.265ZM105.365 204.417C104.51 205.065 103.794 205.614 103.209 206.266L100.978 204.26C101.786 203.361 102.736 202.646 103.551 202.027L105.365 204.417ZM107.437 202.705C106.76 203.36 106.019 203.92 105.365 204.417L103.551 202.027C104.23 201.512 104.825 201.058 105.351 200.549L107.437 202.705ZM109.801 198.712C109.468 200.304 108.476 201.699 107.437 202.705L105.351 200.55C106.132 199.794 106.696 198.905 106.865 198.098L109.801 198.712Z" fill="black"/>
        <path d="M154.818 97.0612C150.985 96.2175 147.439 94.405 144.523 91.8001L147.332 106.405C144.534 105.132 141.821 103.684 139.209 102.07C138.832 108.751 139.379 115.586 141.863 121.804C144.348 128.023 148.93 133.589 155.078 136.351C149.62 137.256 144.72 133.373 139.862 130.748C136.474 128.922 130.687 130.801 126.981 129.696C123.838 128.78 120.61 127.981 117.775 126.344C112.509 123.298 111.314 114.402 110.247 108.457C109.18 102.512 110.151 96.3562 111.925 90.569C112.515 88.5194 113.313 86.5346 114.308 84.645C115.676 82.1635 117.548 79.9902 119.807 78.2622C122.065 76.5343 124.661 75.2893 127.429 74.606C130.198 73.9227 133.08 73.8159 135.892 74.2924C138.705 74.7688 141.387 75.8182 143.769 77.3742C148.664 80.5676 153.204 85.2658 156.941 89.7219C157.472 90.3375 159.665 92.5261 158.938 93.4468C158.051 94.5622 152.848 91.3845 151.967 90.9531C152.221 91.9053 153.804 96.8139 154.818 97.0612Z" fill="black"/>
        <g opacity="0.1">
            <path opacity="0.1" d="M134.728 268.221C135.559 268.388 136.417 268.359 137.234 268.137C143.044 266.654 149.067 266.174 155.041 266.717C157.229 266.916 159.729 267.159 161.349 265.664C162.57 264.554 162.888 262.787 163.095 261.156C166.36 235.376 159.644 209.56 154.601 184.091C153.921 180.656 154.165 175.089 155.185 171.733L155.423 170.917C157.389 163.962 157.273 156.59 155.089 149.699C158.711 157.696 159.397 166.697 157.027 175.142L156.788 175.957C155.769 179.314 155.524 184.901 156.204 188.316C161.232 213.785 167.948 239.617 164.699 265.38C164.492 267.011 164.168 268.779 162.952 269.889C161.359 271.367 158.832 271.125 156.645 270.941C150.671 270.398 144.647 270.879 138.837 272.362C138.02 272.584 137.162 272.613 136.332 272.446C133.719 271.862 133.279 269.752 133.342 267.664C133.767 267.931 134.236 268.12 134.728 268.221Z" fill="black"/>
            <path opacity="0.1" d="M85.2109 253.011C85.0736 253.443 85.1016 253.911 85.2896 254.324C85.4775 254.737 85.8124 255.067 86.2303 255.252C87.1126 255.647 88.0773 255.827 89.0442 255.778L121.834 256.641C122.695 256.662 123.551 256.777 124.388 256.983C128.242 257.961 126.793 259.613 127.207 260.992C127.711 262.675 130.148 262.539 131.847 262.044C131.688 263.543 131.608 265.243 132.293 266.505C130.801 266.726 129.198 266.532 128.8 265.201C128.401 263.87 129.835 262.17 125.98 261.192C125.144 260.986 124.288 260.871 123.427 260.85L90.6582 259.987C89.6913 260.036 88.7267 259.856 87.8443 259.461C87.4264 259.276 87.0915 258.946 86.9035 258.533C86.7156 258.119 86.6876 257.652 86.8249 257.22C83.1085 258.898 78.1497 256.609 77.0507 252.716C76.8851 252.126 76.7924 251.518 76.7746 250.906C78.7602 253.263 82.3545 254.315 85.2109 253.011Z" fill="black"/>
        </g>
        <path d="M123 146.348C122 150.5 120.5 156 120 160.5C119.5 165 118.454 171.575 119.033 176.837C119.612 182.098 122.749 187.411 127.846 189.069C130.012 189.774 132.333 189.779 134.61 189.831C140.066 189.958 145.509 190.394 150.915 191.136C153.43 191.549 155.967 191.828 158.512 191.973C162.112 192.088 165.712 191.531 169.301 191.82C175.109 192.288 180.625 194.977 186.455 194.977C187.166 195.02 187.877 194.89 188.525 194.598C189.587 194.03 190.06 192.799 190.421 191.662C191.233 189.095 191.87 186.149 190.495 183.829C188.801 180.972 184.952 180.398 181.613 180.146C174.095 179.62 166.568 179.251 159.033 179.041C152.603 178.862 145.637 178.62 140.652 174.59C140.316 174.352 140.041 174.038 139.85 173.675C139.662 173.059 139.685 172.398 139.914 171.796C141.89 164.145 142.738 156.25 142.431 148.358C142.465 147.65 142.28 146.949 141.9 146.348C141.449 145.867 140.863 145.53 140.217 145.38C135.766 143.965 131 143.834 126.477 145.002" fill="white"/>
        <path d="M123 146.348C122 150.5 120.5 156 120 160.5C119.5 165 118.454 171.575 119.033 176.837C119.612 182.098 122.749 187.411 127.846 189.069C130.012 189.774 132.333 189.779 134.61 189.831C140.066 189.958 145.509 190.394 150.915 191.136C153.43 191.548 155.967 191.828 158.512 191.973C162.112 192.088 165.712 191.531 169.301 191.82C175.109 192.288 180.625 194.977 186.455 194.977C187.166 195.02 187.877 194.89 188.525 194.598C189.587 194.03 190.06 192.799 190.421 191.662C191.233 189.095 191.87 186.149 190.495 183.829C188.801 180.972 184.952 180.398 181.613 180.146C174.095 179.62 166.568 179.251 159.033 179.041C152.603 178.862 145.637 178.62 140.652 174.59C140.316 174.352 140.041 174.038 139.85 173.675C139.662 173.059 139.685 172.398 139.914 171.796C141.89 164.145 142.738 156.25 142.431 148.358C142.465 147.65 142.28 146.949 141.9 146.348C141.449 145.867 140.863 145.53 140.217 145.38C135.766 143.965 131 143.834 126.477 145.002" stroke="black" stroke-width="3" stroke-linecap="round"/>
        <path d="M142.565 148.352C143.336 148.614 144.006 149.104 144.487 149.756C144.275 147.562 144.562 145.347 144.519 143.138C144.477 140.928 144.062 138.624 142.656 136.909C140.866 134.72 137.824 133.936 134.978 133.862C130.848 133.752 126.574 134.941 123.548 137.729C121.6 139.537 120.335 141.95 119.964 144.569C119.868 145.29 119.55 147.994 120.309 148.457C120.973 148.867 123.495 147.452 124.307 147.226C130.338 145.469 136.8 145.868 142.565 148.352Z" fill="#FFD749" stroke="black" stroke-width="3" stroke-linecap="round"/>
    </g>
    <defs>
        <clipPath id="clip0">
            <rect width="540" height="254" rx="8" fill="white"/>
        </clipPath>
    </defs>
</svg>
