<svg width="193" height="112" viewBox="0 0 193 112" fill="none" xmlns="http://www.w3.org/2000/svg">
    <path fill-rule="evenodd" clip-rule="evenodd" d="M83 94.0606V0L20.9804 1.83626L15 1.99703V2.86729L20.6447 4.47548L69.2655 18.76V107.34L64.7181 109.088L64.7204 21.023L36.3188 12.1109V36.4023L25.7635 32.629V48.7448L15.0163 44.903V95.7455L64.7159 112L71.9387 109.115V16.7404L29.5229 4.27813L80.3245 2.77381V91.8685L74.9413 92.9925V95.657L83 94.0606Z" fill="black"/>
    <path d="M14 6L32 11.6573V31L14 24.7434V6Z" fill="black"/>
    <path d="M10 9.50211L0 6V16.4952L10 20V9.50211Z" fill="black"/>
    <path d="M1 23L7 24.8592V30L1 28.1408V23Z" fill="black"/>
    <path d="M21 32.7178L11 29V39.2818L21 43V32.7178Z" fill="black"/>
    <path d="M54 66C55.1046 66 56 64.8807 56 63.5C56 62.1193 55.1046 61 54 61C52.8954 61 52 62.1193 52 63.5C52 64.8807 52.8954 66 54 66Z" fill="white"/>
    <path d="M95.3105 49.9474V31.2825H101.034C102.567 31.2566 104.08 31.6416 105.415 32.3975C106.708 33.1324 107.76 34.228 108.44 35.5507C109.183 36.9835 109.558 38.5788 109.529 40.1924V41.0505C109.559 42.6579 109.19 44.2477 108.456 45.6778C107.782 46.994 106.738 48.0854 105.454 48.8183C104.118 49.5728 102.607 49.9622 101.073 49.9474H95.3105ZM99.143 34.3986V46.8579H100.995C102.494 46.8579 103.639 46.3665 104.431 45.3838C105.223 44.4011 105.627 42.9953 105.644 41.1666V40.1784C105.644 38.2816 105.253 36.8459 104.47 35.8714C103.687 34.8886 102.542 34.3973 101.034 34.3973L99.143 34.3986Z" fill="black"/>
    <path d="M120.094 49.9478C119.906 49.5554 119.781 49.1356 119.724 48.704C119.289 49.1951 118.75 49.5842 118.147 49.8435C117.545 50.1027 116.892 50.2258 116.236 50.2038C115.004 50.247 113.8 49.8262 112.863 49.0247C112.436 48.6581 112.095 48.2012 111.865 47.6869C111.635 47.1727 111.523 46.6139 111.535 46.0508C111.502 45.3962 111.633 44.7436 111.916 44.1526C112.199 43.5616 112.626 43.0508 113.157 42.6668C114.248 41.8807 115.819 41.4833 117.871 41.4745H119.57V40.6797C119.599 40.1234 119.422 39.576 119.074 39.1415C118.875 38.936 118.633 38.7776 118.366 38.6778C118.098 38.578 117.812 38.5393 117.528 38.5648C117 38.5348 116.479 38.6938 116.059 39.0132C115.884 39.1656 115.746 39.3554 115.656 39.5685C115.565 39.7816 115.523 40.0125 115.535 40.2439H111.84C111.84 39.4399 112.1 38.6575 112.581 38.0133C113.118 37.2962 113.843 36.7416 114.676 36.411C115.638 36.0061 116.673 35.8053 117.717 35.8212C119.42 35.8212 120.77 36.2528 121.766 37.116C122.274 37.5651 122.674 38.1236 122.935 38.7494C123.196 39.3751 123.312 40.052 123.274 40.7289V46.7413C123.224 47.7659 123.412 48.788 123.823 49.7278V49.946L120.094 49.9478ZM117.041 47.3713C117.565 47.3763 118.083 47.253 118.548 47.0123C118.98 46.7922 119.335 46.4485 119.57 46.025V43.6396H118.191C116.343 43.6396 115.359 44.2806 115.24 45.5626L115.227 45.7803C115.221 45.9941 115.261 46.2068 115.345 46.4036C115.429 46.6005 115.554 46.777 115.712 46.921C116.081 47.2362 116.557 47.3969 117.041 47.3699V47.3713Z" fill="black"/>
    <path d="M131.132 44.3835L129.803 45.7167V49.9483H126.111V30.2578H129.803V41.1662L130.518 40.2431L134.057 36.0774H138.49L133.495 41.8581L138.924 49.9465H134.683L131.132 44.3835Z" fill="black"/>
    <path d="M147.573 46.1142C147.572 45.8909 147.508 45.6723 147.388 45.484C147.268 45.2956 147.097 45.1452 146.895 45.0502C146.221 44.7058 145.497 44.468 144.749 44.3452C141.462 43.6527 139.818 42.2512 139.818 40.1407C139.813 39.5446 139.947 38.9557 140.211 38.4213C140.476 37.8869 140.861 37.4221 141.338 37.0642C142.485 36.1948 143.9 35.7549 145.337 35.8209C147.091 35.8209 148.493 36.2354 149.54 37.0642C150.043 37.437 150.449 37.9247 150.725 38.4867C151 39.0487 151.137 39.6685 151.124 40.2942H147.432C147.44 40.0526 147.4 39.8118 147.312 39.5866C147.224 39.3614 147.091 39.1565 146.921 38.9845C146.704 38.7937 146.451 38.6488 146.176 38.5585C145.902 38.4681 145.612 38.4342 145.324 38.4588C144.808 38.426 144.296 38.5758 143.879 38.882C143.716 39.0098 143.586 39.1735 143.497 39.3603C143.408 39.5471 143.364 39.7519 143.368 39.9587C143.368 40.161 143.422 40.3598 143.523 40.5352C143.623 40.7106 143.768 40.8565 143.943 40.9585C144.558 41.2843 145.223 41.5053 145.91 41.6125C146.7 41.757 147.477 41.9626 148.235 42.2276C150.186 42.9454 151.161 44.1887 151.161 45.9575C151.169 46.565 151.025 47.1648 150.741 47.7022C150.458 48.2396 150.045 48.6975 149.539 49.0339C148.301 49.8573 146.833 50.2658 145.348 50.2004C144.285 50.2198 143.231 50.01 142.257 49.5853C141.417 49.2111 140.691 48.6233 140.149 47.8805C139.652 47.1991 139.384 46.3781 139.381 45.5348H142.882C142.882 45.8254 142.947 46.1122 143.073 46.374C143.199 46.6358 143.383 46.8659 143.61 47.0473C144.138 47.4213 144.777 47.6065 145.424 47.5729C145.985 47.6118 146.544 47.4728 147.021 47.1755C147.193 47.0576 147.333 46.899 147.43 46.7139C147.526 46.5288 147.575 46.3228 147.573 46.1142Z" fill="black"/>
    <path d="M157.154 37.5898C157.591 37.03 158.152 36.579 158.793 36.2721C159.433 35.9652 160.136 35.8107 160.846 35.8208C163.844 35.8208 165.364 37.5684 165.407 41.0637V49.9483H161.715V41.1662C161.767 40.5379 161.586 39.9126 161.205 39.4103C160.979 39.1987 160.71 39.0378 160.417 38.9383C160.124 38.8389 159.813 38.8031 159.505 38.8336C159.035 38.8016 158.566 38.9025 158.151 39.1247C157.735 39.3469 157.391 39.6814 157.157 40.09V49.9483H153.465V30.2578H157.157L157.154 37.5898Z" fill="black"/>
    <path d="M173.353 44.7048L175.907 36.0789H179.868L174.313 52.1018L174.006 52.8325C173.177 54.6435 171.814 55.549 169.918 55.549C169.364 55.5464 168.813 55.4644 168.283 55.3056V52.4983L168.845 52.511C169.384 52.5469 169.922 52.4362 170.403 52.1908C170.785 51.9356 171.073 51.5617 171.221 51.1268L171.655 49.986L166.814 36.0762H170.788L173.353 44.7048Z" fill="black"/>
    <path d="M189.129 49.9478C188.941 49.5553 188.816 49.1355 188.759 48.704C188.324 49.1952 187.786 49.5843 187.183 49.8436C186.58 50.1028 185.927 50.2258 185.271 50.2038C184.039 50.2469 182.836 49.8261 181.899 49.0247C181.471 48.6582 181.13 48.2013 180.9 47.6871C180.671 47.1728 180.558 46.6139 180.57 46.0508C180.537 45.3962 180.668 44.7436 180.951 44.1526C181.235 43.5616 181.661 43.0508 182.192 42.6668C183.283 41.8807 184.854 41.4833 186.906 41.4745H188.605V40.6797C188.634 40.1234 188.457 39.5759 188.109 39.1415C187.91 38.936 187.669 38.7775 187.401 38.6777C187.134 38.5779 186.847 38.5393 186.563 38.5648C186.035 38.5348 185.514 38.6938 185.094 39.0132C184.919 39.1656 184.782 39.3554 184.691 39.5686C184.6 39.7817 184.559 40.0126 184.57 40.2439H180.878C180.878 39.44 181.138 38.6577 181.619 38.0133C182.156 37.2963 182.881 36.7417 183.714 36.411C184.676 36.0061 185.711 35.8053 186.755 35.8212C188.458 35.8212 189.807 36.2528 190.804 37.116C191.312 37.5651 191.712 38.1235 191.973 38.7493C192.234 39.3751 192.35 40.0519 192.312 40.7289V46.7413C192.262 47.7659 192.449 48.7882 192.86 49.7283V49.9464L189.129 49.9478ZM186.076 47.3713C186.6 47.3762 187.118 47.253 187.583 47.0123C188.015 46.7924 188.371 46.4486 188.605 46.025V43.6396H187.226C185.378 43.6396 184.394 44.2806 184.275 45.5626L184.262 45.7803C184.256 45.9942 184.296 46.2069 184.38 46.4038C184.464 46.6007 184.589 46.7771 184.748 46.921C185.116 47.2363 185.592 47.3971 186.076 47.3699V47.3713Z" fill="black"/>
    <path d="M105.86 77.701H104.04L97.1306 66.7985V77.701H95.3105V63.5527H97.1301L104.059 74.504V63.5527H105.86V77.701Z" fill="black"/>
    <path d="M113.034 77.8968C112.404 77.9191 111.777 77.8056 111.194 77.564C110.612 77.3224 110.088 76.9585 109.659 76.4968C108.756 75.4586 108.289 74.1108 108.358 72.7362V72.4061C108.341 71.4454 108.537 70.4928 108.933 69.6173C109.286 68.8384 109.847 68.1723 110.555 67.693C111.221 67.2365 112.01 66.9926 112.817 66.9934C113.402 66.9628 113.986 67.0689 114.523 67.3034C115.06 67.5379 115.534 67.8942 115.909 68.3442C116.645 69.2448 117.012 70.5338 117.013 72.2114V72.9598H110.103C110.086 73.8764 110.396 74.7691 110.98 75.4766C111.245 75.7842 111.576 76.029 111.948 76.1937C112.319 76.3584 112.723 76.4388 113.129 76.4291C113.677 76.4466 114.218 76.312 114.694 76.0402C115.131 75.7726 115.512 75.4227 115.816 75.0101L116.881 75.8655C116.483 76.5196 115.915 77.0539 115.238 77.4115C114.56 77.7691 113.799 77.9368 113.034 77.8968ZM112.817 68.4711C112.481 68.4657 112.149 68.5343 111.842 68.672C111.536 68.8097 111.264 69.0131 111.045 69.2678C110.525 69.8951 110.214 70.6702 110.159 71.4834H115.269V71.3479C115.27 70.5821 115.018 69.8373 114.552 69.2299C114.34 68.9796 114.073 68.7812 113.772 68.6497C113.472 68.5182 113.145 68.4571 112.817 68.4711Z" fill="black"/>
    <path d="M127.657 72.562C127.723 73.9318 127.35 75.2868 126.592 76.4297C126.272 76.8959 125.84 77.2746 125.336 77.5309C124.832 77.7873 124.272 77.9131 123.707 77.897C123.16 77.9242 122.614 77.8294 122.108 77.6192C121.603 77.4091 121.15 77.089 120.784 76.6821V81.7447H119.04V67.1882H120.633L120.718 68.3543C121.067 67.9076 121.518 67.551 122.033 67.3144C122.548 67.0777 123.112 66.9679 123.678 66.994C124.242 66.9746 124.803 67.0949 125.309 67.3441C125.816 67.5933 126.253 67.9637 126.582 68.4225C127.298 69.3748 127.657 70.6995 127.657 72.3967V72.562ZM125.913 72.3579C125.966 71.3684 125.709 70.387 125.177 69.5511C124.955 69.2229 124.654 68.9564 124.301 68.7762C123.948 68.5961 123.556 68.5083 123.16 68.5209C122.666 68.5068 122.179 68.636 121.757 68.893C121.336 69.1499 120.998 69.5236 120.784 69.9688V74.9926C121.001 75.4386 121.342 75.812 121.767 76.0673C122.192 76.3227 122.682 76.4491 123.178 76.431C123.568 76.4412 123.955 76.353 124.302 76.1746C124.649 75.9963 124.946 75.7335 125.165 75.4104C125.663 74.723 125.912 73.7055 125.913 72.3579Z" fill="black"/>
    <path d="M136.179 77.7008C136.043 77.3456 135.961 76.9723 135.934 76.593C135.571 77.0051 135.124 77.3347 134.623 77.5594C134.122 77.784 133.579 77.8987 133.03 77.8955C132.122 77.9304 131.235 77.6175 130.55 77.0207C130.238 76.7398 129.991 76.3945 129.825 76.0086C129.659 75.6228 129.578 75.2055 129.589 74.7856C129.566 74.2949 129.664 73.806 129.874 73.362C130.085 72.9181 130.401 72.5327 130.796 72.2399C131.606 71.6311 132.744 71.3265 134.209 71.3262H135.905V70.5007C135.919 70.2273 135.878 69.9539 135.784 69.6967C135.691 69.4396 135.546 69.204 135.359 69.004C135.143 68.8048 134.888 68.652 134.611 68.555C134.334 68.4581 134.04 68.4191 133.747 68.4404C133.185 68.4212 132.634 68.5925 132.182 68.9263C131.99 69.0567 131.832 69.2316 131.722 69.436C131.612 69.6404 131.553 69.8684 131.549 70.1006H129.796C129.805 69.5502 129.993 69.0179 130.333 68.5849C130.717 68.0776 131.223 67.6763 131.804 67.4188C132.447 67.1294 133.145 66.9834 133.85 66.9912C134.854 66.9322 135.842 67.259 136.612 67.9048C136.951 68.2243 137.219 68.612 137.398 69.0423C137.577 69.4726 137.663 69.9359 137.651 70.4018V75.2413C137.621 76.025 137.742 76.8071 138.009 77.5446V77.6999L136.179 77.7008ZM133.285 76.3306C133.833 76.3302 134.372 76.179 134.84 75.8934C135.303 75.6317 135.674 75.2351 135.905 74.7567V72.5994H134.538C132.401 72.5994 131.332 73.244 131.332 74.5332C131.319 74.7803 131.361 75.0272 131.456 75.2558C131.55 75.4844 131.695 75.689 131.879 75.8546C132.272 76.1824 132.773 76.3521 133.285 76.3306Z" fill="black"/>
    <path d="M142.279 77.7009H140.534V62.7754H142.279V77.7009Z" fill="black"/>
</svg>
