<svg width="40" height="36" viewBox="0 0 40 36" fill="none" xmlns="http://www.w3.org/2000/svg">
    <path d="M2.05043 35.6543L14.5218 35.6543C15.6541 35.6543 16.573 34.7354 16.573 33.6031L16.573 21.1317C16.573 19.9994 15.6541 19.0805 14.5218 19.0805L8.55277 19.0805C8.63071 15.815 9.38966 13.2018 10.8255 11.2367C11.9578 9.68601 13.6726 8.40195 15.9658 7.38866C17.0202 6.92508 17.4755 5.67795 16.9832 4.6359L15.5064 1.51806C15.0305 0.517113 13.8531 0.0781095 12.8357 0.517109C10.1199 1.6904 7.8266 3.17548 5.95594 4.98054C3.67495 7.18354 2.11197 9.6696 1.26687 12.4428C0.421726 15.2161 -0.000782464 18.9985 -0.000782884 23.7983L-0.000783741 33.6031C-0.00078384 34.7353 0.9182 35.6543 2.05043 35.6543Z" fill="#000000"/>
    <path d="M35.6499 0.525337C32.9669 1.69453 30.686 3.17956 28.803 4.98056C26.5015 7.18355 24.9303 9.66141 24.0852 12.4141C23.2401 15.1668 22.8176 18.9616 22.8176 23.7983L22.8176 33.6031C22.8176 34.7354 23.7365 35.6543 24.8688 35.6543L37.3402 35.6543C38.4724 35.6543 39.3914 34.7354 39.3914 33.6031L39.3914 21.1318C39.3914 19.9994 38.4724 19.0805 37.3402 19.0805L31.3711 19.0805C31.4491 15.815 32.208 13.2018 33.6439 11.2367C34.7761 9.68603 36.491 8.40197 38.7842 7.38867C39.8385 6.9251 40.2939 5.67797 39.8016 4.63592L38.3288 1.52629C37.8529 0.525337 36.6673 0.082237 35.6499 0.525337Z" fill="#000000"/>
</svg>
