<svg width="300" height="300" viewBox="0 0 300 300" fill="none" xmlns="http://www.w3.org/2000/svg">
<rect y="48" width="300" height="165" rx="10" fill="black"/>
<rect x="98" y="237" width="104" height="16" rx="4" fill="black"/>
<rect x="144" y="213" width="12" height="32" fill="black"/>
<g clip-path="url(#clip0)">
<rect x="8" y="56" width="284" height="149" rx="10" fill="white"/>
<path d="M83.4241 157.224C83.4241 157.224 85.7082 169.416 80.6092 173.396C75.5101 177.377 84.9303 201.236 100.474 198.45C116.018 195.664 122.352 175.652 122.352 175.652C122.352 175.652 106.783 172.47 112.555 156.297L83.4241 157.224Z" fill="white" stroke="black" stroke-width="3" stroke-linecap="round"/>
<path d="M96.9998 166.892C111.001 166.892 122.351 155.372 122.351 141.162C122.351 126.952 111.001 115.433 96.9998 115.433C82.9986 115.433 71.6484 126.952 71.6484 141.162C71.6484 155.372 82.9986 166.892 96.9998 166.892Z" fill="white" stroke="black" stroke-width="3" stroke-linecap="round"/>
<path d="M139.757 189.666V207H55V190.453C54.9999 188.355 55.622 186.304 56.7887 184.555C57.9554 182.806 59.6149 181.437 61.56 180.62L63.9884 179.593C70.1365 176.991 77.6063 173.76 80.0471 172.416C80.3144 172.284 80.566 172.122 80.7971 171.934C82.1313 170.608 81.8669 172.331 81.8669 172.331C81.8669 172.331 81.83 172.661 81.8054 173.229C81.6579 177.132 82.2235 192.469 100.317 191.193C117.968 189.971 118.761 178.109 118.583 174.621C118.573 174.299 118.546 173.976 118.503 173.656C119.724 173.945 120.919 174.333 122.075 174.817C125.764 176.173 131.211 178.347 132.668 179.373C133.123 179.691 133.676 180.021 134.279 180.357C134.962 180.736 135.602 181.188 136.185 181.707C137.309 182.71 138.208 183.937 138.824 185.308C139.439 186.68 139.757 188.164 139.757 189.666Z" fill="#FFD749" stroke="black" stroke-width="3" stroke-linecap="round"/>
<path d="M64.4956 141.884C65.4419 141.646 66.4373 141.699 67.3535 142.036C68.2697 142.373 69.0646 142.979 69.6357 143.775C70.6733 145.24 70.8303 147.007 70.96 148.698C72.1955 148.959 72.8918 147.55 73.0078 146.484C73.4652 142.145 73.4993 137.724 74.9464 133.53C76.3936 129.336 79.5541 125.279 84.4075 123.677C86.0659 123.098 87.8379 122.928 89.5749 123.182C90.6056 123.354 91.5749 123.718 92.5988 123.869C96.1484 124.461 100.005 122.769 103.33 123.945C105.418 124.688 106.743 126.4 107.719 128.112C108.143 129.035 108.72 129.879 109.425 130.608C110.838 131.887 113.05 132.217 115.077 132.615C117.105 133.014 119.316 133.709 120.183 135.283C120.961 136.707 120.388 138.35 120.129 139.89C119.728 142.33 120.133 144.835 121.282 147.02C121.658 147.708 122.422 148.54 123.33 148.313C123.737 148.175 124.081 147.894 124.299 147.522C126.627 144.236 126.566 139.959 129.487 136.995C130.463 136.005 131.726 135.235 132.675 134.245C133.393 133.511 133.92 132.61 134.208 131.621C134.496 130.633 134.537 129.588 134.327 128.579C133.801 126.31 131.999 124.454 130.545 122.46C128.657 119.934 127.282 117.058 126.497 113.996C126.361 113.64 126.361 113.245 126.497 112.889C126.773 112.528 127.128 112.236 127.535 112.036C128.326 111.502 128.897 110.695 129.141 109.768C129.385 108.84 129.285 107.855 128.859 106.996C128.033 105.298 126.218 104.005 124.17 103.235C122.093 102.548 119.948 102.087 117.774 101.86C116.34 102.066 114.661 101.248 114.217 100.093C114.019 99.5771 114.019 99.0202 113.821 98.5045C113.553 97.9866 113.165 97.5414 112.689 97.2063C112.214 96.8712 111.666 96.6562 111.091 96.5793C109.87 96.3804 108.62 96.4698 107.439 96.8406C106.074 97.2256 104.524 97.8032 103.343 97.1293C102.722 96.7787 102.381 96.1392 101.712 95.8504C100.347 95.2729 98.9403 96.4418 97.9642 97.4044C97.0236 98.4144 95.8685 99.1971 94.5853 99.694C93.9077 99.954 93.1824 100.063 92.459 100.015C91.7356 99.9661 91.0312 99.7605 90.394 99.4121C89.4588 98.8139 88.9878 97.8513 88.2438 97.0881C86.8383 95.8257 85.04 95.0963 83.1583 95.0253C81.2233 94.9219 79.2845 95.1356 77.4175 95.6579C73.854 96.5327 70.4509 97.9716 67.3353 99.9209C65.768 100.788 64.4383 102.033 63.4649 103.544C62.8888 104.703 62.5918 105.982 62.5979 107.278C62.4478 111.342 63.7857 115.618 67.2739 118.465C65.1441 119.359 64.4274 121.552 63.929 123.498C63.1304 126.606 62.3317 129.762 62.6321 132.925C62.7823 134.561 63.226 136.198 62.987 137.827C62.7955 138.595 62.6902 139.381 62.673 140.172C62.7734 140.608 63.0004 141.003 63.325 141.308C63.6497 141.613 64.0572 141.814 64.4956 141.884Z" fill="black"/>
<path d="M186 111H250V175H186V111Z" fill="#FFD749" stroke="black" stroke-width="3" stroke-linecap="round"/>
<path d="M190 77L230 141H150L190 77Z" fill="white" stroke="black" stroke-width="3" stroke-linecap="round"/>
</g>
<defs>
<clipPath id="clip0">
<rect x="8" y="56" width="284" height="149" rx="10" fill="white"/>
</clipPath>
</defs>
</svg>
