<svg width="540" height="346" viewBox="0 0 540 346" fill="none" xmlns="http://www.w3.org/2000/svg">
<g clip-path="url(#clip0)">
<g clip-path="url(#clip1)">
<path d="M124.99 163.157C124.99 163.157 122.678 184.466 119.994 204.281C125.052 216.364 141.655 236.808 141.655 236.808L169.227 230.654C169.227 230.654 154.282 194.09 165.855 177.146C177.427 160.203 124.99 163.157 124.99 163.157Z" fill="white" stroke="black" stroke-width="3" stroke-linecap="round"/>
<path d="M157.261 193.73C176.332 193.73 191.792 177.81 191.792 158.173C191.792 138.536 176.332 122.616 157.261 122.616C138.19 122.616 122.729 138.536 122.729 158.173C122.729 177.81 138.19 193.73 157.261 193.73Z" fill="white" stroke="black" stroke-width="3" stroke-linecap="round"/>
<path d="M184.337 147.494C188.978 148.098 194.89 146.593 195.782 142.133C196.915 136.487 189.146 132.822 187.948 127.219C187.494 125.088 188.035 122.901 187.772 120.763C187.217 116.41 183.606 113.072 179.952 110.579C168.388 102.695 154.322 99.0489 140.253 100.288C138.513 100.452 136.679 100.722 135.334 101.801C133.807 103.023 133.215 105.004 132.17 106.645C128.574 112.284 120.476 112.951 114.725 116.466C107.95 120.578 104.602 128.653 104.295 136.408C103.989 144.164 106.269 151.77 108.52 159.213C110.435 165.547 112.444 172.046 116.647 177.23C120.849 182.414 127.829 186.036 134.421 184.474C131.395 182.343 133.595 177.436 136.869 175.717C140.143 173.999 144.177 173.7 147.02 171.314C149.863 168.928 150.675 165.036 151.574 161.492C152.728 157.018 154.395 152.487 157.749 149.22C164.334 142.821 176.225 146.451 184.337 147.494Z" fill="black"/>
<path d="M361.553 184.036C361.553 184.036 364.661 216.959 359.222 224.562C353.783 232.164 380.965 236.418 383.296 236.418C385.627 236.418 410.478 227.133 415.133 224.562C419.788 221.99 423.673 203.458 423.673 203.458C423.673 203.458 400.376 208.526 393.39 179.004L361.553 184.036Z" fill="white" stroke="black" stroke-width="3" stroke-linecap="round"/>
<path d="M352.1 100.936C345.747 103.163 339.887 107.43 337.178 113.444C336.236 115.534 335.669 117.818 334.3 119.68C331.245 123.818 325.282 124.598 321.049 127.555C315.602 131.386 313.585 138.588 314.343 145.089C315.101 151.59 318.164 157.583 321.182 163.425C324.355 169.561 327.638 175.847 332.842 180.486C335.272 182.634 338.253 184.667 339.026 187.789C339.689 190.467 338.518 193.266 338.761 196.008C339.365 202.788 347.698 205.946 354.654 206.697C357.68 207.027 361.14 207.041 363.275 204.929C364.364 203.841 364.916 202.366 365.601 201.006C367.184 197.89 369.623 195.262 372.649 193.413C375.674 191.564 379.167 190.566 382.74 190.53C386.313 190.495 389.826 191.423 392.89 193.211C395.954 194.999 398.448 197.578 400.096 200.662C401.731 203.712 402.68 207.42 405.647 209.253C410.189 212.117 416.269 208.759 419.634 204.621C422.998 200.483 425.412 195.314 430.19 192.829C431.662 192.049 433.444 191.526 434.459 190.195C436.292 187.796 434.732 184.216 435.983 181.488C436.926 179.434 439.23 178.31 440.577 176.477C443.337 172.732 441.313 167.556 439.274 163.411L427.289 139.319C423.969 132.646 420.62 125.923 415.982 120.045C401.738 102.089 374.39 93.1321 352.1 100.936Z" fill="black"/>
<path d="M380.842 227.293C380.842 227.293 412.527 227.293 420.657 197.272L447.328 218.507C449.17 219.973 450.701 221.808 451.829 223.902C452.957 225.995 453.658 228.303 453.889 230.684L455.148 243.6L456.406 256.516C456.406 256.516 456.406 267.243 456 271.951C456 271.951 436.055 277.38 435.242 287.419L451.829 355.505C451.829 355.505 402.25 358.576 392.502 351.884C392.502 351.884 358.877 343.255 349.128 334.08C339.38 324.905 329.631 325.74 337.718 304.879C337.718 304.879 321.465 288.192 328.782 264.834C336.099 241.476 329.189 265.252 329.189 265.252C329.189 265.252 313.407 257.329 314.22 242.311L315.846 227.293C315.846 227.293 315.931 226.795 316.16 225.902C321.116 206.132 334.423 195.149 353.136 202.149C358.606 204.185 364.197 201.849 364.197 201.849C364.197 201.849 358.092 228.963 380.842 227.293Z" fill="black" stroke="black" stroke-width="3" stroke-linecap="round"/>
<path d="M420.31 251.228C420.31 251.228 439.135 266.514 456.249 270.759C456.249 270.759 456.795 254.478 454.665 242.408" stroke="black" stroke-width="3" stroke-linecap="round"/>
<path d="M376.752 199.882C396.907 199.882 413.246 184.109 413.246 164.651C413.246 145.194 396.907 129.42 376.752 129.42C356.596 129.42 340.257 145.194 340.257 164.651C340.257 184.109 356.596 199.882 376.752 199.882Z" fill="white" stroke="black" stroke-width="3" stroke-linecap="round"/>
<path d="M385.857 155.702C384.295 156.326 382.624 156.58 380.961 156.446C374.479 156.401 368 156.153 361.523 155.702C356.626 155.352 351.38 154.735 347.596 151.395C342.504 146.931 341.7 138.472 344.33 132.015C346.96 125.558 352.325 120.797 357.99 117.136C361.189 114.995 364.652 113.338 368.279 112.212C378.771 109.176 390.41 112.903 398.755 120.343C407.099 127.782 412.422 138.525 415.241 149.713C416.213 153.582 417.465 158.194 421.067 159.384C418.668 163.625 412.814 164.302 408.617 162.174C402.42 159.042 399.244 147.05 393.684 145.16C387.486 143.025 391.096 153.128 385.857 155.702Z" fill="black"/>
<path d="M128.856 219.534C130.841 217.933 118.934 216.277 128.856 219.534C127.702 220.463 127.204 221.954 126.305 223.127C123.325 227.006 117.315 226.28 112.572 227.67C105.595 229.705 101.294 236.567 98.8182 243.266C87.8927 272.89 100.07 306.793 90.5619 336.879C87.7959 345.734 83.1837 355.566 87.706 363.71C89.2135 366.422 91.6683 368.694 92.422 371.697C93.4454 375.766 91.4746 381.123 94.9182 383.604C95.99 384.377 97.3523 384.615 98.6384 384.96C106.39 386.995 112.268 392.975 118.173 398.298C124.078 403.621 131.187 408.767 139.194 408.421C141.78 408.209 144.332 407.706 146.801 406.923L186.568 395.945C190.558 394.84 194.866 393.511 197.196 390.141C198.579 388.107 199.056 385.544 199.416 383.082C200.787 373.721 201.437 364.271 201.359 354.814C201.359 351.695 201.214 348.501 200.045 345.599C198.662 342.249 196.062 339.571 194.126 336.499C190.399 330.587 189.389 323.453 188.47 316.557C187.004 305.58 185.538 294.385 187.564 283.495C188.435 278.823 189.935 274.28 190.931 269.636C192.546 262.071 192.803 254.287 191.692 246.636C190.765 240.282 188.767 233.834 184.397 229.054C181.551 225.872 177.658 223.768 173.395 223.107C168.015 222.429 165.339 225.521 160.547 226.667C139.194 231.773 135.674 221.771 128.856 219.534Z" fill="#EAEAEA"/>
<path d="M128.856 219.534C118.934 216.277 130.841 217.933 128.856 219.534ZM128.856 219.534C127.702 220.463 127.204 221.954 126.305 223.127C123.325 227.006 117.315 226.28 112.572 227.67C105.595 229.705 101.294 236.567 98.8182 243.266C87.8927 272.89 100.07 306.793 90.5619 336.879C87.7959 345.734 83.1837 355.566 87.706 363.71C89.2135 366.422 91.6683 368.694 92.422 371.697C93.4454 375.766 91.4746 381.123 94.9182 383.604C95.99 384.377 97.3523 384.615 98.6384 384.96C106.39 386.995 112.268 392.975 118.173 398.298C124.078 403.621 131.187 408.767 139.194 408.421C141.78 408.209 144.332 407.706 146.801 406.923L186.568 395.945C190.558 394.84 194.866 393.511 197.196 390.141C198.579 388.107 199.056 385.543 199.416 383.082C200.787 373.721 201.437 364.271 201.359 354.814C201.359 351.695 201.214 348.501 200.045 345.599C198.662 342.249 196.062 339.571 194.126 336.499C190.399 330.587 189.389 323.453 188.47 316.557C187.004 305.58 185.538 294.385 187.564 283.495C188.435 278.823 189.935 274.28 190.931 269.636C192.546 262.071 192.803 254.287 191.692 246.636C190.765 240.282 188.767 233.834 184.397 229.054C181.551 225.872 177.658 223.768 173.395 223.107C168.015 222.429 165.339 225.521 160.547 226.667C139.194 231.773 135.674 221.771 128.856 219.534Z" stroke="black" stroke-width="3" stroke-linecap="round"/>
<path d="M161.705 201.251C161.705 201.251 180.813 206.287 194.175 208.727C196.266 209.108 198.236 209.977 199.925 211.262C201.614 212.547 202.974 214.212 203.893 216.12C207.926 224.513 214.075 239.674 213.017 252.328L224.68 298.008L258.119 338.266L227.798 352.204L193.588 314.264L221.568 386.298L169.478 388.608C169.478 388.608 160.844 254.042 164.734 234.688C164.734 234.688 164.734 222.535 164.734 217.582C164.734 208.727 161.705 201.251 161.705 201.251Z" fill="#FFD749" stroke="black" stroke-width="3" stroke-linecap="round"/>
<path d="M513.17 339.375H27V410.489H513.17V339.375Z" fill="#EAEAEA" stroke="black" stroke-width="3" stroke-linecap="round"/>
<path d="M455.129 271.885C455.129 271.885 453.341 311.839 451.727 319.34C450.114 326.84 432.702 339.655 414.638 350.154C414.638 350.154 401.092 362.233 386.578 357.24C372.064 352.247 371.096 345.16 378.356 341.827L426.732 310.18V256.334L440.969 265.387L455.129 271.885Z" fill="white" stroke="black" stroke-width="3" stroke-linecap="round"/>
<path d="M124.589 177.319C107.968 194.816 109.616 193.835 92.4323 196.485C88.7718 197.049 83.2911 199.003 83.2911 199.003C74.2147 201.503 66.0159 206.497 59.6196 213.419C53.2233 220.341 48.884 228.918 47.0911 238.18L46.9466 238.932C42.2383 264.089 40.6758 333.267 40.6758 333.267C40.6758 333.267 41.4605 351.344 49.3007 356.036L99.4878 390.659C99.4878 390.659 111.215 372.362 130.041 368.436C148.868 364.51 112.036 347.425 112.036 347.425L78.2839 323.649C78.2839 323.649 89.5663 333.916 100.507 338.35C107.687 338.35 124.114 339.384 130.041 338.35C130.041 322.603 134.354 218.447 134.354 218.447C134.354 218.447 126.858 209.413 124.589 202.467C121.537 193.127 121.437 182.025 124.589 177.319Z" fill="#FFD749" stroke="black" stroke-width="3" stroke-linecap="round"/>
<path d="M346.865 233.389H193.305C181.518 233.389 171.962 242.359 171.962 253.424V345.325C171.962 356.39 181.518 365.359 193.305 365.359H346.865C358.652 365.359 368.208 356.39 368.208 345.325V253.424C368.208 242.359 358.652 233.389 346.865 233.389Z" fill="white" stroke="black" stroke-width="3" stroke-linecap="round"/>
</g>
</g>
<defs>
<clipPath id="clip0">
<path d="M0 8.00001C0 3.58173 3.58172 0 8 0H532C536.418 0 540 3.58172 540 8V338C540 342.418 536.418 346 532 346H7.99999C3.58171 346 0 342.418 0 338V8.00001Z" fill="white"/>
</clipPath>
<clipPath id="clip1">
<path d="M27 98H513.17V347C513.17 349.209 511.379 351 509.17 351H27V98Z" fill="white"/>
</clipPath>
</defs>
</svg>
