<svg width="352" height="200" viewBox="0 0 352 200" fill="none" xmlns="http://www.w3.org/2000/svg">
<g clip-path="url(#clip0)">
<rect width="352" height="200" fill="#FEF6E0"/>
<g clip-path="url(#clip1)">
<rect x="83" y="34" width="246" height="135" rx="10" fill="black"/>
<g clip-path="url(#clip2)">
<rect x="86" y="37" width="240" height="129" rx="10" fill="white"/>
<mask id="path-3-inside-1" fill="white">
<path d="M186.192 71.9043H119.236V77.9043H186.192V71.9043Z"/>
</mask>
<path d="M186.192 71.9043H119.236V77.9043H186.192V71.9043Z" fill="black" stroke="black" stroke-width="6" stroke-linecap="round" mask="url(#path-3-inside-1)"/>
<mask id="path-4-inside-2" fill="white">
<path d="M186.192 100.287H119.236V106.287H186.192V100.287Z"/>
</mask>
<path d="M186.192 100.287H119.236V106.287H186.192V100.287Z" fill="black" stroke="black" stroke-width="6" stroke-linecap="round" mask="url(#path-4-inside-2)"/>
<mask id="path-5-inside-3" fill="white">
<path d="M186.192 86.0957H119.236V92.0957H186.192V86.0957Z"/>
</mask>
<path d="M186.192 86.0957H119.236V92.0957H186.192V86.0957Z" fill="black" stroke="black" stroke-width="6" stroke-linecap="round" mask="url(#path-5-inside-3)"/>
<rect x="202.182" y="117.521" width="59.8084" height="89.9405" transform="rotate(-90 202.182 117.521)" fill="#FFD749" stroke="black" stroke-width="3" stroke-linecap="round"/>
<mask id="path-7-inside-4" fill="white">
<path d="M164.207 57.7129H119.236V63.7129H164.207V57.7129Z"/>
</mask>
<path d="M164.207 57.7129H119.236V63.7129H164.207V57.7129Z" fill="black" stroke="black" stroke-width="6" stroke-linecap="round" mask="url(#path-7-inside-4)"/>
<path d="M266.157 103.109C267.025 101.26 267.398 102.894 268.851 104.374L276.5 112.133C277.621 113.27 281.626 111.176 282.747 110.039C283.899 108.87 285.964 104.872 284.811 103.703L277.162 95.9435C275.723 94.484 274.072 94.1016 275.914 93.2105C283.818 89.3791 293.284 91.0283 299.475 97.3142C305.161 103.079 306.998 111.647 304.341 119.213L337.424 152.77C344.878 150.075 353.327 151.938 359.013 157.706C365.207 163.989 366.833 173.594 363.059 181.606C362.178 183.48 361.8 181.796 360.364 180.34L352.715 172.581C351.56 171.415 347.618 173.506 346.469 174.678C345.317 175.841 343.243 179.828 344.404 181.011L352.053 188.771C353.492 190.23 355.144 190.613 353.301 191.504C350.463 192.88 347.422 193.548 344.401 193.548C339.018 193.548 333.708 191.424 329.743 187.4C324.054 181.635 322.221 173.067 324.877 165.501L291.794 131.944C284.343 134.636 275.891 132.776 270.202 127.008C264.008 120.725 262.382 111.12 266.157 103.109Z" fill="white" stroke="black" stroke-width="3" stroke-linecap="round"/>
</g>
<path d="M67.7 106.703C67.7 106.703 60.3645 131.854 56.1728 133.949C51.9811 136.045 89.7067 139.189 89.7067 139.189C89.7067 139.189 88.6587 115.087 90.7546 112.991C92.8505 110.895 67.7 106.703 67.7 106.703Z" fill="white" stroke="black" stroke-width="3" stroke-linecap="round"/>
<mask id="path-10-inside-5" fill="white">
<path d="M57.219 130.807L88.7116 134.23C93.572 134.758 98.1412 136.809 101.767 140.089C105.392 143.369 107.888 147.711 108.899 152.494L121.143 210.45C121.143 210.45 125.335 268.086 116.951 271.23C108.568 274.374 97.0405 258.655 81.3215 260.75C65.6025 262.846 45.1678 267.562 45.1678 267.562C45.1678 267.562 41.9227 164.395 41.5 155.957C40.655 139.088 57.219 130.807 57.219 130.807Z"/>
</mask>
<path d="M57.219 130.807L88.7116 134.23C93.572 134.758 98.1412 136.809 101.767 140.089C105.392 143.369 107.888 147.711 108.899 152.494L121.143 210.45C121.143 210.45 125.335 268.086 116.951 271.23C108.568 274.374 97.0405 258.655 81.3215 260.75C65.6025 262.846 45.1678 267.562 45.1678 267.562C45.1678 267.562 41.9227 164.395 41.5 155.957C40.655 139.088 57.219 130.807 57.219 130.807Z" fill="#FFD749" stroke="black" stroke-width="6" stroke-linecap="round" mask="url(#path-10-inside-5)"/>
<path d="M81.6426 139.72L91.0113 135.055C91.0113 135.055 114.129 137.624 118.32 152.295C122.512 166.966 141.375 268.616 141.375 268.616L123.56 276.999L98.4095 215.171L81.6426 139.72Z" fill="#FFD749"/>
<path d="M86.0001 136C86.0001 136 114.128 137.625 118.32 152.296C122.512 166.967 141.374 268.617 141.374 268.617L123.56 277L81.7891 157.726" stroke="black" stroke-width="3" stroke-linecap="round"/>
<path d="M72.3651 113.579L62.7655 110.661C59.0513 110.457 55.4287 109.43 52.1601 107.654C48.8915 105.878 46.0586 103.398 43.8662 100.393C41.6739 97.3878 40.177 93.9329 39.4839 90.2782C38.7909 86.6235 38.9189 82.8605 39.8588 79.2613C40.3354 70.5746 44.2434 62.4331 50.7228 56.6277C57.2023 50.8223 65.7225 47.8287 74.4092 48.3053L74.4092 48.3053C83.0959 48.782 91.2375 52.6899 97.0429 59.1693C102.848 65.6488 105.842 74.169 105.365 82.8557L105.365 82.8558C109.806 102.369 91.5118 119.401 72.3651 113.579Z" fill="black"/>
<path d="M83.4189 118.23C96.7303 118.23 107.521 107.439 107.521 94.1279C107.521 80.8165 96.7303 70.0254 83.4189 70.0254C70.1075 70.0254 59.3164 80.8165 59.3164 94.1279C59.3164 107.439 70.1075 118.23 83.4189 118.23Z" fill="white" stroke="black" stroke-width="3" stroke-linecap="round"/>
<path d="M38.5438 71.3409C47.1289 71.8228 54.4792 65.2539 54.9611 56.6687C55.443 48.0836 48.874 40.7333 40.2889 40.2515C31.7038 39.7696 24.3535 46.3385 23.8716 54.9236C23.3897 63.5088 29.9587 70.859 38.5438 71.3409Z" fill="black"/>
<path d="M67.0694 57.8102L88.2426 55.1278L100.499 63.5002C104.322 66.206 108.24 70.1594 109.999 74.5002C111.758 78.8411 113.202 84.3966 112.341 89.0002L94.6974 83.1752L94.6974 76.3609L89.9965 83.1752L65.8634 110.877L53.6782 102.12L43.4034 83.8332L67.0694 57.8102Z" fill="black"/>
</g>
</g>
<defs>
<clipPath id="clip0">
<rect width="352" height="200" fill="white"/>
</clipPath>
<clipPath id="clip1">
<rect width="306" height="246" fill="white" transform="translate(23 34)"/>
</clipPath>
<clipPath id="clip2">
<rect x="86" y="37" width="240" height="129" rx="10" fill="white"/>
</clipPath>
</defs>
</svg>
