<svg width="352" height="200" viewBox="0 0 352 200" fill="none" xmlns="http://www.w3.org/2000/svg">
<g clip-path="url(#clip0)">
<rect width="352" height="200" fill="#FEF6E0"/>
<g clip-path="url(#clip1)">
<path d="M214.223 99.9517C214.223 99.9517 216.439 112.646 210.784 117.247C205.128 121.847 215.894 150.815 233.134 147.596C250.373 144.376 257.398 121.248 257.398 121.248C257.398 121.248 240.131 117.571 246.532 98.8809L214.223 99.9517Z" fill="white" stroke="black" stroke-width="3" stroke-linecap="round"/>
<path d="M229.183 110.499C244.766 110.499 257.398 97.8664 257.398 82.2829C257.398 66.6994 244.766 54.0664 229.183 54.0664C213.601 54.0664 200.969 66.6994 200.969 82.2829C200.969 97.8664 213.601 110.499 229.183 110.499Z" fill="white" stroke="black" stroke-width="3" stroke-linecap="round"/>
<path d="M277.314 137.559V156.974H181.883V138.442C181.883 136.092 182.583 133.794 183.897 131.835C185.21 129.876 187.079 128.343 189.269 127.428L192.003 126.279C198.926 123.364 207.336 119.746 210.084 118.241C210.385 118.092 210.669 117.911 210.929 117.7C212.431 116.216 212.133 118.145 212.133 118.145C212.133 118.145 212.092 118.514 212.064 119.15C211.898 123.522 212.535 140.699 232.907 139.269C252.781 137.901 253.674 124.616 253.474 120.71C253.462 120.348 253.432 119.988 253.384 119.629C254.758 119.952 256.103 120.387 257.405 120.929C261.559 122.448 267.692 124.883 269.333 126.032C269.845 126.388 270.468 126.757 271.146 127.134C271.916 127.558 272.636 128.065 273.292 128.646C274.558 129.769 275.57 131.143 276.263 132.679C276.956 134.215 277.314 135.878 277.314 137.559Z" fill="#FFD749" stroke="black" stroke-width="3" stroke-linecap="round"/>
<path d="M193.171 83.5879C194.23 83.3156 195.345 83.3759 196.371 83.7612C197.396 84.1464 198.286 84.8388 198.926 85.7491C200.088 87.4231 200.263 89.4428 200.409 91.3762C201.792 91.6748 202.571 90.0637 202.701 88.8456C203.213 83.8865 203.252 78.8332 204.872 74.0392C206.492 69.2453 210.031 64.6085 215.465 62.7773C217.322 62.1158 219.306 61.9218 221.251 62.2115C222.405 62.408 223.49 62.8245 224.637 62.9974C228.611 63.6733 232.929 61.7399 236.651 63.0838C238.99 63.9326 240.473 65.8895 241.566 67.8464C242.041 68.9016 242.687 69.8662 243.476 70.6992C245.059 72.161 247.535 72.5382 249.805 72.994C252.075 73.4498 254.551 74.2436 255.522 76.0433C256.393 77.6701 255.751 79.5484 255.461 81.3088C255.011 84.0975 255.465 86.9608 256.752 89.4586C257.173 90.2445 258.029 91.1954 259.045 90.9361C259.5 90.7779 259.885 90.4572 260.13 90.0323C262.737 86.2757 262.668 81.3874 265.939 78.0002C267.032 76.8685 268.446 75.9883 269.508 74.8566C270.312 74.0179 270.902 72.9877 271.225 71.8577C271.547 70.7278 271.593 69.5333 271.358 68.3808C270.769 65.7873 268.752 63.6654 267.124 61.3863C265.009 58.499 263.469 55.2115 262.591 51.7119C262.438 51.3048 262.438 50.8537 262.591 50.4466C262.9 50.0339 263.298 49.7003 263.753 49.4721C264.639 48.8613 265.278 47.9396 265.551 46.8793C265.824 45.8191 265.712 44.6929 265.236 43.7114C264.311 41.7703 262.278 40.2928 259.985 39.4126C257.66 38.6269 255.259 38.1 252.824 37.8408C251.219 38.0766 249.339 37.1413 248.842 35.821C248.62 35.2316 248.62 34.595 248.399 34.0056C248.098 33.4137 247.663 32.9048 247.131 32.5218C246.599 32.1388 245.985 31.893 245.341 31.8051C243.974 31.5777 242.574 31.68 241.252 32.1037C239.724 32.5438 237.989 33.204 236.667 32.4338C235.971 32.033 235.589 31.3021 234.84 30.9721C233.311 30.3119 231.737 31.6479 230.644 32.7482C229.591 33.9026 228.298 34.7972 226.861 35.3652C226.102 35.6624 225.29 35.7874 224.48 35.7318C223.67 35.6762 222.881 35.4412 222.168 35.043C221.121 34.3593 220.594 33.259 219.76 32.3867C218.187 30.9438 216.173 30.11 214.066 30.029C211.9 29.9107 209.729 30.1549 207.639 30.752C203.649 31.7518 199.839 33.3965 196.35 35.6246C194.595 36.6161 193.107 38.039 192.017 39.7662C191.372 41.0906 191.039 42.5526 191.046 44.0337C190.878 48.6783 192.376 53.5666 196.281 56.8202C193.897 57.8419 193.094 60.3489 192.536 62.573C191.642 66.1253 190.748 69.7325 191.084 73.3477C191.252 75.2181 191.749 77.0885 191.482 78.9511C191.267 79.8281 191.149 80.727 191.13 81.631C191.242 82.1289 191.497 82.581 191.86 82.9296C192.224 83.2781 192.68 83.5074 193.171 83.5879Z" fill="black"/>
<path d="M106.369 180.767V168.932C106.369 168.843 106.405 168.758 106.469 168.695C106.533 168.632 106.62 168.597 106.711 168.597H108.085C108.176 168.597 108.262 168.632 108.327 168.695C108.391 168.758 108.427 168.843 108.427 168.932V173.856L114.003 168.8C114.134 168.694 114.293 168.625 114.462 168.602C114.631 168.579 114.804 168.603 114.959 168.672C115.115 168.74 115.248 168.85 115.343 168.989C115.438 169.127 115.492 169.289 115.497 169.456V180.177C115.492 180.344 115.438 180.506 115.343 180.644C115.248 180.783 115.115 180.893 114.959 180.961C114.804 181.029 114.631 181.053 114.462 181.031C114.293 181.008 114.134 180.939 114.003 180.832L108.427 175.81V180.708C108.427 180.796 108.391 180.881 108.327 180.944C108.262 181.007 108.176 181.042 108.085 181.042H106.711C106.63 181.043 106.551 181.016 106.488 180.966C106.426 180.915 106.383 180.845 106.369 180.767Z" fill="black"/>
<path d="M240.803 168.909V180.709C240.803 180.753 240.795 180.797 240.781 180.838C240.766 180.879 240.745 180.916 240.718 180.947C240.692 180.978 240.66 181.002 240.626 181.019C240.591 181.035 240.554 181.043 240.517 181.042H239.418C239.343 181.042 239.272 181.007 239.219 180.944C239.167 180.882 239.137 180.797 239.137 180.709V175.799L234.565 180.833C234.457 180.939 234.326 181.007 234.187 181.029C234.049 181.052 233.907 181.027 233.779 180.96C233.651 180.892 233.542 180.783 233.463 180.645C233.385 180.507 233.34 180.346 233.334 180.179V169.452C233.34 169.285 233.385 169.124 233.463 168.986C233.542 168.848 233.651 168.739 233.779 168.672C233.907 168.604 234.049 168.579 234.187 168.602C234.326 168.624 234.457 168.692 234.565 168.798L239.137 173.806V168.929C239.137 168.84 239.167 168.756 239.219 168.693C239.272 168.631 239.343 168.596 239.418 168.596H240.517C240.589 168.594 240.66 168.625 240.713 168.684C240.766 168.742 240.798 168.823 240.803 168.909Z" fill="black"/>
<path d="M170.366 181.04H167.517C167.146 181.04 166.79 180.911 166.527 180.681C166.265 180.451 166.117 180.139 166.117 179.813V170.649C166.117 170.323 166.265 170.011 166.527 169.781C166.79 169.551 167.146 169.422 167.517 169.422H170.366C170.737 169.422 171.093 169.551 171.355 169.781C171.618 170.011 171.765 170.323 171.765 170.649V179.813C171.765 180.139 171.618 180.451 171.355 180.681C171.093 180.911 170.737 181.04 170.366 181.04ZM179.395 179.813V170.649C179.395 170.323 179.247 170.011 178.985 169.781C178.722 169.551 178.366 169.422 177.995 169.422H175.118C174.747 169.422 174.391 169.551 174.128 169.781C173.866 170.011 173.718 170.323 173.718 170.649V179.813C173.718 180.139 173.866 180.451 174.128 180.681C174.391 180.911 174.747 181.04 175.118 181.04H177.967C178.153 181.043 178.338 181.014 178.511 180.954C178.684 180.894 178.842 180.804 178.975 180.69C179.108 180.575 179.213 180.439 179.285 180.289C179.357 180.138 179.395 179.977 179.395 179.813Z" fill="black"/>
<path d="M352 156.975H2.63867V158.634H352V156.975Z" fill="white" stroke="white" stroke-width="4" stroke-linecap="round"/>
<path d="M210.098 156.975H-4V158.634H210.098V156.975Z" fill="white" stroke="black" stroke-width="3" stroke-linecap="round"/>
</g>
</g>
<defs>
<clipPath id="clip0">
<rect width="352" height="200" fill="white"/>
</clipPath>
<clipPath id="clip1">
<rect width="356" height="161" fill="white" transform="translate(-4 30)"/>
</clipPath>
</defs>
</svg>
