<svg width="352" height="200" viewBox="0 0 352 200" fill="none" xmlns="http://www.w3.org/2000/svg">
<g clip-path="url(#clip0)">
<rect width="352" height="200" fill="#FEF6E0"/>
<g clip-path="url(#clip1)">
<path d="M218.167 137.244C225.615 137.244 231.653 131.209 231.653 123.764C231.653 116.319 225.615 110.283 218.167 110.283C210.719 110.283 204.682 116.319 204.682 123.764C204.682 131.209 210.719 137.244 218.167 137.244Z" fill="#EAEAEA"/>
<path d="M217.469 106.615C218.814 112.486 219.957 118.401 220.895 124.359C221.177 126.13 221.429 127.997 220.787 129.671C220.249 131.067 219.155 132.157 218.296 133.378C217.438 134.6 216.788 136.166 217.31 137.565C217.832 138.965 219.356 139.73 220.81 140.124C224.971 141.245 229.407 140.43 233.549 139.216C235.425 138.733 237.223 137.989 238.89 137.005C240.646 135.891 242.085 134.345 243.407 132.752C249.444 125.434 253.397 116.651 257.117 107.922C254.727 108.139 252.318 107.785 250.092 106.888C247.865 105.991 245.884 104.578 244.312 102.764C242.788 100.975 241.671 98.4811 242.529 96.293C240.012 97.6731 237.022 97.7659 234.311 98.7091C232.63 99.351 231.011 100.147 229.477 101.087C227.626 102.156 225.785 103.246 223.954 104.357C221.862 105.617 219.901 106.739 217.469 106.615Z" fill="white" stroke="black" stroke-width="3" stroke-linecap="round"/>
<path d="M245.672 116.737C243.309 121.333 240.234 125.752 235.845 128.489C231.455 131.226 225.546 131.968 221.149 129.262C218.983 127.94 217.343 125.93 215.452 124.237C213.561 122.543 211.198 121.094 208.657 121.314C205.857 121.558 203.664 123.742 201.789 125.833C198.942 129.011 196.192 132.324 194.178 136.086C190.31 143.315 189.394 151.766 189.564 159.961C189.734 168.157 190.921 176.31 190.948 184.506C190.987 194.588 189.278 204.589 187.549 214.52C203.444 212.564 219.358 216.84 235.288 218.46C245.483 219.507 255.754 219.484 266.003 219.457C267.805 219.457 269.723 219.411 271.224 218.413C272.141 217.744 272.883 216.864 273.386 215.846C274.801 213.237 275.37 210.26 275.764 207.318C276.766 199.888 276.797 192.365 276.824 184.865C276.894 166.696 276.959 148.46 274.65 130.434C274.082 126 273.355 121.542 271.653 117.394C269.952 113.246 267.175 109.43 263.292 107.207C260.797 105.777 255.016 103.287 252.076 104.729C248.778 106.338 247.254 113.66 245.672 116.737Z" fill="#EAEAEA" stroke="black" stroke-width="3" stroke-linecap="round"/>
<path d="M246.848 168.044C246.248 156.833 243.808 144.868 249.002 134.917C250.278 132.474 245.699 129.424 247.115 127.058C248.842 124.173 250.152 121.059 251.005 117.807C251.299 116.69 251.535 115.507 251.257 114.386C250.742 112.341 248.72 111.123 247.003 109.878C245.108 108.502 244.133 104.307 243.522 102.038C242.911 99.7687 248.383 102.502 250.584 101.694C253.639 100.577 257.522 101.28 260.569 102.413C262.271 103.039 262.524 102.297 264.338 102.343C267.861 102.436 271.396 102.525 274.892 102.092C276.462 101.895 278.036 101.597 279.614 101.686C283.64 101.914 287.14 104.666 289.523 107.921C291.905 111.177 293.421 114.969 295.374 118.495C297.002 121.433 300.539 125.005 301.927 128.063C303.157 130.769 303.935 133.676 304.704 136.568L306.688 143.987C307.035 145.048 307.2 146.16 307.175 147.277C307.075 148.463 306.549 149.569 306.015 150.624C303.997 154.536 301.577 158.227 298.795 161.638C294.622 166.753 289.556 171.365 287.077 177.488C286.11 179.874 285.572 182.41 285.081 184.938C283.101 195.05 280.481 222.788 279.653 233.059C275.135 230.969 270.398 229.386 265.53 228.339C263.103 227.82 260.65 227.433 258.182 227.179C256.02 226.955 253.231 227.38 251.174 226.792C247.732 225.814 248.565 202.474 248.043 199.427C247.208 194.576 247.041 189.639 247.01 184.737C246.972 179.162 247.146 173.599 246.848 168.044Z" fill="#FFD749" stroke="black" stroke-width="3" stroke-linecap="round"/>
<path fill-rule="evenodd" clip-rule="evenodd" d="M222.855 120.473C222.343 121.012 221.792 121.523 221.247 122.028L221.103 122.162L220.944 122.305L221.103 123.602C220.218 124.365 220.46 125.147 220.731 126.019C220.808 126.268 220.888 126.524 220.944 126.789V129.577C220.014 131.171 219.076 135.859 219.625 139.867C220.002 142.634 219.349 144.926 218.679 147.277C218.139 149.171 217.588 151.103 217.556 153.352C217.509 156.639 217.301 159.915 217.093 163.19L217.093 163.19V163.191C216.861 166.849 216.628 170.506 216.62 174.174C216.62 175.751 216.655 177.324 216.725 178.902C216.837 181.465 217.03 184.024 217.262 186.583C217.444 188.615 217.652 190.644 217.861 192.673L217.861 192.674C217.94 193.448 218.02 194.222 218.098 194.995C218.322 197.164 218.535 199.329 218.713 201.494C218.801 202.615 218.887 203.732 218.956 204.853C219.037 206.168 219.103 207.486 219.142 208.8C219.169 209.635 219.184 210.466 219.184 211.302V212.72C219.184 213.625 219.16 214.527 219.111 215.426C219.059 216.584 218.981 217.743 218.875 218.906C218.755 220.17 218.542 221.55 217.653 222.439C217.599 222.493 217.541 222.543 217.483 222.594L216.23 222.439C207.592 221.405 198.871 221.25 190.202 221.975C190.392 220.669 190.566 219.366 190.736 218.055C190.813 217.437 190.89 216.814 190.964 216.192C191.049 215.48 191.13 214.769 191.208 214.058C191.297 213.285 191.378 212.512 191.455 211.738C191.656 209.746 191.833 207.753 191.985 205.758C192.209 202.848 192.379 199.933 192.495 197.013C192.552 195.619 192.596 194.223 192.627 192.826C192.671 191.095 192.691 189.361 192.689 187.627C192.689 185.941 192.675 184.253 192.646 182.563C192.646 182.006 192.623 181.449 192.577 180.896C192.56 180.647 191.436 180.787 190.305 180.929C189.174 181.069 188.035 181.211 187.983 180.968C187.696 179.842 190.377 175.789 190.377 175.789V175.621C190.126 175.826 189.867 176.025 189.598 176.226C189.395 176.369 189.187 176.506 188.979 176.643C188.374 177.041 187.767 177.441 187.278 177.982C187.029 178.26 186.832 178.581 186.698 178.929C186.576 179.201 186.514 179.495 186.514 179.793C186.514 180.09 186.576 180.385 186.698 180.657C185.11 181.359 183.302 181.27 181.51 181.183L181.508 181.183C181.219 181.169 180.929 181.155 180.641 181.144C178.859 181.078 177.13 181.144 175.699 182.122C173.711 183.49 173.112 186.119 172.791 188.508C172.672 189.379 172.57 190.252 172.485 191.126C172.403 191.937 172.336 192.752 172.284 193.569C172.109 196.271 172.084 198.982 172.211 201.687C172.231 202.182 172.258 202.677 172.292 203.172C165.972 203.021 160.214 199.727 154.765 196.526C153.519 195.796 152.235 195.026 151.427 193.82C150.682 192.635 150.367 191.231 150.534 189.842C150.534 189.686 150.556 189.534 150.578 189.378L150.578 189.378C150.584 189.337 150.59 189.296 150.596 189.254C150.769 188.107 151.066 186.982 151.481 185.899C153.186 181.285 155.699 177.011 158.903 173.277C159.09 173.058 159.281 172.84 159.472 172.621C160.693 171.224 161.933 169.805 162.492 168.05C162.631 167.613 162.727 167.162 162.823 166.712C162.922 166.251 163.02 165.79 163.165 165.344C163.832 163.358 165.405 161.917 166.984 160.47C168.442 159.133 169.906 157.792 170.667 156.012C170.826 155.649 170.949 155.272 171.073 154.895L171.073 154.895C171.251 154.351 171.429 153.808 171.712 153.306C172.143 152.599 172.7 151.977 173.355 151.469C173.594 151.27 173.842 151.075 174.088 150.882L174.222 150.777C176.936 148.651 179.551 146.406 182.067 144.04C182.131 143.876 182.2 143.701 182.271 143.518C182.952 141.772 183.9 139.34 184.426 139.092C184.571 138.886 185.178 138.043 185.712 137.591C186.438 136.975 187.33 136.549 188.212 136.128C189.545 135.493 190.857 134.867 191.548 133.609C191.82 133.116 191.963 132.57 192.107 132.023L192.107 132.023C192.218 131.605 192.328 131.186 192.495 130.791C193.168 129.213 194.605 128.24 196.059 127.254C197.003 126.614 197.955 125.969 198.71 125.15C199.813 123.955 200.44 122.474 201.068 120.99L201.068 120.99C201.533 119.892 201.999 118.792 202.659 117.805C203.817 116.111 205.424 114.773 207.3 113.939C207.455 113.866 207.613 113.792 207.772 113.727C210.982 112.354 214.795 112.041 218.121 112.049C219.413 112.049 222.762 112.088 224.401 112.741C224.667 112.836 224.911 112.985 225.117 113.178C226.865 115.08 224.146 119.096 222.855 120.473Z" fill="#FFD749"/>
<path d="M221.247 122.028L220.228 120.928L220.227 120.928L221.247 122.028ZM222.855 120.473L223.943 121.505L223.948 121.499L222.855 120.473ZM221.103 122.162L222.107 123.276L222.115 123.269L222.122 123.262L221.103 122.162ZM220.944 122.305L219.939 121.191L219.36 121.714L219.455 122.487L220.944 122.305ZM221.103 123.602L222.082 124.737L222.689 124.214L222.591 123.42L221.103 123.602ZM220.731 126.019L219.299 126.464L219.299 126.464L220.731 126.019ZM220.944 126.789H222.444V126.631L222.411 126.477L220.944 126.789ZM220.944 129.577L222.24 130.333L222.444 129.983V129.577H220.944ZM219.625 139.867L221.112 139.665L221.111 139.664L219.625 139.867ZM218.679 147.277L220.121 147.688V147.688L218.679 147.277ZM217.556 153.352L219.056 153.374L219.056 153.373L217.556 153.352ZM217.093 163.19L218.584 163.356L218.588 163.321L218.59 163.285L217.093 163.19ZM217.093 163.19L215.602 163.025L215.593 163.107V163.19H217.093ZM217.093 163.191L218.59 163.286L218.593 163.238V163.191H217.093ZM216.62 174.174L215.12 174.17V174.174H216.62ZM216.725 178.902L218.223 178.836L218.223 178.835L216.725 178.902ZM217.262 186.583L218.756 186.449L218.756 186.448L217.262 186.583ZM217.861 192.673L216.369 192.826L216.369 192.826L217.861 192.673ZM217.861 192.674L219.353 192.521L219.353 192.521L217.861 192.674ZM218.098 194.995L216.605 195.146L216.606 195.15L218.098 194.995ZM218.713 201.494L220.208 201.375L220.207 201.371L218.713 201.494ZM218.956 204.853L220.453 204.761L220.453 204.76L218.956 204.853ZM219.142 208.8L217.642 208.844L217.643 208.849L219.142 208.8ZM219.111 215.426L217.613 215.345L217.613 215.352L217.612 215.36L219.111 215.426ZM218.875 218.906L220.368 219.047L220.369 219.042L218.875 218.906ZM217.653 222.439L218.713 223.5L218.713 223.5L217.653 222.439ZM217.483 222.594L217.299 224.082L217.961 224.164L218.465 223.727L217.483 222.594ZM216.23 222.439L216.413 220.95L216.408 220.95L216.23 222.439ZM190.202 221.975L188.718 221.76L188.447 223.627L190.327 223.47L190.202 221.975ZM190.736 218.055L192.223 218.248L192.224 218.241L190.736 218.055ZM190.964 216.192L189.475 216.014L189.474 216.016L190.964 216.192ZM191.208 214.058L189.717 213.886L189.716 213.896L191.208 214.058ZM191.455 211.738L189.963 211.588L189.963 211.589L191.455 211.738ZM191.985 205.758L190.489 205.643L190.489 205.644L191.985 205.758ZM192.495 197.013L190.997 196.952L190.997 196.954L192.495 197.013ZM192.627 192.826L191.127 192.789L191.127 192.793L192.627 192.826ZM192.689 187.627H191.189V187.629L192.689 187.627ZM192.646 182.563H191.146V182.575L191.146 182.588L192.646 182.563ZM192.577 180.896L191.08 180.996L191.081 181.009L191.082 181.022L192.577 180.896ZM190.305 180.929L190.49 182.417H190.49L190.305 180.929ZM187.983 180.968L189.451 180.657L189.445 180.627L189.437 180.597L187.983 180.968ZM190.377 175.789L191.628 176.616L191.877 176.24V175.789H190.377ZM190.377 175.621H191.877V172.45L189.425 174.461L190.377 175.621ZM189.598 176.226L190.46 177.454L190.479 177.441L190.498 177.427L189.598 176.226ZM188.979 176.643L188.154 175.39L188.154 175.39L188.979 176.643ZM187.278 177.982L186.166 176.975L186.16 176.981L187.278 177.982ZM186.698 178.929L188.067 179.541L188.083 179.506L188.097 179.47L186.698 178.929ZM186.698 180.657L187.304 182.029L188.682 181.42L188.067 180.045L186.698 180.657ZM181.51 181.183L181.583 179.685L181.582 179.685L181.51 181.183ZM181.508 181.183L181.435 182.681L181.436 182.681L181.508 181.183ZM180.641 181.144L180.698 179.645L180.697 179.645L180.641 181.144ZM175.699 182.122L174.853 180.884L174.848 180.886L175.699 182.122ZM172.791 188.508L174.277 188.711L174.277 188.708L172.791 188.508ZM172.485 191.126L173.977 191.277L173.978 191.271L172.485 191.126ZM172.284 193.569L173.781 193.666L173.781 193.663L172.284 193.569ZM172.211 201.687L173.709 201.625L173.709 201.617L172.211 201.687ZM172.292 203.172L172.256 204.671L173.899 204.71L173.788 203.07L172.292 203.172ZM154.765 196.526L155.524 195.233L155.524 195.232L154.765 196.526ZM151.427 193.82L150.157 194.618L150.169 194.637L150.181 194.655L151.427 193.82ZM150.534 189.842L152.023 190.021L152.034 189.932V189.842H150.534ZM150.578 189.378L149.104 189.1L149.098 189.132L149.094 189.164L150.578 189.378ZM150.578 189.378L152.052 189.656L152.058 189.624L152.063 189.593L150.578 189.378ZM150.596 189.254L149.112 189.031L149.111 189.042L149.109 189.054L150.596 189.254ZM151.481 185.899L152.882 186.436L152.885 186.427L152.888 186.419L151.481 185.899ZM158.903 173.277L160.041 174.254L160.042 174.253L158.903 173.277ZM159.472 172.621L160.602 173.608L160.602 173.608L159.472 172.621ZM162.492 168.05L161.063 167.594L161.062 167.595L162.492 168.05ZM162.823 166.712L161.356 166.4L161.356 166.4L162.823 166.712ZM163.165 165.344L161.743 164.866L161.74 164.873L161.738 164.881L163.165 165.344ZM166.984 160.47L167.997 161.576L166.984 160.47ZM170.667 156.012L169.293 155.411L169.288 155.422L170.667 156.012ZM171.073 154.895L169.65 154.42L169.647 154.428L171.073 154.895ZM171.073 154.895L172.496 155.369L172.498 155.361L171.073 154.895ZM171.712 153.306L170.432 152.524L170.418 152.546L170.405 152.569L171.712 153.306ZM173.355 151.469L174.274 152.655L174.296 152.638L174.317 152.621L173.355 151.469ZM174.088 150.882L175.014 152.062L175.015 152.062L174.088 150.882ZM174.222 150.777L173.297 149.597L173.295 149.598L174.222 150.777ZM182.067 144.04L183.094 145.133L183.34 144.903L183.463 144.589L182.067 144.04ZM182.271 143.518L180.874 142.973L182.271 143.518ZM184.426 139.092L185.067 140.448L185.425 140.279L185.652 139.956L184.426 139.092ZM185.712 137.591L186.682 138.735L186.683 138.734L185.712 137.591ZM188.212 136.128L188.858 137.482L188.212 136.128ZM191.548 133.609L190.234 132.885L190.233 132.887L191.548 133.609ZM192.107 132.023L193.558 132.405L193.56 132.396L193.563 132.387L192.107 132.023ZM192.107 132.023L190.657 131.641L190.655 131.65L190.652 131.659L192.107 132.023ZM192.495 130.791L191.116 130.202L191.114 130.205L192.495 130.791ZM196.059 127.254L196.901 128.496V128.496L196.059 127.254ZM198.71 125.15L197.608 124.133V124.133L198.71 125.15ZM201.068 120.99L202.449 121.575L202.455 121.561L202.461 121.547L201.068 120.99ZM201.068 120.99L199.687 120.405L199.681 120.419L199.676 120.433L201.068 120.99ZM202.659 117.805L201.421 116.958L201.416 116.965L201.412 116.972L202.659 117.805ZM207.3 113.939L207.909 115.31L207.926 115.302L207.943 115.294L207.3 113.939ZM207.772 113.727L208.346 115.112L208.354 115.109L208.361 115.106L207.772 113.727ZM218.121 112.049L218.117 113.549H218.121V112.049ZM224.401 112.741L223.846 114.134L223.871 114.144L223.897 114.154L224.401 112.741ZM225.117 113.178L226.221 112.163L226.184 112.122L226.143 112.084L225.117 113.178ZM222.267 123.128C222.806 122.629 223.393 122.086 223.943 121.505L221.766 119.441C221.293 119.939 220.779 120.417 220.228 120.928L222.267 123.128ZM222.122 123.262L222.267 123.128L220.227 120.928L220.083 121.062L222.122 123.262ZM221.949 123.419L222.107 123.276L220.098 121.048L219.939 121.191L221.949 123.419ZM222.591 123.42L222.433 122.123L219.455 122.487L219.614 123.784L222.591 123.42ZM222.164 125.574C222.092 125.345 222.045 125.19 222.013 125.05C221.983 124.916 221.981 124.853 221.982 124.83C221.983 124.82 221.982 124.835 221.974 124.852C221.968 124.863 221.984 124.822 222.082 124.737L220.123 122.466C219.392 123.097 219.019 123.861 218.985 124.709C218.956 125.417 219.182 126.09 219.299 126.464L222.164 125.574ZM222.411 126.477C222.338 126.134 222.238 125.813 222.164 125.574L219.299 126.464C219.379 126.722 219.437 126.914 219.477 127.1L222.411 126.477ZM222.444 129.577V126.789H219.444V129.577H222.444ZM221.111 139.664C220.861 137.835 220.947 135.809 221.213 134.04C221.487 132.223 221.92 130.88 222.24 130.333L219.648 128.821C219.038 129.868 218.537 131.665 218.247 133.593C217.949 135.569 217.841 137.891 218.139 140.071L221.111 139.664ZM220.121 147.688C220.785 145.359 221.537 142.783 221.112 139.665L218.139 140.07C218.468 142.486 217.913 144.493 217.236 146.866L220.121 147.688ZM219.056 153.373C219.085 151.349 219.577 149.598 220.121 147.688L217.236 146.866C216.701 148.743 216.091 150.856 216.056 153.331L219.056 153.373ZM218.59 163.285C218.797 160.016 219.008 156.703 219.056 153.374L216.056 153.33C216.009 156.574 215.804 159.814 215.596 163.095L218.59 163.285ZM218.584 163.356L218.584 163.356L215.602 163.024L215.602 163.025L218.584 163.356ZM218.593 163.191V163.19H215.593V163.191H218.593ZM218.12 174.177C218.128 170.563 218.357 166.952 218.59 163.286L215.596 163.095C215.364 166.746 215.129 170.449 215.12 174.17L218.12 174.177ZM218.223 178.835C218.155 177.28 218.12 175.729 218.12 174.174H215.12C215.12 175.773 215.156 177.368 215.226 178.968L218.223 178.835ZM218.756 186.448C218.525 183.903 218.334 181.368 218.223 178.836L215.226 178.967C215.34 181.561 215.535 184.145 215.768 186.719L218.756 186.448ZM219.353 192.52C219.144 190.489 218.937 188.469 218.756 186.449L215.768 186.717C215.951 188.76 216.16 190.799 216.369 192.826L219.353 192.52ZM219.353 192.521L219.353 192.519L216.369 192.826L216.369 192.828L219.353 192.521ZM219.59 194.845C219.512 194.07 219.432 193.295 219.353 192.521L216.369 192.827C216.448 193.601 216.527 194.374 216.605 195.146L219.59 194.845ZM220.207 201.371C220.028 199.191 219.814 197.014 219.59 194.841L216.606 195.15C216.829 197.314 217.041 199.467 217.218 201.617L220.207 201.371ZM220.453 204.76C220.383 203.626 220.297 202.499 220.208 201.375L217.217 201.612C217.306 202.731 217.39 203.838 217.459 204.946L220.453 204.76ZM220.641 208.756C220.602 207.422 220.535 206.087 220.453 204.761L217.459 204.946C217.54 206.249 217.604 207.55 217.642 208.844L220.641 208.756ZM220.684 211.302C220.684 210.448 220.669 209.6 220.641 208.752L217.643 208.849C217.669 209.67 217.684 210.485 217.684 211.302H220.684ZM220.684 212.72V211.302H217.684V212.72H220.684ZM220.609 215.508C220.659 214.581 220.684 213.652 220.684 212.72H217.684C217.684 213.598 217.661 214.473 217.613 215.345L220.609 215.508ZM220.369 219.042C220.477 217.856 220.557 216.674 220.609 215.493L217.612 215.36C217.562 216.494 217.485 217.63 217.381 218.77L220.369 219.042ZM218.713 223.5C220.032 222.181 220.253 220.259 220.368 219.047L217.382 218.764C217.257 220.081 217.052 220.919 216.592 221.378L218.713 223.5ZM218.465 223.727C218.516 223.683 218.615 223.598 218.713 223.5L216.592 221.378C216.583 221.388 216.566 221.404 216.5 221.46L218.465 223.727ZM216.046 223.928L217.299 224.082L217.666 221.105L216.413 220.95L216.046 223.928ZM190.327 223.47C198.895 222.753 207.514 222.907 216.051 223.928L216.408 220.95C207.669 219.904 198.847 219.747 190.077 220.48L190.327 223.47ZM189.248 217.862C189.078 219.169 188.906 220.464 188.718 221.76L191.687 222.19C191.878 220.873 192.053 219.562 192.223 218.248L189.248 217.862ZM189.474 216.016C189.401 216.633 189.325 217.251 189.247 217.869L192.224 218.241C192.302 217.622 192.379 216.996 192.454 216.368L189.474 216.016ZM189.716 213.896C189.64 214.602 189.559 215.308 189.475 216.014L192.453 216.37C192.539 215.653 192.621 214.937 192.699 214.22L189.716 213.896ZM189.963 211.589C189.886 212.357 189.805 213.123 189.717 213.886L192.698 214.229C192.788 213.447 192.87 212.666 192.948 211.888L189.963 211.589ZM190.489 205.644C190.338 207.626 190.163 209.608 189.963 211.588L192.948 211.889C193.15 209.885 193.328 207.879 193.481 205.872L190.489 205.644ZM190.997 196.954C190.881 199.855 190.712 202.751 190.489 205.643L193.48 205.873C193.706 202.945 193.877 200.011 193.994 197.073L190.997 196.954ZM191.127 192.793C191.097 194.181 191.053 195.567 190.997 196.952L193.994 197.074C194.051 195.671 194.095 194.266 194.127 192.86L191.127 192.793ZM191.189 187.629C191.191 189.35 191.171 191.07 191.127 192.789L194.126 192.864C194.171 191.119 194.191 189.373 194.189 187.625L191.189 187.629ZM191.146 182.588C191.175 184.27 191.189 185.95 191.189 187.627H194.189C194.189 185.933 194.175 184.236 194.146 182.537L191.146 182.588ZM191.082 181.022C191.125 181.533 191.146 182.047 191.146 182.563H194.146C194.146 181.964 194.121 181.366 194.071 180.771L191.082 181.022ZM190.49 182.417C191.077 182.344 191.578 182.282 191.935 182.264C192.127 182.254 192.176 182.264 192.141 182.258C192.135 182.257 191.975 182.236 191.777 182.123C191.549 181.993 191.123 181.638 191.08 180.996L194.073 180.796C194.026 180.092 193.562 179.688 193.265 179.518C192.997 179.365 192.738 179.315 192.606 179.295C192.321 179.25 192.015 179.256 191.783 179.268C191.291 179.293 190.664 179.372 190.119 179.44L190.49 182.417ZM186.516 181.278C186.655 181.934 187.131 182.258 187.38 182.383C187.628 182.507 187.864 182.55 187.997 182.569C188.278 182.609 188.58 182.603 188.818 182.59C189.316 182.564 189.944 182.485 190.49 182.417L190.119 179.44C189.534 179.513 189.028 179.575 188.661 179.594C188.466 179.605 188.403 179.597 188.421 179.599C188.422 179.599 188.552 179.615 188.724 179.701C188.895 179.787 189.325 180.062 189.451 180.657L186.516 181.278ZM190.377 175.789C189.125 174.961 189.125 174.961 189.125 174.962C189.125 174.962 189.125 174.962 189.125 174.962C189.125 174.962 189.125 174.963 189.124 174.963C189.124 174.964 189.123 174.965 189.122 174.966C189.121 174.969 189.118 174.972 189.115 174.977C189.11 174.985 189.101 174.998 189.091 175.014C189.069 175.047 189.039 175.094 189.001 175.153C188.924 175.272 188.816 175.442 188.688 175.649C188.432 176.06 188.092 176.626 187.758 177.234C187.428 177.834 187.085 178.511 186.84 179.136C186.717 179.448 186.605 179.784 186.536 180.114C186.473 180.411 186.41 180.866 186.53 181.338L189.437 180.597C189.486 180.787 189.443 180.869 189.472 180.73C189.494 180.623 189.544 180.457 189.633 180.231C189.809 179.78 190.082 179.232 190.387 178.678C190.687 178.132 190.999 177.614 191.237 177.231C191.355 177.04 191.454 176.884 191.523 176.777C191.558 176.723 191.585 176.682 191.603 176.654C191.612 176.641 191.618 176.631 191.622 176.624C191.625 176.621 191.626 176.619 191.627 176.617C191.627 176.617 191.628 176.616 191.628 176.616C191.628 176.616 191.628 176.616 191.628 176.616C191.628 176.616 191.628 176.616 191.628 176.616C191.628 176.616 191.628 176.616 190.377 175.789ZM188.877 175.621V175.789H191.877V175.621H188.877ZM190.498 177.427C190.775 177.219 191.053 177.006 191.328 176.78L189.425 174.461C189.198 174.647 188.959 174.831 188.699 175.026L190.498 177.427ZM189.804 177.896C190.009 177.761 190.236 177.612 190.46 177.454L188.736 174.999C188.555 175.126 188.366 175.251 188.154 175.39L189.804 177.896ZM188.39 178.988C188.73 178.612 189.171 178.312 189.804 177.896L188.154 175.39C187.577 175.77 186.804 176.269 186.166 176.975L188.39 178.988ZM188.097 179.47C188.166 179.29 188.267 179.125 188.396 178.982L186.16 176.981C185.791 177.394 185.499 177.871 185.299 178.388L188.097 179.47ZM188.014 179.793C188.014 179.706 188.032 179.62 188.067 179.541L185.328 178.317C185.121 178.781 185.014 179.284 185.014 179.793H188.014ZM188.067 180.045C188.032 179.965 188.014 179.88 188.014 179.793H185.014C185.014 180.301 185.121 180.804 185.328 181.269L188.067 180.045ZM181.436 182.681C183.15 182.765 185.334 182.9 187.304 182.029L186.091 179.285C184.886 179.818 183.454 179.776 181.583 179.685L181.436 182.681ZM181.436 182.681L181.437 182.681L181.582 179.685L181.58 179.685L181.436 182.681ZM180.585 182.643C180.863 182.653 181.144 182.667 181.435 182.681L181.581 179.685C181.293 179.671 180.995 179.656 180.698 179.645L180.585 182.643ZM176.545 183.36C177.535 182.684 178.809 182.577 180.586 182.643L180.697 179.645C178.909 179.579 176.725 179.604 174.853 180.884L176.545 183.36ZM174.277 188.708C174.605 186.272 175.167 184.309 176.55 183.357L174.848 180.886C172.255 182.672 171.619 185.966 171.304 188.309L174.277 188.708ZM173.978 191.271C174.061 190.416 174.161 189.563 174.277 188.711L171.304 188.306C171.183 189.196 171.079 190.087 170.992 190.98L173.978 191.271ZM173.781 193.663C173.831 192.865 173.897 192.07 173.977 191.277L170.993 190.974C170.908 191.805 170.84 192.638 170.787 193.474L173.781 193.663ZM173.709 201.617C173.585 198.967 173.609 196.313 173.781 193.666L170.787 193.472C170.608 196.23 170.583 198.996 170.712 201.757L173.709 201.617ZM173.788 203.07C173.756 202.588 173.729 202.106 173.709 201.625L170.712 201.75C170.733 202.257 170.761 202.765 170.795 203.273L173.788 203.07ZM154.005 197.82C159.396 200.986 165.485 204.51 172.256 204.671L172.328 201.672C166.459 201.532 161.032 198.468 155.524 195.233L154.005 197.82ZM150.181 194.655C151.211 196.192 152.808 197.117 154.006 197.82L155.524 195.232C154.23 194.474 153.26 193.861 152.673 192.985L150.181 194.655ZM149.044 189.663C148.837 191.394 149.23 193.143 150.157 194.618L152.697 193.022C152.135 192.128 151.897 191.069 152.023 190.021L149.044 189.663ZM149.094 189.164C149.073 189.303 149.034 189.56 149.034 189.842H152.034C152.034 189.811 152.038 189.766 152.063 189.593L149.094 189.164ZM149.104 189.1L149.104 189.1L152.052 189.656L152.052 189.656L149.104 189.1ZM149.109 189.054C149.105 189.088 149.1 189.122 149.094 189.164L152.063 189.593C152.069 189.553 152.076 189.505 152.082 189.455L149.109 189.054ZM150.081 185.362C149.627 186.546 149.302 187.776 149.112 189.031L152.079 189.478C152.236 188.438 152.505 187.418 152.882 186.436L150.081 185.362ZM157.764 172.3C154.445 176.169 151.841 180.598 150.074 185.379L152.888 186.419C154.531 181.971 156.954 177.852 160.041 174.254L157.764 172.3ZM158.343 171.634C158.153 171.852 157.957 172.075 157.764 172.301L160.042 174.253C160.224 174.04 160.41 173.828 160.602 173.608L158.343 171.634ZM161.062 167.595C160.615 169.001 159.605 170.19 158.343 171.634L160.602 173.608C161.781 172.258 163.252 170.608 163.921 168.505L161.062 167.595ZM161.356 166.4C161.258 166.862 161.176 167.24 161.063 167.594L163.921 168.506C164.087 167.986 164.197 167.463 164.29 167.025L161.356 166.4ZM161.738 164.881C161.565 165.414 161.452 165.951 161.356 166.4L164.29 167.025C164.391 166.551 164.475 166.167 164.591 165.807L161.738 164.881ZM165.97 159.364C164.452 160.756 162.555 162.45 161.743 164.866L164.587 165.822C165.109 164.267 166.358 163.078 167.997 161.576L165.97 159.364ZM169.288 155.422C168.676 156.853 167.478 157.982 165.97 159.364L167.997 161.576C169.407 160.284 171.136 158.731 172.047 156.602L169.288 155.422ZM169.647 154.428C169.52 154.817 169.418 155.125 169.293 155.411L172.042 156.612C172.234 156.173 172.379 155.727 172.498 155.361L169.647 154.428ZM169.65 154.42L169.65 154.42L172.496 155.369L172.496 155.369L169.65 154.42ZM170.405 152.569C170.037 153.221 169.817 153.908 169.647 154.428L172.498 155.361C172.684 154.795 172.82 154.394 173.018 154.042L170.405 152.569ZM172.437 150.283C171.638 150.902 170.958 151.661 170.432 152.524L172.992 154.088C173.328 153.536 173.763 153.051 174.274 152.655L172.437 150.283ZM173.162 149.702C172.919 149.893 172.653 150.101 172.394 150.318L174.317 152.621C174.536 152.438 174.765 152.258 175.014 152.062L173.162 149.702ZM173.295 149.598L173.162 149.702L175.015 152.062L175.148 151.957L173.295 149.598ZM181.039 142.947C178.556 145.282 175.975 147.498 173.297 149.597L175.147 151.958C177.896 149.804 180.545 147.529 183.094 145.133L181.039 142.947ZM183.463 144.589C183.528 144.422 183.597 144.245 183.669 144.063L180.874 142.973C180.802 143.156 180.735 143.329 180.671 143.492L183.463 144.589ZM183.669 144.063C184.013 143.18 184.405 142.176 184.773 141.362C184.959 140.952 185.121 140.63 185.251 140.412C185.317 140.302 185.355 140.251 185.366 140.238C185.4 140.197 185.302 140.337 185.067 140.448L183.785 137.736C183.418 137.909 183.176 138.179 183.055 138.325C182.911 138.5 182.784 138.693 182.676 138.873C182.459 139.236 182.243 139.677 182.04 140.125C181.633 141.025 181.21 142.109 180.874 142.973L183.669 144.063ZM184.742 136.447C184.04 137.042 183.33 138.043 183.2 138.228L185.652 139.956C185.714 139.868 185.882 139.635 186.09 139.376C186.311 139.103 186.525 138.868 186.682 138.735L184.742 136.447ZM187.567 134.774C186.719 135.179 185.642 135.683 184.741 136.447L186.683 138.734C187.234 138.267 187.94 137.92 188.858 137.482L187.567 134.774ZM190.233 132.887C189.816 133.647 188.998 134.092 187.567 134.774L188.858 137.482C190.092 136.894 191.898 136.087 192.863 134.331L190.233 132.887ZM190.657 131.641C190.505 132.22 190.401 132.582 190.234 132.885L192.861 134.333C193.238 133.65 193.422 132.92 193.558 132.405L190.657 131.641ZM190.652 131.659L190.652 131.659L193.563 132.387L193.563 132.387L190.652 131.659ZM191.114 130.205C190.898 130.717 190.762 131.241 190.657 131.641L193.558 132.405C193.673 131.968 193.758 131.656 193.876 131.376L191.114 130.205ZM195.218 126.013C193.843 126.944 191.992 128.149 191.116 130.202L193.875 131.379C194.345 130.278 195.367 129.535 196.901 128.496L195.218 126.013ZM197.608 124.133C196.991 124.803 196.19 125.354 195.218 126.013L196.901 128.496C197.817 127.875 198.92 127.136 199.813 126.167L197.608 124.133ZM199.687 120.405C199.041 121.931 198.504 123.162 197.608 124.133L199.813 126.167C201.121 124.749 201.839 123.018 202.449 121.575L199.687 120.405ZM199.676 120.433L199.676 120.433L202.461 121.547L202.461 121.547L199.676 120.433ZM201.412 116.972C200.66 118.096 200.142 119.33 199.687 120.405L202.449 121.575C202.924 120.454 203.338 119.488 203.906 118.639L201.412 116.972ZM206.691 112.569C204.561 113.515 202.736 115.035 201.421 116.958L203.897 118.652C204.898 117.188 206.287 116.031 207.909 115.31L206.691 112.569ZM207.197 112.341C207.003 112.422 206.817 112.508 206.656 112.584L207.943 115.294C208.092 115.224 208.223 115.163 208.346 115.112L207.197 112.341ZM218.124 110.549C214.738 110.541 210.677 110.853 207.182 112.348L208.361 115.106C211.286 113.856 214.852 113.541 218.117 113.549L218.124 110.549ZM224.957 111.347C223.905 110.929 222.455 110.746 221.244 110.654C219.983 110.559 218.778 110.549 218.121 110.549V113.549C218.755 113.549 219.87 113.559 221.017 113.646C222.214 113.736 223.258 113.9 223.846 114.134L224.957 111.347ZM226.143 112.084C225.787 111.75 225.366 111.493 224.906 111.328L223.897 114.154C223.969 114.179 224.035 114.22 224.091 114.272L226.143 112.084ZM223.948 121.499C224.689 120.71 225.796 119.222 226.498 117.627C226.85 116.828 227.141 115.914 227.181 114.992C227.223 114.047 226.999 113.009 226.221 112.163L224.013 114.193C224.109 114.297 224.201 114.475 224.184 114.861C224.166 115.27 224.024 115.803 223.753 116.418C223.21 117.651 222.311 118.86 221.761 119.446L223.948 121.499Z" fill="black"/>
<mask id="path-7-inside-1" fill="white">
<path d="M229.57 204.65L117.747 185.572L113.412 207.488L164.671 213.623L180.454 215.599L223.869 207.051L229.57 204.65Z"/>
</mask>
<path d="M229.57 204.65L117.747 185.572L113.412 207.488L164.671 213.623L180.454 215.599L223.869 207.051L229.57 204.65Z" fill="white" stroke="black" stroke-width="6" mask="url(#path-7-inside-1)"/>
<path d="M172.029 213.031L227.969 198.146C228.249 198.071 228.537 198.083 228.813 198.184C229.089 198.284 229.346 198.47 229.565 198.728C229.784 198.985 229.961 199.308 230.081 199.674C230.202 200.039 230.264 200.438 230.263 200.841C230.264 201.481 230.107 202.101 229.818 202.594C229.529 203.086 229.128 203.42 228.683 203.536L174.053 218.016L172.029 213.031Z" fill="white" stroke="black" stroke-width="3" stroke-linecap="round"/>
<path d="M195.988 181.396C197.732 181.234 199.499 180.96 201.07 180.186C203.003 179.224 204.508 177.565 206.298 176.344C210.235 173.638 215.503 173.274 220.016 174.828C224.529 176.382 228.296 179.711 230.934 183.685C232.686 186.333 234.001 189.712 232.763 192.635C232.338 193.528 231.803 194.364 231.17 195.124L227.944 199.338C227.331 200.224 226.594 201.017 225.755 201.692C224.549 202.57 223.048 202.929 221.571 203.146C217.645 203.718 213.65 203.393 209.694 203.656C202.899 204.108 196.262 206.297 189.452 206.223C185.538 206.181 181.675 205.392 177.85 204.603L160.922 201.124C157.975 200.521 154.645 199.639 153.257 196.968C152.634 195.766 152.518 194.374 152.445 193.021C152.244 189.294 152.445 185.15 155.028 182.463C157.457 179.943 161.297 179.146 164.198 177.283C167.748 174.998 168.92 175.737 172.664 177.453C179.967 180.759 188.003 182.118 195.988 181.396Z" fill="white" stroke="black" stroke-width="3" stroke-linecap="round"/>
<path d="M263.967 176.096C259.218 177.932 254.442 179.776 249.468 180.87C241.13 182.707 232.405 182.417 224.133 184.516C219.763 185.629 215.419 187.423 210.929 187.059C208.922 186.897 206.985 186.286 205.032 185.822C194.06 183.116 181.587 183.994 172.677 190.952C169.629 193.33 167.135 196.295 164.873 199.457C164.388 200.14 164.061 200.922 163.914 201.746C163.767 202.57 163.804 203.416 164.023 204.225C164.241 205.033 164.636 205.783 165.178 206.421C165.72 207.059 166.396 207.569 167.158 207.916C170.623 209.509 174.335 210.499 178.134 210.842C183.212 211.291 188.313 210.572 193.364 209.853C200.859 208.79 208.358 207.723 215.833 206.528C218.517 206.099 221.201 205.654 223.901 205.314C243.327 202.859 263.105 205.844 282.581 203.795C284.549 203.586 286.553 203.316 288.343 202.477C292.876 200.35 295.119 194.745 294.183 189.82C293.247 184.895 289.635 180.801 285.288 178.288C281.645 176.173 277.716 175.319 273.659 174.422C269.892 173.544 267.595 174.704 263.967 176.096Z" fill="white" stroke="black" stroke-width="3" stroke-linecap="round"/>
<path d="M309.156 156.741C309.388 153.227 308.932 149.461 306.789 146.655C304.983 144.304 302.187 142.851 301.124 140.013C300.014 137.032 302.046 134.868 299.265 132.78L279.928 127.793C277.882 128.083 273.286 128.74 272.161 130.476C270.946 132.335 271.391 134.794 271.847 136.974C272.582 140.446 273.186 144.173 271.809 147.439C271.356 148.506 270.703 149.492 270.409 150.613C269.616 153.648 271.635 156.799 271.248 159.891C271.02 161.824 269.891 163.595 269.817 165.528C269.724 167.952 271.128 170.971 269.194 172.486C268.185 173.287 266.739 173.128 265.478 173.41C262.949 173.963 255.755 176.43 256.142 178.989C259.282 176.511 268.893 175.927 272.818 176.638C276.744 177.35 280.317 179.534 283.055 182.437C284.776 184.262 286.226 186.454 286.652 188.924C286.984 190.861 286.671 192.848 286.362 194.781C285.913 197.576 281.613 201.624 281.164 204.419C286.095 202.509 295.926 203.881 300.613 201.442C304.144 199.606 305.761 195.496 306.878 191.673C307.826 188.433 308.627 185.124 308.766 181.749C308.963 176.924 307.795 172.1 307.965 167.26C308.089 163.73 308.924 160.255 309.156 156.741Z" fill="#FFD749"/>
<path d="M50.8942 128.337L71.9213 206.018C72.1793 206.969 72.7213 207.82 73.4751 208.456C74.2289 209.092 75.1587 209.484 76.1407 209.578L170.784 218.667C171.555 218.741 172.333 218.63 173.052 218.342C173.772 218.054 174.412 217.597 174.918 217.011C175.425 216.425 175.784 215.726 175.965 214.973C176.146 214.22 176.144 213.434 175.958 212.682L152.932 118.981C152.658 117.867 151.998 116.887 151.069 116.214C150.14 115.541 149.002 115.219 147.858 115.305L55.1987 122.232C54.4872 122.288 53.7968 122.499 53.1765 122.852C52.5563 123.204 52.0215 123.69 51.6104 124.273C51.1993 124.856 50.9219 125.522 50.7981 126.225C50.6744 126.927 50.7072 127.648 50.8942 128.337Z" fill="white" stroke="black" stroke-width="3" stroke-linecap="round"/>
<path d="M216.408 122.646C231.968 122.646 244.582 110.037 244.582 94.4832C244.582 78.9293 231.968 66.3203 216.408 66.3203C200.848 66.3203 188.234 78.9293 188.234 94.4832C188.234 110.037 200.848 122.646 216.408 122.646Z" fill="white" stroke="black" stroke-width="3" stroke-linecap="round"/>
<mask id="path-14-inside-2" fill="white">
<path d="M214.104 83.4686C217.111 85.3976 218.297 89.2083 220.816 91.7422C224.383 95.3041 229.941 95.8185 234.973 95.563C237.776 95.4275 240.735 95.1603 243.159 96.5366C243.504 96.7907 243.913 96.9443 244.34 96.9803C244.943 96.9435 245.361 96.3789 245.67 95.8613C251.015 86.9873 251.98 75.8087 249.094 65.8639C248.348 63.2991 247.337 60.7546 245.62 58.7074C244.267 57.0968 242.53 55.853 240.752 54.7266C237.501 52.6758 234.047 50.9648 230.446 49.6205C229.816 49.3558 229.15 49.1857 228.47 49.1156C227.528 49.0612 226.603 49.3712 225.694 49.6292C221.804 50.7222 217.716 50.915 213.74 50.193C208.41 49.2222 202.645 46.6387 197.819 49.1256C192.008 52.1032 191.471 60.3037 187.063 65.1166C184.145 68.2996 179.495 70.0493 177.904 74.0566C177.448 75.2882 177.242 76.5981 177.298 77.9099C177.434 84.6479 182.526 90.9712 189.1 92.55C190.097 92.8518 191.158 92.8687 192.163 92.5988C192.844 92.3268 193.475 91.9465 194.034 91.4727C199.493 87.3125 206.605 78.6555 214.104 83.4686Z"/>
</mask>
<path d="M214.104 83.4686C217.111 85.3976 218.297 89.2083 220.816 91.7422C224.383 95.3041 229.941 95.8185 234.973 95.563C237.776 95.4275 240.735 95.1603 243.159 96.5366C243.504 96.7907 243.913 96.9443 244.34 96.9803C244.943 96.9435 245.361 96.3789 245.67 95.8613C251.015 86.9873 251.98 75.8087 249.094 65.8639C248.348 63.2991 247.337 60.7546 245.62 58.7074C244.267 57.0968 242.53 55.853 240.752 54.7266C237.501 52.6758 234.047 50.9648 230.446 49.6205C229.816 49.3558 229.15 49.1857 228.47 49.1156C227.528 49.0612 226.603 49.3712 225.694 49.6292C221.804 50.7222 217.716 50.915 213.74 50.193C208.41 49.2222 202.645 46.6387 197.819 49.1256C192.008 52.1032 191.471 60.3037 187.063 65.1166C184.145 68.2996 179.495 70.0493 177.904 74.0566C177.448 75.2882 177.242 76.5981 177.298 77.9099C177.434 84.6479 182.526 90.9712 189.1 92.55C190.097 92.8518 191.158 92.8687 192.163 92.5988C192.844 92.3268 193.475 91.9465 194.034 91.4727C199.493 87.3125 206.605 78.6555 214.104 83.4686Z" fill="black" stroke="black" stroke-width="6" mask="url(#path-14-inside-2)"/>
<path d="M306.444 143.919C307.531 147.44 309.388 153.227 309.156 156.741C308.924 160.255 308.089 163.73 307.965 167.26C307.795 172.1 308.963 176.925 308.766 181.749C308.626 185.124 307.826 188.433 306.878 191.673C305.761 195.496 304.144 199.606 300.613 201.442C295.926 203.881 286.095 202.509 281.164 204.419C284.108 202.082 285.913 197.576 286.362 194.781C286.671 192.848 286.984 190.861 286.652 188.924C286.226 186.454 284.776 184.262 283.055 182.437C280.317 179.534 276.744 177.35 272.818 176.639C268.893 175.927 260.177 177.781 256.142 178.989C255.755 176.43 262.949 173.963 265.478 173.411C266.739 173.128 268.185 173.287 269.194 172.487C271.128 170.971 269.724 167.952 269.817 165.528C269.891 163.595 271.02 161.824 271.248 159.892C271.635 156.799 269.616 153.648 270.409 150.613C270.703 149.492 271.356 148.507 271.809 147.44C273.186 144.173 272.582 140.446 271.847 136.975" stroke="black" stroke-width="3" stroke-linecap="round"/>
</g>
</g>
<defs>
<clipPath id="clip0">
<rect width="352" height="200" fill="white"/>
</clipPath>
<clipPath id="clip1">
<rect width="280" height="196" fill="white" transform="translate(42 26)"/>
</clipPath>
</defs>
</svg>
