<svg width="352" height="200" viewBox="0 0 352 200" fill="none" xmlns="http://www.w3.org/2000/svg">
<g clip-path="url(#clip0)">
<rect width="352" height="200" fill="#FEF6E0"/>
<path d="M140 210H124.107L122.428 196.859C95.0038 201.459 69.1317 202.933 46.7534 197.368C44.8624 196.904 43.088 196.056 41.5415 194.876C39.995 193.696 38.71 192.209 37.767 190.511C36.8239 188.812 36.2433 186.937 36.0616 185.004C35.8799 183.07 36.101 181.121 36.7111 179.277C39.3893 171.307 44.1079 162.766 49.6314 154L86.3763 167.134L87.7629 172.664L126.956 167.718C128.935 167.468 130.945 167.631 132.857 168.198C134.77 168.764 136.543 169.721 138.065 171.007C139.587 172.293 140.823 173.881 141.697 175.67C142.57 177.458 143.06 179.408 143.137 181.396L140 210Z" fill="black"/>
<path d="M117.62 111L94 108.268L103.143 83H126L117.62 111Z" fill="white" stroke="black" stroke-width="3" stroke-linecap="round"/>
<path d="M133.434 106.662C133.162 106.937 133.006 107.311 133 107.704C132.995 108.097 133.14 108.476 133.404 108.759C133.866 108.965 143.021 119.703 143.583 118.964C143.775 118.966 143.965 118.928 144.142 118.854C144.32 118.78 144.481 118.67 144.616 118.53L172.548 89.9063C172.701 89.7501 172.818 89.5606 172.89 89.3517C172.963 89.1428 172.988 88.9199 172.966 88.6994C173.72 87.9722 161.701 80.6423 161.334 80.2434C161.059 80.0574 160.731 79.974 160.403 80.0071C160.076 80.0403 159.77 80.188 159.536 80.4256L133.434 106.662Z" fill="black"/>
<path d="M169.827 89.1662L168.748 88.3938C168.856 88.6213 168.893 88.8826 168.854 89.1365C168.815 89.3905 168.702 89.6226 168.532 89.7962C168.363 89.9699 168.146 90.0753 167.918 90.0957C167.689 90.1162 167.461 90.0506 167.269 89.9092L160.288 84.5196C160.132 84.3956 160.009 84.2253 159.934 84.0276C159.859 83.83 159.834 83.6129 159.862 83.4003C159.89 83.1877 159.97 82.9881 160.093 82.8236C160.217 82.6592 160.378 82.5363 160.56 82.4686C160.283 82.3633 159.837 81.7329 159.537 82.1297L136.053 108.047C135.216 108.504 144.586 117.622 144.591 117.981C145.29 118.856 169.379 89.8377 169.891 89.8177C169.93 89.7731 169.961 89.7192 169.979 89.6598C169.997 89.6005 170.004 89.5372 169.998 89.4747C169.992 89.4122 169.973 89.3521 169.943 89.2987C169.914 89.2453 169.874 89.2 169.827 89.1662Z" fill="white"/>
<path d="M147.08 136L138 131.851L145.567 113.182L147.561 103.766C147.82 102.543 148.426 101.403 149.318 100.461C150.21 99.5189 151.357 98.8071 152.645 98.3969C153.932 97.9867 155.315 97.8924 156.655 98.1235C157.994 98.3546 159.244 98.903 160.28 99.7138C161.814 100.915 162.777 102.615 162.966 104.453C163.155 106.291 162.555 108.124 161.293 109.566L153.89 118.022L147.08 136Z" fill="white" stroke="black" stroke-width="3" stroke-linecap="round"/>
<path d="M120.5 89C131.27 89 140 80.7173 140 70.5C140 60.2827 131.27 52 120.5 52C109.73 52 101 60.2827 101 70.5C101 80.7173 109.73 89 120.5 89Z" fill="white" stroke="black" stroke-width="3" stroke-linecap="round"/>
<mask id="path-7-inside-1" fill="white">
<path d="M128.12 136.588C126.983 139.613 125.335 142.438 123.242 144.95C120.258 148.458 116.673 151.454 112.639 153.81C111.937 154.246 111.208 154.663 110.454 155.075L106.148 158.589L90.9341 171L49 155.766C58.2493 136.078 69.7882 120.514 83.0117 107.978C85.759 104.118 89.6754 101.157 94.2332 99.4952C98.791 97.8331 103.771 97.5491 108.503 98.6815L124.191 102.439C129.772 115.056 131.847 126.657 128.12 136.588Z"/>
</mask>
<path d="M128.12 136.588C126.983 139.613 125.335 142.438 123.242 144.95C120.258 148.458 116.673 151.454 112.639 153.81C111.937 154.246 111.208 154.663 110.454 155.075L106.148 158.589L90.9341 171L49 155.766C58.2493 136.078 69.7882 120.514 83.0117 107.978C85.759 104.118 89.6754 101.157 94.2332 99.4952C98.791 97.8331 103.771 97.5491 108.503 98.6815L124.191 102.439C129.772 115.056 131.847 126.657 128.12 136.588Z" fill="#FFD749" stroke="black" stroke-width="6" stroke-linecap="round" mask="url(#path-7-inside-1)"/>
<path d="M137.971 127.206L149 132.869L140.63 159.8C140.029 161.734 138.952 163.476 137.503 164.856C136.053 166.237 134.281 167.209 132.358 167.68C129.987 168.259 127.497 168.049 125.251 167.078C123.004 166.107 121.117 164.426 119.863 162.28L97.6689 123.214C96.0961 120.522 95.6107 117.305 96.3162 114.251C97.0218 111.196 98.8624 108.546 101.445 106.866C102.834 105.963 104.393 105.37 106.02 105.126C107.647 104.882 109.305 104.993 110.888 105.451C112.47 105.909 113.941 106.704 115.205 107.784C116.468 108.865 117.496 110.206 118.221 111.721L131.768 141.363L137.971 127.206Z" fill="#FFD749"/>
<path d="M97.668 123.214L119.862 162.28C121.116 164.426 123.003 166.107 125.25 167.078C127.496 168.049 129.986 168.259 132.357 167.68C134.28 167.209 136.052 166.237 137.502 164.856C138.951 163.476 140.028 161.734 140.629 159.8L148.999 132.869L137.97 127.206C137.97 127.206 134.999 135 131.767 141.363C128.999 133.5 122.461 125.296 116.499 115" stroke="black" stroke-width="3" stroke-linecap="round"/>
<path d="M129.952 61.9821C131.535 63.2985 133.321 64.3499 135.241 65.0954C137.19 65.7482 139.453 65.762 141.193 64.669C143.245 63.3802 144.181 60.7623 143.971 58.3524C143.761 55.9426 142.576 53.719 141.16 51.755C138.554 48.1387 135.127 45.1886 131.16 43.1457C127.192 41.1028 122.797 40.0251 118.332 40.0004C113.867 39.9758 109.46 41.005 105.47 43.004C101.481 45.003 98.0212 47.9151 95.375 51.5025C93.5585 53.965 92.1188 56.8245 91.9613 59.8779C91.6837 65.2591 95.3747 70.2825 94.9801 75.6564C94.6463 80.2017 91.3761 84.0953 87.503 86.512C83.6298 88.9287 79.1539 90.154 74.8234 91.6053C70.4929 93.0566 66.1136 94.8475 62.9085 98.095C59.7033 101.343 57.9355 106.382 59.6948 110.588C61.1405 114.044 64.5757 116.242 68.0203 117.73C77.257 121.676 87.6321 122.064 97.1392 118.821C100.644 117.608 104.472 115.183 104.525 111.483C104.548 109.877 103.823 108.369 103.388 106.822C102.953 105.276 102.872 103.431 103.963 102.25C105.316 100.785 107.817 101.123 109.435 102.291C111.052 103.459 112.104 105.231 113.438 106.713C115.972 109.527 119.813 111.324 123.567 110.794C127.321 110.264 130.715 107.074 130.87 103.295C131.137 96.8025 122.983 92.7379 122.097 86.3007C121.505 82.0015 124.311 78.0683 126.742 74.4698C129.173 70.8712 131.434 66.3626 129.733 62.3689" fill="black"/>
<path d="M121.815 208H29.1854C27.9792 208 26.7847 207.759 25.6703 207.291C24.5559 206.822 23.5433 206.136 22.6903 205.27C21.8374 204.405 21.1608 203.377 20.6992 202.246C20.2376 201.115 20 199.903 20 198.679V193.627C20.001 191.486 20.468 189.372 21.3675 187.435C22.2671 185.499 23.577 183.788 25.2037 182.424C40.8403 169.311 53.4969 158.161 70.9623 159.05C86.0522 159.817 105.127 179.087 121.576 185.032C124.342 186.043 126.732 187.897 128.419 190.34C130.106 192.783 131.008 195.696 131 198.679C131 199.903 130.762 201.115 130.301 202.246C129.839 203.377 129.163 204.405 128.31 205.27C127.457 206.136 126.444 206.822 125.33 207.291C124.215 207.759 123.021 208 121.815 208Z" fill="white" stroke="black" stroke-width="3" stroke-linecap="round"/>
<mask id="path-12-inside-2" fill="white">
<path d="M375 21H199C194.582 21 191 24.5817 191 29V135C191 139.418 194.582 143 199 143H375C379.418 143 383 139.418 383 135V29C383 24.5817 379.418 21 375 21Z"/>
</mask>
<path d="M375 21H199C194.582 21 191 24.5817 191 29V135C191 139.418 194.582 143 199 143H375C379.418 143 383 139.418 383 135V29C383 24.5817 379.418 21 375 21Z" fill="white" stroke="black" stroke-width="6" stroke-linecap="round" mask="url(#path-12-inside-2)"/>
<mask id="path-13-inside-3" fill="white">
<path d="M329 55H210V62H329V55Z"/>
</mask>
<path d="M329 55H210V62H329V55Z" fill="black" stroke="black" stroke-width="6" stroke-linecap="round" mask="url(#path-13-inside-3)"/>
<mask id="path-14-inside-4" fill="white">
<path d="M329 70H210V77H329V70Z"/>
</mask>
<path d="M329 70H210V77H329V70Z" fill="black" stroke="black" stroke-width="6" stroke-linecap="round" mask="url(#path-14-inside-4)"/>
<mask id="path-15-inside-5" fill="white">
<path d="M329 85H210V92H329V85Z"/>
</mask>
<path d="M329 85H210V92H329V85Z" fill="black" stroke="black" stroke-width="6" stroke-linecap="round" mask="url(#path-15-inside-5)"/>
<mask id="path-16-inside-6" fill="white">
<path d="M264 40H210V47H264V40Z"/>
</mask>
<path d="M264 40H210V47H264V40Z" fill="black" stroke="black" stroke-width="6" stroke-linecap="round" mask="url(#path-16-inside-6)"/>
</g>
<defs>
<clipPath id="clip0">
<rect width="352" height="200" fill="white"/>
</clipPath>
</defs>
</svg>
