<svg width="1348" height="20" viewBox="0 0 1348 20" fill="none" xmlns="http://www.w3.org/2000/svg">
    <path d="M7.74481 16.6006H8.9214C10.026 16.6006 10.9214 15.7052 10.9214 14.6006V3.60059C10.9214 2.49602 10.026 1.60059 8.9214 1.60059H2.5269C1.46626 1.60059 0.606445 2.4604 0.606445 3.52104V3.52104" stroke="#C2C2C2"/>
    <mask id="path-2-inside-1" fill="white">
        <path d="M0 3.48009C0 1.99722 1.55716 1.03003 2.88643 1.68726L7.18002 3.81013C7.86198 4.14731 8.2936 4.8422 8.2936 5.60296V17.5431C8.2936 19.0259 6.73643 19.9931 5.40717 19.3359L1.11357 17.213C0.431612 16.8759 0 16.181 0 15.4202V3.48009Z"/>
    </mask>
    <path d="M1.11357 17.213L0.670361 18.1095L1.11357 17.213ZM7.18002 3.81013L6.73681 4.70655L7.18002 3.81013ZM2.88643 1.68726L3.32964 0.790839L2.88643 1.68726ZM2.44321 2.58367L6.73681 4.70655L7.62324 2.91371L3.32964 0.790839L2.44321 2.58367ZM7.2936 5.60296V17.5431H9.2936V5.60296H7.2936ZM5.85038 18.4395L1.55679 16.3166L0.670361 18.1095L4.96396 20.2323L5.85038 18.4395ZM1 15.4202V3.48009H-1V15.4202H1ZM1.55679 16.3166C1.21581 16.148 1 15.8006 1 15.4202H-1C-1 16.5614 -0.352581 17.6037 0.670361 18.1095L1.55679 16.3166ZM7.2936 17.5431C7.2936 18.2845 6.51502 18.7681 5.85038 18.4395L4.96396 20.2323C6.95785 21.2182 9.2936 19.7674 9.2936 17.5431H7.2936ZM6.73681 4.70655C7.07779 4.87514 7.2936 5.22258 7.2936 5.60296H9.2936C9.2936 4.46182 8.64618 3.41948 7.62324 2.91371L6.73681 4.70655ZM3.32964 0.790839C1.33575 -0.194996 -1 1.25579 -1 3.48009H1C1 2.73866 1.77858 2.25506 2.44321 2.58367L3.32964 0.790839Z" fill="#C2C2C2" mask="url(#path-2-inside-1)"/>
    <ellipse rx="0.135168" ry="0.348026" transform="matrix(0.999978 -0.00666598 0.00681713 0.999977 5.88656 11.3999)" stroke="#C2C2C2"/>
    <rect x="39.3555" y="2.43359" width="7.15758" height="6.33334" rx="1.5" stroke="#C2C2C2"/>
    <rect x="34.1641" y="11.9668" width="5.67438" height="5.6" rx="1.5" stroke="#C2C2C2"/>
    <rect x="42.3213" y="11.9668" width="4.19119" height="4.13333" rx="1.5" stroke="#C2C2C2"/>
    <rect x="73.626" y="2.43359" width="7.15758" height="6.33334" rx="1.5" stroke="#C2C2C2"/>
    <rect x="68.4346" y="11.9668" width="5.67438" height="5.6" rx="1.5" stroke="#C2C2C2"/>
    <rect x="76.5918" y="11.9668" width="4.19119" height="4.13333" rx="1.5" stroke="#C2C2C2"/>
    <path d="M98.7666 1H104.834C105.907 1 106.936 1.42143 107.695 2.17157C108.453 2.92172 108.879 3.93913 108.879 5V19C108.879 18.2044 108.56 17.4413 107.991 16.8787C107.422 16.3161 106.65 16 105.845 16H98.7666V1Z" stroke="#C2C2C2" stroke-linecap="round" stroke-linejoin="round"/>
    <path d="M118.992 1H112.924C111.851 1 110.822 1.42143 110.064 2.17157C109.305 2.92172 108.879 3.93913 108.879 5V19C108.879 18.2044 109.199 17.4413 109.767 16.8787C110.336 16.3161 111.108 16 111.913 16H118.992V1Z" stroke="#C2C2C2" stroke-linecap="round" stroke-linejoin="round"/>
    <path d="M167.308 1H173.375C174.448 1 175.477 1.42143 176.236 2.17157C176.994 2.92172 177.42 3.93913 177.42 5V19C177.42 18.2044 177.101 17.4413 176.532 16.8787C175.963 16.3161 175.191 16 174.387 16H167.308V1Z" stroke="#C2C2C2" stroke-linecap="round" stroke-linejoin="round"/>
    <path d="M187.533 1H181.465C180.392 1 179.363 1.42143 178.605 2.17157C177.846 2.92172 177.42 3.93913 177.42 5V19C177.42 18.2044 177.74 17.4413 178.309 16.8787C178.877 16.3161 179.649 16 180.454 16H187.533V1Z" stroke="#C2C2C2" stroke-linecap="round" stroke-linejoin="round"/>
    <path d="M144.827 16.6006H146.003C147.108 16.6006 148.003 15.7052 148.003 14.6006V3.60059C148.003 2.49602 147.108 1.60059 146.003 1.60059H139.609C138.548 1.60059 137.688 2.4604 137.688 3.52104V3.52104" stroke="#C2C2C2"/>
    <mask id="path-16-inside-2" fill="white">
        <path d="M137.082 3.48009C137.082 1.99722 138.639 1.03003 139.968 1.68726L144.262 3.81013C144.944 4.14731 145.376 4.8422 145.376 5.60296V17.5431C145.376 19.0259 143.818 19.9931 142.489 19.3359L138.196 17.213C137.514 16.8759 137.082 16.181 137.082 15.4202V3.48009Z"/>
    </mask>
    <path d="M138.196 17.213L137.752 18.1095L138.196 17.213ZM142.489 19.3359L142.932 18.4395L142.489 19.3359ZM144.262 3.81013L143.819 4.70655L144.262 3.81013ZM139.968 1.68726L140.412 0.790839L139.968 1.68726ZM139.525 2.58367L143.819 4.70655L144.705 2.91371L140.412 0.790839L139.525 2.58367ZM144.376 5.60296V17.5431H146.376V5.60296H144.376ZM142.932 18.4395L138.639 16.3166L137.752 18.1095L142.046 20.2323L142.932 18.4395ZM138.082 15.4202V3.48009H136.082V15.4202H138.082ZM138.639 16.3166C138.298 16.148 138.082 15.8006 138.082 15.4202H136.082C136.082 16.5614 136.729 17.6037 137.752 18.1095L138.639 16.3166ZM144.376 17.5431C144.376 18.2845 143.597 18.7681 142.932 18.4395L142.046 20.2323C144.04 21.2182 146.376 19.7674 146.376 17.5431H144.376ZM143.819 4.70655C144.16 4.87514 144.376 5.22258 144.376 5.60296H146.376C146.376 4.46182 145.728 3.41948 144.705 2.91371L143.819 4.70655ZM140.412 0.790839C138.418 -0.194996 136.082 1.25579 136.082 3.48009H138.082C138.082 2.73866 138.861 2.25506 139.525 2.58367L140.412 0.790839Z" fill="#C2C2C2" mask="url(#path-16-inside-2)"/>
    <ellipse rx="0.135168" ry="0.348026" transform="matrix(0.999978 -0.00666598 0.00681713 0.999977 142.969 11.3999)" stroke="#C2C2C2"/>
    <rect x="244.978" y="2.43359" width="7.15758" height="6.33334" rx="1.5" stroke="#C2C2C2"/>
    <rect x="239.786" y="11.9668" width="5.67438" height="5.6" rx="1.5" stroke="#C2C2C2"/>
    <rect x="247.943" y="11.9668" width="4.19119" height="4.13333" rx="1.5" stroke="#C2C2C2"/>
    <rect x="313.519" y="2.43359" width="7.15758" height="6.33334" rx="1.5" stroke="#C2C2C2"/>
    <rect x="308.327" y="11.9668" width="5.67438" height="5.6" rx="1.5" stroke="#C2C2C2"/>
    <rect x="316.484" y="11.9668" width="4.19119" height="4.13333" rx="1.5" stroke="#C2C2C2"/>
    <path d="M213.368 16.6006H214.544C215.649 16.6006 216.544 15.7052 216.544 14.6006V3.60059C216.544 2.49602 215.649 1.60059 214.544 1.60059H208.15C207.089 1.60059 206.229 2.4604 206.229 3.52104V3.52104" stroke="#C2C2C2"/>
    <mask id="path-26-inside-3" fill="white">
        <path d="M205.623 3.48009C205.623 1.99722 207.18 1.03003 208.509 1.68726L212.803 3.81013C213.485 4.14731 213.917 4.8422 213.917 5.60296V17.5431C213.917 19.0259 212.359 19.9931 211.03 19.3359L206.737 17.213C206.055 16.8759 205.623 16.181 205.623 15.4202V3.48009Z"/>
    </mask>
    <path d="M206.737 17.213L206.293 18.1095L206.737 17.213ZM211.03 19.3359L211.473 18.4395L211.03 19.3359ZM212.803 3.81013L212.36 4.70655L212.803 3.81013ZM208.509 1.68726L208.953 0.790839L208.509 1.68726ZM208.066 2.58367L212.36 4.70655L213.246 2.91371L208.953 0.790839L208.066 2.58367ZM212.917 5.60296V17.5431H214.917V5.60296H212.917ZM211.473 18.4395L207.18 16.3166L206.293 18.1095L210.587 20.2323L211.473 18.4395ZM206.623 15.4202V3.48009H204.623V15.4202H206.623ZM207.18 16.3166C206.839 16.148 206.623 15.8006 206.623 15.4202H204.623C204.623 16.5614 205.27 17.6037 206.293 18.1095L207.18 16.3166ZM212.917 17.5431C212.917 18.2845 212.138 18.7681 211.473 18.4395L210.587 20.2323C212.581 21.2182 214.917 19.7674 214.917 17.5431H212.917ZM212.36 4.70655C212.701 4.87514 212.917 5.22258 212.917 5.60296H214.917C214.917 4.46182 214.269 3.41948 213.246 2.91371L212.36 4.70655ZM208.953 0.790839C206.959 -0.194996 204.623 1.25579 204.623 3.48009H206.623C206.623 2.73866 207.402 2.25506 208.066 2.58367L208.953 0.790839Z" fill="#C2C2C2" mask="url(#path-26-inside-3)"/>
    <ellipse rx="0.135168" ry="0.348026" transform="matrix(0.999978 -0.00666598 0.00681713 0.999977 211.51 11.3999)" stroke="#C2C2C2"/>
    <path d="M281.909 16.6006H283.085C284.19 16.6006 285.085 15.7052 285.085 14.6006V3.60059C285.085 2.49602 284.19 1.60059 283.085 1.60059H276.691C275.63 1.60059 274.771 2.4604 274.771 3.52104V3.52104" stroke="#C2C2C2"/>
    <mask id="path-30-inside-4" fill="white">
        <path d="M274.164 3.48009C274.164 1.99722 275.721 1.03003 277.05 1.68726L281.344 3.81013C282.026 4.14731 282.458 4.8422 282.458 5.60296V17.5431C282.458 19.0259 280.9 19.9931 279.571 19.3359L275.278 17.213C274.596 16.8759 274.164 16.181 274.164 15.4202V3.48009Z"/>
    </mask>
    <path d="M275.278 17.213L274.834 18.1095L275.278 17.213ZM279.571 19.3359L280.014 18.4395L279.571 19.3359ZM281.344 3.81013L280.901 4.70655L281.344 3.81013ZM277.05 1.68726L277.494 0.790839L277.05 1.68726ZM276.607 2.58367L280.901 4.70655L281.787 2.91371L277.494 0.790839L276.607 2.58367ZM281.458 5.60296V17.5431H283.458V5.60296H281.458ZM280.014 18.4395L275.721 16.3166L274.834 18.1095L279.128 20.2323L280.014 18.4395ZM275.164 15.4202V3.48009H273.164V15.4202H275.164ZM275.721 16.3166C275.38 16.148 275.164 15.8006 275.164 15.4202H273.164C273.164 16.5614 273.811 17.6037 274.834 18.1095L275.721 16.3166ZM281.458 17.5431C281.458 18.2845 280.679 18.7681 280.014 18.4395L279.128 20.2323C281.122 21.2182 283.458 19.7674 283.458 17.5431H281.458ZM280.901 4.70655C281.242 4.87514 281.458 5.22258 281.458 5.60296H283.458C283.458 4.46182 282.81 3.41948 281.787 2.91371L280.901 4.70655ZM277.494 0.790839C275.5 -0.194996 273.164 1.25579 273.164 3.48009H275.164C275.164 2.73866 275.943 2.25506 276.607 2.58367L277.494 0.790839Z" fill="#C2C2C2" mask="url(#path-30-inside-4)"/>
    <ellipse rx="0.135168" ry="0.348026" transform="matrix(0.999978 -0.00666598 0.00681713 0.999977 280.051 11.3999)" stroke="#C2C2C2"/>
    <path d="M350.45 16.6006H351.626C352.731 16.6006 353.626 15.7052 353.626 14.6006V3.60059C353.626 2.49602 352.731 1.60059 351.626 1.60059H345.232C344.171 1.60059 343.312 2.4604 343.312 3.52104V3.52104" stroke="#C2C2C2"/>
    <mask id="path-34-inside-5" fill="white">
        <path d="M342.705 3.48009C342.705 1.99722 344.262 1.03003 345.592 1.68726L349.885 3.81013C350.567 4.14731 350.999 4.8422 350.999 5.60296V17.5431C350.999 19.0259 349.442 19.9931 348.112 19.3359L343.819 17.213C343.137 16.8759 342.705 16.181 342.705 15.4202V3.48009Z"/>
    </mask>
    <path d="M343.819 17.213L343.375 18.1095L343.819 17.213ZM348.112 19.3359L348.555 18.4395L348.112 19.3359ZM349.885 3.81013L349.442 4.70655L349.885 3.81013ZM345.592 1.68726L346.035 0.790839L345.592 1.68726ZM345.148 2.58367L349.442 4.70655L350.328 2.91371L346.035 0.790839L345.148 2.58367ZM349.999 5.60296V17.5431H351.999V5.60296H349.999ZM348.555 18.4395L344.262 16.3166L343.375 18.1095L347.669 20.2323L348.555 18.4395ZM343.705 15.4202V3.48009H341.705V15.4202H343.705ZM344.262 16.3166C343.921 16.148 343.705 15.8006 343.705 15.4202H341.705C341.705 16.5614 342.352 17.6037 343.375 18.1095L344.262 16.3166ZM349.999 17.5431C349.999 18.2845 349.22 18.7681 348.555 18.4395L347.669 20.2323C349.663 21.2182 351.999 19.7674 351.999 17.5431H349.999ZM349.442 4.70655C349.783 4.87514 349.999 5.22258 349.999 5.60296H351.999C351.999 4.46182 351.351 3.41948 350.328 2.91371L349.442 4.70655ZM346.035 0.790839C344.041 -0.194996 341.705 1.25579 341.705 3.48009H343.705C343.705 2.73866 344.484 2.25506 345.148 2.58367L346.035 0.790839Z" fill="#C2C2C2" mask="url(#path-34-inside-5)"/>
    <ellipse rx="0.135168" ry="0.348026" transform="matrix(0.999978 -0.00666598 0.00681713 0.999977 348.592 11.3999)" stroke="#C2C2C2"/>
    <path d="M418.991 16.6006H420.167C421.272 16.6006 422.167 15.7052 422.167 14.6006V3.60059C422.167 2.49602 421.272 1.60059 420.167 1.60059H413.773C412.712 1.60059 411.853 2.4604 411.853 3.52104V3.52104" stroke="#C2C2C2"/>
    <mask id="path-38-inside-6" fill="white">
        <path d="M411.246 3.48009C411.246 1.99722 412.803 1.03003 414.133 1.68726L418.426 3.81013C419.108 4.14731 419.54 4.8422 419.54 5.60296V17.5431C419.54 19.0259 417.983 19.9931 416.653 19.3359L412.36 17.213C411.678 16.8759 411.246 16.181 411.246 15.4202V3.48009Z"/>
    </mask>
    <path d="M412.36 17.213L411.916 18.1095L412.36 17.213ZM416.653 19.3359L417.096 18.4395L416.653 19.3359ZM418.426 3.81013L417.983 4.70655L418.426 3.81013ZM414.133 1.68726L414.576 0.790839L414.133 1.68726ZM413.689 2.58367L417.983 4.70655L418.869 2.91371L414.576 0.790839L413.689 2.58367ZM418.54 5.60296V17.5431H420.54V5.60296H418.54ZM417.096 18.4395L412.803 16.3166L411.916 18.1095L416.21 20.2323L417.096 18.4395ZM412.246 15.4202V3.48009H410.246V15.4202H412.246ZM412.803 16.3166C412.462 16.148 412.246 15.8006 412.246 15.4202H410.246C410.246 16.5614 410.894 17.6037 411.916 18.1095L412.803 16.3166ZM418.54 17.5431C418.54 18.2845 417.761 18.7681 417.096 18.4395L416.21 20.2323C418.204 21.2182 420.54 19.7674 420.54 17.5431H418.54ZM417.983 4.70655C418.324 4.87514 418.54 5.22258 418.54 5.60296H420.54C420.54 4.46182 419.892 3.41948 418.869 2.91371L417.983 4.70655ZM414.576 0.790839C412.582 -0.194996 410.246 1.25579 410.246 3.48009H412.246C412.246 2.73866 413.025 2.25506 413.689 2.58367L414.576 0.790839Z" fill="#C2C2C2" mask="url(#path-38-inside-6)"/>
    <ellipse rx="0.135168" ry="0.348026" transform="matrix(0.999978 -0.00666598 0.00681713 0.999977 417.133 11.3999)" stroke="#C2C2C2"/>
    <path d="M372.931 1H378.998C380.071 1 381.1 1.42143 381.859 2.17157C382.617 2.92172 383.043 3.93913 383.043 5V19C383.043 18.2044 382.724 17.4413 382.155 16.8787C381.586 16.3161 380.814 16 380.01 16H372.931V1Z" stroke="#C2C2C2" stroke-linecap="round" stroke-linejoin="round"/>
    <path d="M393.156 1H387.088C386.015 1 384.986 1.42143 384.228 2.17157C383.469 2.92172 383.043 3.93913 383.043 5V19C383.043 18.2044 383.363 17.4413 383.932 16.8787C384.501 16.3161 385.272 16 386.077 16H393.156V1Z" stroke="#C2C2C2" stroke-linecap="round" stroke-linejoin="round"/>
    <path d="M487.532 16.6006H488.709C489.813 16.6006 490.709 15.7052 490.709 14.6006V3.60059C490.709 2.49602 489.813 1.60059 488.709 1.60059H482.314C481.253 1.60059 480.394 2.4604 480.394 3.52104V3.52104" stroke="#C2C2C2"/>
    <mask id="path-44-inside-7" fill="white">
        <path d="M479.787 3.48009C479.787 1.99722 481.344 1.03003 482.674 1.68726L486.967 3.81013C487.649 4.14731 488.081 4.8422 488.081 5.60296V17.5431C488.081 19.0259 486.524 19.9931 485.194 19.3359L480.901 17.213C480.219 16.8759 479.787 16.181 479.787 15.4202V3.48009Z"/>
    </mask>
    <path d="M480.901 17.213L480.457 18.1095L480.901 17.213ZM485.194 19.3359L485.637 18.4395L485.194 19.3359ZM486.967 3.81013L486.524 4.70655L486.967 3.81013ZM482.674 1.68726L483.117 0.790839L482.674 1.68726ZM482.23 2.58367L486.524 4.70655L487.41 2.91371L483.117 0.790839L482.23 2.58367ZM487.081 5.60296V17.5431H489.081V5.60296H487.081ZM485.637 18.4395L481.344 16.3166L480.457 18.1095L484.751 20.2323L485.637 18.4395ZM480.787 15.4202V3.48009H478.787V15.4202H480.787ZM481.344 16.3166C481.003 16.148 480.787 15.8006 480.787 15.4202H478.787C478.787 16.5614 479.435 17.6037 480.457 18.1095L481.344 16.3166ZM487.081 17.5431C487.081 18.2845 486.302 18.7681 485.637 18.4395L484.751 20.2323C486.745 21.2182 489.081 19.7674 489.081 17.5431H487.081ZM486.524 4.70655C486.865 4.87514 487.081 5.22258 487.081 5.60296H489.081C489.081 4.46182 488.433 3.41948 487.41 2.91371L486.524 4.70655ZM483.117 0.790839C481.123 -0.194996 478.787 1.25579 478.787 3.48009H480.787C480.787 2.73866 481.566 2.25506 482.23 2.58367L483.117 0.790839Z" fill="#C2C2C2" mask="url(#path-44-inside-7)"/>
    <ellipse rx="0.135168" ry="0.348026" transform="matrix(0.999978 -0.00666598 0.00681713 0.999977 485.674 11.3999)" stroke="#C2C2C2"/>
    <rect x="450.601" y="2.43359" width="7.15758" height="6.33334" rx="1.5" stroke="#C2C2C2"/>
    <rect x="445.409" y="11.9668" width="5.67438" height="5.6" rx="1.5" stroke="#C2C2C2"/>
    <rect x="453.566" y="11.9668" width="4.19119" height="4.13333" rx="1.5" stroke="#C2C2C2"/>
    <rect x="519.142" y="2.43359" width="7.15758" height="6.33334" rx="1.5" stroke="#C2C2C2"/>
    <rect x="513.95" y="11.9668" width="5.67438" height="5.6" rx="1.5" stroke="#C2C2C2"/>
    <rect x="522.107" y="11.9668" width="4.19119" height="4.13333" rx="1.5" stroke="#C2C2C2"/>
    <path d="M556.073 16.6006H557.25C558.354 16.6006 559.25 15.7052 559.25 14.6006V3.60059C559.25 2.49602 558.354 1.60059 557.25 1.60059H550.855C549.794 1.60059 548.935 2.4604 548.935 3.52104V3.52104" stroke="#C2C2C2"/>
    <mask id="path-54-inside-8" fill="white">
        <path d="M548.328 3.48009C548.328 1.99722 549.885 1.03003 551.215 1.68726L555.508 3.81013C556.19 4.14731 556.622 4.8422 556.622 5.60296V17.5431C556.622 19.0259 555.065 19.9931 553.735 19.3359L549.442 17.213C548.76 16.8759 548.328 16.181 548.328 15.4202V3.48009Z"/>
    </mask>
    <path d="M549.442 17.213L548.998 18.1095L549.442 17.213ZM553.735 19.3359L554.179 18.4395L553.735 19.3359ZM555.508 3.81013L555.065 4.70655L555.508 3.81013ZM551.215 1.68726L551.658 0.790839L551.215 1.68726ZM550.771 2.58367L555.065 4.70655L555.951 2.91371L551.658 0.790839L550.771 2.58367ZM555.622 5.60296V17.5431H557.622V5.60296H555.622ZM554.179 18.4395L549.885 16.3166L548.998 18.1095L553.292 20.2323L554.179 18.4395ZM549.328 15.4202V3.48009H547.328V15.4202H549.328ZM549.885 16.3166C549.544 16.148 549.328 15.8006 549.328 15.4202H547.328C547.328 16.5614 547.976 17.6037 548.998 18.1095L549.885 16.3166ZM555.622 17.5431C555.622 18.2845 554.843 18.7681 554.179 18.4395L553.292 20.2323C555.286 21.2182 557.622 19.7674 557.622 17.5431H555.622ZM555.065 4.70655C555.406 4.87514 555.622 5.22258 555.622 5.60296H557.622C557.622 4.46182 556.974 3.41948 555.951 2.91371L555.065 4.70655ZM551.658 0.790839C549.664 -0.194996 547.328 1.25579 547.328 3.48009H549.328C549.328 2.73866 550.107 2.25506 550.771 2.58367L551.658 0.790839Z" fill="#C2C2C2" mask="url(#path-54-inside-8)"/>
    <ellipse rx="0.135168" ry="0.348026" transform="matrix(0.999978 -0.00666598 0.00681713 0.999977 554.215 11.3999)" stroke="#C2C2C2"/>
    <path d="M578.553 1H584.62C585.693 1 586.722 1.42143 587.481 2.17157C588.239 2.92172 588.665 3.93913 588.665 5V19C588.665 18.2044 588.346 17.4413 587.777 16.8787C587.208 16.3161 586.436 16 585.632 16H578.553V1Z" stroke="#C2C2C2" stroke-linecap="round" stroke-linejoin="round"/>
    <path d="M598.779 1H592.711C591.638 1 590.609 1.42143 589.851 2.17157C589.092 2.92172 588.666 3.93913 588.666 5V19C588.666 18.2044 588.986 17.4413 589.555 16.8787C590.124 16.3161 590.895 16 591.7 16H598.779V1Z" stroke="#C2C2C2" stroke-linecap="round" stroke-linejoin="round"/>
    <path d="M647.094 1H653.161C654.234 1 655.263 1.42143 656.022 2.17157C656.78 2.92172 657.206 3.93913 657.206 5V19C657.206 18.2044 656.887 17.4413 656.318 16.8787C655.749 16.3161 654.977 16 654.173 16H647.094V1Z" stroke="#C2C2C2" stroke-linecap="round" stroke-linejoin="round"/>
    <path d="M667.32 1H661.252C660.179 1 659.15 1.42143 658.392 2.17157C657.633 2.92172 657.207 3.93913 657.207 5V19C657.207 18.2044 657.527 17.4413 658.096 16.8787C658.665 16.3161 659.436 16 660.241 16H667.32V1Z" stroke="#C2C2C2" stroke-linecap="round" stroke-linejoin="round"/>
    <path d="M624.614 16.6006H625.791C626.895 16.6006 627.791 15.7052 627.791 14.6006V3.60059C627.791 2.49602 626.895 1.60059 625.791 1.60059H619.396C618.335 1.60059 617.476 2.4604 617.476 3.52104V3.52104" stroke="#C2C2C2"/>
    <mask id="path-62-inside-9" fill="white">
        <path d="M616.869 3.48009C616.869 1.99722 618.426 1.03003 619.756 1.68726L624.049 3.81013C624.731 4.14731 625.163 4.8422 625.163 5.60296V17.5431C625.163 19.0259 623.606 19.9931 622.276 19.3359L617.983 17.213C617.301 16.8759 616.869 16.181 616.869 15.4202V3.48009Z"/>
    </mask>
    <path d="M617.983 17.213L617.54 18.1095L617.983 17.213ZM622.276 19.3359L622.72 18.4395L622.276 19.3359ZM624.049 3.81013L623.606 4.70655L624.049 3.81013ZM619.756 1.68726L620.199 0.790839L619.756 1.68726ZM619.312 2.58367L623.606 4.70655L624.492 2.91371L620.199 0.790839L619.312 2.58367ZM624.163 5.60296V17.5431H626.163V5.60296H624.163ZM622.72 18.4395L618.426 16.3166L617.54 18.1095L621.833 20.2323L622.72 18.4395ZM617.869 15.4202V3.48009H615.869V15.4202H617.869ZM618.426 16.3166C618.085 16.148 617.869 15.8006 617.869 15.4202H615.869C615.869 16.5614 616.517 17.6037 617.54 18.1095L618.426 16.3166ZM624.163 17.5431C624.163 18.2845 623.384 18.7681 622.72 18.4395L621.833 20.2323C623.827 21.2182 626.163 19.7674 626.163 17.5431H624.163ZM623.606 4.70655C623.947 4.87514 624.163 5.22258 624.163 5.60296H626.163C626.163 4.46182 625.515 3.41948 624.492 2.91371L623.606 4.70655ZM620.199 0.790839C618.205 -0.194996 615.869 1.25579 615.869 3.48009H617.869C617.869 2.73866 618.648 2.25506 619.312 2.58367L620.199 0.790839Z" fill="#C2C2C2" mask="url(#path-62-inside-9)"/>
    <ellipse rx="0.135168" ry="0.348026" transform="matrix(0.999978 -0.00666598 0.00681713 0.999977 622.756 11.3999)" stroke="#C2C2C2"/>
    <rect x="690.494" y="2.43359" width="7.15758" height="6.33334" rx="1.5" stroke="#C2C2C2"/>
    <rect x="685.303" y="11.9668" width="5.67438" height="5.6" rx="1.5" stroke="#C2C2C2"/>
    <rect x="693.46" y="11.9668" width="4.19119" height="4.13333" rx="1.5" stroke="#C2C2C2"/>
    <rect x="759.035" y="2.43359" width="7.15758" height="6.33334" rx="1.5" stroke="#C2C2C2"/>
    <rect x="753.844" y="11.9668" width="5.67438" height="5.6" rx="1.5" stroke="#C2C2C2"/>
    <rect x="762.001" y="11.9668" width="4.19119" height="4.13333" rx="1.5" stroke="#C2C2C2"/>
    <path d="M715.635 1H721.702C722.775 1 723.804 1.42143 724.563 2.17157C725.321 2.92172 725.747 3.93913 725.747 5V19C725.747 18.2044 725.428 17.4413 724.859 16.8787C724.29 16.3161 723.518 16 722.714 16H715.635V1Z" stroke="#C2C2C2" stroke-linecap="round" stroke-linejoin="round"/>
    <path d="M735.861 1H729.793C728.72 1 727.691 1.42143 726.933 2.17157C726.174 2.92172 725.748 3.93913 725.748 5V19C725.748 18.2044 726.068 17.4413 726.637 16.8787C727.206 16.3161 727.977 16 728.782 16H735.861V1Z" stroke="#C2C2C2" stroke-linecap="round" stroke-linejoin="round"/>
    <path d="M784.176 1H790.243C791.316 1 792.345 1.42143 793.104 2.17157C793.862 2.92172 794.288 3.93913 794.288 5V19C794.288 18.2044 793.969 17.4413 793.4 16.8787C792.831 16.3161 792.059 16 791.255 16H784.176V1Z" stroke="#C2C2C2" stroke-linecap="round" stroke-linejoin="round"/>
    <path d="M804.402 1H798.334C797.261 1 796.232 1.42143 795.474 2.17157C794.715 2.92172 794.289 3.93913 794.289 5V19C794.289 18.2044 794.609 17.4413 795.178 16.8787C795.747 16.3161 796.518 16 797.323 16H804.402V1Z" stroke="#C2C2C2" stroke-linecap="round" stroke-linejoin="round"/>
    <path d="M864.507 16.6006H865.683C866.788 16.6006 867.683 15.7052 867.683 14.6006V3.60059C867.683 2.49602 866.788 1.60059 865.683 1.60059H859.289C858.228 1.60059 857.368 2.4604 857.368 3.52104V3.52104" stroke="#C2C2C2"/>
    <mask id="path-76-inside-10" fill="white">
        <path d="M856.762 3.48009C856.762 1.99722 858.319 1.03003 859.648 1.68726L863.942 3.81013C864.624 4.14731 865.055 4.8422 865.055 5.60296V17.5431C865.055 19.0259 863.498 19.9931 862.169 19.3359L857.875 17.213C857.193 16.8759 856.762 16.181 856.762 15.4202V3.48009Z"/>
    </mask>
    <path d="M857.875 17.213L857.432 18.1095L857.875 17.213ZM862.169 19.3359L862.612 18.4395L862.169 19.3359ZM863.942 3.81013L863.499 4.70655L863.942 3.81013ZM859.648 1.68726L860.091 0.790839L859.648 1.68726ZM859.205 2.58367L863.499 4.70655L864.385 2.91371L860.091 0.790839L859.205 2.58367ZM864.055 5.60296V17.5431H866.055V5.60296H864.055ZM862.612 18.4395L858.319 16.3166L857.432 18.1095L861.726 20.2323L862.612 18.4395ZM857.762 15.4202V3.48009H855.762V15.4202H857.762ZM858.319 16.3166C857.978 16.148 857.762 15.8006 857.762 15.4202H855.762C855.762 16.5614 856.409 17.6037 857.432 18.1095L858.319 16.3166ZM864.055 17.5431C864.055 18.2845 863.277 18.7681 862.612 18.4395L861.726 20.2323C863.72 21.2182 866.055 19.7674 866.055 17.5431H864.055ZM863.499 4.70655C863.84 4.87514 864.055 5.22258 864.055 5.60296H866.055C866.055 4.46182 865.408 3.41948 864.385 2.91371L863.499 4.70655ZM860.091 0.790839C858.097 -0.194996 855.762 1.25579 855.762 3.48009H857.762C857.762 2.73866 858.54 2.25506 859.205 2.58367L860.091 0.790839Z" fill="#C2C2C2" mask="url(#path-76-inside-10)"/>
    <ellipse rx="0.135168" ry="0.348026" transform="matrix(0.999978 -0.00666598 0.00681713 0.999977 862.648 11.3999)" stroke="#C2C2C2"/>
    <rect x="827.576" y="2.43359" width="7.15758" height="6.33334" rx="1.5" stroke="#C2C2C2"/>
    <rect x="822.385" y="11.9668" width="5.67438" height="5.6" rx="1.5" stroke="#C2C2C2"/>
    <rect x="830.542" y="11.9668" width="4.19119" height="4.13333" rx="1.5" stroke="#C2C2C2"/>
    <rect x="896.117" y="2.43359" width="7.15758" height="6.33334" rx="1.5" stroke="#C2C2C2"/>
    <rect x="890.926" y="11.9668" width="5.67438" height="5.6" rx="1.5" stroke="#C2C2C2"/>
    <rect x="899.083" y="11.9668" width="4.19119" height="4.13333" rx="1.5" stroke="#C2C2C2"/>
    <path d="M1001.59 16.6006H1002.77C1003.87 16.6006 1004.77 15.7052 1004.77 14.6006V3.60059C1004.77 2.49602 1003.87 1.60059 1002.77 1.60059H996.371C995.31 1.60059 994.45 2.4604 994.45 3.52104V3.52104" stroke="#C2C2C2"/>
    <mask id="path-86-inside-11" fill="white">
        <path d="M993.844 3.48009C993.844 1.99722 995.401 1.03003 996.73 1.68726L1001.02 3.81013C1001.71 4.14731 1002.14 4.8422 1002.14 5.60296V17.5431C1002.14 19.0259 1000.58 19.9931 999.251 19.3359L994.957 17.213C994.275 16.8759 993.844 16.181 993.844 15.4202V3.48009Z"/>
    </mask>
    <path d="M994.957 17.213L994.514 18.1095L994.957 17.213ZM999.251 19.3359L999.694 18.4395L999.251 19.3359ZM1001.02 3.81013L1000.58 4.70655L1001.02 3.81013ZM996.73 1.68726L997.173 0.790839L996.73 1.68726ZM996.287 2.58367L1000.58 4.70655L1001.47 2.91371L997.173 0.790839L996.287 2.58367ZM1001.14 5.60296V17.5431H1003.14V5.60296H1001.14ZM999.694 18.4395L995.401 16.3166L994.514 18.1095L998.808 20.2323L999.694 18.4395ZM994.844 15.4202V3.48009H992.844V15.4202H994.844ZM995.401 16.3166C995.06 16.148 994.844 15.8006 994.844 15.4202H992.844C992.844 16.5614 993.491 17.6037 994.514 18.1095L995.401 16.3166ZM1001.14 17.5431C1001.14 18.2845 1000.36 18.7681 999.694 18.4395L998.808 20.2323C1000.8 21.2182 1003.14 19.7674 1003.14 17.5431H1001.14ZM1000.58 4.70655C1000.92 4.87514 1001.14 5.22258 1001.14 5.60296H1003.14C1003.14 4.46182 1002.49 3.41948 1001.47 2.91371L1000.58 4.70655ZM997.173 0.790839C995.179 -0.194996 992.844 1.25579 992.844 3.48009H994.844C994.844 2.73866 995.622 2.25506 996.287 2.58367L997.173 0.790839Z" fill="#C2C2C2" mask="url(#path-86-inside-11)"/>
    <ellipse rx="0.135168" ry="0.348026" transform="matrix(0.999978 -0.00666598 0.00681713 0.999977 999.73 11.3999)" stroke="#C2C2C2"/>
    <path d="M933.048 16.6006H934.224C935.329 16.6006 936.224 15.7052 936.224 14.6006V3.60059C936.224 2.49602 935.329 1.60059 934.224 1.60059H927.83C926.769 1.60059 925.909 2.4604 925.909 3.52104V3.52104" stroke="#C2C2C2"/>
    <mask id="path-90-inside-12" fill="white">
        <path d="M925.303 3.48009C925.303 1.99722 926.86 1.03003 928.189 1.68726L932.483 3.81013C933.165 4.14731 933.596 4.8422 933.596 5.60296V17.5431C933.596 19.0259 932.039 19.9931 930.71 19.3359L926.416 17.213C925.734 16.8759 925.303 16.181 925.303 15.4202V3.48009Z"/>
    </mask>
    <path d="M926.416 17.213L925.973 18.1095L926.416 17.213ZM930.71 19.3359L931.153 18.4395L930.71 19.3359ZM932.483 3.81013L932.04 4.70655L932.483 3.81013ZM928.189 1.68726L928.632 0.790839L928.189 1.68726ZM927.746 2.58367L932.04 4.70655L932.926 2.91371L928.632 0.790839L927.746 2.58367ZM932.596 5.60296V17.5431H934.596V5.60296H932.596ZM931.153 18.4395L926.86 16.3166L925.973 18.1095L930.267 20.2323L931.153 18.4395ZM926.303 15.4202V3.48009H924.303V15.4202H926.303ZM926.86 16.3166C926.519 16.148 926.303 15.8006 926.303 15.4202H924.303C924.303 16.5614 924.95 17.6037 925.973 18.1095L926.86 16.3166ZM932.596 17.5431C932.596 18.2845 931.818 18.7681 931.153 18.4395L930.267 20.2323C932.261 21.2182 934.596 19.7674 934.596 17.5431H932.596ZM932.04 4.70655C932.381 4.87514 932.596 5.22258 932.596 5.60296H934.596C934.596 4.46182 933.949 3.41948 932.926 2.91371L932.04 4.70655ZM928.632 0.790839C926.638 -0.194996 924.303 1.25579 924.303 3.48009H926.303C926.303 2.73866 927.081 2.25506 927.746 2.58367L928.632 0.790839Z" fill="#C2C2C2" mask="url(#path-90-inside-12)"/>
    <ellipse rx="0.135168" ry="0.348026" transform="matrix(0.999978 -0.00666598 0.00681713 0.999977 931.189 11.3999)" stroke="#C2C2C2"/>
    <path d="M1070.13 16.6006H1071.31C1072.41 16.6006 1073.31 15.7052 1073.31 14.6006V3.60059C1073.31 2.49602 1072.41 1.60059 1071.31 1.60059H1064.91C1063.85 1.60059 1062.99 2.4604 1062.99 3.52104V3.52104" stroke="#C2C2C2"/>
    <mask id="path-94-inside-13" fill="white">
        <path d="M1062.38 3.48009C1062.38 1.99722 1063.94 1.03003 1065.27 1.68726L1069.56 3.81013C1070.25 4.14731 1070.68 4.8422 1070.68 5.60296V17.5431C1070.68 19.0259 1069.12 19.9931 1067.79 19.3359L1063.5 17.213C1062.82 16.8759 1062.38 16.181 1062.38 15.4202V3.48009Z"/>
    </mask>
    <path d="M1063.5 17.213L1063.06 18.1095L1063.5 17.213ZM1067.79 19.3359L1068.24 18.4395L1067.79 19.3359ZM1069.56 3.81013L1069.12 4.70655L1069.56 3.81013ZM1065.27 1.68726L1065.71 0.790839L1065.27 1.68726ZM1064.83 2.58367L1069.12 4.70655L1070.01 2.91371L1065.71 0.790839L1064.83 2.58367ZM1069.68 5.60296V17.5431H1071.68V5.60296H1069.68ZM1068.24 18.4395L1063.94 16.3166L1063.06 18.1095L1067.35 20.2323L1068.24 18.4395ZM1063.38 15.4202V3.48009H1061.38V15.4202H1063.38ZM1063.94 16.3166C1063.6 16.148 1063.38 15.8006 1063.38 15.4202H1061.38C1061.38 16.5614 1062.03 17.6037 1063.06 18.1095L1063.94 16.3166ZM1069.68 17.5431C1069.68 18.2845 1068.9 18.7681 1068.24 18.4395L1067.35 20.2323C1069.34 21.2182 1071.68 19.7674 1071.68 17.5431H1069.68ZM1069.12 4.70655C1069.46 4.87514 1069.68 5.22258 1069.68 5.60296H1071.68C1071.68 4.46182 1071.03 3.41948 1070.01 2.91371L1069.12 4.70655ZM1065.71 0.790839C1063.72 -0.194996 1061.38 1.25579 1061.38 3.48009H1063.38C1063.38 2.73866 1064.16 2.25506 1064.83 2.58367L1065.71 0.790839Z" fill="#C2C2C2" mask="url(#path-94-inside-13)"/>
    <ellipse rx="0.135168" ry="0.348026" transform="matrix(0.999978 -0.00666598 0.00681713 0.999977 1068.27 11.3999)" stroke="#C2C2C2"/>
    <path d="M1138.67 16.6006H1139.85C1140.95 16.6006 1141.85 15.7052 1141.85 14.6006V3.60059C1141.85 2.49602 1140.95 1.60059 1139.85 1.60059H1133.45C1132.39 1.60059 1131.53 2.4604 1131.53 3.52104V3.52104" stroke="#C2C2C2"/>
    <mask id="path-98-inside-14" fill="white">
        <path d="M1130.93 3.48009C1130.93 1.99722 1132.48 1.03003 1133.81 1.68726L1138.11 3.81013C1138.79 4.14731 1139.22 4.8422 1139.22 5.60296V17.5431C1139.22 19.0259 1137.66 19.9931 1136.33 19.3359L1132.04 17.213C1131.36 16.8759 1130.93 16.181 1130.93 15.4202V3.48009Z"/>
    </mask>
    <path d="M1132.04 17.213L1131.6 18.1095L1132.04 17.213ZM1136.33 19.3359L1136.78 18.4395L1136.33 19.3359ZM1138.11 3.81013L1137.66 4.70655L1138.11 3.81013ZM1133.81 1.68726L1134.26 0.790839L1133.81 1.68726ZM1133.37 2.58367L1137.66 4.70655L1138.55 2.91371L1134.26 0.790839L1133.37 2.58367ZM1138.22 5.60296V17.5431H1140.22V5.60296H1138.22ZM1136.78 18.4395L1132.48 16.3166L1131.6 18.1095L1135.89 20.2323L1136.78 18.4395ZM1131.93 15.4202V3.48009H1129.93V15.4202H1131.93ZM1132.48 16.3166C1132.14 16.148 1131.93 15.8006 1131.93 15.4202H1129.93C1129.93 16.5614 1130.57 17.6037 1131.6 18.1095L1132.48 16.3166ZM1138.22 17.5431C1138.22 18.2845 1137.44 18.7681 1136.78 18.4395L1135.89 20.2323C1137.88 21.2182 1140.22 19.7674 1140.22 17.5431H1138.22ZM1137.66 4.70655C1138 4.87514 1138.22 5.22258 1138.22 5.60296H1140.22C1140.22 4.46182 1139.57 3.41948 1138.55 2.91371L1137.66 4.70655ZM1134.26 0.790839C1132.26 -0.194996 1129.93 1.25579 1129.93 3.48009H1131.93C1131.93 2.73866 1132.7 2.25506 1133.37 2.58367L1134.26 0.790839Z" fill="#C2C2C2" mask="url(#path-98-inside-14)"/>
    <ellipse rx="0.135168" ry="0.348026" transform="matrix(0.999978 -0.00666598 0.00681713 0.999977 1136.81 11.3999)" stroke="#C2C2C2"/>
    <path d="M955.528 1H961.596C962.669 1 963.698 1.42143 964.456 2.17157C965.215 2.92172 965.641 3.93913 965.641 5V19C965.641 18.2044 965.321 17.4413 964.752 16.8787C964.183 16.3161 963.412 16 962.607 16H955.528V1Z" stroke="#C2C2C2" stroke-linecap="round" stroke-linejoin="round"/>
    <path d="M975.753 1H969.686C968.613 1 967.584 1.42143 966.825 2.17157C966.067 2.92172 965.641 3.93913 965.641 5V19C965.641 18.2044 965.96 17.4413 966.529 16.8787C967.098 16.3161 967.87 16 968.674 16H975.753V1Z" stroke="#C2C2C2" stroke-linecap="round" stroke-linejoin="round"/>
    <path d="M1207.21 16.6006H1208.39C1209.49 16.6006 1210.39 15.7052 1210.39 14.6006V3.60059C1210.39 2.49602 1209.49 1.60059 1208.39 1.60059H1201.99C1200.93 1.60059 1200.07 2.4604 1200.07 3.52104V3.52104" stroke="#C2C2C2"/>
    <mask id="path-104-inside-15" fill="white">
        <path d="M1199.47 3.48009C1199.47 1.99722 1201.02 1.03003 1202.35 1.68726L1206.65 3.81013C1207.33 4.14731 1207.76 4.8422 1207.76 5.60296V17.5431C1207.76 19.0259 1206.2 19.9931 1204.87 19.3359L1200.58 17.213C1199.9 16.8759 1199.47 16.181 1199.47 15.4202V3.48009Z"/>
    </mask>
    <path d="M1200.58 17.213L1200.14 18.1095L1200.58 17.213ZM1204.87 19.3359L1205.32 18.4395L1204.87 19.3359ZM1206.65 3.81013L1206.2 4.70655L1206.65 3.81013ZM1202.35 1.68726L1202.8 0.790839L1202.35 1.68726ZM1201.91 2.58367L1206.2 4.70655L1207.09 2.91371L1202.8 0.790839L1201.91 2.58367ZM1206.76 5.60296V17.5431H1208.76V5.60296H1206.76ZM1205.32 18.4395L1201.02 16.3166L1200.14 18.1095L1204.43 20.2323L1205.32 18.4395ZM1200.47 15.4202V3.48009H1198.47V15.4202H1200.47ZM1201.02 16.3166C1200.68 16.148 1200.47 15.8006 1200.47 15.4202H1198.47C1198.47 16.5614 1199.11 17.6037 1200.14 18.1095L1201.02 16.3166ZM1206.76 17.5431C1206.76 18.2845 1205.98 18.7681 1205.32 18.4395L1204.43 20.2323C1206.42 21.2182 1208.76 19.7674 1208.76 17.5431H1206.76ZM1206.2 4.70655C1206.54 4.87514 1206.76 5.22258 1206.76 5.60296H1208.76C1208.76 4.46182 1208.11 3.41948 1207.09 2.91371L1206.2 4.70655ZM1202.8 0.790839C1200.8 -0.194996 1198.47 1.25579 1198.47 3.48009H1200.47C1200.47 2.73866 1201.25 2.25506 1201.91 2.58367L1202.8 0.790839Z" fill="#C2C2C2" mask="url(#path-104-inside-15)"/>
    <ellipse rx="0.135168" ry="0.348026" transform="matrix(0.999978 -0.00666598 0.00681713 0.999977 1205.35 11.3999)" stroke="#C2C2C2"/>
    <rect x="1033.2" y="2.43359" width="7.15758" height="6.33334" rx="1.5" stroke="#C2C2C2"/>
    <rect x="1028.01" y="11.9668" width="5.67438" height="5.6" rx="1.5" stroke="#C2C2C2"/>
    <rect x="1036.17" y="11.9668" width="4.19119" height="4.13333" rx="1.5" stroke="#C2C2C2"/>
    <rect x="1101.74" y="2.43359" width="7.15758" height="6.33334" rx="1.5" stroke="#C2C2C2"/>
    <rect x="1096.55" y="11.9668" width="5.67438" height="5.6" rx="1.5" stroke="#C2C2C2"/>
    <rect x="1104.71" y="11.9668" width="4.19119" height="4.13333" rx="1.5" stroke="#C2C2C2"/>
    <path d="M1344.29 16.6006H1345.47C1346.57 16.6006 1347.47 15.7052 1347.47 14.6006V3.60059C1347.47 2.49602 1346.57 1.60059 1345.47 1.60059H1339.08C1338.02 1.60059 1337.16 2.4604 1337.16 3.52104V3.52104" stroke="#C2C2C2"/>
    <mask id="path-114-inside-16" fill="white">
        <path d="M1336.55 3.48009C1336.55 1.99722 1338.11 1.03003 1339.44 1.68726L1343.73 3.81013C1344.41 4.14731 1344.84 4.8422 1344.84 5.60296V17.5431C1344.84 19.0259 1343.29 19.9931 1341.96 19.3359L1337.66 17.213C1336.98 16.8759 1336.55 16.181 1336.55 15.4202V3.48009Z"/>
    </mask>
    <path d="M1337.66 17.213L1337.22 18.1095L1337.66 17.213ZM1341.96 19.3359L1342.4 18.4395L1341.96 19.3359ZM1343.73 3.81013L1343.29 4.70655L1343.73 3.81013ZM1339.44 1.68726L1339.88 0.790839L1339.44 1.68726ZM1338.99 2.58367L1343.29 4.70655L1344.17 2.91371L1339.88 0.790839L1338.99 2.58367ZM1343.84 5.60296V17.5431H1345.84V5.60296H1343.84ZM1342.4 18.4395L1338.11 16.3166L1337.22 18.1095L1341.51 20.2323L1342.4 18.4395ZM1337.55 15.4202V3.48009H1335.55V15.4202H1337.55ZM1338.11 16.3166C1337.76 16.148 1337.55 15.8006 1337.55 15.4202H1335.55C1335.55 16.5614 1336.2 17.6037 1337.22 18.1095L1338.11 16.3166ZM1343.84 17.5431C1343.84 18.2845 1343.06 18.7681 1342.4 18.4395L1341.51 20.2323C1343.51 21.2182 1345.84 19.7674 1345.84 17.5431H1343.84ZM1343.29 4.70655C1343.63 4.87514 1343.84 5.22258 1343.84 5.60296H1345.84C1345.84 4.46182 1345.2 3.41948 1344.17 2.91371L1343.29 4.70655ZM1339.88 0.790839C1337.88 -0.194996 1335.55 1.25579 1335.55 3.48009H1337.55C1337.55 2.73866 1338.33 2.25506 1338.99 2.58367L1339.88 0.790839Z" fill="#C2C2C2" mask="url(#path-114-inside-16)"/>
    <ellipse rx="0.135168" ry="0.348026" transform="matrix(0.999978 -0.00666598 0.00681713 0.999977 1342.44 11.3999)" stroke="#C2C2C2"/>
    <path d="M1161.15 1H1167.22C1168.29 1 1169.32 1.42143 1170.08 2.17157C1170.84 2.92172 1171.26 3.93913 1171.26 5V19C1171.26 18.2044 1170.94 17.4413 1170.38 16.8787C1169.81 16.3161 1169.03 16 1168.23 16H1161.15V1Z" stroke="#C2C2C2" stroke-linecap="round" stroke-linejoin="round"/>
    <path d="M1181.38 1H1175.31C1174.24 1 1173.21 1.42143 1172.45 2.17157C1171.69 2.92172 1171.26 3.93913 1171.26 5V19C1171.26 18.2044 1171.58 17.4413 1172.15 16.8787C1172.72 16.3161 1173.49 16 1174.3 16H1181.38V1Z" stroke="#C2C2C2" stroke-linecap="round" stroke-linejoin="round"/>
    <path d="M1298.23 1H1304.3C1305.37 1 1306.4 1.42143 1307.16 2.17157C1307.92 2.92172 1308.35 3.93913 1308.35 5V19C1308.35 18.2044 1308.03 17.4413 1307.46 16.8787C1306.89 16.3161 1306.12 16 1305.31 16H1298.23V1Z" stroke="#C2C2C2" stroke-linecap="round" stroke-linejoin="round"/>
    <path d="M1318.46 1H1312.39C1311.32 1 1310.29 1.42143 1309.53 2.17157C1308.77 2.92172 1308.35 3.93913 1308.35 5V19C1308.35 18.2044 1308.67 17.4413 1309.23 16.8787C1309.8 16.3161 1310.57 16 1311.38 16H1318.46V1Z" stroke="#C2C2C2" stroke-linecap="round" stroke-linejoin="round"/>
    <path d="M1275.75 16.6006H1276.93C1278.03 16.6006 1278.93 15.7052 1278.93 14.6006V3.60059C1278.93 2.49602 1278.03 1.60059 1276.93 1.60059H1270.53C1269.47 1.60059 1268.61 2.4604 1268.61 3.52104V3.52104" stroke="#C2C2C2"/>
    <mask id="path-122-inside-17" fill="white">
        <path d="M1268.01 3.48009C1268.01 1.99722 1269.56 1.03003 1270.89 1.68726L1275.19 3.81013C1275.87 4.14731 1276.3 4.8422 1276.3 5.60296V17.5431C1276.3 19.0259 1274.74 19.9931 1273.41 19.3359L1269.12 17.213C1268.44 16.8759 1268.01 16.181 1268.01 15.4202V3.48009Z"/>
    </mask>
    <path d="M1269.12 17.213L1268.68 18.1095L1269.12 17.213ZM1273.41 19.3359L1273.86 18.4395L1273.41 19.3359ZM1275.19 3.81013L1274.74 4.70655L1275.19 3.81013ZM1270.89 1.68726L1271.34 0.790839L1270.89 1.68726ZM1270.45 2.58367L1274.74 4.70655L1275.63 2.91371L1271.34 0.790839L1270.45 2.58367ZM1275.3 5.60296V17.5431H1277.3V5.60296H1275.3ZM1273.86 18.4395L1269.56 16.3166L1268.68 18.1095L1272.97 20.2323L1273.86 18.4395ZM1269.01 15.4202V3.48009H1267.01V15.4202H1269.01ZM1269.56 16.3166C1269.22 16.148 1269.01 15.8006 1269.01 15.4202H1267.01C1267.01 16.5614 1267.66 17.6037 1268.68 18.1095L1269.56 16.3166ZM1275.3 17.5431C1275.3 18.2845 1274.52 18.7681 1273.86 18.4395L1272.97 20.2323C1274.97 21.2182 1277.3 19.7674 1277.3 17.5431H1275.3ZM1274.74 4.70655C1275.09 4.87514 1275.3 5.22258 1275.3 5.60296H1277.3C1277.3 4.46182 1276.65 3.41948 1275.63 2.91371L1274.74 4.70655ZM1271.34 0.790839C1269.34 -0.194996 1267.01 1.25579 1267.01 3.48009H1269.01C1269.01 2.73866 1269.79 2.25506 1270.45 2.58367L1271.34 0.790839Z" fill="#C2C2C2" mask="url(#path-122-inside-17)"/>
    <ellipse rx="0.135168" ry="0.348026" transform="matrix(0.999978 -0.00666598 0.00681713 0.999977 1273.89 11.3999)" stroke="#C2C2C2"/>
    <rect x="1238.82" y="2.43359" width="7.15758" height="6.33334" rx="1.5" stroke="#C2C2C2"/>
    <rect x="1233.63" y="11.9668" width="5.67438" height="5.6" rx="1.5" stroke="#C2C2C2"/>
    <rect x="1241.79" y="11.9668" width="4.19119" height="4.13333" rx="1.5" stroke="#C2C2C2"/>
</svg>
