<svg width="180" height="40" viewBox="0 0 180 40" fill="none" xmlns="http://www.w3.org/2000/svg">
    <path fill-rule="evenodd" clip-rule="evenodd" d="M28.1154 32.8249V1L7.13971 1.62134L5.11703 1.67575V1.97018L7.02626 2.51422L23.4695 7.34733V37.3178L21.9316 37.9092L21.9323 8.1123L12.3274 5.0976V13.3166L8.75741 12.0399V17.4925L5.12263 16.1927V33.3951L21.9316 38.8946L24.3744 37.9186V6.66396L10.029 2.44747L27.2105 1.93852V32.0832L25.3898 32.4636V33.3654L28.1154 32.8249ZM18.3809 23.4608C18.7732 23.4608 19.0912 23.0313 19.0912 22.5015C19.0912 21.9717 18.7732 21.5422 18.3809 21.5422C17.9887 21.5422 17.6707 21.9717 17.6707 22.5015C17.6707 23.0313 17.9887 23.4608 18.3809 23.4608Z" fill="white"/>
    <path d="M4.90057 2.93113L10.7893 4.83526V11.3459L4.90057 9.23998V2.93113Z" fill="white"/>
    <path d="M3.365 4.31623L0 3.11284V6.71789L3.365 7.92129V4.31623Z" fill="white"/>
    <path d="M0.410178 8.6797L2.36812 9.3799V11.3162L0.410178 10.616V8.6797Z" fill="white"/>
    <path d="M7.34589 12.0902L3.70047 10.7865V14.3916L7.34589 15.6952V12.0902Z" fill="white"/>
    <path d="M41.0527 25.6651V10.5175H45.6382C46.9483 10.5175 48.1186 10.8192 49.149 11.4226C50.1861 12.0191 50.9947 12.8721 51.5748 13.9819C52.1548 15.0846 52.4448 16.34 52.4448 17.748V18.445C52.4448 19.8529 52.1582 21.1048 51.585 22.2007C51.0186 23.2965 50.2169 24.1462 49.1797 24.7496C48.1425 25.353 46.9722 25.6581 45.6689 25.6651H41.0527ZM44.1234 13.0455V23.1578H45.6075C46.8085 23.1578 47.7262 22.759 48.3608 21.9614C48.9954 21.1638 49.3195 20.0229 49.3332 18.5386V17.7376C49.3332 16.1978 49.0193 15.0326 48.3915 14.2419C47.7638 13.4443 46.846 13.0455 45.6382 13.0455H44.1234Z" fill="white"/>
    <path d="M60.9095 25.6651C60.773 25.3946 60.674 25.0582 60.6126 24.6559C59.8962 25.4674 58.9647 25.8732 57.8184 25.8732C56.7334 25.8732 55.8327 25.5541 55.1162 24.916C54.4066 24.2779 54.0517 23.4734 54.0517 22.5024C54.0517 21.3094 54.485 20.3939 55.3516 19.7558C56.225 19.1178 57.484 18.7952 59.1285 18.7883H60.4898V18.1433C60.4898 17.6231 60.3567 17.207 60.0906 16.8949C59.8313 16.5828 59.4185 16.4267 58.8521 16.4267C58.354 16.4267 57.9617 16.5481 57.6751 16.7908C57.3953 17.0336 57.2554 17.3665 57.2554 17.7896H54.2974C54.2974 17.1376 54.4953 16.5342 54.891 15.9793C55.2868 15.4245 55.8463 14.991 56.5696 14.6789C57.2929 14.3599 58.105 14.2003 59.0057 14.2003C60.3704 14.2003 61.4519 14.5506 62.2503 15.2511C63.0555 15.9447 63.4581 16.9226 63.4581 18.1849V23.0642C63.4649 24.1323 63.6116 24.9403 63.8982 25.4882V25.6651H60.9095ZM58.4632 23.574C58.8999 23.574 59.3025 23.4769 59.671 23.2827C60.0394 23.0815 60.3124 22.8145 60.4898 22.4816V20.5465H59.3844C57.9037 20.5465 57.1155 21.0667 57.02 22.1071L57.0098 22.2839C57.0098 22.6584 57.1394 22.9671 57.3987 23.2098C57.658 23.4526 58.0128 23.574 58.4632 23.574Z" fill="white"/>
    <path d="M69.7529 21.1499L68.6884 22.2319V25.6651H65.7303V9.68518H68.6884V18.5386L69.2616 17.7896L72.0968 14.4084H75.6485L71.6464 19.1004L75.9965 25.6651H72.5983L69.7529 21.1499Z" fill="white"/>
    <path d="M82.9259 22.5544C82.9259 22.1868 82.745 21.899 82.3834 21.6909C82.0285 21.4759 81.4554 21.2852 80.6638 21.1187C78.0299 20.5569 76.713 19.4195 76.713 17.7063C76.713 16.7076 77.119 15.8753 77.931 15.2095C78.7498 14.5367 79.8177 14.2003 81.1347 14.2003C82.5403 14.2003 83.6628 14.5367 84.5021 15.2095C85.3482 15.8822 85.7713 16.7561 85.7713 17.8312H82.8133C82.8133 17.4012 82.6768 17.0474 82.4038 16.77C82.1309 16.4857 81.7044 16.3435 81.1244 16.3435C80.6263 16.3435 80.2408 16.4579 79.9678 16.6868C79.6949 16.9157 79.5584 17.207 79.5584 17.5607C79.5584 17.8936 79.7119 18.1641 80.019 18.3722C80.3329 18.5733 80.8583 18.7502 81.5952 18.9028C82.3322 19.0484 82.9532 19.2149 83.4581 19.4021C85.0207 19.9847 85.802 20.9939 85.802 22.4296C85.802 23.4561 85.3687 24.2883 84.5021 24.9264C83.6355 25.5576 82.5164 25.8732 81.1449 25.8732C80.2169 25.8732 79.3912 25.7067 78.6679 25.3738C77.9514 25.0339 77.3885 24.5727 76.9791 23.9901C76.5697 23.4006 76.3649 22.7659 76.3649 22.0862H79.1695C79.1968 22.6203 79.3912 23.0295 79.7529 23.3139C80.1145 23.5982 80.599 23.7404 81.2063 23.7404C81.7727 23.7404 82.1991 23.6329 82.4857 23.4179C82.7791 23.196 82.9259 22.9081 82.9259 22.5544Z" fill="white"/>
    <path d="M90.6024 15.636C91.3871 14.6789 92.3731 14.2003 93.5605 14.2003C95.9624 14.2003 97.1804 15.6187 97.2145 18.4554V25.6651H94.2565V18.5386C94.2565 17.8936 94.12 17.4185 93.847 17.1133C93.5741 16.8012 93.1203 16.6452 92.4857 16.6452C91.6191 16.6452 90.9914 16.985 90.6024 17.6647V25.6651H87.6444V9.68518H90.6024V15.636Z" fill="white"/>
    <path d="M103.581 21.41L105.628 14.4084H108.801L104.349 27.4129L104.103 28.0059C103.441 29.4763 102.349 30.2114 100.828 30.2114C100.398 30.2114 99.961 30.1456 99.5175 30.0138V27.7354L99.9678 27.7458C100.527 27.7458 100.944 27.6591 101.217 27.4857C101.496 27.3123 101.715 27.0245 101.872 26.6222L102.22 25.6963L98.3404 14.4084H101.524L103.581 21.41Z" fill="white"/>
    <path d="M116.222 25.6651C116.085 25.3946 115.986 25.0582 115.925 24.6559C115.208 25.4674 114.277 25.8732 113.131 25.8732C112.046 25.8732 111.145 25.5541 110.428 24.916C109.719 24.2779 109.364 23.4734 109.364 22.5024C109.364 21.3094 109.797 20.3939 110.664 19.7558C111.537 19.1178 112.796 18.7952 114.441 18.7883H115.802V18.1433C115.802 17.6231 115.669 17.207 115.403 16.8949C115.144 16.5828 114.731 16.4267 114.164 16.4267C113.666 16.4267 113.274 16.5481 112.987 16.7908C112.708 17.0336 112.568 17.3665 112.568 17.7896H109.61C109.61 17.1376 109.807 16.5342 110.203 15.9793C110.599 15.4245 111.159 14.991 111.882 14.6789C112.605 14.3599 113.417 14.2003 114.318 14.2003C115.683 14.2003 116.764 14.5506 117.563 15.2511C118.368 15.9447 118.77 16.9226 118.77 18.1849V23.0642C118.777 24.1323 118.924 24.9403 119.21 25.4882V25.6651H116.222ZM113.775 23.574C114.212 23.574 114.615 23.4769 114.983 23.2827C115.352 23.0815 115.625 22.8145 115.802 22.4816V20.5465H114.697C113.216 20.5465 112.428 21.0667 112.332 22.1071L112.322 22.2839C112.322 22.6584 112.452 22.9671 112.711 23.2098C112.97 23.4526 113.325 23.574 113.775 23.574Z" fill="white"/>
    <path d="M138.374 25.837H136.295L128.396 14.0386V25.837H126.316V10.5264H128.396L136.316 22.3774V10.5264H138.374V25.837Z" fill="white"/>
    <path d="M146.575 26.0473C144.994 26.0473 143.708 25.5426 142.717 24.5331C141.726 23.5166 141.23 22.1601 141.23 20.4636V20.106C141.23 18.9774 141.449 17.9714 141.887 17.0881C142.333 16.1978 142.95 15.5038 143.741 15.006C144.538 14.5013 145.4 14.2489 146.327 14.2489C147.842 14.2489 149.021 14.7361 149.861 15.7106C150.702 16.685 151.122 18.0801 151.122 19.8957V20.7054H143.223C143.252 21.8271 143.586 22.7349 144.225 23.4289C144.872 24.116 145.691 24.4595 146.682 24.4595C147.386 24.4595 147.983 24.3193 148.471 24.0388C148.96 23.7584 149.387 23.3869 149.753 22.9242L150.971 23.8496C149.994 25.3147 148.529 26.0473 146.575 26.0473ZM146.327 15.8473C145.522 15.8473 144.847 16.1347 144.301 16.7095C143.755 17.2774 143.417 18.0766 143.288 19.1071H149.128V18.9599C149.071 17.9714 148.798 17.2073 148.309 16.6675C147.821 16.1207 147.16 15.8473 146.327 15.8473Z" fill="white"/>
    <path d="M163.288 20.2743C163.288 22.0058 162.882 23.4009 162.07 24.4595C161.258 25.518 160.159 26.0473 158.773 26.0473C157.357 26.0473 156.244 25.6092 155.432 24.7329V30.2114H153.439V14.4592H155.26L155.357 15.7211C156.168 14.7396 157.296 14.2489 158.74 14.2489C160.141 14.2489 161.247 14.7642 162.059 15.7947C162.878 16.8252 163.288 18.2588 163.288 20.0955V20.2743ZM161.294 20.0535C161.294 18.7706 161.014 17.7576 160.454 17.0145C159.893 16.2714 159.125 15.8998 158.148 15.8998C156.941 15.8998 156.036 16.4221 155.432 17.4667V22.9032C156.028 23.9407 156.941 24.4595 158.169 24.4595C159.125 24.4595 159.882 24.0914 160.443 23.3553C161.01 22.6122 161.294 21.5116 161.294 20.0535Z" fill="white"/>
    <path d="M173.029 25.837C172.914 25.6127 172.82 25.2131 172.749 24.6382C171.822 25.5776 170.716 26.0473 169.43 26.0473C168.28 26.0473 167.336 25.7318 166.596 25.1009C165.863 24.463 165.497 23.6568 165.497 22.6823C165.497 21.4976 165.956 20.5792 166.876 19.9273C167.803 19.2683 169.103 18.9388 170.777 18.9388H172.716V18.045C172.716 17.365 172.508 16.8252 172.091 16.4256C171.675 16.019 171.06 15.8157 170.249 15.8157C169.537 15.8157 168.941 15.991 168.46 16.3415C167.979 16.692 167.738 17.1161 167.738 17.6139H165.734C165.734 17.046 165.938 16.4992 166.348 15.9735C166.764 15.4407 167.325 15.02 168.029 14.7116C168.74 14.4031 169.519 14.2489 170.367 14.2489C171.71 14.2489 172.763 14.5784 173.524 15.2374C174.286 15.8893 174.681 16.7902 174.71 17.9399V23.1766C174.71 24.2211 174.846 25.0518 175.119 25.6687V25.837H173.029ZM169.721 24.3543C170.346 24.3543 170.938 24.1966 171.499 23.8811C172.059 23.5656 172.465 23.1555 172.716 22.6508V20.3164H171.154C168.711 20.3164 167.49 21.0139 167.49 22.4089C167.49 23.0188 167.698 23.4955 168.115 23.839C168.532 24.1826 169.067 24.3543 169.721 24.3543Z" fill="white"/>
    <path d="M180 25.837H178.007V9.68518H180V25.837Z" fill="white"/>
</svg>
