<svg width="40" height="40" viewBox="0 0 40 40" fill="none" xmlns="http://www.w3.org/2000/svg">
    <path d="M3 5H13.2C15.0035 5 16.7331 5.72579 18.0083 7.01771C19.2836 8.30963 20 10.0618 20 11.8889V36C20 34.6297 19.4627 33.3156 18.5062 32.3466C17.5498 31.3777 16.2526 30.8333 14.9 30.8333H3V5Z" fill="white" stroke="black" stroke-width="2" stroke-linecap="round"/>
    <path d="M37 5H26.8C24.9965 5 23.2669 5.72579 21.9917 7.01771C20.7164 8.30963 20 10.0618 20 11.8889V36C20 34.6297 20.5373 33.3156 21.4938 32.3466C22.4502 31.3777 23.7474 30.8333 25.1 30.8333H37V5Z" fill="#FFD749" stroke="black" stroke-width="2" stroke-linecap="round"/>
</svg>
