<svg width="40" height="40" viewBox="0 0 40 40" fill="none" xmlns="http://www.w3.org/2000/svg">
<g clip-path="url(#clip0)">
<circle cx="13.5" cy="13.5" r="10.5" fill="#FFD749" stroke="black" stroke-width="2"/>
<path d="M27.8053 14.8468L27.7648 14.8724C26.9886 15.3639 26.7531 16.4373 27.29 17.2852L28.0342 18.4604C28.1824 18.6945 28.1127 19.0049 27.8786 19.1532C27.6443 19.3015 27.3341 19.2317 27.1858 18.9976L25.8116 16.8275C25.2747 15.9796 24.2223 15.6797 23.4464 16.1711C22.6662 16.6651 22.4873 17.7447 23.0242 18.5926L24.4807 20.8926C24.6291 21.127 24.5592 21.4371 24.3251 21.5854C24.0908 21.7338 23.7808 21.6642 23.6324 21.4298L21.776 18.4983C21.2393 17.6506 20.1752 17.3863 19.3993 17.8776L19.3562 17.9049C18.5997 18.384 18.3694 19.4195 18.8875 20.2378L20.9779 23.5389C21.1263 23.7732 21.0564 24.0834 20.8223 24.2316C20.588 24.38 20.2779 24.3104 20.1295 24.0761L18.0997 20.8706C18.0932 20.8602 18.0851 20.8501 18.0783 20.8394C18.0618 20.8134 18.0465 20.7866 18.0302 20.7608L13.2846 13.2666C12.7477 12.4187 11.6713 12.1343 10.8956 12.6255C10.1197 13.1169 9.91658 14.2111 10.4523 15.0587L18.3134 27.4917C18.4266 27.671 18.4154 27.902 18.2848 28.0692C18.1545 28.2363 17.9331 28.3036 17.7318 28.237L15.1041 27.3704C14.4024 27.128 13.6315 27.1884 12.9758 27.5369C12.3378 27.8842 11.8728 28.4811 11.6923 29.1847C11.6901 29.1927 11.6882 29.2019 11.6855 29.2102L11.5489 29.637L22.9543 36.266C24.7546 37.3123 26.9091 37.3169 28.5686 36.266L34.5157 32.5001C37.0466 30.8975 37.6975 27.3658 35.973 24.6366C35.0598 23.1913 34.3752 22.107 33.8237 21.2336C32.3495 18.8987 31.8071 18.04 30.1738 15.4739C29.6365 14.6296 28.5793 14.3567 27.8053 14.8468Z" fill="white" stroke="black" stroke-width="2"/>
</g>
<defs>
<clipPath id="clip0">
<rect width="40" height="40" fill="white"/>
</clipPath>
</defs>
</svg>
