<svg width="540" height="346" viewBox="0 0 540 346" fill="none" xmlns="http://www.w3.org/2000/svg">
<g clip-path="url(#clip0)">
<g opacity="0.1">
<path opacity="0.1" d="M115.27 351.397C115.71 354.101 117.278 356.16 118.766 358.048L136.474 380.472C137.898 382.277 139.428 384.154 141.341 384.643C145.338 385.701 148.553 380.574 151.97 377.575C164.117 366.913 180.718 383.145 194.448 376.938C199.941 374.455 204.39 368.555 209.989 366.557C224.813 361.248 237.374 384.7 252.68 385.894C257.706 386.273 262.637 384.211 267.439 382.159L299.47 368.464C301.695 367.512 303.957 366.568 306.303 366.511C310.243 366.443 313.914 368.976 317.623 370.799C332.553 378.148 349.13 374.182 364.466 368.615C379.802 363.049 395.249 355.887 411.101 357.074C415.227 357.385 420.678 357.123 421.806 351.716C422.478 348.501 413.409 351.871 411.31 350.139C409.211 348.406 414.206 341.175 411.758 340.868C397.511 339.086 382.995 339.037 369.071 343.522C361.858 345.843 354.764 349.376 347.357 350.101C339.636 350.859 331.957 348.523 324.376 346.4C305.179 341.023 285.656 336.921 266.057 337.755C231.224 339.272 196.915 356.433 162.257 351.458C151.96 349.937 142.013 346.61 132.876 341.63C128.199 339.109 128.408 348.038 123.636 351.045C122.083 352.023 118.018 342.9 116.803 344.656C116.111 345.621 115.619 346.715 115.356 347.872C115.092 349.03 115.063 350.228 115.27 351.397Z" fill="#6C63FF"/>
</g>
<path d="M290.196 214.518L265.769 236.396C265.769 236.396 218.595 246.914 230.389 232.187C237.07 223.846 236.182 211.185 234.155 201.774C233.248 197.507 231.989 193.321 230.389 189.262C230.389 189.262 291.05 152.676 282.627 180.446C280.129 188.682 279.78 195.033 280.52 199.886C282.289 211.397 290.196 214.518 290.196 214.518Z" fill="white" stroke="black" stroke-width="3" stroke-linecap="round"/>
<path d="M302.845 158.985C302.845 168.304 300.078 177.413 294.896 185.161C289.713 192.909 282.347 198.949 273.728 202.516C265.109 206.083 255.625 207.017 246.475 205.2C237.324 203.384 228.919 198.898 222.321 192.31C215.723 185.722 211.228 177.328 209.406 168.189C207.583 159.05 208.515 149.577 212.083 140.967C215.65 132.356 221.694 124.996 229.449 119.816C237.204 114.636 246.323 111.87 255.652 111.866C261.853 111.845 267.998 113.05 273.732 115.411C279.465 117.771 284.675 121.241 289.061 125.62C293.447 129.999 296.923 135.202 299.289 140.928C301.654 146.654 302.863 152.791 302.845 158.985Z" fill="white" stroke="black" stroke-width="3" stroke-linecap="round"/>
<path d="M223.237 219.989V306.231L306.212 299.501L292.314 211.576L255.671 233.45L223.237 219.989Z" fill="#EAEAEA" stroke="black" stroke-width="3" stroke-linecap="round"/>
<path d="M280.521 200.637L291.051 204.845C291.051 204.845 302.845 212.429 345.805 218.31C345.805 218.31 352.122 218.31 356.336 238.504L410.24 310.444C410.24 310.444 436.353 329.781 414.453 349.149L366.243 354.408C366.243 354.408 394.042 327.904 351.925 327.063L359.718 320.541C359.718 320.541 347.502 309.166 344.978 302.03C342.453 294.894 321.822 286.886 321.822 286.886L324.35 347.466L286.401 353.347L280.934 240.62C280.671 235.303 280.977 229.974 281.845 224.721C283.288 216.171 284.795 202.627 280.521 200.637Z" fill="#FFD749" stroke="black" stroke-width="3" stroke-linecap="round"/>
<path d="M234.61 204.842L181.12 218.742C181.12 218.742 173.118 213.695 163.43 253.246L129.315 314.671C129.315 314.671 109.503 334.009 124.687 350.404C139.872 366.799 158.803 358.818 158.803 358.818C158.803 358.818 141.534 331.897 171.861 325.163L183.249 310.861L234.633 316.749L233.346 242.705L234.773 234.076C236.33 224.748 236.33 215.227 234.773 205.9L234.61 204.842Z" fill="#FFD749" stroke="black" stroke-width="3" stroke-linecap="round"/>
<path d="M181.963 246.072L176.906 249.856L253.143 269.209V261.637L181.963 246.072Z" fill="white" stroke="black" stroke-width="3" stroke-linecap="round"/>
<path d="M329.379 244.81L334.432 248.597L253.143 269.209V261.637L329.379 244.81Z" fill="white" stroke="black" stroke-width="3" stroke-linecap="round"/>
<path d="M172.275 246.072L243.034 262.479L248.087 365.131L186.173 345.778L172.275 246.072Z" fill="black" stroke="black" stroke-width="3" stroke-linecap="round"/>
<path d="M337.803 246.072L262.409 263.321L266.619 366.394L336.539 344.936L337.803 246.072Z" fill="black" stroke="black" stroke-width="3" stroke-linecap="round"/>
<path d="M240.506 262.479C240.506 262.479 252.858 270.062 265.845 262.479L268.373 367.235H248.09L240.506 262.479Z" fill="black"/>
<path d="M351.153 326.873L348.955 327.465C348.955 327.465 334.64 314.952 316.392 333.91C298.145 352.869 322.466 362.147 322.466 362.147C322.466 362.147 347.52 363.22 355.389 358.572C358.776 356.543 362.485 355.108 366.356 354.329C368.723 353.865 370.877 352.651 372.498 350.867C373.972 349.255 375.066 347.334 375.701 345.245C376.335 343.156 376.494 340.952 376.165 338.794C375.74 335.961 374.491 333.316 372.575 331.185C370.659 329.053 368.159 327.531 365.385 326.805C360.715 325.593 355.81 325.616 351.153 326.873Z" fill="white" stroke="black" stroke-width="3" stroke-linecap="round"/>
<path d="M160.028 329.794C160.028 329.794 176.875 314.65 197.515 339.891C218.154 365.132 181.507 365.564 181.507 365.564C181.507 365.564 161.695 370.179 154.129 353.772C146.564 337.366 160.028 329.794 160.028 329.794Z" fill="white" stroke="black" stroke-width="3" stroke-linecap="round"/>
<path d="M239.507 146.636C243.99 145.407 248.238 142.814 252.865 142.95C257.982 143.098 262.39 146.529 265.954 150.2C269.887 154.245 273.311 158.777 277.395 162.674C281.48 166.572 286.404 169.879 291.984 170.739C297.564 171.6 303.846 169.503 306.743 164.673C310.869 157.779 306.952 149.047 307.039 141.016C307.096 135.939 308.812 130.965 308.618 125.891C308.455 121.645 306.963 117.55 305.335 113.64C304.541 111.745 303.672 109.78 302.153 108.374C298.133 104.658 291.631 106.25 286.468 104.419C279.795 102.049 276.682 94.6669 272.825 88.7329C271.337 86.4579 268.649 84.0274 266.227 85.2787C263.377 86.7498 264.151 91.7776 261.27 93.1881C259.524 94.0412 257.39 92.9644 256.145 91.4743C254.9 89.9841 254.183 88.111 252.96 86.6057C251.872 85.3039 250.447 84.3257 248.841 83.778C247.234 83.2304 245.507 83.1343 243.85 83.5004C243.193 83.6089 242.588 83.9237 242.122 84.399C241.204 85.491 241.777 87.1176 241.841 88.5433C242.062 93.336 236.311 95.9977 231.535 96.5058C226.76 97.0139 221.161 97.0746 218.313 100.938C216.795 102.982 216.484 105.644 215.466 107.972C213.105 113.371 207.404 116.314 202.389 119.426C197.374 122.539 192.215 127.048 192.261 132.936C192.307 138.597 197.196 143.174 198.061 148.759C198.517 151.724 197.807 154.788 198.377 157.734C199.42 163.141 204.382 166.769 208.96 169.841C210.099 170.599 211.314 171.391 212.68 171.403C214.958 171.422 216.662 169.302 217.79 167.304C219.33 164.567 220.544 161.659 221.407 158.64C222.201 155.868 221.726 150.731 223.07 148.402C225.363 144.406 234.815 147.921 239.507 146.636Z" fill="black"/>
</g>
<defs>
<clipPath id="clip0">
<rect width="309" height="263" fill="white" transform="translate(115 83)"/>
</clipPath>
</defs>
</svg>
