<svg width="540" height="346" viewBox="0 0 540 346" fill="none" xmlns="http://www.w3.org/2000/svg">
<g clip-path="url(#clip0)">
<g clip-path="url(#clip1)">
<path d="M124.36 163.157C124.36 163.157 122.038 184.466 119.345 204.281C124.421 216.364 141.088 236.808 141.088 236.808L168.762 230.654C168.762 230.654 153.762 194.09 165.378 177.146C176.994 160.203 124.36 163.157 124.36 163.157Z" fill="white" stroke="black" stroke-width="3" stroke-linecap="round"/>
<path d="M156.751 193.73C175.894 193.73 191.412 177.81 191.412 158.173C191.412 138.536 175.894 122.616 156.751 122.616C137.608 122.616 122.09 138.536 122.09 158.173C122.09 177.81 137.608 193.73 156.751 193.73Z" fill="white" stroke="black" stroke-width="3" stroke-linecap="round"/>
<path d="M183.93 147.494C188.588 148.098 194.523 146.593 195.418 142.133C196.555 136.487 188.757 132.822 187.553 127.219C187.099 125.088 187.642 122.901 187.377 120.763C186.82 116.41 183.196 113.072 179.528 110.579C167.92 102.695 153.801 99.0489 139.679 100.288C137.933 100.452 136.092 100.722 134.742 101.801C133.209 103.023 132.615 105.004 131.566 106.645C127.956 112.284 119.828 112.951 114.055 116.466C107.255 120.578 103.895 128.653 103.587 136.408C103.278 144.164 105.567 151.77 107.827 159.213C109.749 165.547 111.766 172.046 115.984 177.23C120.202 182.414 127.208 186.036 133.825 184.474C130.788 182.343 132.996 177.436 136.283 175.717C139.569 173.999 143.619 173.7 146.472 171.314C149.326 168.928 150.14 165.036 151.043 161.492C152.202 157.018 153.874 152.487 157.241 149.22C163.851 142.821 175.787 146.451 183.93 147.494Z" fill="black"/>
<path d="M401.621 184.036C401.621 184.036 404.741 216.959 399.281 224.562C393.821 232.164 421.106 236.418 423.446 236.418C425.785 236.418 450.73 227.133 455.403 224.562C460.075 221.99 463.975 203.458 463.975 203.458C463.975 203.458 440.591 208.526 433.578 179.004L401.621 184.036Z" fill="white" stroke="black" stroke-width="3" stroke-linecap="round"/>
<path d="M392.132 100.936C385.755 103.163 379.874 107.43 377.154 113.444C376.209 115.534 375.64 117.818 374.265 119.68C371.199 123.818 365.214 124.598 360.965 127.555C355.497 131.386 353.472 138.588 354.233 145.089C354.994 151.59 358.068 157.583 361.098 163.425C364.283 169.561 367.578 175.847 372.802 180.486C375.241 182.634 378.233 184.667 379.009 187.789C379.674 190.467 378.499 193.266 378.743 196.008C379.349 202.788 387.713 205.946 394.696 206.697C397.733 207.027 401.206 207.041 403.349 204.929C404.442 203.841 404.997 202.366 405.684 201.006C407.273 197.89 409.721 195.262 412.758 193.413C415.795 191.564 419.301 190.566 422.888 190.53C426.474 190.495 430.001 191.423 433.076 193.211C436.151 194.999 438.655 197.578 440.309 200.662C441.95 203.712 442.903 207.42 445.881 209.253C450.44 212.117 456.543 208.759 459.92 204.621C463.297 200.483 465.721 195.314 470.516 192.829C471.994 192.049 473.782 191.526 474.802 190.195C476.642 187.796 475.075 184.216 476.331 181.488C477.277 179.434 479.59 178.31 480.942 176.477C483.713 172.732 481.681 167.556 479.634 163.411L467.605 139.319C464.272 132.646 460.91 125.923 456.255 120.045C441.957 102.089 414.506 93.1321 392.132 100.936Z" fill="black"/>
<path d="M420.982 227.293C420.982 227.293 452.786 227.293 460.947 197.272L487.719 218.507C489.567 219.973 491.105 221.808 492.237 223.902C493.369 225.995 494.073 228.303 494.305 230.684L495.568 243.6L496.831 256.516C496.831 256.516 496.831 267.243 496.423 271.951C496.423 271.951 476.403 277.38 475.587 287.419L492.237 355.505C492.237 355.505 442.471 358.576 432.686 351.884C432.686 351.884 398.935 343.255 389.149 334.08C379.364 324.905 369.579 325.74 377.696 304.879C377.696 304.879 361.382 288.192 368.727 264.834C376.071 241.476 369.135 265.252 369.135 265.252C369.135 265.252 353.294 257.329 354.11 242.311L355.742 227.293C355.742 227.293 355.828 226.795 356.057 225.902C361.032 206.132 374.389 195.149 393.172 202.149C398.663 204.185 404.275 201.849 404.275 201.849C404.275 201.849 398.147 228.963 420.982 227.293Z" fill="black" stroke="black" stroke-width="3" stroke-linecap="round"/>
<path d="M460.599 251.228C460.599 251.228 479.495 266.514 496.674 270.759C496.674 270.759 497.221 254.478 495.083 242.408" stroke="black" stroke-width="3" stroke-linecap="round"/>
<path d="M416.877 199.882C437.109 199.882 453.509 184.109 453.509 164.651C453.509 145.194 437.109 129.42 416.877 129.42C396.646 129.42 380.245 145.194 380.245 164.651C380.245 184.109 396.646 199.882 416.877 199.882Z" fill="white" stroke="black" stroke-width="3" stroke-linecap="round"/>
<path d="M426.016 155.702C424.448 156.326 422.771 156.58 421.101 156.446C414.595 156.401 408.091 156.153 401.59 155.702C396.675 155.352 391.41 154.735 387.611 151.395C382.5 146.931 381.693 138.472 384.333 132.015C386.972 125.558 392.357 120.797 398.044 117.136C401.255 114.995 404.731 113.338 408.372 112.212C418.903 109.176 430.586 112.903 438.962 120.343C447.338 127.782 452.681 138.525 455.51 149.713C456.486 153.582 457.743 158.194 461.359 159.384C458.951 163.625 453.074 164.302 448.862 162.174C442.641 159.042 439.454 147.05 433.872 145.16C427.652 143.025 431.274 153.128 426.016 155.702Z" fill="black"/>
<path d="M128.239 219.534C130.231 217.933 118.279 216.277 128.239 219.534C127.08 220.463 126.58 221.954 125.678 223.127C122.686 227.006 116.655 226.28 111.893 227.67C104.89 229.705 100.573 236.567 98.0879 243.266C87.1213 272.89 99.3442 306.793 89.8005 336.879C87.0241 345.734 82.3945 355.566 86.9339 363.71C88.447 366.422 90.911 368.694 91.6676 371.697C92.6948 375.766 90.7167 381.123 94.1732 383.604C95.2491 384.377 96.6164 384.615 97.9074 384.96C105.688 386.995 111.588 392.975 117.515 398.298C123.443 403.621 130.578 408.767 138.616 408.421C141.211 408.209 143.773 407.706 146.251 406.923L186.168 395.945C190.173 394.84 194.497 393.511 196.836 390.141C198.224 388.107 198.703 385.544 199.064 383.082C200.441 373.721 201.093 364.271 201.014 354.814C201.014 351.695 200.869 348.501 199.696 345.599C198.307 342.249 195.698 339.571 193.754 336.499C190.013 330.587 189 323.453 188.077 316.557C186.605 305.58 185.134 294.385 187.167 283.495C188.042 278.823 189.548 274.28 190.548 269.636C192.168 262.071 192.427 254.287 191.311 246.636C190.381 240.282 188.375 233.834 183.988 229.054C181.132 225.872 177.225 223.768 172.945 223.107C167.545 222.429 164.859 225.521 160.049 226.667C138.616 231.773 135.083 221.771 128.239 219.534Z" fill="#EAEAEA"/>
<path d="M128.239 219.534C118.279 216.277 130.231 217.933 128.239 219.534ZM128.239 219.534C127.08 220.463 126.58 221.954 125.678 223.127C122.686 227.006 116.655 226.28 111.893 227.67C104.89 229.705 100.573 236.567 98.0879 243.266C87.1213 272.89 99.3442 306.793 89.8005 336.879C87.0241 345.734 82.3945 355.566 86.9339 363.71C88.447 366.422 90.911 368.694 91.6676 371.697C92.6948 375.766 90.7167 381.123 94.1732 383.604C95.2491 384.377 96.6164 384.615 97.9074 384.96C105.688 386.995 111.588 392.975 117.515 398.298C123.443 403.621 130.578 408.767 138.616 408.421C141.211 408.209 143.773 407.706 146.251 406.923L186.168 395.945C190.173 394.84 194.497 393.511 196.836 390.141C198.224 388.107 198.703 385.543 199.064 383.082C200.441 373.721 201.093 364.271 201.014 354.814C201.014 351.695 200.869 348.501 199.696 345.599C198.307 342.249 195.698 339.571 193.754 336.499C190.013 330.587 189 323.453 188.077 316.557C186.605 305.58 185.134 294.385 187.167 283.495C188.042 278.823 189.548 274.28 190.548 269.636C192.168 262.071 192.427 254.287 191.311 246.636C190.381 240.282 188.375 233.834 183.988 229.054C181.132 225.872 177.225 223.768 172.945 223.107C167.545 222.429 164.859 225.521 160.049 226.667C138.616 231.773 135.083 221.771 128.239 219.534Z" stroke="black" stroke-width="3" stroke-linecap="round"/>
<path d="M161.212 201.251C161.212 201.251 180.392 206.287 193.804 208.727C195.903 209.108 197.88 209.977 199.576 211.262C201.271 212.547 202.636 214.212 203.558 216.12C207.607 224.513 213.779 239.674 212.717 252.328L224.423 298.008L257.988 338.266L227.554 352.204L193.215 314.264L221.3 386.298L169.014 388.608C169.014 388.608 160.348 254.042 164.252 234.688C164.252 234.688 164.252 222.535 164.252 217.582C164.252 208.727 161.212 201.251 161.212 201.251Z" fill="#FFD749" stroke="black" stroke-width="3" stroke-linecap="round"/>
<path d="M298.879 126.483C298.879 126.483 283.001 120.868 272.795 143.33C262.588 165.792 246.711 190.501 246.711 190.501L255.784 192.747C255.784 192.747 258.052 177.023 263.722 174.777L261.454 194.993C261.454 194.993 329.499 218.579 360.119 192.747L358.985 184.885C358.985 184.885 363.521 186.008 363.521 192.747L366.923 189.378C366.923 189.378 363.521 182.639 353.314 173.654C346.615 167.757 344.313 156.537 343.522 149.523C342.929 143.665 340.563 138.122 336.733 133.62C329.95 125.835 317.591 117.561 298.879 126.483Z" fill="black"/>
<path d="M288.576 187.562L292.222 231.653L326.255 230.428C326.255 230.428 316.531 202.259 322.608 191.236L288.576 187.562Z" fill="white" stroke="black" stroke-width="3" stroke-linecap="round"/>
<path d="M262.069 235.849L254.138 234.036C254.138 234.036 243.766 238.266 241.326 251.56C238.886 264.854 207.162 368.79 223.024 374.833C238.886 380.875 262.069 383.292 262.069 380.875C262.069 378.458 271.83 287.817 271.83 287.817L262.069 235.849Z" fill="black" stroke="black" stroke-width="3" stroke-linecap="round"/>
<path d="M330.275 231.063L356.772 229.677C356.772 229.677 368.459 232.818 364.991 245.626C363.56 250.909 374.205 300.328 374.205 300.328C374.205 300.328 417.673 353.012 409.064 352.165C394.409 350.725 379.607 372.976 379.607 372.976L339.628 312.268L330.275 231.063Z" fill="#FFD749" stroke="black" stroke-width="3" stroke-linecap="round"/>
<path d="M279.305 175.049C281.452 175.049 283.193 172.515 283.193 169.389C283.193 166.263 281.452 163.729 279.305 163.729C277.158 163.729 275.418 166.263 275.418 169.389C275.418 172.515 277.158 175.049 279.305 175.049Z" fill="white" stroke="black" stroke-width="3" stroke-linecap="round"/>
<path d="M308.005 223.041L321.969 214.374L337.103 221.835L361.352 232.694L352.865 335.248C352.865 335.248 372.264 399.194 368.626 430.564C364.989 461.933 408.637 618.782 373.476 626.021C338.316 633.26 312.855 640.499 311.642 628.434C310.43 616.369 308.005 431.77 308.005 431.77C308.005 431.77 304.368 627.227 289.819 629.641C275.269 632.054 212.223 641.706 217.073 627.227C221.923 612.749 254.658 359.379 270.42 344.9L272.845 332.835L252.233 235.107L290.939 215.91L308.005 223.041Z" fill="black" stroke="black" stroke-width="3" stroke-linecap="round"/>
<path d="M306.817 201.266C322.176 201.266 334.627 188.861 334.627 173.56C334.627 158.258 322.176 145.854 306.817 145.854C291.458 145.854 279.007 158.258 279.007 173.56C279.007 188.861 291.458 201.266 306.817 201.266Z" fill="white" stroke="black" stroke-width="3" stroke-linecap="round"/>
<path d="M272.961 175.645C272.961 175.645 282.01 163.133 289.928 160.858C297.846 158.583 298.977 147.208 298.977 147.208C298.977 147.208 319.337 169.958 331.779 171.095C344.221 172.233 332.91 143.795 332.91 143.795L310.288 138.108L288.797 140.383L271.83 151.758L272.961 175.645Z" fill="black"/>
<path d="M514 339.375H26V410.489H514V339.375Z" fill="#EAEAEA" stroke="black" stroke-width="3" stroke-linecap="round"/>
<path d="M495.55 271.885C495.55 271.885 493.755 311.839 492.135 319.34C490.516 326.841 473.039 339.655 454.907 350.154C454.907 350.154 441.31 362.233 426.741 357.24C412.172 352.247 411.2 345.16 418.488 341.827L467.046 310.18V256.334L481.337 265.387L495.55 271.885Z" fill="white" stroke="black" stroke-width="3" stroke-linecap="round"/>
<path d="M123.957 177.319C107.273 194.816 108.927 193.835 91.6788 196.485C88.0046 197.049 82.5032 199.003 82.5032 199.003C73.3927 201.503 65.163 206.497 58.7426 213.419C52.3223 220.341 47.9666 228.918 46.167 238.18L46.022 238.932C41.296 264.089 39.7275 333.267 39.7275 333.267C39.7275 333.267 40.5152 351.344 48.3849 356.036L98.7609 390.659C98.7609 390.659 110.532 372.362 129.429 368.436C148.327 364.51 111.357 347.425 111.357 347.425L77.4772 323.649C77.4772 323.649 88.8021 333.916 99.7838 338.35C106.991 338.35 123.479 339.384 129.429 338.35C129.429 322.603 133.758 218.447 133.758 218.447C133.758 218.447 126.235 209.413 123.957 202.467C120.893 193.127 120.793 182.025 123.957 177.319Z" fill="#FFD749" stroke="black" stroke-width="3" stroke-linecap="round"/>
<path d="M415.705 233.389H261.567C249.735 233.389 240.144 242.359 240.144 253.424V345.325C240.144 356.39 249.735 365.359 261.567 365.359H415.705C427.537 365.359 437.128 356.39 437.128 345.325V253.424C437.128 242.359 427.537 233.389 415.705 233.389Z" fill="white" stroke="black" stroke-width="3" stroke-linecap="round"/>
</g>
</g>
<defs>
<clipPath id="clip0">
<path d="M0 8.00001C0 3.58173 3.58172 0 8 0H532C536.418 0 540 3.58172 540 8V338C540 342.418 536.418 346 532 346H7.99999C3.58171 346 0 342.418 0 338V8.00001Z" fill="white"/>
</clipPath>
<clipPath id="clip1">
<path d="M26 98H514V347C514 349.209 512.209 351 510 351H26V98Z" fill="white"/>
</clipPath>
</defs>
</svg>
