<svg width="540" height="346" viewBox="0 0 540 346" fill="none" xmlns="http://www.w3.org/2000/svg">
<g clip-path="url(#clip0)">
<rect x="164.235" y="137.164" width="304.764" height="167.871" rx="10" fill="black"/>
<rect x="263.792" y="329.453" width="105.652" height="16.2784" rx="4" fill="black"/>
<rect x="310.522" y="305.035" width="12.1905" height="32.5569" fill="black"/>
<g clip-path="url(#clip1)">
<rect x="172.362" y="145.303" width="288.51" height="151.593" rx="10" fill="white"/>
<path d="M210.434 216.039V174.273H422.8V216.039H210.434Z" fill="#FFD749" stroke="black" stroke-width="3" stroke-linecap="round"/>
<path d="M210.434 336.092V214.969H422.8V336.092H210.434Z" fill="white" stroke="black" stroke-width="3" stroke-linecap="round"/>
<path d="M224.656 247.578V243.456H304.958V247.578H224.656Z" fill="black" stroke="black" stroke-width="3" stroke-linecap="round"/>
<path d="M224.656 290.309V286.187H304.958V290.309H224.656Z" fill="black" stroke="black" stroke-width="3" stroke-linecap="round"/>
<path d="M224.656 276.065V271.943H304.958V276.065H224.656Z" fill="black" stroke="black" stroke-width="3" stroke-linecap="round"/>
<path d="M224.656 261.822V257.7H304.958V261.822H224.656Z" fill="black" stroke="black" stroke-width="3" stroke-linecap="round"/>
<rect x="317.633" y="299.948" width="72.2355" height="92.4452" transform="rotate(-90 317.633 299.948)" fill="#FFD749" stroke="black" stroke-width="3" stroke-linecap="round"/>
<path d="M224.656 233.334V229.212H274.482V233.334H224.656Z" fill="black" stroke="black" stroke-width="3" stroke-linecap="round"/>
</g>
<path d="M137.044 197.623C137.044 197.623 126.206 234.839 120.013 237.94C113.819 241.041 169.56 245.693 169.56 245.693C169.56 245.693 168.011 210.028 171.108 206.927C174.205 203.825 137.044 197.623 137.044 197.623Z" fill="white" stroke="black" stroke-width="3" stroke-linecap="round"/>
<path d="M121.26 235.163C121.5 235.025 121.7 234.914 121.855 234.829L167.929 239.845C174.796 240.592 181.251 243.493 186.374 248.135C191.496 252.776 195.023 258.92 196.451 265.689L214.521 351.348L214.531 351.489C214.542 351.649 214.559 351.888 214.58 352.199C214.622 352.822 214.682 353.738 214.755 354.905C214.9 357.241 215.093 360.583 215.286 364.61C215.672 372.664 216.058 383.444 216.058 394.364C216.058 405.296 215.671 416.313 214.523 424.863C213.948 429.145 213.192 432.734 212.23 435.362C211.75 436.675 211.238 437.693 210.711 438.423C210.182 439.156 209.697 439.52 209.289 439.673C206.714 440.64 203.762 440.215 200.188 438.788C197.196 437.594 193.989 435.793 190.443 433.801C189.738 433.405 189.02 433.002 188.288 432.595C179.587 427.754 169.127 422.461 156.974 424.084C145.311 425.642 131.917 428.169 121.454 430.304C116.22 431.372 111.712 432.343 108.513 433.047C107.158 433.345 106.038 433.595 105.197 433.784L105.046 429.019C104.914 424.82 104.724 418.808 104.495 411.555C104.036 397.048 103.417 377.575 102.778 357.711C101.502 317.998 100.147 276.69 99.8334 270.429C99.2367 258.499 104.773 249.578 110.56 243.577C113.451 240.577 116.385 238.331 118.596 236.835C119.701 236.088 120.621 235.531 121.26 235.163Z" fill="#FFD749" stroke="black" stroke-width="3" stroke-linecap="round"/>
<path d="M157.646 246.479L171.488 239.576C171.488 239.576 205.644 243.377 211.838 265.087C218.031 286.796 245.902 437.211 245.902 437.211L219.58 449.616L182.419 358.127L157.646 246.479Z" fill="#FFD749"/>
<path d="M166.962 239.27C166.962 239.27 205.644 243.378 211.838 265.087C218.031 286.796 245.901 437.211 245.901 437.211L219.579 449.616L157.862 273.122" stroke="black" stroke-width="3" stroke-linecap="round"/>
<path d="M143.939 207.796L129.755 203.477C124.268 203.176 118.915 201.656 114.086 199.028C109.256 196.401 105.071 192.731 101.831 188.284C98.592 183.837 96.3804 178.725 95.3563 173.317C94.3323 167.909 94.5215 162.34 95.9102 157.015C96.6145 144.161 102.389 132.113 111.962 123.523C121.536 114.932 134.125 110.503 146.959 111.208L146.959 111.208C159.794 111.913 171.824 117.696 180.401 127.284C188.979 136.872 193.402 149.479 192.698 162.333L192.698 162.333C199.259 191.208 172.229 216.411 143.939 207.796Z" fill="black"/>
<path d="M160.269 214.68C179.937 214.68 195.881 198.712 195.881 179.015C195.881 159.317 179.937 143.349 160.269 143.349C140.601 143.349 124.657 159.317 124.657 179.015C124.657 198.712 140.601 214.68 160.269 214.68Z" fill="white" stroke="black" stroke-width="3" stroke-linecap="round"/>
<path d="M93.9675 145.295C106.652 146.009 117.512 136.288 118.224 123.584C118.936 110.881 109.231 100.004 96.5459 99.2911C83.8612 98.5781 73.0009 108.298 72.2889 121.002C71.5769 133.706 81.2827 144.582 93.9675 145.295Z" fill="black"/>
<path d="M136.115 125.273L167.399 121.303L185.509 133.692C191.157 137.696 196.947 143.546 199.545 149.969C202.144 156.393 204.278 164.613 203.005 171.426L176.937 162.806L176.937 152.723L169.991 162.806L134.334 203.797L116.33 190.84L101.148 163.78L136.115 125.273Z" fill="black"/>
</g>
<defs>
<clipPath id="clip0">
<rect width="398" height="248" fill="white" transform="translate(71 98)"/>
</clipPath>
<clipPath id="clip1">
<rect x="172.362" y="145.303" width="288.51" height="151.593" rx="10" fill="white"/>
</clipPath>
</defs>
</svg>
