<svg width="29" height="38" viewBox="0 0 29 38" fill="none" xmlns="http://www.w3.org/2000/svg">
<path fill-rule="evenodd" clip-rule="evenodd" d="M28.1154 31.8249V0L7.13971 0.621341L5.11703 0.675752V0.970182L7.02626 1.51422L23.4695 6.34733V36.3178L21.9316 36.9092L21.9323 7.1123L12.3274 4.0976V12.3166L8.75741 11.0399V16.4925L5.12263 15.1927V32.3951L21.9316 37.8946L24.3744 36.9186V5.66396L10.029 1.44747L27.2105 0.938516V31.0832L25.3898 31.4636V32.3654L28.1154 31.8249ZM18.3809 22.4608C18.7732 22.4608 19.0912 22.0313 19.0912 21.5015C19.0912 20.9717 18.7732 20.5422 18.3809 20.5422C17.9887 20.5422 17.6707 20.9717 17.6707 21.5015C17.6707 22.0313 17.9887 22.4608 18.3809 22.4608Z" fill="black"/>
<path d="M4.90057 1.93113L10.7893 3.83526V10.3459L4.90057 8.23998V1.93113Z" fill="black"/>
<path d="M3.365 3.31623L0 2.11284V5.71789L3.365 6.92129V3.31623Z" fill="black"/>
<path d="M0.410178 7.6797L2.36812 8.3799V10.3162L0.410178 9.61596V7.6797Z" fill="black"/>
<path d="M7.34589 11.0902L3.70047 9.78652V13.3916L7.34589 14.6952V11.0902Z" fill="black"/>
</svg>
