<svg width="300" height="300" viewBox="0 0 300 300" fill="none" xmlns="http://www.w3.org/2000/svg">
<rect y="50" width="300" height="165" rx="10" fill="black"/>
<rect x="98" y="239" width="104" height="16" rx="4" fill="black"/>
<rect x="144" y="215" width="12" height="32" fill="black"/>
<g clip-path="url(#clip0)">
<rect x="8" y="58" width="284" height="149" rx="10" fill="white"/>
<path d="M105.424 159.224C105.424 159.224 107.708 171.416 102.609 175.396C97.5101 179.377 106.93 203.236 122.474 200.45C138.018 197.664 144.352 177.652 144.352 177.652C144.352 177.652 128.783 174.47 134.555 158.297L105.424 159.224Z" fill="white" stroke="black" stroke-width="3" stroke-linecap="round"/>
<path d="M119 168.892C133.001 168.892 144.351 157.372 144.351 143.162C144.351 128.952 133.001 117.433 119 117.433C104.999 117.433 93.6484 128.952 93.6484 143.162C93.6484 157.372 104.999 168.892 119 168.892Z" fill="white" stroke="black" stroke-width="3" stroke-linecap="round"/>
<path d="M161.757 191.666V209H77V192.453C76.9999 190.355 77.622 188.304 78.7887 186.555C79.9554 184.806 81.6149 183.437 83.56 182.62L85.9884 181.593C92.1365 178.991 99.6063 175.76 102.047 174.416C102.314 174.284 102.566 174.122 102.797 173.934C104.131 172.608 103.867 174.331 103.867 174.331C103.867 174.331 103.83 174.661 103.805 175.229C103.658 179.132 104.223 194.469 122.317 193.193C139.968 191.971 140.761 180.109 140.583 176.621C140.573 176.299 140.546 175.976 140.503 175.656C141.724 175.945 142.919 176.333 144.075 176.817C147.764 178.173 153.211 180.347 154.668 181.373C155.123 181.691 155.676 182.021 156.279 182.357C156.962 182.736 157.602 183.188 158.185 183.707C159.309 184.71 160.208 185.937 160.824 187.308C161.439 188.68 161.757 190.164 161.757 191.666Z" fill="#FFD749" stroke="black" stroke-width="3" stroke-linecap="round"/>
<path d="M86.4956 143.884C87.4419 143.646 88.4373 143.699 89.3535 144.036C90.2697 144.373 91.0646 144.979 91.6357 145.775C92.6733 147.24 92.8303 149.007 92.96 150.698C94.1955 150.959 94.8918 149.55 95.0078 148.484C95.4652 144.145 95.4993 139.724 96.9464 135.53C98.3936 131.336 101.554 127.279 106.407 125.677C108.066 125.098 109.838 124.928 111.575 125.182C112.606 125.354 113.575 125.718 114.599 125.869C118.148 126.461 122.005 124.769 125.33 125.945C127.418 126.688 128.743 128.4 129.719 130.112C130.143 131.035 130.72 131.879 131.425 132.608C132.838 133.887 135.05 134.217 137.077 134.615C139.105 135.014 141.316 135.709 142.183 137.283C142.961 138.707 142.388 140.35 142.129 141.89C141.728 144.33 142.133 146.835 143.282 149.02C143.658 149.708 144.422 150.54 145.33 150.313C145.737 150.175 146.081 149.894 146.299 149.522C148.627 146.236 148.566 141.959 151.487 138.995C152.463 138.005 153.726 137.235 154.675 136.245C155.393 135.511 155.92 134.61 156.208 133.621C156.496 132.633 156.537 131.588 156.327 130.579C155.801 128.31 153.999 126.454 152.545 124.46C150.657 121.934 149.282 119.058 148.497 115.996C148.361 115.64 148.361 115.245 148.497 114.889C148.773 114.528 149.128 114.236 149.535 114.036C150.326 113.502 150.897 112.695 151.141 111.768C151.385 110.84 151.285 109.855 150.859 108.996C150.033 107.298 148.218 106.005 146.17 105.235C144.093 104.548 141.948 104.087 139.774 103.86C138.34 104.066 136.661 103.248 136.217 102.093C136.019 101.577 136.019 101.02 135.821 100.505C135.553 99.9866 135.165 99.5414 134.689 99.2063C134.214 98.8712 133.666 98.6562 133.091 98.5793C131.87 98.3804 130.62 98.4698 129.439 98.8406C128.074 99.2256 126.524 99.8032 125.343 99.1293C124.722 98.7787 124.381 98.1392 123.712 97.8504C122.347 97.2729 120.94 98.4418 119.964 99.4044C119.024 100.414 117.869 101.197 116.585 101.694C115.908 101.954 115.182 102.063 114.459 102.015C113.736 101.966 113.031 101.761 112.394 101.412C111.459 100.814 110.988 99.8513 110.244 99.0881C108.838 97.8257 107.04 97.0963 105.158 97.0253C103.223 96.9219 101.285 97.1356 99.4175 97.6579C95.854 98.5327 92.4509 99.9716 89.3353 101.921C87.768 102.788 86.4383 104.033 85.4649 105.544C84.8888 106.703 84.5918 107.982 84.5979 109.278C84.4478 113.342 85.7857 117.618 89.2739 120.465C87.1441 121.359 86.4274 123.552 85.929 125.498C85.1304 128.606 84.3317 131.762 84.6321 134.925C84.7823 136.561 85.226 138.198 84.987 139.827C84.7955 140.595 84.6902 141.381 84.673 142.172C84.7734 142.608 85.0004 143.003 85.325 143.308C85.6497 143.613 86.0572 143.814 86.4956 143.884Z" fill="black"/>
<path d="M176.254 166.919L201.105 74.1765L267.977 92.095L243.127 184.838L176.254 166.919Z" fill="#FFD749" stroke="black" stroke-width="3" stroke-linecap="round"/>
<path d="M203.258 124.284L204.034 121.386L241.705 131.48L240.929 134.378L203.258 124.284Z" fill="#FFD749" stroke="black" stroke-width="3" stroke-linecap="round"/>
<path d="M203.567 134.719L204.344 131.821L236.219 140.363L235.443 143.26L203.567 134.719Z" fill="#FFD749" stroke="black" stroke-width="3" stroke-linecap="round"/>
<path d="M196.579 160.799L197.356 157.902L229.231 166.443L228.455 169.34L196.579 160.799Z" fill="#FFD749" stroke="black" stroke-width="3" stroke-linecap="round"/>
<circle cx="228.176" cy="106.632" r="11.5" transform="rotate(15 228.176 106.632)" fill="white" stroke="black" stroke-width="3" stroke-linecap="round"/>
</g>
<defs>
<clipPath id="clip0">
<rect x="8" y="58" width="284" height="149" rx="10" fill="white"/>
</clipPath>
</defs>
</svg>
