<svg width="300" height="300" viewBox="0 0 300 300" fill="none" xmlns="http://www.w3.org/2000/svg">
<rect y="50" width="300" height="165" rx="10" fill="black"/>
<rect x="98" y="239" width="104" height="16" rx="4" fill="black"/>
<rect x="144" y="215" width="12" height="32" fill="black"/>
<g clip-path="url(#clip0)">
<rect x="8" y="58" width="284" height="149" rx="10" fill="white"/>
<path d="M72.6943 150.616C72.6943 150.616 75.3509 164.782 69.4202 169.407C63.4896 174.032 74.4462 201.755 92.5253 198.518C110.604 195.281 117.971 172.028 117.971 172.028C117.971 172.028 99.8632 168.33 106.576 149.539L72.6943 150.616Z" fill="white" stroke="black" stroke-width="3" stroke-linecap="round"/>
<path d="M88.2412 161.617C104.661 161.617 117.972 148.098 117.972 131.422C117.972 114.746 104.661 101.227 88.2412 101.227C71.8215 101.227 58.5107 114.746 58.5107 131.422C58.5107 148.098 71.8215 161.617 88.2412 161.617Z" fill="white" stroke="black" stroke-width="3" stroke-linecap="round"/>
<rect x="204" y="188" width="44" height="24" transform="rotate(-90 204 188)" fill="white" stroke="black" stroke-width="3" stroke-linecap="round"/>
<rect x="164" y="188" width="54" height="25" transform="rotate(-90 164 188)" fill="white" stroke="black" stroke-width="3" stroke-linecap="round"/>
<rect x="243" y="188" width="69" height="25" transform="rotate(-90 243 188)" fill="#FFD749" stroke="black" stroke-width="3" stroke-linecap="round"/>
<path d="M138.411 188.624V209H39V189.55C38.9998 187.083 39.7295 184.672 41.098 182.616C42.4664 180.56 44.4128 178.951 46.6942 177.99L49.5425 176.784C56.7536 173.725 65.515 169.927 68.3778 168.348C68.6913 168.192 68.9864 168.002 69.2575 167.781C70.8223 166.223 70.5122 168.247 70.5122 168.247C70.5122 168.247 70.469 168.635 70.4401 169.303C70.2671 173.891 70.9305 191.919 92.1525 190.419C112.855 188.983 113.786 175.039 113.577 170.94C113.565 170.56 113.534 170.182 113.483 169.805C114.915 170.144 116.316 170.601 117.672 171.169C121.999 172.763 128.388 175.319 130.097 176.526C130.631 176.899 131.28 177.287 131.986 177.682C132.788 178.127 133.538 178.659 134.222 179.268C135.54 180.448 136.595 181.89 137.317 183.502C138.039 185.114 138.412 186.859 138.411 188.624Z" fill="#FFD749" stroke="black" stroke-width="3" stroke-linecap="round"/>
<path d="M50.5337 132.317C51.6343 132.041 52.7921 132.102 53.8577 132.493C54.9233 132.883 55.8479 133.585 56.5121 134.508C57.7189 136.205 57.9015 138.252 58.0524 140.212C59.4894 140.514 60.2992 138.881 60.4342 137.646C60.9662 132.62 61.0059 127.498 62.689 122.639C64.3722 117.779 68.0481 113.08 73.6931 111.223C75.622 110.553 77.683 110.356 79.7033 110.65C80.9021 110.849 82.0295 111.271 83.2204 111.447C87.3489 112.132 91.8347 110.172 95.7012 111.534C98.1307 112.394 99.671 114.378 100.806 116.361C101.3 117.431 101.971 118.409 102.791 119.253C104.435 120.735 107.007 121.117 109.365 121.579C111.723 122.041 114.295 122.846 115.304 124.67C116.209 126.319 115.542 128.223 115.24 130.007C114.774 132.834 115.245 135.736 116.582 138.268C117.019 139.064 117.908 140.028 118.964 139.765C119.437 139.605 119.837 139.28 120.091 138.849C122.799 135.042 122.727 130.087 126.125 126.653C127.26 125.506 128.729 124.614 129.833 123.467C130.668 122.617 131.281 121.573 131.616 120.427C131.951 119.282 131.999 118.071 131.754 116.903C131.143 114.274 129.047 112.124 127.356 109.813C125.16 106.887 123.56 103.555 122.648 100.007C122.489 99.5948 122.489 99.1375 122.648 98.7249C122.969 98.3065 123.382 97.9684 123.854 97.7371C124.775 97.118 125.439 96.1838 125.722 95.1091C126.006 94.0344 125.889 92.8929 125.395 91.8981C124.434 89.9305 122.322 88.4329 119.94 87.5407C117.524 86.7443 115.03 86.2102 112.501 85.9475C110.834 86.1865 108.881 85.2385 108.365 83.9003C108.134 83.3028 108.134 82.6576 107.904 82.0601C107.592 81.4601 107.14 80.9443 106.588 80.5561C106.035 80.1679 105.397 79.9188 104.728 79.8297C103.308 79.5992 101.854 79.7028 100.481 80.1324C98.8929 80.5785 97.0906 81.2476 95.7171 80.4669C94.9946 80.0607 94.5976 79.3198 93.8196 78.9853C92.2317 78.3161 90.5962 79.6703 89.4608 80.7856C88.3668 81.9557 87.0233 82.8625 85.5308 83.4382C84.7428 83.7395 83.8992 83.8662 83.0578 83.8098C82.2164 83.7535 81.3971 83.5153 80.656 83.1116C79.5683 82.4186 79.0205 81.3034 78.1551 80.4191C76.5204 78.9566 74.4288 78.1115 72.2402 78.0294C69.9896 77.9095 67.7346 78.157 65.5631 78.7622C61.4184 79.7757 57.4603 81.4427 53.8365 83.7011C52.0136 84.7062 50.4671 86.1485 49.3349 87.8992C48.6649 89.2416 48.3195 90.7234 48.3266 92.2247C48.1519 96.9326 49.708 101.887 53.7651 105.185C51.288 106.221 50.4543 108.762 49.8748 111.016C48.9458 114.617 48.0169 118.273 48.3663 121.938C48.5409 123.834 49.057 125.729 48.7791 127.617C48.5564 128.506 48.4339 129.417 48.4139 130.334C48.5306 130.838 48.7946 131.297 49.1722 131.65C49.5498 132.003 50.0239 132.236 50.5337 132.317Z" fill="black"/>
</g>
<defs>
<clipPath id="clip0">
<rect x="8" y="58" width="284" height="149" rx="10" fill="white"/>
</clipPath>
</defs>
</svg>
