<svg width="300" height="300" viewBox="0 0 300 300" fill="none" xmlns="http://www.w3.org/2000/svg">
<rect y="50" width="300" height="165" rx="10" fill="black"/>
<rect x="98" y="239" width="104" height="16" rx="4" fill="black"/>
<rect x="144" y="215" width="12" height="32" fill="black"/>
<g clip-path="url(#clip0)">
<rect x="8" y="58" width="284" height="149" rx="10" fill="white"/>
<path d="M196.694 148.616C196.694 148.616 199.351 162.782 193.42 167.407C187.49 172.032 198.446 199.755 216.525 196.518C234.604 193.281 241.971 170.028 241.971 170.028C241.971 170.028 223.863 166.33 230.576 147.539L196.694 148.616Z" fill="white" stroke="black" stroke-width="3" stroke-linecap="round"/>
<path d="M212.241 159.617C228.661 159.617 241.972 146.098 241.972 129.422C241.972 112.746 228.661 99.2271 212.241 99.2271C195.822 99.2271 182.511 112.746 182.511 129.422C182.511 146.098 195.822 159.617 212.241 159.617Z" fill="white" stroke="black" stroke-width="3" stroke-linecap="round"/>
<path d="M262.411 186.624V207H163V187.55C163 185.083 163.73 182.672 165.098 180.616C166.466 178.56 168.413 176.951 170.694 175.99L173.543 174.784C180.754 171.725 189.515 167.927 192.378 166.348C192.691 166.192 192.986 166.002 193.258 165.781C194.822 164.223 194.512 166.247 194.512 166.247C194.512 166.247 194.469 166.635 194.44 167.303C194.267 171.891 194.93 189.919 216.153 188.419C236.855 186.983 237.786 173.039 237.577 168.94C237.565 168.56 237.534 168.182 237.483 167.805C238.915 168.144 240.316 168.601 241.672 169.169C245.999 170.763 252.388 173.319 254.097 174.526C254.631 174.899 255.28 175.287 255.986 175.682C256.788 176.127 257.538 176.659 258.222 177.268C259.54 178.448 260.595 179.89 261.317 181.502C262.039 183.114 262.412 184.859 262.411 186.624Z" fill="#FFD749" stroke="black" stroke-width="3" stroke-linecap="round"/>
<path d="M174.534 130.317C175.634 130.041 176.792 130.102 177.858 130.493C178.923 130.883 179.848 131.585 180.512 132.508C181.719 134.205 181.902 136.252 182.052 138.212C183.489 138.514 184.299 136.881 184.434 135.646C184.966 130.62 185.006 125.498 186.689 120.639C188.372 115.779 192.048 111.08 197.693 109.223C199.622 108.553 201.683 108.356 203.703 108.65C204.902 108.849 206.03 109.271 207.22 109.447C211.349 110.132 215.835 108.172 219.701 109.534C222.131 110.394 223.671 112.378 224.806 114.361C225.3 115.431 225.971 116.409 226.791 117.253C228.435 118.735 231.007 119.117 233.365 119.579C235.723 120.041 238.295 120.846 239.304 122.67C240.209 124.319 239.542 126.223 239.24 128.007C238.774 130.834 239.245 133.736 240.582 136.268C241.019 137.064 241.908 138.028 242.964 137.765C243.437 137.605 243.837 137.28 244.091 136.849C246.799 133.042 246.727 128.087 250.125 124.653C251.26 123.506 252.729 122.614 253.833 121.467C254.668 120.617 255.281 119.573 255.616 118.427C255.951 117.282 255.999 116.071 255.754 114.903C255.143 112.274 253.047 110.124 251.356 107.813C249.16 104.887 247.56 101.555 246.648 98.0074C246.489 97.5948 246.489 97.1375 246.648 96.7249C246.969 96.3065 247.382 95.9684 247.854 95.7371C248.775 95.118 249.439 94.1838 249.722 93.1091C250.006 92.0344 249.889 90.8929 249.395 89.8981C248.434 87.9305 246.322 86.4329 243.94 85.5407C241.524 84.7443 239.03 84.2102 236.501 83.9475C234.834 84.1865 232.881 83.2385 232.365 81.9003C232.134 81.3028 232.134 80.6576 231.904 80.0601C231.592 79.4601 231.14 78.9443 230.588 78.5561C230.035 78.1679 229.397 77.9188 228.728 77.8297C227.308 77.5992 225.854 77.7028 224.481 78.1324C222.893 78.5785 221.091 79.2476 219.717 78.4669C218.995 78.0607 218.598 77.3198 217.82 76.9853C216.232 76.3161 214.596 77.6703 213.461 78.7856C212.367 79.9557 211.023 80.8625 209.531 81.4382C208.743 81.7395 207.899 81.8662 207.058 81.8098C206.216 81.7535 205.397 81.5153 204.656 81.1116C203.568 80.4186 203.02 79.3034 202.155 78.4191C200.52 76.9566 198.429 76.1115 196.24 76.0294C193.99 75.9095 191.735 76.157 189.563 76.7622C185.418 77.7757 181.46 79.4427 177.837 81.7011C176.014 82.7062 174.467 84.1485 173.335 85.8992C172.665 87.2416 172.319 88.7234 172.327 90.2247C172.152 94.9326 173.708 99.8874 177.765 103.185C175.288 104.221 174.454 106.762 173.875 109.016C172.946 112.617 172.017 116.273 172.366 119.938C172.541 121.834 173.057 123.729 172.779 125.617C172.556 126.506 172.434 127.417 172.414 128.334C172.531 128.838 172.795 129.297 173.172 129.65C173.55 130.003 174.024 130.236 174.534 130.317Z" fill="black"/>
<path d="M119.939 169.939L112 177.879L104.061 169.939L103 168.879L101.939 169.939L94 177.879L86.0607 169.939L85 168.879L83.9393 169.939L76 177.879L68.0607 169.939L67 168.879L65.9393 169.939L59.5 176.379V82.5H128.5V176.379L122.061 169.939L121 168.879L119.939 169.939Z" fill="white" stroke="black" stroke-width="3" stroke-linecap="round"/>
<path d="M71.5 98.5V96.5H116.5V98.5H71.5Z" fill="white" stroke="black" stroke-width="3" stroke-linecap="round"/>
<path d="M71.5 110.5V107.5H116.5V110.5H71.5Z" fill="white" stroke="black" stroke-width="3" stroke-linecap="round"/>
<path d="M71.5 121.5V119.5H93.5V121.5H71.5Z" fill="white" stroke="black" stroke-width="3" stroke-linecap="round"/>
<path d="M43.4999 176L47.0952 169.659H39.9045L43.4999 176Z" fill="black"/>
<path d="M42.3785 131C40.5136 131.002 39.0022 132.511 39 134.373L39 136.397H47.9996V134.373C47.9978 132.511 46.4864 131.002 44.6211 131L42.3785 131Z" fill="black"/>
<path d="M39.0004 166.96L39 139.097H47.9996L48 166.96H39.0004Z" fill="black"/>
</g>
<defs>
<clipPath id="clip0">
<rect x="8" y="58" width="284" height="149" rx="10" fill="white"/>
</clipPath>
</defs>
</svg>
