<svg width="300" height="300" viewBox="0 0 300 300" fill="none" xmlns="http://www.w3.org/2000/svg">
<rect y="50" width="300" height="165" rx="10" fill="black"/>
<rect x="98" y="239" width="104" height="16" rx="4" fill="black"/>
<rect x="144" y="215" width="12" height="32" fill="black"/>
<g clip-path="url(#clip0)">
<rect x="8" y="58" width="284" height="149" rx="10" fill="white"/>
<path d="M77.6943 148.616C77.6943 148.616 80.3509 162.782 74.4202 167.407C68.4896 172.032 79.4462 199.755 97.5253 196.518C115.604 193.281 122.971 170.028 122.971 170.028C122.971 170.028 104.863 166.33 111.576 147.539L77.6943 148.616Z" fill="white" stroke="black" stroke-width="3" stroke-linecap="round"/>
<path d="M93.2412 159.617C109.661 159.617 122.972 146.098 122.972 129.422C122.972 112.746 109.661 99.2271 93.2412 99.2271C76.8215 99.2271 63.5107 112.746 63.5107 129.422C63.5107 146.098 76.8215 159.617 93.2412 159.617Z" fill="white" stroke="black" stroke-width="3" stroke-linecap="round"/>
<path d="M143.411 186.624V207H44V187.55C43.9998 185.083 44.7295 182.672 46.098 180.616C47.4664 178.56 49.4128 176.951 51.6942 175.99L54.5425 174.784C61.7536 171.725 70.515 167.927 73.3778 166.348C73.6913 166.192 73.9864 166.002 74.2575 165.781C75.8223 164.223 75.5122 166.247 75.5122 166.247C75.5122 166.247 75.469 166.635 75.4401 167.303C75.2671 171.891 75.9305 189.919 97.1525 188.419C117.855 186.983 118.786 173.039 118.577 168.94C118.565 168.56 118.534 168.182 118.483 167.805C119.915 168.144 121.316 168.601 122.672 169.169C126.999 170.763 133.388 173.319 135.097 174.526C135.631 174.899 136.28 175.287 136.986 175.682C137.788 176.127 138.538 176.659 139.222 177.268C140.54 178.448 141.595 179.89 142.317 181.502C143.039 183.114 143.412 184.859 143.411 186.624Z" fill="#FFD749" stroke="black" stroke-width="3" stroke-linecap="round"/>
<path d="M55.5337 130.317C56.6343 130.041 57.7921 130.102 58.8577 130.493C59.9233 130.883 60.8479 131.585 61.5121 132.508C62.7189 134.205 62.9015 136.252 63.0524 138.212C64.4894 138.514 65.2992 136.881 65.4342 135.646C65.9662 130.62 66.0059 125.498 67.689 120.639C69.3722 115.779 73.0481 111.08 78.6931 109.223C80.622 108.553 82.683 108.356 84.7033 108.65C85.9021 108.849 87.0295 109.271 88.2204 109.447C92.3489 110.132 96.8347 108.172 100.701 109.534C103.131 110.394 104.671 112.378 105.806 114.361C106.3 115.431 106.971 116.409 107.791 117.253C109.435 118.735 112.007 119.117 114.365 119.579C116.723 120.041 119.295 120.846 120.304 122.67C121.209 124.319 120.542 126.223 120.24 128.007C119.774 130.834 120.245 133.736 121.582 136.268C122.019 137.064 122.908 138.028 123.964 137.765C124.437 137.605 124.837 137.28 125.091 136.849C127.799 133.042 127.727 128.087 131.125 124.653C132.26 123.506 133.729 122.614 134.833 121.467C135.668 120.617 136.281 119.573 136.616 118.427C136.951 117.282 136.999 116.071 136.754 114.903C136.143 112.274 134.047 110.124 132.356 107.813C130.16 104.887 128.56 101.555 127.648 98.0074C127.489 97.5948 127.489 97.1375 127.648 96.7249C127.969 96.3065 128.382 95.9684 128.854 95.7371C129.775 95.118 130.439 94.1838 130.722 93.1091C131.006 92.0344 130.889 90.8929 130.395 89.8981C129.434 87.9305 127.322 86.4329 124.94 85.5407C122.524 84.7443 120.03 84.2102 117.501 83.9475C115.834 84.1865 113.881 83.2385 113.365 81.9003C113.134 81.3028 113.134 80.6576 112.904 80.0601C112.592 79.4601 112.14 78.9443 111.588 78.5561C111.035 78.1679 110.397 77.9188 109.728 77.8297C108.308 77.5992 106.854 77.7028 105.481 78.1324C103.893 78.5785 102.091 79.2476 100.717 78.4669C99.9946 78.0607 99.5976 77.3198 98.8196 76.9853C97.2317 76.3161 95.5962 77.6703 94.4608 78.7856C93.3668 79.9557 92.0233 80.8625 90.5308 81.4382C89.7428 81.7395 88.8992 81.8662 88.0578 81.8098C87.2164 81.7535 86.3971 81.5153 85.656 81.1116C84.5683 80.4186 84.0205 79.3034 83.1551 78.4191C81.5204 76.9566 79.4288 76.1115 77.2402 76.0294C74.9896 75.9095 72.7346 76.157 70.5631 76.7622C66.4184 77.7757 62.4603 79.4427 58.8365 81.7011C57.0136 82.7062 55.4671 84.1485 54.3349 85.8992C53.6649 87.2416 53.3195 88.7234 53.3266 90.2247C53.1519 94.9326 54.708 99.8874 58.7651 103.185C56.288 104.221 55.4543 106.762 54.8748 109.016C53.9458 112.617 53.0169 116.273 53.3663 119.938C53.5409 121.834 54.057 123.729 53.7791 125.617C53.5564 126.506 53.4339 127.417 53.4139 128.334C53.5306 128.838 53.7946 129.297 54.1722 129.65C54.5498 130.003 55.0239 130.236 55.5337 130.317Z" fill="black"/>
<path d="M181.686 176.094L193.788 80.8451L262.468 89.5714L250.366 184.82L181.686 176.094Z" fill="#FFD749" stroke="black" stroke-width="3" stroke-linecap="round"/>
<path d="M174.5 176.5V80.5H243.5V176.5H174.5Z" fill="white" stroke="black" stroke-width="3" stroke-linecap="round"/>
<path d="M186.5 96.5V94.5H231.5V96.5H186.5Z" fill="white" stroke="black" stroke-width="3" stroke-linecap="round"/>
<path d="M186.5 108.5V105.5H231.5V108.5H186.5Z" fill="white" stroke="black" stroke-width="3" stroke-linecap="round"/>
<path d="M186.5 119.5V117.5H208.5V119.5H186.5Z" fill="white" stroke="black" stroke-width="3" stroke-linecap="round"/>
<path d="M186.5 164.5V161.5H219.5V164.5H186.5Z" fill="white" stroke="black" stroke-width="3" stroke-linecap="round"/>
<path d="M228.5 164.5V161.5H231.5V164.5H228.5Z" fill="white" stroke="black" stroke-width="3" stroke-linecap="round"/>
</g>
<defs>
<clipPath id="clip0">
<rect x="8" y="58" width="284" height="149" rx="10" fill="white"/>
</clipPath>
</defs>
</svg>
