<svg width="567" height="449" viewBox="0 0 567 449" fill="none" xmlns="http://www.w3.org/2000/svg">
<path d="M196.634 2H2V111.86H196.634V2Z" fill="white" stroke="black" stroke-width="3" stroke-linecap="round"/>
<path d="M19.5 40.5V36.5H178.5V40.5H19.5Z" fill="black" stroke="black" stroke-width="3" stroke-linecap="round"/>
<path d="M19.5 55.5V51.5H178.5V55.5H19.5Z" fill="black" stroke="black" stroke-width="3" stroke-linecap="round"/>
<path d="M19.5 70.5V66.5H178.5V70.5H19.5Z" fill="black" stroke="black" stroke-width="3" stroke-linecap="round"/>
<path d="M19.5 25.5V21.5H89.5V25.5H19.5Z" fill="black" stroke="black" stroke-width="3" stroke-linecap="round"/>
<path d="M270.992 158H108V250H270.992V158Z" fill="white" stroke="black" stroke-width="3" stroke-linecap="round"/>
<path d="M122.898 189.997V187.135H255.562V189.997H122.898Z" fill="black" stroke="black" stroke-width="3" stroke-linecap="round"/>
<path d="M122.898 202.559V199.697H255.562V202.559H122.898Z" fill="black" stroke="black" stroke-width="3" stroke-linecap="round"/>
<path d="M122.898 215.12V212.258H255.562V215.12H122.898Z" fill="black" stroke="black" stroke-width="3" stroke-linecap="round"/>
<path d="M122.898 177.436V174.574H181.031V177.436H122.898Z" fill="black" stroke="black" stroke-width="3" stroke-linecap="round"/>
<path d="M189.366 322H74V387.118H189.366V322Z" fill="white" stroke="black" stroke-width="3" stroke-linecap="round"/>
<path d="M84.9834 344.209V343.06H178.007V344.209H84.9834Z" fill="black" stroke="black" stroke-width="3" stroke-linecap="round"/>
<path d="M84.9834 353.1V351.951H178.007V353.1H84.9834Z" fill="black" stroke="black" stroke-width="3" stroke-linecap="round"/>
<path d="M84.9834 361.991V360.842H178.007V361.991H84.9834Z" fill="black" stroke="black" stroke-width="3" stroke-linecap="round"/>
<path d="M84.9834 335.319V334.169H125.253V335.319H84.9834Z" fill="black" stroke="black" stroke-width="3" stroke-linecap="round"/>
<path opacity="0.1" d="M368.916 255.139L366.009 256.855C366.009 256.855 364.589 268.487 375.85 269.678" fill="black"/>
<path d="M386.44 191.089C386.44 191.089 378.84 191.555 371.22 192.818C370.44 192.95 369.664 193.092 368.893 193.241C368.444 193.326 368.003 193.415 367.562 193.513C363.569 194.335 359.933 195.403 357.814 196.767C355.271 198.399 354.423 194.004 354.342 187.898C354.308 185.75 354.381 183.393 354.495 181.012C354.643 178.258 354.859 175.469 355.088 172.961C355.593 167.401 356.173 163.079 356.173 163.079C356.173 163.079 358.835 163.079 362.391 162.956L363.536 162.914C364.65 162.871 365.833 162.812 367.024 162.74C367.587 162.71 368.155 162.676 368.719 162.634C370.974 162.473 373.199 162.244 375.077 161.947C377.077 161.625 378.701 161.219 379.582 160.676C383.609 158.278 386.44 191.089 386.44 191.089Z" fill="white" stroke="black" stroke-width="3" stroke-linecap="round"/>
<path d="M420.303 234.04L418.819 243.884C418.819 243.884 415.585 247.909 416.009 250.147C416.433 252.384 420.163 351.262 420.163 351.262C420.163 351.262 427.474 393.019 424.935 398.388C422.396 403.757 424.787 416.287 424.787 416.287L440.003 413.901L445.089 231.354L420.303 234.04Z" fill="black"/>
<path d="M452.059 424.084L452.059 424.086C452.12 424.973 452.2 425.79 452.264 426.385C452.296 426.683 452.324 426.927 452.344 427.096C452.353 427.167 452.36 427.224 452.365 427.268V435.175C452.161 435.099 451.943 435.018 451.712 434.931C450.061 434.312 447.766 433.424 445.194 432.351C440.026 430.195 433.836 427.333 429.487 424.434C425.993 422.104 425.495 420.28 425.606 419.269C425.698 418.475 426.192 417.725 426.917 417.135C427.684 416.511 428.419 416.296 428.655 416.296C429.303 416.296 430.055 416.046 430.693 415.795C431.395 415.519 432.205 415.139 433.054 414.708C434.756 413.844 436.713 412.725 438.458 411.687C439.831 410.873 441.087 410.103 441.999 409.536C442.202 409.41 442.388 409.294 442.555 409.19C442.839 409.43 443.185 409.725 443.577 410.061C444.687 411.014 446.154 412.297 447.591 413.623C449.035 414.956 450.414 416.302 451.368 417.388C451.825 417.909 452.141 418.321 452.319 418.612C452.22 418.895 452.158 419.181 452.115 419.432C452.038 419.886 451.998 420.39 451.979 420.897C451.943 421.912 451.99 423.061 452.059 424.084Z" fill="white" stroke="black" stroke-width="3"/>
<path opacity="0.1" d="M453.865 418.822C453.382 419.622 453.42 421.979 453.556 423.983C449.94 422.288 438.747 411.431 437.691 410.397C440.417 408.783 442.68 407.338 442.68 407.338C442.68 407.338 454.759 417.33 453.865 418.822Z" fill="black"/>
<path d="M487.281 240.901L483.403 255.22C483.403 255.22 481.165 259.542 480.86 261.631C480.555 263.72 478.474 266.852 478.474 266.852C477.532 268.913 477.024 271.146 476.982 273.411C476.833 277.441 474.015 296.082 470.866 299.214L470.12 311.295C470.12 311.295 467.153 313.38 469.225 316.38C471.298 319.38 470.569 327.118 470.569 327.118C470.569 327.118 467.733 329.355 469.526 331.593C471.319 333.83 470.12 340.394 470.12 340.394C470.12 340.394 468.479 342.479 469.225 343.674C469.971 344.869 468.488 375.591 468.488 375.591L464.902 390.651C464.902 390.651 463.258 403.181 462.359 406.91C461.461 410.639 461.465 415.258 461.465 415.258C461.465 415.258 457.587 423.462 454.751 423.017C451.916 422.572 438.196 409.143 438.196 409.143L440.133 363.802C440.133 363.802 441.773 344.564 440.731 340.835C439.688 337.106 438.942 318.465 438.942 318.465L436.852 289.086L415.991 256.275C415.991 256.275 414.478 246.728 418.801 243.897L419.585 238.74L420.293 234.053L445.058 231.367L482.945 221.527C482.945 221.527 485.865 223.328 487.395 227.824C488.442 230.854 488.845 235.126 487.281 240.901Z" fill="black"/>
<path d="M421.362 255.985C421.362 255.985 403.76 277.597 404.506 271.558C404.972 267.766 402.565 263.134 400.692 260.206C399.585 258.464 398.67 257.324 398.67 257.324C398.67 257.324 409.41 237.641 410.008 240.323C410.198 241.171 411.44 243.116 413.038 245.336C416.408 249.989 421.362 255.985 421.362 255.985Z" fill="white" stroke="black" stroke-width="3" stroke-linecap="round"/>
<path opacity="0.3" d="M453.865 435.205V437.324C453.865 437.324 437.607 431.659 428.655 425.692C424.964 423.23 423.912 420.942 424.116 419.111C429.058 421.611 438.251 426.379 441.036 428.527C443.401 430.349 449.512 433.235 453.865 435.205Z" fill="white"/>
<path d="M450.036 443.25C452.782 443.25 455.008 441.024 455.008 438.279C455.008 435.534 452.782 433.309 450.036 433.309C447.29 433.309 445.064 435.534 445.064 438.279C445.064 441.024 447.29 443.25 450.036 443.25Z" fill="black"/>
<path d="M399.253 436.273C401.999 436.273 404.225 434.048 404.225 431.303C404.225 428.557 401.999 426.332 399.253 426.332C396.507 426.332 394.281 428.557 394.281 431.303C394.281 434.048 396.507 436.273 399.253 436.273Z" fill="black"/>
<path d="M473.001 433.069C472.973 433.423 472.874 433.767 472.709 434.082L469.742 437.315L428.273 436.649L417.122 436.467C417.122 436.467 393.649 432.196 389.076 430.204C384.503 428.213 366.524 424.568 366.524 424.568C366.524 424.568 355.665 422.746 354.071 417.479C353.533 415.695 353.804 414.419 354.393 413.513C355.55 411.737 357.949 411.364 357.949 411.364C362.85 409.917 368.088 410.111 372.869 411.915L442.378 429.793L443.455 430.069C443.455 430.069 468.233 429.607 468.733 429.696C472.535 430.391 473.09 432.005 473.001 433.069Z" fill="#FFD749" stroke="black" stroke-width="3" stroke-linecap="round"/>
<path d="M431.271 427.587L431.274 427.561C431.354 426.68 431.289 425.791 431.081 424.931C430.704 423.536 429.86 419.629 429.266 416.845L429.264 416.837L429.264 416.837L428.826 414.725L415.042 413.05C415.047 413.465 415.05 413.908 415.05 414.32C415.05 414.717 415.048 415.095 415.042 415.395C415.039 415.544 415.035 415.683 415.029 415.801L415.029 415.805C415.025 415.878 415.016 416.038 414.988 416.193C414.925 416.542 414.774 416.87 414.549 417.146C414.321 417.426 414.024 417.643 413.687 417.774L413.687 417.774C413.35 417.906 412.985 417.949 412.627 417.898L431.271 427.587ZM431.271 427.587L431.27 427.613M431.271 427.587L431.27 427.613M431.27 427.613C431.261 427.774 431.248 427.935 431.233 428.096C430.834 428.107 430.35 428.119 429.794 428.13C428.123 428.166 425.807 428.199 423.226 428.193C418.034 428.182 411.867 428.01 407.697 427.392C405.535 427.071 404.658 426.43 404.324 425.987C404.177 425.77 404.087 425.52 404.059 425.26C404.032 424.992 404.072 424.722 404.176 424.474L404.196 424.427M431.27 427.613L404.196 424.427M404.196 424.427L404.212 424.379M404.196 424.427L404.212 424.379M404.212 424.379C404.276 424.192 404.358 424.012 404.456 423.84C404.694 423.423 404.986 423.09 405.228 422.89C405.272 422.854 405.31 422.826 405.34 422.805C406.117 422.861 406.819 422.562 407.294 422.304C407.883 421.984 408.439 421.549 408.892 421.15C409.353 420.744 409.756 420.334 410.04 420.029C410.184 419.875 410.3 419.745 410.382 419.652C410.422 419.606 410.455 419.568 410.478 419.541L410.505 419.509L410.513 419.5L410.516 419.497L410.517 419.495L410.517 419.495C410.517 419.495 410.518 419.494 409.367 418.532L410.518 419.494M404.212 424.379L410.518 419.494M410.518 419.494L410.927 419.005M410.518 419.494L410.927 419.005M410.927 419.005L410.858 418.37M410.927 419.005L410.858 418.37M410.858 418.37C410.858 418.367 410.858 418.365 410.858 418.363M410.858 418.37L410.858 418.363M410.858 418.363C410.855 418.342 410.853 418.33 410.892 418.281M410.858 418.363L410.892 418.281M410.892 418.281C410.959 418.197 411.108 418.072 411.359 417.953M410.892 418.281L411.359 417.953M411.359 417.953C411.603 417.837 411.862 417.765 412.056 417.737M411.359 417.953L412.056 417.737M412.056 417.737C412.06 417.736 412.063 417.736 412.066 417.735M412.056 417.737L412.066 417.735M412.066 417.735C412.244 417.815 412.433 417.87 412.627 417.898L412.066 417.735ZM413.143 416.383L413.141 416.377L413.143 416.383ZM413.143 416.383L413.145 416.388L413.143 416.383ZM405.435 422.747C405.442 422.744 405.441 422.746 405.433 422.749C405.434 422.748 405.435 422.748 405.435 422.747Z" fill="white" stroke="black" stroke-width="3"/>
<path d="M401.6 422.806C401.524 422.83 401.434 422.855 401.328 422.879C400.967 422.96 400.497 423.016 399.93 423.045C398.796 423.103 397.427 423.041 396.074 422.925C394.73 422.81 393.444 422.646 392.491 422.509C392.016 422.441 391.625 422.381 391.355 422.337C391.22 422.315 391.115 422.298 391.044 422.286L390.965 422.273L390.946 422.269L390.942 422.269L390.941 422.268L390.941 422.268L390.941 422.268L390.859 422.254L390.776 422.249L390.682 423.746L390.775 422.249L390.775 422.249L390.772 422.249L390.762 422.248L390.719 422.245L390.55 422.234C390.401 422.225 390.181 422.21 389.901 422.191C389.339 422.152 388.533 422.095 387.556 422.019C385.6 421.868 382.963 421.645 380.234 421.358C377.501 421.07 374.698 420.72 372.401 420.316C371.252 420.114 370.253 419.903 369.466 419.686C368.63 419.457 368.187 419.261 368.026 419.151L368.015 419.143L368.004 419.136C367.927 419.086 367.862 419.02 367.812 418.942C367.787 418.886 367.739 418.709 367.9 418.283C368.076 417.817 368.43 417.267 368.898 416.704C369.356 416.154 369.867 415.66 370.278 415.311C370.436 415.177 370.569 415.072 370.67 414.999C370.705 414.995 370.737 414.991 370.768 414.988C370.967 414.966 371.224 414.936 371.516 414.9C372.1 414.827 372.841 414.731 373.578 414.632C375.013 414.44 376.546 414.227 376.788 414.179L376.788 414.179L376.797 414.178C378.143 413.906 379.467 413.376 380.428 412.991C380.489 412.967 380.549 412.943 380.607 412.92C381.047 412.744 381.366 412.62 381.6 412.546C381.763 412.607 381.915 412.639 382.036 412.656C382.327 412.697 382.6 412.675 382.805 412.648C383.215 412.592 383.657 412.464 384.021 412.349C384.184 412.298 384.441 412.213 384.673 412.136C384.849 412.078 385.011 412.024 385.108 411.993C385.458 411.881 385.679 411.824 385.801 411.806L385.805 411.806C386.747 411.668 387.203 410.944 387.387 410.521C387.58 410.08 387.659 409.59 387.696 409.189L387.698 409.168L387.699 409.147C387.718 408.856 387.729 408.564 387.731 408.273L401.002 411.844L401.086 413.361L401.086 413.362L401.557 422.022L401.557 422.024L401.6 422.806Z" fill="white" stroke="black" stroke-width="3"/>
<path d="M374.356 436.273C377.102 436.273 379.328 434.048 379.328 431.303C379.328 428.557 377.102 426.332 374.356 426.332C371.611 426.332 369.385 428.557 369.385 431.303C369.385 434.048 371.611 436.273 374.356 436.273Z" fill="black"/>
<path d="M428.354 446.592C431.1 446.592 433.326 444.366 433.326 441.621C433.326 438.876 431.1 436.65 428.354 436.65C425.609 436.65 423.383 438.876 423.383 441.621C423.383 444.366 425.609 446.592 428.354 446.592Z" fill="black"/>
<path d="M377.79 262.229C377.79 262.229 376.849 263.924 375.434 266.441C372.043 272.425 365.944 283.031 363.32 286.387C359.59 291.159 359.891 286.688 355.861 276.696C352.868 269.263 362.078 260.759 367.003 256.894C368.699 255.551 369.886 254.775 369.886 254.775L377.79 262.229Z" fill="white" stroke="black" stroke-width="3" stroke-linecap="round"/>
<path d="M395.836 273.711C395.836 273.711 383.456 274.753 381.07 275.499C378.683 276.245 368.393 275.796 367.507 275.499C366.621 275.203 349.006 279.228 357.063 283.254C365.121 287.279 370.202 283.254 370.202 283.254C370.202 283.254 380.646 282.656 383.341 284.3C386.037 285.945 395.87 285.046 395.87 285.046L395.836 273.711Z" fill="white" stroke="black" stroke-width="3" stroke-linecap="round"/>
<path opacity="0.1" d="M370.119 182.439C371.645 186.342 370.691 189.74 368.894 193.228C364.393 194.075 360.158 195.24 357.802 196.753C351.088 201.08 356.162 163.048 356.162 163.048C356.162 163.048 359.408 163.048 363.524 162.883C362.278 168.57 366.999 174.472 370.119 182.439Z" fill="black"/>
<path d="M370.5 181.592C370.492 187.839 368.184 193.864 364.017 198.518C359.85 203.172 354.115 206.129 347.906 206.826C341.698 207.523 335.45 205.911 330.354 202.296C325.259 198.682 321.672 193.318 320.279 187.229C318.886 181.14 319.783 174.751 322.801 169.282C325.818 163.812 330.743 159.644 336.638 157.573C342.532 155.502 348.982 155.673 354.759 158.053C360.535 160.433 365.233 164.856 367.957 170.477C369.635 173.942 370.505 177.743 370.5 181.592Z" fill="white" stroke="black" stroke-width="3" stroke-linecap="round"/>
<path opacity="0.1" d="M487.405 227.811C486.6 228.982 485.394 229.819 484.014 230.162C478.195 231.802 437.171 241.646 434.488 241.049C432.119 240.523 421.951 239.061 419.607 238.726L420.315 234.04L445.08 231.353L482.967 221.514C482.967 221.514 485.875 223.315 487.405 227.811Z" fill="black"/>
<path d="M373.467 156.088C373.467 156.088 382.27 155.295 383.461 153.804C384.652 152.312 393.159 151.867 393.159 151.867C393.159 151.867 397.334 151.121 398.245 150.075C399.156 149.028 421.81 147.689 424.048 148.884C426.286 150.079 428.376 150.82 429.719 150.973C431.063 151.126 441.502 158.575 442.545 158.575C443.587 158.575 472.214 185.572 472.214 185.572C472.214 185.572 475.18 192.433 476.393 192.729C477.605 193.026 488.328 220.172 488.328 220.172C488.328 220.172 489.82 226.731 484.005 228.375C478.19 230.02 437.162 239.859 434.479 239.262C431.796 238.664 419.115 236.876 419.115 236.876C419.115 236.876 419.263 236.876 418.966 235.236C418.67 233.596 418.22 234.041 418.814 232.549C419.407 231.058 420.009 231.206 419.263 230.312C418.517 229.418 419.263 228.969 416.877 227.477C414.491 225.985 411.791 224.346 411.655 223.901C411.52 223.456 409.417 220.468 408.375 220.32C407.332 220.172 378.091 211.968 378.091 211.968L371.229 209.73C371.229 209.73 367.949 207.493 368.686 206.154C369.424 204.815 371.962 192.7 371.962 192.7L382.453 191.407C382.453 191.407 380.889 166.152 375.014 161.914C369.14 157.677 373.467 156.088 373.467 156.088Z" fill="#FFD749" stroke="black" stroke-width="3" stroke-linecap="round"/>
<path opacity="0.1" d="M377.789 262.229C377.789 262.229 376.848 263.924 375.432 266.441C375.212 258.661 369.77 257.153 367.002 256.894C368.697 255.551 369.884 254.775 369.884 254.775L377.789 262.229Z" fill="black"/>
<path d="M370.499 205.705L371.219 209.731C371.219 209.731 374.055 213.163 374.055 214.206C374.055 215.248 377.335 218.231 378.234 219.871C379.133 221.511 382.26 221.812 381.065 224.647C379.87 227.482 373.012 249.106 373.012 249.106L366.002 256.86C366.002 256.86 377.636 255.814 375.844 269.683L390.911 256.547L402.711 235.084C402.711 235.084 391.225 213.311 390.78 211.523C390.335 209.735 370.499 205.705 370.499 205.705Z" fill="#FFD749" stroke="black" stroke-width="3" stroke-linecap="round"/>
<path opacity="0.1" d="M453.422 331.277C453.422 331.277 464.31 333.366 464.607 334.112C464.904 334.858 453.422 331.277 453.422 331.277Z" fill="black"/>
<path opacity="0.1" d="M457.299 338.434C457.299 338.434 463.114 342.014 463.262 343.057C463.411 344.099 457.299 338.434 457.299 338.434Z" fill="black"/>
<path opacity="0.1" d="M455.953 346.492C455.953 346.492 456.847 350.518 458.339 351.115C459.831 351.713 455.953 346.492 455.953 346.492Z" fill="black"/>
<path opacity="0.1" d="M367.982 170.347C367.982 170.389 367.982 170.436 367.96 170.478C367.757 171.805 367.215 173.241 365.968 173.682C365.216 173.894 364.411 173.82 363.709 173.474C361.59 172.546 359.704 170.317 357.441 170.855C356.364 171.11 355.61 171.927 355.076 172.932C354.705 173.655 354.421 174.418 354.228 175.207C353.804 176.868 353.465 178.674 354.114 180.254C354.22 180.513 354.348 180.762 354.495 181C355.097 181.962 355.945 182.78 356.538 183.75C357.275 184.962 357.466 186.78 356.318 187.61C356.029 187.8 355.703 187.923 355.361 187.97C355.019 188.018 354.672 187.989 354.342 187.886C353.501 187.622 352.692 187.263 351.931 186.818C350.43 186.034 348.54 185.547 347.116 186.454C346.624 186.759 346.23 187.199 345.76 187.521C344.782 188.127 343.622 188.369 342.483 188.204C339.788 187.928 338.779 186.221 336.719 184.898C335.21 183.924 332.057 183.509 331.158 185.5C330.582 186.771 331.438 188.373 330.874 189.67C330.311 190.967 328.518 191.365 327.687 192.568C326.594 194.153 327.611 196.446 326.81 198.204C326.687 198.477 326.523 198.728 326.322 198.95C321.831 194.111 319.391 187.72 319.516 181.12C319.641 174.52 322.322 168.225 326.993 163.56C331.665 158.895 337.964 156.223 344.565 156.106C351.167 155.988 357.557 158.435 362.391 162.931L363.536 162.889C364.65 162.846 365.833 162.787 367.024 162.715C367.305 163.311 367.526 163.935 367.681 164.575C368.142 166.463 368.244 168.421 367.982 170.347Z" fill="black"/>
<path d="M330.554 184.905C329.974 186.177 330.83 187.778 330.27 189.071C329.711 190.363 327.905 190.766 327.083 191.969C325.985 193.558 327.003 195.851 326.206 197.605C325.29 199.61 322.527 199.923 320.408 199.338C318.597 198.821 316.936 197.881 315.56 196.595C314.185 195.31 313.136 193.715 312.499 191.944C311.062 187.855 311.99 183.354 311.617 179.036C311.458 177.186 311.059 175.364 310.43 173.617C309.816 171.922 308.977 170.252 308.777 168.451C308.635 166.923 308.953 165.387 309.692 164.042C310.431 162.697 311.556 161.604 312.923 160.904C314.669 160.057 316.818 159.815 318.089 158.362C319.064 157.234 319.272 155.662 319.725 154.243C320.95 150.429 324.608 147.319 328.626 147.357C331.839 147.382 334.983 149.276 338.124 148.531C339.9 148.107 341.515 146.836 343.346 147.018C344.223 147.156 345.063 147.468 345.817 147.937C350.692 150.57 355.33 153.618 359.681 157.048C360.581 157.823 361.566 158.492 362.618 159.044C363.295 159.308 363.956 159.612 364.597 159.955C365.966 160.802 366.682 162.417 367.072 163.985C367.541 165.872 367.647 167.83 367.386 169.756C367.2 171.116 366.666 172.642 365.373 173.095C364.618 173.306 363.811 173.229 363.11 172.879C360.99 171.96 359.108 169.731 356.845 170.265C354.997 170.688 354.107 172.782 353.624 174.617C353.2 176.278 352.853 178.083 353.51 179.668C354.052 180.981 355.205 181.943 355.93 183.16C356.654 184.376 356.862 186.194 355.709 187.02C354.438 187.939 352.713 186.961 351.318 186.232C349.826 185.448 347.928 184.96 346.508 185.863C346.02 186.168 345.626 186.609 345.151 186.935C344.173 187.535 343.016 187.775 341.879 187.613C339.179 187.338 338.171 185.63 336.115 184.308C334.602 183.325 331.457 182.909 330.554 184.905Z" fill="black"/>
<path opacity="0.1" d="M413.042 245.316C412.928 245.951 412.054 246.023 411.876 246.642C410.181 252.621 406.451 257.998 400.696 260.202C399.589 258.46 398.674 257.32 398.674 257.32C398.674 257.32 409.414 237.637 410.012 240.32C410.202 241.154 411.444 243.095 413.042 245.316Z" fill="black"/>
<path d="M413.358 241.197C413.359 245.091 412.205 248.898 410.041 252.136C407.878 255.374 404.803 257.898 401.205 259.389C397.607 260.88 393.647 261.27 389.827 260.511C386.007 259.752 382.498 257.877 379.744 255.124C376.989 252.371 375.113 248.863 374.353 245.044C373.593 241.225 373.983 237.266 375.473 233.668C376.963 230.071 379.487 226.996 382.726 224.832C385.964 222.669 389.771 221.514 393.666 221.514C396.255 221.504 398.819 222.007 401.212 222.993C403.605 223.978 405.78 225.428 407.61 227.257C409.44 229.087 410.891 231.261 411.877 233.653C412.864 236.045 413.367 238.609 413.358 241.197Z" fill="white" stroke="black" stroke-width="3" stroke-linecap="round"/>
<path opacity="0.1" d="M402.473 410.687L402.617 413.289C400.892 413.67 397.612 414.17 395.7 413.001C393.229 411.488 389.58 411.119 386.236 409.06C386.295 408.137 386.264 407.21 386.143 406.293L402.473 410.687Z" fill="black"/>
<path opacity="0.1" d="M430.732 416.543C430.617 417.123 430.511 417.479 430.511 417.479C430.511 417.479 417.351 416.132 413.558 414.314C413.558 413 413.52 411.348 413.52 411.348L430.083 413.36L430.732 416.543Z" fill="black"/>
<path d="M427.761 357.378C426.867 359.764 426.418 360.213 427.316 361.404C428.215 362.594 427.761 368.862 426.337 369.455C424.913 370.048 419.556 373.629 419.556 373.629C419.556 373.629 422.523 377.506 422.612 379.138C422.69 380.18 423.093 381.171 423.765 381.972C423.765 381.972 428.359 391.816 429.275 394.948C430.19 398.079 431.029 402.999 431.029 402.999C431.029 402.999 429.423 407.474 430.533 410.012C431.644 412.55 430.533 416.275 430.533 416.275C430.533 416.275 414.508 414.635 412.732 412.529C410.956 410.423 412.139 405.686 412.139 405.686C411.772 403.574 411.013 401.551 409.901 399.719C408.108 396.884 410.325 393.905 409.901 393.753C409.477 393.6 408.108 391.965 406.76 389.282C405.412 386.6 404.573 387.638 404.573 387.638C404.573 387.638 406.319 402.702 404.573 404.046C402.827 405.389 402.59 404.791 403.039 406.588C403.387 408.313 403.636 410.056 403.785 411.809C403.785 411.809 398.415 413.449 395.732 411.809C393.049 410.169 389.01 409.868 385.462 407.334C381.915 404.8 387.068 400.473 387.963 399.876C388.857 399.278 387.666 390.63 387.666 390.63L386.471 382.129C386.471 382.129 390.497 383.023 389.175 379.744C387.853 376.464 386.323 365.128 385.577 363.34C384.831 361.552 388.12 359.162 387.666 357.971C387.213 356.78 389.603 349.92 389.603 349.92C389.603 349.92 389.756 344.254 391.243 343.191C391.811 342.792 392.18 341.555 392.426 340.186C392.687 338.571 392.841 336.94 392.888 335.305C392.888 335.305 427.045 332.919 432.564 336.199C435.047 337.673 434.874 340.39 433.835 343.14C432.564 346.496 429.953 349.92 429.296 351.161C428.062 353.45 428.656 354.992 427.761 357.378Z" fill="black"/>
<path d="M416.421 252.982C416.421 252.982 419.388 249.402 420.003 250.745C420.617 252.088 424.118 254.77 424.118 254.77C424.118 254.77 425.123 257.902 426.89 258.351C428.658 258.8 441.932 276.695 441.932 276.695L437.156 286.387L433.277 309.951C433.277 309.951 433.447 313.68 432.392 315.036C431.336 316.392 427.305 316.079 429.175 317.719C431.044 319.359 433.727 320.85 435.219 328.313C436.711 335.775 438.499 340.093 438.499 340.093C438.499 340.093 424.478 343.674 422.987 345.313C421.495 346.953 416.421 336.067 416.421 336.067C416.421 336.067 416.722 344.25 410.009 340.83C403.295 337.41 391.809 338.453 391.809 338.453V329.639C391.809 329.639 394.047 326.207 392.856 323.821C391.665 321.435 393.669 316.96 393.669 316.96C393.669 316.96 393.004 312.337 391.809 309.655C390.614 306.972 391.063 294.294 391.063 294.294C391.063 294.294 390.156 286.09 390.982 281.912C391.684 278.29 392.922 274.794 394.657 271.538C396.297 268.343 397.336 265.36 396.891 264.165C396.446 262.97 400.828 260.385 400.828 260.385L403.257 264.313L403.876 266.661C403.876 266.661 416.722 257.457 416.421 252.982Z" fill="#FFD749" stroke="black" stroke-width="3" stroke-linecap="round"/>
<path d="M437.893 273.711C437.893 273.711 446.247 281.911 447.141 283.254C448.035 284.597 451.032 291.581 447.154 293.699C443.276 295.818 428.081 299.085 426.572 297.958C425.063 296.831 415.976 299.229 415.976 299.229C415.976 299.229 400.777 302.958 404.058 296.844C407.338 290.729 415.099 291.759 415.099 291.759C415.099 291.759 427.636 291.737 428.975 290.487C430.314 289.237 440.419 286.555 438.13 281.029C435.841 275.503 437.893 273.711 437.893 273.711Z" fill="white" stroke="black" stroke-width="3" stroke-linecap="round"/>
<path opacity="0.1" d="M413.36 241.197C413.362 243.027 413.108 244.849 412.605 246.608C411.783 247.354 410.363 247.363 409.35 246.808C408.163 246.155 407.388 244.969 406.616 243.841C405.845 242.714 404.967 241.587 403.704 241.104C402.107 240.502 400.284 241.104 398.894 242.104C397.504 243.104 396.393 244.426 395.079 245.494C393.765 246.562 392.091 247.426 390.417 247.164C389.336 246.998 388.378 246.388 387.45 245.799C386.179 244.998 384.814 243.752 383.419 243.214C382.025 242.676 380.876 243.638 379.55 243.638C378.494 244.019 377.346 244.888 377.558 245.986C377.671 246.393 377.855 246.777 378.1 247.121C378.526 247.96 378.694 248.906 378.583 249.841C378.473 250.775 378.088 251.655 377.477 252.372C375.72 249.832 374.586 246.915 374.164 243.857C373.743 240.798 374.048 237.683 375.053 234.763C376.058 231.844 377.736 229.202 379.951 227.05C382.166 224.899 384.857 223.299 387.805 222.379C390.753 221.459 393.876 221.245 396.921 221.754C399.967 222.264 402.851 223.482 405.339 225.312C407.827 227.141 409.849 229.53 411.243 232.285C412.637 235.04 413.364 238.084 413.364 241.172L413.36 241.197Z" fill="black"/>
<path d="M379.546 243.065C378.49 243.447 377.342 244.315 377.549 245.417C377.667 245.822 377.852 246.205 378.096 246.549C379.334 248.756 378.287 251.926 375.977 252.951C375.615 253.14 375.201 253.205 374.799 253.138C374.479 253.039 374.189 252.864 373.951 252.629C372.709 251.519 371.852 250.042 371.505 248.413C371.141 246.718 371.365 244.921 371.179 243.18C370.992 241.438 370.395 239.722 370.187 237.968C370.04 237.1 370.132 236.21 370.454 235.391C370.734 234.851 371.094 234.357 371.522 233.925C372.713 232.599 373.955 231.243 374.553 229.56C375.498 226.882 374.811 223.471 376.88 221.509C377.837 220.611 379.177 220.276 380.364 219.708C381.481 219.115 382.551 218.436 383.564 217.678C387.399 215.043 392.062 213.017 396.622 213.949C398.444 214.39 400.189 215.105 401.797 216.068C404.784 217.714 407.621 219.62 410.274 221.763C411.421 222.612 412.423 223.641 413.241 224.81C413.85 225.811 414.288 226.907 414.538 228.052C415.147 230.55 415.231 233.147 414.784 235.679C414.36 238.162 413.398 240.574 413.36 243.095C413.36 243.942 413.427 244.858 412.991 245.587C412.292 246.748 410.558 246.858 409.371 246.214C408.185 245.57 407.409 244.375 406.642 243.247C405.875 242.12 404.993 240.993 403.73 240.514C402.132 239.908 400.31 240.514 398.919 241.51C397.529 242.506 396.423 243.832 395.105 244.9C393.787 245.968 392.138 246.832 390.443 246.57C389.362 246.404 388.404 245.798 387.476 245.209C386.204 244.404 384.839 243.158 383.449 242.625C382.059 242.091 380.868 243.065 379.546 243.065Z" fill="black"/>
<path d="M424.778 273.711C424.778 273.711 402.853 293.992 407.324 304.132C411.796 314.272 431.483 296.377 431.483 296.377L438.502 280.139L424.778 273.711Z" fill="white" stroke="black" stroke-width="3" stroke-linecap="round"/>
<g opacity="0.1">
<path opacity="0.1" d="M375.967 251.749C375.607 251.937 375.194 252.003 374.793 251.935C374.473 251.837 374.181 251.661 373.946 251.423C372.703 250.314 371.845 248.839 371.496 247.21C371.136 245.494 371.36 243.715 371.174 241.973C370.987 240.231 370.385 238.519 370.182 236.761C370.182 236.676 370.182 236.587 370.161 236.498C370.115 236.983 370.122 237.472 370.182 237.956C370.385 239.71 370.987 241.405 371.174 243.168C371.36 244.931 371.136 246.689 371.496 248.401C371.844 250.031 372.702 251.508 373.946 252.618C374.183 252.853 374.474 253.028 374.793 253.126C375.194 253.194 375.607 253.128 375.967 252.94C377.79 252.13 378.82 249.999 378.578 248.05C378.49 248.836 378.204 249.588 377.748 250.234C377.291 250.881 376.679 251.402 375.967 251.749Z" fill="black"/>
<path opacity="0.1" d="M414.752 234.48C414.329 236.963 413.366 239.374 413.333 241.895C413.333 242.743 413.4 243.658 412.96 244.387C412.264 245.548 410.531 245.658 409.344 245.014C408.157 244.37 407.382 243.179 406.61 242.048C405.839 240.917 404.966 239.794 403.699 239.315C402.105 238.713 400.283 239.315 398.892 240.315C397.502 241.315 396.392 242.633 395.078 243.705C393.764 244.777 392.09 245.637 390.415 245.379C389.335 245.209 388.377 244.603 387.449 244.014C386.177 243.209 384.812 241.968 383.422 241.429C382.032 240.891 380.879 241.853 379.552 241.853C378.497 242.239 377.348 243.103 377.552 244.209C377.578 244.329 377.616 244.445 377.666 244.557C378.082 243.833 378.756 243.294 379.552 243.048C380.875 243.048 382.045 242.099 383.422 242.624C384.8 243.15 386.19 244.404 387.449 245.209C388.368 245.798 389.326 246.404 390.415 246.569C392.111 246.832 393.772 245.98 395.078 244.9C396.383 243.819 397.506 242.485 398.892 241.51C400.278 240.535 402.105 239.908 403.699 240.514C404.97 240.993 405.843 242.133 406.61 243.247C407.378 244.362 408.157 245.544 409.344 246.214C410.531 246.883 412.264 246.747 412.96 245.586C413.383 244.858 413.32 243.946 413.333 243.095C413.366 240.573 414.316 238.162 414.752 235.679C414.976 234.404 415.067 233.109 415.024 231.814C414.997 232.708 414.906 233.599 414.752 234.48Z" fill="black"/>
</g>
<path d="M399.72 170.505C399.72 170.505 391.667 185.121 402.687 192.579C413.707 200.037 414.77 199.291 414.77 199.291C414.77 199.291 414.622 201.079 414.77 201.528C414.919 201.977 417.737 203.016 417.737 203.016C417.737 203.016 421.17 208.524 426.091 210.923C431.012 213.321 431.911 218.974 431.911 218.974C431.911 218.974 431.911 220.915 434.454 222.703C436.997 224.491 438.951 229.712 438.951 229.712V234.488C438.951 235.233 439.845 237.454 437.904 237.691C435.962 237.928 437.607 242.391 437.607 242.391C437.607 242.391 435.517 244.933 435.967 246.12C436.416 247.306 435.072 249.696 435.072 249.696C435.072 249.696 433.432 252.082 433.58 252.531C433.729 252.98 431.788 254.62 432.237 255.662C432.686 256.705 429.999 258.048 430.448 259.243C430.898 260.438 428.537 261.031 428.537 261.031L422.094 275.947C422.094 275.947 435.632 278.914 439.154 286.384L456.252 255.065C456.252 255.065 465.801 231.653 466.098 230.161C466.394 228.669 464.008 223.301 464.008 223.301L452.374 202.113L434.924 177.514C434.924 177.514 421.048 147.987 399.72 170.505Z" fill="#FFD749" stroke="black" stroke-width="3" stroke-linecap="round"/>
<g opacity="0.1">
<path opacity="0.1" d="M311.617 177.846C311.46 175.994 311.061 174.171 310.43 172.422C309.816 170.727 308.977 169.058 308.778 167.257C308.778 167.202 308.778 167.151 308.778 167.096C308.733 167.547 308.733 168.001 308.778 168.452C308.977 170.253 309.816 171.91 310.43 173.617C311.062 175.364 311.461 177.186 311.617 179.037C311.677 179.732 311.702 180.435 311.711 181.156C311.723 180.033 311.711 178.935 311.617 177.846Z" fill="black"/>
<path opacity="0.1" d="M326.207 196.413C325.296 198.413 322.528 198.731 320.409 198.142C318.6 197.623 316.939 196.683 315.564 195.398C314.19 194.114 313.139 192.521 312.5 190.751C311.911 188.93 311.624 187.025 311.652 185.111C311.627 187.446 311.716 189.751 312.5 191.942C313.139 193.712 314.189 195.306 315.564 196.591C316.939 197.877 318.599 198.818 320.409 199.337C322.528 199.921 325.296 199.608 326.207 197.604C326.592 196.756 326.554 195.773 326.537 194.807C326.53 195.358 326.417 195.903 326.207 196.413Z" fill="black"/>
<path opacity="0.1" d="M367.386 168.557C367.204 169.913 366.666 171.438 365.373 171.892C364.62 172.102 363.815 172.027 363.114 171.68C360.995 170.756 359.109 168.527 356.845 169.065C354.997 169.489 354.111 171.578 353.624 173.417C353.27 174.579 353.117 175.793 353.171 177.006C353.251 176.195 353.403 175.393 353.624 174.608C354.111 172.773 354.997 170.697 356.845 170.256C359.109 169.722 360.978 171.951 363.114 172.87C363.814 173.22 364.619 173.297 365.373 173.087C366.666 172.633 367.204 171.108 367.386 169.747C367.503 168.881 367.545 168.006 367.513 167.133C367.492 167.607 367.45 168.086 367.386 168.557Z" fill="black"/>
<path opacity="0.1" d="M355.709 185.82C354.437 186.74 352.712 185.761 351.318 185.028C349.826 184.244 347.927 183.756 346.507 184.659C346.02 184.964 345.626 185.405 345.151 185.731C344.174 186.335 343.016 186.575 341.879 186.409C339.179 186.134 338.17 184.426 336.115 183.104C334.606 182.133 331.452 181.718 330.554 183.71C330.338 184.296 330.279 184.928 330.38 185.545C330.408 185.324 330.467 185.109 330.554 184.905C331.457 182.909 334.606 183.324 336.115 184.299C338.17 185.621 339.179 187.329 341.879 187.604C343.016 187.767 344.174 187.525 345.151 186.922C345.626 186.6 346.02 186.159 346.507 185.854C347.94 184.964 349.826 185.43 351.318 186.223C352.712 186.952 354.429 187.918 355.709 187.011C356.455 186.477 356.633 185.528 356.468 184.591C356.381 185.083 356.109 185.522 355.709 185.82Z" fill="black"/>
<path opacity="0.1" d="M330.27 187.88C329.689 189.211 327.905 189.575 327.083 190.774C326.468 191.664 326.519 192.774 326.54 193.889C326.532 193.21 326.721 192.544 327.083 191.969C327.905 190.77 329.689 190.401 330.27 189.071C330.473 188.492 330.528 187.871 330.431 187.266C330.405 187.477 330.351 187.683 330.27 187.88Z" fill="black"/>
</g>
</svg>
