<svg width="306" height="246" viewBox="0 0 306 246" fill="none" xmlns="http://www.w3.org/2000/svg">
<g clip-path="url(#clip0)">
<rect x="60" width="246" height="135" rx="10" fill="black"/>
<g clip-path="url(#clip1)">
<rect x="63" y="3" width="240" height="129" rx="10" fill="white"/>
<path d="M97.7373 42.4043V39.4043H161.693V42.4043H97.7373Z" fill="black" stroke="black" stroke-width="3" stroke-linecap="round"/>
<path d="M97.7373 70.7876V67.7876H161.693V70.7876H97.7373Z" fill="black" stroke="black" stroke-width="3" stroke-linecap="round"/>
<path d="M97.7373 56.5957V53.5957H161.693V56.5957H97.7373Z" fill="black" stroke="black" stroke-width="3" stroke-linecap="round"/>
<rect x="179.183" y="83.5205" width="59.8084" height="89.9405" transform="rotate(-90 179.183 83.5205)" fill="#FFD749" stroke="black" stroke-width="3" stroke-linecap="round"/>
<path d="M97.7373 28.2124V25.2124H139.708V28.2124H97.7373Z" fill="black" stroke="black" stroke-width="3" stroke-linecap="round"/>
<path d="M243.157 69.109C244.025 67.2603 244.398 68.8944 245.851 70.3744L253.5 78.1339C254.621 79.2705 258.626 77.1761 259.747 76.0395C260.899 74.8707 262.964 70.8724 261.811 69.7036L254.162 61.944C252.723 60.4844 251.072 60.1021 252.914 59.211C260.818 55.3796 270.284 57.0287 276.475 63.3147C282.161 69.0794 283.998 77.6474 281.341 85.2136L314.424 118.771C321.878 116.076 330.327 117.939 336.013 123.707C342.207 129.99 343.833 139.595 340.059 147.606C339.178 149.48 338.8 147.796 337.364 146.341L329.715 138.581C328.56 137.416 324.618 139.507 323.469 140.679C322.317 141.841 320.243 145.828 321.404 147.012L329.053 154.771C330.492 156.231 332.144 156.613 330.301 157.504C327.463 158.881 324.422 159.549 321.401 159.549C316.018 159.549 310.708 157.425 306.743 153.4C301.054 147.635 299.221 139.067 301.877 131.501L268.794 97.9444C261.343 100.636 252.891 98.7763 247.202 93.0086C241.008 86.7254 239.382 77.1205 243.157 69.109Z" fill="white" stroke="black" stroke-width="3" stroke-linecap="round"/>
</g>
<path d="M44.6991 72.7036C44.6991 72.7036 37.3635 97.854 33.1718 99.9499C28.9801 102.046 66.7057 105.19 66.7057 105.19C66.7057 105.19 65.6577 81.0871 67.7536 78.9912C69.8495 76.8953 44.6991 72.7036 44.6991 72.7036Z" fill="white" stroke="black" stroke-width="3" stroke-linecap="round"/>
<path d="M34.2574 98.4959C34.355 98.4398 34.4425 98.3905 34.519 98.348L65.5505 101.721C70.0966 102.215 74.3703 104.133 77.7612 107.201C81.1522 110.269 83.487 114.33 84.4322 118.804L96.6551 176.659L96.6594 176.72C96.6629 176.77 96.6671 176.83 96.672 176.901C96.6778 176.985 96.6847 177.085 96.6924 177.199C96.7209 177.619 96.7617 178.237 96.8106 179.025C96.9085 180.602 97.0391 182.858 97.1697 185.576C97.431 191.015 97.6919 198.292 97.6919 205.661C97.6919 213.042 97.4298 220.462 96.6573 226.207C96.2701 229.087 95.7638 231.472 95.1309 233.199C94.8148 234.062 94.4867 234.705 94.165 235.151C93.8417 235.598 93.5831 235.766 93.4256 235.825C91.8508 236.416 89.9924 236.179 87.6143 235.231C85.622 234.436 83.4857 233.239 81.0849 231.892C80.6063 231.624 80.1172 231.35 79.6166 231.072C73.7298 227.801 66.523 224.144 58.1242 225.264C50.2139 226.318 41.1363 228.029 34.0516 229.472C30.5059 230.195 27.4527 230.851 25.2854 231.327C24.6471 231.468 24.0855 231.592 23.6108 231.698L23.5278 229.065C23.4382 226.228 23.3098 222.165 23.1544 217.263C22.8435 207.459 22.4247 194.299 21.9926 180.876C21.1289 154.042 20.2113 126.119 19.9991 121.882C19.6042 113.999 23.2637 108.094 27.1227 104.098C29.0509 102.101 31.0089 100.604 32.4847 99.6072C33.2212 99.1097 33.8339 98.7394 34.2574 98.4959ZM34.8922 98.1476C34.8924 98.1475 34.8925 98.1475 34.8922 98.1476L34.8922 98.1476Z" fill="#FFD749" stroke="black" stroke-width="3" stroke-linecap="round"/>
<path d="M58.6426 105.721L68.0113 101.056C68.0113 101.056 91.1285 103.625 95.3203 118.296C99.5121 132.967 118.375 234.617 118.375 234.617L100.56 243L75.4095 181.172L58.6426 105.721Z" fill="#FFD749"/>
<path d="M63.0001 102C63.0001 102 91.1282 103.625 95.3199 118.296C99.5117 132.967 118.374 234.617 118.374 234.617L100.56 243L58.7891 123.726" stroke="black" stroke-width="3" stroke-linecap="round"/>
<path d="M49.3661 79.5794L39.7665 76.6606C36.0522 76.4568 32.4297 75.4299 29.1611 73.6541C25.8925 71.8783 23.0595 69.3981 20.8672 66.393C18.6749 63.3878 17.178 59.9329 16.4849 56.2782C15.7918 52.6235 15.9199 48.8605 16.8598 45.2613C17.3364 36.5746 21.2443 28.4331 27.7238 22.6277C34.2032 16.8223 42.7235 13.8287 51.4102 14.3053L51.4102 14.3053C60.0969 14.782 68.2385 18.6899 74.0438 25.1693C79.8492 31.6488 82.8428 40.169 82.3662 48.8557L82.3662 48.8558C86.8067 68.3691 68.5128 85.401 49.3661 79.5794Z" fill="black"/>
<path d="M60.4179 84.2313C73.7293 84.2313 84.5204 73.4403 84.5204 60.1289C84.5204 46.8174 73.7293 36.0264 60.4179 36.0264C47.1065 36.0264 36.3154 46.8174 36.3154 60.1289C36.3154 73.4403 47.1065 84.2313 60.4179 84.2313Z" fill="white" stroke="black" stroke-width="3" stroke-linecap="round"/>
<path d="M15.5448 37.3414C24.1299 37.8233 31.4802 31.2543 31.9621 22.6692C32.444 14.0841 25.875 6.73383 17.2899 6.25194C8.70474 5.77005 1.35447 12.339 0.872572 20.9241C0.390679 29.5093 6.95965 36.8595 15.5448 37.3414Z" fill="black"/>
<path d="M44.0704 23.8097L65.2436 21.1273L77.5001 29.4998C81.3231 32.2055 85.2414 36.1589 87.0001 40.4998C88.7589 44.8406 90.2032 50.3961 89.3417 54.9998L71.6984 49.1747L71.6984 42.3604L66.9975 49.1747L42.8644 76.8762L30.6792 68.1196L20.4043 49.8327L44.0704 23.8097Z" fill="black"/>
</g>
<defs>
<clipPath id="clip0">
<rect width="306" height="246" fill="white"/>
</clipPath>
<clipPath id="clip1">
<rect x="63" y="3" width="240" height="129" rx="10" fill="white"/>
</clipPath>
</defs>
</svg>
