<svg width="365" height="189" viewBox="0 0 365 189" fill="none" xmlns="http://www.w3.org/2000/svg">
<path d="M122 189H106.107L104.428 175.859C77.0038 180.459 51.1317 181.933 28.7534 176.368C26.8624 175.904 25.088 175.056 23.5415 173.876C21.995 172.696 20.71 171.209 19.767 169.511C18.8239 167.812 18.2433 165.937 18.0616 164.004C17.8799 162.07 18.101 160.121 18.7111 158.277C21.3893 150.307 26.1079 141.766 31.6314 133L68.3763 146.134L69.7629 151.664L108.956 146.718C110.935 146.468 112.945 146.631 114.857 147.198C116.77 147.764 118.543 148.721 120.065 150.007C121.587 151.293 122.823 152.881 123.697 154.67C124.57 156.458 125.06 158.408 125.137 160.396L122 189Z" fill="black"/>
<path d="M99.6196 90L76 87.2684L85.1427 62H108L99.6196 90Z" fill="white" stroke="black" stroke-width="3" stroke-linecap="round"/>
<path d="M115.434 85.6617C115.162 85.9368 115.006 86.3114 115 86.7042C114.995 87.0969 115.14 87.476 115.404 87.7592C115.866 87.9648 125.021 98.7027 125.583 97.9635C125.775 97.9656 125.965 97.9284 126.142 97.854C126.32 97.7796 126.481 97.6696 126.616 97.5303L154.548 68.9063C154.701 68.7501 154.818 68.5606 154.89 68.3517C154.963 68.1428 154.988 67.9199 154.966 67.6994C155.72 66.9722 143.701 59.6423 143.334 59.2434C143.059 59.0574 142.731 58.974 142.403 59.0071C142.076 59.0403 141.77 59.188 141.536 59.4256L115.434 85.6617Z" fill="black"/>
<path d="M151.827 68.1662L150.748 67.3938C150.856 67.6213 150.893 67.8826 150.854 68.1365C150.815 68.3905 150.702 68.6226 150.532 68.7962C150.363 68.9699 150.146 69.0753 149.918 69.0957C149.689 69.1162 149.461 69.0506 149.269 68.9092L142.288 63.5196C142.132 63.3956 142.009 63.2253 141.934 63.0276C141.859 62.83 141.834 62.6129 141.862 62.4003C141.89 62.1877 141.97 61.9881 142.093 61.8236C142.217 61.6592 142.378 61.5363 142.56 61.4686C142.283 61.3633 141.837 60.7329 141.537 61.1297L118.053 87.0469C117.216 87.5042 126.586 96.6223 126.591 96.9806C127.29 97.856 151.379 68.8377 151.891 68.8177C151.93 68.7731 151.961 68.7192 151.979 68.6598C151.997 68.6005 152.004 68.5372 151.998 68.4747C151.992 68.4122 151.973 68.3521 151.943 68.2987C151.914 68.2453 151.874 68.2 151.827 68.1662Z" fill="white"/>
<path d="M129.08 115L120 110.851L127.567 92.1815L129.561 82.7662C129.82 81.543 130.426 80.4033 131.318 79.4611C132.21 78.5189 133.357 77.8071 134.645 77.3969C135.932 76.9867 137.315 76.8924 138.655 77.1235C139.994 77.3546 141.244 77.903 142.28 78.7138C143.814 79.9154 144.777 81.6146 144.966 83.4528C145.155 85.291 144.555 87.1245 143.293 88.5662L135.89 97.0218L129.08 115Z" fill="white" stroke="black" stroke-width="3" stroke-linecap="round"/>
<path d="M102.5 68C113.27 68 122 59.7173 122 49.5C122 39.2827 113.27 31 102.5 31C91.7304 31 83 39.2827 83 49.5C83 59.7173 91.7304 68 102.5 68Z" fill="white" stroke="black" stroke-width="3" stroke-linecap="round"/>
<path d="M33.0631 133.92C42.1129 115.097 53.2926 100.154 66.0437 88.0661L66.1493 87.966L66.2338 87.8474C68.8006 84.2411 72.4672 81.4652 76.7471 79.9044C81.0274 78.3435 85.7073 78.0762 90.1533 79.1403C90.1533 79.1403 90.1534 79.1403 90.1534 79.1403L105.116 82.7236C110.408 94.9326 112.173 105.847 108.716 115.061L33.0631 133.92ZM33.0631 133.92L72.6458 148.299L87.1996 136.427L87.1998 136.426L91.5055 132.912L91.6136 132.824L91.7361 132.758C92.4728 132.356 93.1757 131.953 93.8483 131.535L93.8654 131.525L93.8829 131.515C97.7699 129.244 101.222 126.359 104.094 122.984C106.079 120.601 107.639 117.924 108.716 115.061L33.0631 133.92Z" fill="#FFD749" stroke="black" stroke-width="3" stroke-linecap="round"/>
<path d="M119.971 106.206L131 111.869L122.63 138.8C122.029 140.734 120.952 142.476 119.503 143.856C118.053 145.237 116.281 146.209 114.358 146.68C111.987 147.259 109.497 147.049 107.251 146.078C105.004 145.107 103.117 143.426 101.863 141.28L79.6689 102.214C78.0961 99.522 77.6107 96.3052 78.3162 93.2507C79.0218 90.1961 80.8624 87.546 83.445 85.8663C84.834 84.9629 86.3927 84.37 88.0196 84.1261C89.6465 83.8822 91.3052 83.9929 92.8877 84.4509C94.4702 84.9089 95.941 85.7039 97.2045 86.7843C98.468 87.8646 99.4959 89.2061 100.221 90.7213L113.768 120.363L119.971 106.206Z" fill="#FFD749"/>
<path d="M79.6689 102.214L101.863 141.28C103.117 143.426 105.004 145.107 107.251 146.078C109.497 147.049 111.987 147.259 114.358 146.68C116.281 146.209 118.053 145.237 119.503 143.856C120.952 142.476 122.029 140.734 122.63 138.8L131 111.869L119.971 106.206C119.971 106.206 117 114 113.768 120.363C111 112.5 104.462 104.296 98.5 94" stroke="black" stroke-width="3" stroke-linecap="round"/>
<path d="M111.952 40.9821C113.535 42.2985 115.321 43.3499 117.241 44.0954C119.19 44.7482 121.453 44.762 123.193 43.669C125.245 42.3802 126.181 39.7623 125.971 37.3524C125.761 34.9426 124.576 32.719 123.16 30.755C120.554 27.1387 117.127 24.1886 113.16 22.1457C109.192 20.1028 104.797 19.0251 100.332 19.0004C95.8673 18.9758 91.4601 20.005 87.4703 22.004C83.4805 24.003 80.0212 26.9151 77.375 30.5025C75.5585 32.965 74.1188 35.8245 73.9613 38.8779C73.6837 44.2591 77.3747 49.2825 76.9801 54.6564C76.6463 59.2017 73.3761 63.0953 69.503 65.512C65.6298 67.9287 61.1539 69.154 56.8234 70.6053C52.4929 72.0566 48.1136 73.8475 44.9085 77.095C41.7033 80.3425 39.9355 85.3819 41.6948 89.5878C43.1405 93.0439 46.5757 95.2419 50.0203 96.7303C59.257 100.676 69.6321 101.064 79.1392 97.8207C82.6442 96.6084 86.4716 94.183 86.5249 90.4826C86.548 88.8766 85.8234 87.3687 85.3884 85.8222C84.9534 84.2757 84.8719 82.4312 85.9631 81.2502C87.3164 79.7854 89.8174 80.1228 91.4349 81.291C93.0524 82.4591 94.1039 84.231 95.4383 85.713C97.9721 88.5267 101.813 90.3242 105.567 89.7942C109.321 89.2642 112.715 86.0739 112.87 82.2946C113.137 75.8025 104.983 71.7379 104.097 65.3007C103.505 61.0015 106.311 57.0683 108.742 53.4698C111.173 49.8712 113.434 45.3626 111.733 41.3689" fill="black"/>
<path d="M103.815 187H11.1854C9.97918 187 8.78474 186.759 7.67031 186.291C6.55589 185.822 5.54328 185.136 4.69034 184.27C3.83739 183.405 3.16081 182.377 2.6992 181.246C2.23759 180.115 2 178.903 2 177.679V172.627C2.001 170.486 2.46796 168.372 3.36751 166.435C4.26706 164.499 5.577 162.788 7.20374 161.424C22.8403 148.311 35.4969 137.161 52.9623 138.05C68.0522 138.817 87.1273 158.087 103.576 164.032C106.342 165.043 108.732 166.897 110.419 169.34C112.106 171.783 113.008 174.696 113 177.679C113 178.903 112.762 180.115 112.301 181.246C111.839 182.377 111.163 183.405 110.31 184.27C109.457 185.136 108.444 185.822 107.33 186.291C106.215 186.759 105.021 187 103.815 187Z" fill="white" stroke="black" stroke-width="3" stroke-linecap="round"/>
<path d="M181 1.5H357C360.59 1.5 363.5 4.41015 363.5 8V114C363.5 117.59 360.59 120.5 357 120.5H181C177.41 120.5 174.5 117.59 174.5 114V8C174.5 4.41015 177.41 1.5 181 1.5Z" fill="white" stroke="black" stroke-width="3" stroke-linecap="round"/>
<path d="M193.5 39.5V35.5H309.5V39.5H193.5Z" fill="black" stroke="black" stroke-width="3" stroke-linecap="round"/>
<path d="M193.5 54.5V50.5H309.5V54.5H193.5Z" fill="black" stroke="black" stroke-width="3" stroke-linecap="round"/>
<path d="M193.5 69.5V65.5H309.5V69.5H193.5Z" fill="black" stroke="black" stroke-width="3" stroke-linecap="round"/>
<path d="M193.5 24.5V20.5H244.5V24.5H193.5Z" fill="black" stroke="black" stroke-width="3" stroke-linecap="round"/>
</svg>
