<svg width="345" height="253" viewBox="0 0 345 253" fill="none" xmlns="http://www.w3.org/2000/svg">
<path d="M64.9303 46.1444C64.9303 46.1444 63.2278 61.7262 61.252 76.2156C64.9757 85.0508 77.2002 100 77.2002 100L97.4996 95.5C97.4996 95.5 86.4969 68.7635 95.017 56.3738C103.537 43.9841 64.9303 46.1444 64.9303 46.1444Z" fill="white" stroke="black" stroke-width="3" stroke-linecap="round"/>
<path d="M88.4861 68.6616C102.398 68.6616 113.675 56.9667 113.675 42.5403C113.675 28.1139 102.398 16.4189 88.4861 16.4189C74.5745 16.4189 63.2969 28.1139 63.2969 42.5403C63.2969 56.9667 74.5745 68.6616 88.4861 68.6616Z" fill="white" stroke="black" stroke-width="3" stroke-linecap="round"/>
<path d="M108.549 34.6917C111.942 35.1331 116.266 34.0322 116.918 30.7709C117.746 26.6425 112.065 23.9628 111.189 19.8655C110.858 18.3076 111.253 16.7081 111.061 15.145C110.654 11.9617 108.015 9.52094 105.342 7.69818C96.8862 1.93313 86.601 -0.732938 76.3133 0.173454C75.0414 0.292894 73.7001 0.490233 72.7168 1.27958C71.5998 2.17278 71.167 3.62165 70.4028 4.82124C67.7735 8.94453 61.8522 9.43267 57.6464 12.0032C52.6924 15.01 50.2448 20.9145 50.0204 26.5853C49.7959 32.2561 51.4633 37.8179 53.1093 43.2602C54.5094 47.8924 55.9791 52.6441 59.0519 56.435C62.1248 60.2259 67.2284 62.8744 72.0488 61.7319C69.8363 60.174 71.4449 56.5856 73.839 55.3289C76.2332 54.0721 79.1831 53.854 81.262 52.1092C83.3408 50.3643 83.934 47.5185 84.5913 44.9272C85.4357 41.6556 86.6542 38.3424 89.1071 35.9536C93.9221 31.2746 102.617 33.9283 108.549 34.6917Z" fill="black"/>
<path d="M211.14 72.1348C211.14 72.1348 213.285 94.8615 209.531 100.11C205.776 105.358 224.538 108.294 226.147 108.294C227.756 108.294 244.908 101.885 248.121 100.11C251.334 98.3347 254.016 85.5417 254.016 85.5417C254.016 85.5417 237.936 89.0405 233.114 68.6616L211.14 72.1348Z" fill="white" stroke="black" stroke-width="3" stroke-linecap="round"/>
<path d="M204.615 14.7714C200.23 16.3084 196.185 19.254 194.315 23.4055C193.665 24.8486 193.274 26.4252 192.329 27.7102C190.22 30.5668 186.105 31.1055 183.183 33.1466C179.423 35.7907 178.031 40.7626 178.554 45.2502C179.078 49.7378 181.191 53.8744 183.275 57.9073C185.464 62.1428 187.731 66.4821 191.323 69.6847C192.999 71.1674 195.057 72.5709 195.591 74.7258C196.048 76.5742 195.24 78.5066 195.408 80.3995C195.824 85.0798 201.576 87.2593 206.378 87.7782C208.466 88.0056 210.854 88.0155 212.327 86.5575C213.079 85.8063 213.46 84.7882 213.933 83.8492C215.026 81.6985 216.709 79.8842 218.797 78.6078C220.886 77.3314 223.297 76.6427 225.763 76.6181C228.229 76.5935 230.654 77.2341 232.768 78.4686C234.883 79.7031 236.605 81.4834 237.742 83.6119C238.87 85.7173 239.526 88.2774 241.573 89.5426C244.708 91.5195 248.905 89.2016 251.227 86.345C253.549 83.4884 255.216 79.9201 258.513 78.2051C259.529 77.6664 260.759 77.3056 261.46 76.3864C262.725 74.7307 261.648 72.2596 262.512 70.3766C263.162 68.9582 264.753 68.1822 265.682 66.917C267.588 64.3322 266.19 60.759 264.783 57.8974L256.511 41.2668C254.22 36.6606 251.908 32.0198 248.707 27.9622C238.875 15.5671 220 9.38431 204.615 14.7714Z" fill="black"/>
<path d="M224.452 101.995C224.452 101.995 246.322 101.995 251.933 81.272L270.342 95.93C271.613 96.9419 272.67 98.2091 273.449 99.6542C274.228 101.099 274.711 102.692 274.871 104.336L275.739 113.252L276.608 122.168C276.608 122.168 276.608 129.573 276.328 132.823C276.328 132.823 262.562 136.57 262 143.5L273.449 190.5C273.449 190.5 239.229 192.62 232.5 188C232.5 188 209.292 182.043 202.563 175.71C195.835 169.377 189.106 169.953 194.688 155.553C194.688 155.553 183.47 144.034 188.52 127.91C193.571 111.786 188.801 128.198 188.801 128.198C188.801 128.198 177.908 122.729 178.469 112.362L179.591 101.995C179.591 101.995 179.651 101.652 179.808 101.035C183.229 87.3879 192.414 79.8062 205.33 84.6383C209.105 86.0434 212.964 84.431 212.964 84.431C212.964 84.431 208.751 103.148 224.452 101.995Z" fill="#FFD749" stroke="black" stroke-width="3" stroke-linecap="round"/>
<path d="M275.727 132.777C275.727 132.777 274.493 160.357 273.379 165.535C272.265 170.713 260.248 179.559 247.78 186.806C247.78 186.806 238.43 195.144 228.412 191.697C218.395 188.251 217.726 183.359 222.738 181.058L256.127 159.212V122.042L265.954 128.291L275.727 132.777Z" fill="white" stroke="black" stroke-width="3" stroke-linecap="round"/>
<path d="M251.694 118.518C251.694 118.518 264.688 129.069 276.5 132C276.5 132 276.877 120.761 275.407 112.429" stroke="black" stroke-width="3" stroke-linecap="round"/>
<path d="M221.63 83.0733C235.541 83.0733 246.819 72.1849 246.819 58.7534C246.819 45.322 235.541 34.4336 221.63 34.4336C207.718 34.4336 196.44 45.322 196.44 58.7534C196.44 72.1849 207.718 83.0733 221.63 83.0733Z" fill="white" stroke="black" stroke-width="3" stroke-linecap="round"/>
<path d="M227.913 52.5763C226.835 53.0073 225.682 53.1826 224.534 53.0898C220.06 53.059 215.588 52.8878 211.117 52.5763C207.738 52.3349 204.117 51.9087 201.505 49.6029C197.991 46.5217 197.436 40.6828 199.251 36.2252C201.066 31.7677 204.769 28.4811 208.679 25.9545C210.887 24.4766 213.277 23.3324 215.781 22.5549C223.023 20.4596 231.056 23.0325 236.816 28.1678C242.575 33.3032 246.249 40.7187 248.195 48.4423C248.866 51.1127 249.73 54.2966 252.216 55.1183C250.56 58.0455 246.519 58.5128 243.623 57.0441C239.345 54.8821 237.154 46.6039 233.315 45.2995C229.038 43.8256 231.529 50.7995 227.913 52.5763Z" fill="black"/>
<path d="M67.8121 87.3752C69.2644 86.2061 60.5508 84.9959 67.8121 87.3752C66.9671 88.0539 66.6028 89.1437 65.9449 90.0008C63.764 92.8344 59.3668 92.3044 55.8955 93.3199C50.7898 94.8061 47.6424 99.8195 45.8309 104.714C37.8359 126.358 46.7468 151.128 39.7891 173.108C37.765 179.578 34.3899 186.762 37.6992 192.711C38.8023 194.693 40.5987 196.353 41.1503 198.547C41.8992 201.52 40.457 205.433 42.977 207.246C43.7613 207.811 44.7581 207.984 45.6993 208.237C51.3717 209.723 55.6729 214.093 59.9942 217.982C64.3156 221.87 69.5174 225.63 75.377 225.378C77.2691 225.223 79.1367 224.855 80.9432 224.283L110.044 216.263C112.964 215.455 116.116 214.484 117.822 212.022C118.834 210.536 119.183 208.663 119.446 206.865C120.45 200.025 120.925 193.121 120.868 186.212C120.868 183.933 120.761 181.6 119.906 179.479C118.894 177.032 116.992 175.075 115.575 172.831C112.847 168.511 112.109 163.3 111.436 158.261C110.363 150.241 109.29 142.062 110.773 134.106C111.41 130.693 112.508 127.373 113.237 123.98C114.419 118.453 114.607 112.767 113.794 107.176C113.116 102.534 111.653 97.8231 108.455 94.3305C106.373 92.0059 103.524 90.4687 100.405 89.9859C96.4677 89.4905 94.5094 91.7495 91.0028 92.5867C75.377 96.3174 72.8014 89.01 67.8121 87.3752Z" fill="#EAEAEA"/>
<path d="M67.8121 87.3752C60.5508 84.9959 69.2644 86.2061 67.8121 87.3752ZM67.8121 87.3752C66.9671 88.0539 66.6028 89.1437 65.9449 90.0008C63.764 92.8344 59.3668 92.3044 55.8955 93.3199C50.7898 94.8061 47.6424 99.8195 45.8309 104.714C37.8359 126.358 46.7468 151.128 39.7891 173.108C37.765 179.578 34.3899 186.762 37.6992 192.711C38.8023 194.693 40.5987 196.353 41.1503 198.547C41.8992 201.52 40.457 205.433 42.977 207.246C43.7613 207.811 44.7581 207.984 45.6993 208.237C51.3717 209.723 55.6729 214.093 59.9942 217.982C64.3156 221.87 69.5174 225.63 75.377 225.378C77.2691 225.223 79.1367 224.855 80.9432 224.283L110.044 216.263C112.964 215.455 116.116 214.484 117.822 212.022C118.834 210.536 119.183 208.663 119.446 206.865C120.45 200.025 120.925 193.121 120.868 186.212C120.868 183.933 120.761 181.6 119.906 179.479C118.894 177.032 116.992 175.075 115.575 172.831C112.847 168.511 112.109 163.3 111.436 158.261C110.363 150.241 109.29 142.062 110.773 134.106C111.41 130.693 112.508 127.373 113.237 123.98C114.419 118.453 114.607 112.767 113.794 107.176C113.116 102.534 111.653 97.8231 108.455 94.3305C106.373 92.0059 103.524 90.4687 100.405 89.9859C96.4677 89.4905 94.5094 91.7495 91.0028 92.5867C75.377 96.3174 72.8014 89.01 67.8121 87.3752Z" stroke="black" stroke-width="3" stroke-linecap="round"/>
<path d="M25.4902 228.261C25.4902 228.261 21.0344 259.448 9.88748 250.942C-1.25939 242.436 0.413359 228.261 0.413359 228.261C0.413359 228.261 22.1446 168.153 21.0295 159.08C19.9143 150.006 58.1433 79.4707 58.1433 79.4707L72.2934 195.368C72.2934 195.368 29.946 211.25 25.4902 228.261Z" fill="black"/>
<path d="M64.5383 56.6343C52.4626 69.4122 53.6595 68.6955 41.1749 70.6307C38.5154 71.0429 34.5334 72.4699 34.5334 72.4699C27.9389 74.296 21.9821 77.9423 17.3349 82.9976C12.6877 88.0529 9.53494 94.316 8.23236 101.08L8.12734 101.63C4.70656 120.001 3.57129 170.521 3.57129 170.521C3.57129 170.521 4.14142 183.722 9.83772 187.149L46.3011 212.434C46.3011 212.434 45.1608 184.876 58.8389 182.009C72.5171 179.142 55.4182 180.86 55.4182 180.86L30.3474 165.93C30.3474 165.93 61.6632 177.983 68.4998 170.521C68.4998 159.021 71.6332 86.6693 71.6332 86.6693C71.6332 86.6693 66.1871 80.0719 64.5383 74.9998C62.321 68.179 62.2485 60.0715 64.5383 56.6343Z" fill="black"/>
<path d="M91.7861 74.0664C91.7861 74.0664 105.752 77.7462 115.518 79.529C117.047 79.8078 118.487 80.4427 119.721 81.3818C120.956 82.3208 121.949 83.5373 122.621 84.932C125.569 91.0649 130.063 102.144 129.29 111.391L137.814 144.772L162.255 174.19L140.094 184.375L115.09 156.65L135.54 209.29L97.4673 210.978C97.4673 210.978 91.157 112.643 94.0001 98.5002C94.0001 98.5002 94.0001 89.6198 94.0001 86.0002C94.0001 79.529 91.7861 74.0664 91.7861 74.0664Z" fill="black"/>
<path d="M343 192H20V241H343V192Z" fill="#EAEAEA" stroke="black" stroke-width="3" stroke-linecap="round"/>
<path d="M122.706 184H90.2944C89.0272 184 88 185.572 88 187.511V188.489C88 190.428 89.0272 192 90.2944 192H122.706C123.973 192 125 190.428 125 188.489V187.511C125 185.572 123.973 184 122.706 184Z" fill="white" stroke="black" stroke-width="3" stroke-linecap="round"/>
<path d="M220.722 104.691H123.579C116.122 104.691 110.077 110.569 110.077 117.818V178.035C110.077 185.285 116.122 191.162 123.579 191.162H220.722C228.179 191.162 234.224 185.285 234.224 178.035V117.818C234.224 110.569 228.179 104.691 220.722 104.691Z" fill="white" stroke="black" stroke-width="3" stroke-linecap="round"/>
</svg>
