<svg width="556" height="633" viewBox="0 0 556 633" fill="none" xmlns="http://www.w3.org/2000/svg">
<path opacity="0.1" d="M351.916 441.139L349.009 442.855C349.009 442.855 347.589 454.487 358.85 455.678" fill="black"/>
<path d="M369.44 377.089C369.44 377.089 361.84 377.555 354.22 378.818C353.44 378.95 352.664 379.092 351.893 379.241C351.444 379.326 351.003 379.415 350.562 379.513C346.569 380.335 342.933 381.403 340.814 382.767C338.271 384.399 337.423 380.004 337.342 373.898C337.308 371.75 337.381 369.393 337.495 367.012C337.643 364.258 337.859 361.469 338.088 358.961C338.593 353.401 339.173 349.079 339.173 349.079C339.173 349.079 341.835 349.079 345.391 348.956L346.536 348.914C347.65 348.871 348.833 348.812 350.024 348.74C350.587 348.71 351.155 348.676 351.719 348.634C353.974 348.473 356.199 348.244 358.077 347.947C360.077 347.625 361.701 347.219 362.582 346.676C366.609 344.278 369.44 377.089 369.44 377.089Z" fill="white" stroke="black" stroke-width="3" stroke-linecap="round"/>
<path d="M403.303 420.04L401.819 429.884C401.819 429.884 398.585 433.909 399.009 436.147C399.433 438.384 403.163 537.262 403.163 537.262C403.163 537.262 410.474 579.019 407.935 584.388C405.396 589.757 407.787 602.287 407.787 602.287L423.003 599.901L428.089 417.354L403.303 420.04Z" fill="black"/>
<path d="M435.059 610.084L435.059 610.086C435.12 610.973 435.2 611.79 435.264 612.385C435.296 612.683 435.324 612.927 435.344 613.096C435.353 613.167 435.36 613.224 435.365 613.268V621.175C435.161 621.099 434.943 621.018 434.712 620.931C433.061 620.312 430.766 619.424 428.194 618.351C423.026 616.195 416.836 613.333 412.487 610.434C408.993 608.104 408.495 606.28 408.606 605.269C408.698 604.475 409.192 603.725 409.917 603.135C410.684 602.511 411.419 602.296 411.655 602.296C412.303 602.296 413.055 602.046 413.693 601.795C414.395 601.519 415.205 601.139 416.054 600.708C417.756 599.844 419.713 598.725 421.458 597.687C422.831 596.873 424.087 596.103 424.999 595.536C425.202 595.41 425.388 595.294 425.555 595.19C425.839 595.43 426.185 595.725 426.577 596.061C427.687 597.014 429.154 598.297 430.591 599.623C432.035 600.956 433.414 602.302 434.368 603.388C434.825 603.909 435.141 604.321 435.319 604.612C435.22 604.895 435.158 605.181 435.115 605.432C435.038 605.886 434.998 606.39 434.979 606.897C434.943 607.912 434.99 609.061 435.059 610.084Z" fill="white" stroke="black" stroke-width="3"/>
<path opacity="0.1" d="M436.865 604.822C436.382 605.622 436.42 607.979 436.556 609.983C432.94 608.288 421.747 597.431 420.691 596.397C423.417 594.783 425.68 593.338 425.68 593.338C425.68 593.338 437.759 603.33 436.865 604.822Z" fill="black"/>
<path d="M470.281 426.901L466.403 441.22C466.403 441.22 464.165 445.542 463.86 447.631C463.555 449.72 461.474 452.852 461.474 452.852C460.532 454.913 460.024 457.146 459.982 459.411C459.833 463.441 457.015 482.082 453.866 485.214L453.12 497.295C453.12 497.295 450.153 499.38 452.225 502.38C454.298 505.38 453.569 513.118 453.569 513.118C453.569 513.118 450.733 515.355 452.526 517.593C454.319 519.83 453.12 526.394 453.12 526.394C453.12 526.394 451.479 528.479 452.225 529.674C452.971 530.869 451.488 561.591 451.488 561.591L447.902 576.651C447.902 576.651 446.258 589.181 445.359 592.91C444.461 596.639 444.465 601.258 444.465 601.258C444.465 601.258 440.587 609.462 437.751 609.017C434.916 608.572 421.196 595.143 421.196 595.143L423.133 549.802C423.133 549.802 424.773 530.564 423.731 526.835C422.688 523.106 421.942 504.465 421.942 504.465L419.852 475.086L398.991 442.275C398.991 442.275 397.478 432.728 401.801 429.897L402.585 424.74L403.293 420.053L428.058 417.367L465.945 407.527C465.945 407.527 468.865 409.328 470.395 413.824C471.442 416.854 471.845 421.126 470.281 426.901Z" fill="black"/>
<path d="M404.362 441.985C404.362 441.985 386.76 463.597 387.506 457.558C387.972 453.766 385.565 449.134 383.692 446.206C382.585 444.464 381.67 443.324 381.67 443.324C381.67 443.324 392.41 423.641 393.008 426.323C393.198 427.171 394.44 429.116 396.038 431.336C399.408 435.989 404.362 441.985 404.362 441.985Z" fill="white" stroke="black" stroke-width="3" stroke-linecap="round"/>
<path opacity="0.3" d="M436.865 621.205V623.324C436.865 623.324 420.607 617.659 411.655 611.692C407.964 609.23 406.912 606.942 407.116 605.111C412.058 607.611 421.251 612.379 424.036 614.527C426.401 616.349 432.512 619.235 436.865 621.205Z" fill="white"/>
<path d="M433.036 629.25C435.782 629.25 438.008 627.024 438.008 624.279C438.008 621.534 435.782 619.309 433.036 619.309C430.29 619.309 428.064 621.534 428.064 624.279C428.064 627.024 430.29 629.25 433.036 629.25Z" fill="black"/>
<path d="M382.253 622.273C384.999 622.273 387.225 620.048 387.225 617.303C387.225 614.557 384.999 612.332 382.253 612.332C379.507 612.332 377.281 614.557 377.281 617.303C377.281 620.048 379.507 622.273 382.253 622.273Z" fill="black"/>
<path d="M456.001 619.069C455.973 619.423 455.874 619.767 455.709 620.082L452.742 623.315L411.273 622.649L400.122 622.467C400.122 622.467 376.649 618.196 372.076 616.204C367.503 614.213 349.524 610.568 349.524 610.568C349.524 610.568 338.665 608.746 337.071 603.479C336.533 601.695 336.804 600.419 337.393 599.513C338.55 597.737 340.949 597.364 340.949 597.364C345.85 595.917 351.088 596.111 355.869 597.915L425.378 615.793L426.455 616.069C426.455 616.069 451.233 615.607 451.733 615.696C455.535 616.391 456.09 618.005 456.001 619.069Z" fill="#FFD749" stroke="black" stroke-width="3" stroke-linecap="round"/>
<path d="M414.271 613.587L414.274 613.561C414.354 612.68 414.289 611.791 414.081 610.931C413.704 609.536 412.86 605.629 412.266 602.845L412.264 602.837L412.264 602.837L411.826 600.725L398.042 599.05C398.047 599.465 398.05 599.908 398.05 600.32C398.05 600.717 398.048 601.095 398.042 601.395C398.039 601.544 398.035 601.683 398.029 601.801L398.029 601.805C398.025 601.878 398.016 602.038 397.988 602.193C397.925 602.542 397.774 602.87 397.549 603.146C397.321 603.426 397.024 603.643 396.687 603.774L396.687 603.774C396.35 603.906 395.985 603.949 395.627 603.898L414.271 613.587ZM414.271 613.587L414.27 613.613M414.271 613.587L414.27 613.613M414.27 613.613C414.261 613.774 414.248 613.935 414.233 614.096C413.834 614.107 413.35 614.119 412.794 614.13C411.123 614.166 408.807 614.199 406.226 614.193C401.034 614.182 394.867 614.01 390.697 613.392C388.535 613.071 387.658 612.43 387.324 611.987C387.177 611.77 387.087 611.52 387.059 611.26C387.032 610.992 387.072 610.722 387.176 610.474L387.196 610.427M414.27 613.613L387.196 610.427M387.196 610.427L387.212 610.379M387.196 610.427L387.212 610.379M387.212 610.379C387.276 610.192 387.358 610.012 387.456 609.84C387.694 609.423 387.986 609.09 388.228 608.89C388.272 608.854 388.31 608.826 388.34 608.805C389.117 608.861 389.819 608.562 390.294 608.304C390.883 607.984 391.439 607.549 391.892 607.15C392.353 606.744 392.756 606.334 393.04 606.029C393.184 605.875 393.3 605.745 393.382 605.652C393.422 605.606 393.455 605.568 393.478 605.541L393.505 605.509L393.513 605.5L393.516 605.497L393.517 605.495L393.517 605.495C393.517 605.495 393.518 605.494 392.367 604.532L393.518 605.494M387.212 610.379L393.518 605.494M393.518 605.494L393.927 605.005M393.518 605.494L393.927 605.005M393.927 605.005L393.858 604.37M393.927 605.005L393.858 604.37M393.858 604.37C393.858 604.367 393.858 604.365 393.858 604.363M393.858 604.37L393.858 604.363M393.858 604.363C393.855 604.342 393.853 604.33 393.892 604.281M393.858 604.363L393.892 604.281M393.892 604.281C393.959 604.197 394.108 604.072 394.359 603.953M393.892 604.281L394.359 603.953M394.359 603.953C394.603 603.837 394.862 603.765 395.056 603.737M394.359 603.953L395.056 603.737M395.056 603.737C395.06 603.736 395.063 603.736 395.066 603.735M395.056 603.737L395.066 603.735M395.066 603.735C395.244 603.815 395.433 603.87 395.627 603.898L395.066 603.735ZM396.143 602.383L396.141 602.377L396.143 602.383ZM396.143 602.383L396.145 602.388L396.143 602.383ZM388.435 608.747C388.442 608.744 388.441 608.746 388.433 608.749C388.434 608.748 388.435 608.748 388.435 608.747Z" fill="white" stroke="black" stroke-width="3"/>
<path d="M384.6 608.806C384.524 608.83 384.434 608.855 384.328 608.879C383.967 608.96 383.497 609.016 382.93 609.045C381.796 609.103 380.427 609.041 379.074 608.925C377.73 608.81 376.444 608.646 375.491 608.509C375.016 608.441 374.625 608.381 374.355 608.337C374.22 608.315 374.115 608.298 374.044 608.286L373.965 608.273L373.946 608.269L373.942 608.269L373.941 608.268L373.941 608.268L373.941 608.268L373.859 608.254L373.776 608.249L373.682 609.746L373.775 608.249L373.775 608.249L373.772 608.249L373.762 608.248L373.719 608.245L373.55 608.234C373.401 608.225 373.181 608.21 372.901 608.191C372.339 608.152 371.533 608.095 370.556 608.019C368.6 607.868 365.963 607.645 363.234 607.358C360.501 607.07 357.698 606.72 355.401 606.316C354.252 606.114 353.253 605.903 352.466 605.686C351.63 605.457 351.187 605.261 351.026 605.151L351.015 605.143L351.004 605.136C350.927 605.086 350.862 605.02 350.812 604.942C350.787 604.886 350.739 604.709 350.9 604.283C351.076 603.817 351.43 603.267 351.898 602.704C352.356 602.154 352.867 601.66 353.278 601.311C353.436 601.177 353.569 601.072 353.67 600.999C353.705 600.995 353.737 600.991 353.768 600.988C353.967 600.966 354.224 600.936 354.516 600.9C355.1 600.827 355.841 600.731 356.578 600.632C358.013 600.44 359.546 600.227 359.788 600.179L359.788 600.179L359.797 600.178C361.143 599.906 362.467 599.376 363.428 598.991C363.489 598.967 363.549 598.943 363.607 598.92C364.047 598.744 364.366 598.62 364.6 598.546C364.763 598.607 364.915 598.639 365.036 598.656C365.327 598.697 365.6 598.675 365.805 598.648C366.215 598.592 366.657 598.464 367.021 598.349C367.184 598.298 367.441 598.213 367.673 598.136C367.849 598.078 368.011 598.024 368.108 597.993C368.458 597.881 368.679 597.824 368.801 597.806L368.805 597.806C369.747 597.668 370.203 596.944 370.387 596.521C370.58 596.08 370.659 595.59 370.696 595.189L370.698 595.168L370.699 595.147C370.718 594.856 370.729 594.564 370.731 594.273L384.002 597.844L384.086 599.361L384.086 599.362L384.557 608.022L384.557 608.024L384.6 608.806Z" fill="white" stroke="black" stroke-width="3"/>
<path d="M357.356 622.273C360.102 622.273 362.328 620.048 362.328 617.303C362.328 614.557 360.102 612.332 357.356 612.332C354.611 612.332 352.385 614.557 352.385 617.303C352.385 620.048 354.611 622.273 357.356 622.273Z" fill="black"/>
<path d="M411.354 632.592C414.1 632.592 416.326 630.366 416.326 627.621C416.326 624.876 414.1 622.65 411.354 622.65C408.609 622.65 406.383 624.876 406.383 627.621C406.383 630.366 408.609 632.592 411.354 632.592Z" fill="black"/>
<path d="M360.79 448.229C360.79 448.229 359.849 449.924 358.434 452.441C355.043 458.425 348.944 469.031 346.32 472.387C342.59 477.159 342.891 472.688 338.861 462.696C335.868 455.263 345.078 446.759 350.003 442.894C351.699 441.551 352.886 440.775 352.886 440.775L360.79 448.229Z" fill="white" stroke="black" stroke-width="3" stroke-linecap="round"/>
<path d="M378.836 459.711C378.836 459.711 366.456 460.753 364.07 461.499C361.683 462.245 351.393 461.796 350.507 461.499C349.621 461.203 332.006 465.228 340.063 469.254C348.121 473.279 353.202 469.254 353.202 469.254C353.202 469.254 363.646 468.656 366.341 470.3C369.037 471.945 378.87 471.046 378.87 471.046L378.836 459.711Z" fill="white" stroke="black" stroke-width="3" stroke-linecap="round"/>
<path opacity="0.1" d="M353.119 368.439C354.645 372.342 353.691 375.74 351.894 379.228C347.393 380.075 343.158 381.24 340.802 382.753C334.088 387.08 339.162 349.048 339.162 349.048C339.162 349.048 342.408 349.048 346.524 348.883C345.278 354.57 349.999 360.472 353.119 368.439Z" fill="black"/>
<path d="M353.5 367.592C353.492 373.839 351.184 379.864 347.017 384.518C342.85 389.172 337.115 392.129 330.906 392.826C324.698 393.523 318.45 391.911 313.354 388.296C308.259 384.682 304.672 379.318 303.279 373.229C301.886 367.14 302.783 360.751 305.801 355.282C308.818 349.812 313.743 345.644 319.638 343.573C325.532 341.502 331.982 341.673 337.759 344.053C343.535 346.433 348.233 350.856 350.957 356.477C352.635 359.942 353.505 363.743 353.5 367.592Z" fill="white" stroke="black" stroke-width="3" stroke-linecap="round"/>
<path opacity="0.1" d="M470.405 413.811C469.6 414.982 468.394 415.819 467.014 416.162C461.195 417.802 420.171 427.646 417.488 427.049C415.119 426.523 404.951 425.061 402.607 424.726L403.315 420.04L428.08 417.353L465.967 407.514C465.967 407.514 468.875 409.315 470.405 413.811Z" fill="black"/>
<path d="M356.467 342.088C356.467 342.088 365.27 341.295 366.461 339.804C367.652 338.312 376.159 337.867 376.159 337.867C376.159 337.867 380.334 337.121 381.245 336.075C382.156 335.028 404.81 333.689 407.048 334.884C409.286 336.079 411.376 336.82 412.719 336.973C414.063 337.126 424.502 344.575 425.545 344.575C426.587 344.575 455.214 371.572 455.214 371.572C455.214 371.572 458.18 378.433 459.393 378.729C460.605 379.026 471.328 406.172 471.328 406.172C471.328 406.172 472.82 412.731 467.005 414.375C461.19 416.02 420.162 425.859 417.479 425.262C414.796 424.664 402.115 422.876 402.115 422.876C402.115 422.876 402.263 422.876 401.966 421.236C401.67 419.596 401.22 420.041 401.814 418.549C402.407 417.058 403.009 417.206 402.263 416.312C401.517 415.418 402.263 414.969 399.877 413.477C397.491 411.985 394.791 410.346 394.655 409.901C394.52 409.456 392.417 406.468 391.375 406.32C390.332 406.172 361.091 397.968 361.091 397.968L354.229 395.73C354.229 395.73 350.949 393.493 351.686 392.154C352.424 390.815 354.962 378.7 354.962 378.7L365.453 377.407C365.453 377.407 363.889 352.152 358.014 347.914C352.14 343.677 356.467 342.088 356.467 342.088Z" fill="#FFD749" stroke="black" stroke-width="3" stroke-linecap="round"/>
<path opacity="0.1" d="M360.789 448.229C360.789 448.229 359.848 449.924 358.432 452.441C358.212 444.661 352.77 443.153 350.002 442.894C351.697 441.551 352.884 440.775 352.884 440.775L360.789 448.229Z" fill="black"/>
<path d="M353.499 391.705L354.219 395.731C354.219 395.731 357.055 399.163 357.055 400.206C357.055 401.248 360.335 404.231 361.234 405.871C362.133 407.511 365.26 407.812 364.065 410.647C362.87 413.482 356.012 435.106 356.012 435.106L349.002 442.86C349.002 442.86 360.636 441.814 358.844 455.683L373.911 442.547L385.711 421.084C385.711 421.084 374.225 399.311 373.78 397.523C373.335 395.735 353.499 391.705 353.499 391.705Z" fill="#FFD749" stroke="black" stroke-width="3" stroke-linecap="round"/>
<path opacity="0.1" d="M436.422 517.277C436.422 517.277 447.31 519.366 447.607 520.112C447.904 520.858 436.422 517.277 436.422 517.277Z" fill="black"/>
<path opacity="0.1" d="M440.299 524.434C440.299 524.434 446.114 528.014 446.262 529.057C446.411 530.099 440.299 524.434 440.299 524.434Z" fill="black"/>
<path opacity="0.1" d="M438.953 532.492C438.953 532.492 439.847 536.518 441.339 537.115C442.831 537.713 438.953 532.492 438.953 532.492Z" fill="black"/>
<path opacity="0.1" d="M350.982 356.347C350.982 356.389 350.982 356.436 350.96 356.478C350.757 357.805 350.215 359.241 348.968 359.682C348.216 359.894 347.411 359.82 346.709 359.474C344.59 358.546 342.704 356.317 340.441 356.855C339.364 357.11 338.61 357.927 338.076 358.932C337.705 359.655 337.421 360.418 337.228 361.207C336.804 362.868 336.465 364.674 337.114 366.254C337.22 366.513 337.348 366.762 337.495 367C338.097 367.962 338.945 368.78 339.538 369.75C340.275 370.962 340.466 372.78 339.318 373.61C339.029 373.8 338.703 373.923 338.361 373.97C338.019 374.018 337.672 373.989 337.342 373.886C336.501 373.622 335.692 373.263 334.931 372.818C333.43 372.034 331.54 371.547 330.116 372.454C329.624 372.759 329.23 373.199 328.76 373.521C327.782 374.127 326.622 374.369 325.483 374.204C322.788 373.928 321.779 372.221 319.719 370.898C318.21 369.924 315.057 369.509 314.158 371.5C313.582 372.771 314.438 374.373 313.874 375.67C313.311 376.967 311.518 377.365 310.687 378.568C309.594 380.153 310.611 382.446 309.81 384.204C309.687 384.477 309.523 384.728 309.322 384.95C304.831 380.111 302.391 373.72 302.516 367.12C302.641 360.52 305.322 354.225 309.993 349.56C314.665 344.895 320.964 342.223 327.565 342.106C334.167 341.988 340.557 344.435 345.391 348.931L346.536 348.889C347.65 348.846 348.833 348.787 350.024 348.715C350.305 349.311 350.526 349.935 350.681 350.575C351.142 352.463 351.244 354.421 350.982 356.347Z" fill="black"/>
<path d="M313.554 370.905C312.974 372.177 313.83 373.778 313.27 375.071C312.711 376.363 310.905 376.766 310.083 377.969C308.985 379.558 310.003 381.851 309.206 383.605C308.29 385.61 305.527 385.923 303.408 385.338C301.597 384.821 299.936 383.881 298.56 382.595C297.185 381.31 296.136 379.715 295.499 377.944C294.062 373.855 294.99 369.354 294.617 365.036C294.458 363.186 294.059 361.364 293.43 359.617C292.816 357.922 291.977 356.252 291.777 354.451C291.635 352.923 291.953 351.387 292.692 350.042C293.431 348.697 294.556 347.604 295.923 346.904C297.669 346.057 299.818 345.815 301.089 344.362C302.064 343.234 302.272 341.662 302.725 340.243C303.95 336.429 307.608 333.319 311.626 333.357C314.839 333.382 317.983 335.276 321.124 334.531C322.9 334.107 324.515 332.836 326.346 333.018C327.223 333.156 328.063 333.468 328.817 333.937C333.692 336.57 338.33 339.618 342.681 343.048C343.581 343.823 344.566 344.492 345.618 345.044C346.295 345.308 346.956 345.612 347.597 345.955C348.966 346.802 349.682 348.417 350.072 349.985C350.541 351.872 350.647 353.83 350.386 355.756C350.2 357.116 349.666 358.642 348.373 359.095C347.618 359.306 346.811 359.229 346.11 358.879C343.99 357.96 342.108 355.731 339.845 356.265C337.997 356.688 337.107 358.782 336.624 360.617C336.2 362.278 335.853 364.083 336.51 365.668C337.052 366.981 338.205 367.943 338.93 369.16C339.654 370.376 339.862 372.194 338.709 373.02C337.438 373.939 335.713 372.961 334.318 372.232C332.826 371.448 330.928 370.96 329.508 371.863C329.02 372.168 328.626 372.609 328.151 372.935C327.173 373.535 326.016 373.775 324.879 373.613C322.179 373.338 321.171 371.63 319.115 370.308C317.602 369.325 314.457 368.909 313.554 370.905Z" fill="black"/>
<path opacity="0.1" d="M396.042 431.316C395.928 431.951 395.054 432.023 394.876 432.642C393.181 438.621 389.451 443.998 383.696 446.202C382.589 444.46 381.674 443.32 381.674 443.32C381.674 443.32 392.414 423.637 393.012 426.32C393.202 427.154 394.444 429.095 396.042 431.316Z" fill="black"/>
<path d="M396.358 427.197C396.359 431.091 395.205 434.898 393.041 438.136C390.878 441.374 387.803 443.898 384.205 445.389C380.607 446.88 376.647 447.27 372.827 446.511C369.007 445.752 365.498 443.877 362.744 441.124C359.989 438.371 358.113 434.863 357.353 431.044C356.593 427.225 356.983 423.266 358.473 419.668C359.963 416.071 362.487 412.996 365.726 410.832C368.964 408.669 372.771 407.514 376.666 407.514C379.255 407.504 381.819 408.007 384.212 408.993C386.605 409.978 388.78 411.428 390.61 413.257C392.44 415.087 393.891 417.261 394.877 419.653C395.864 422.045 396.367 424.609 396.358 427.197Z" fill="white" stroke="black" stroke-width="3" stroke-linecap="round"/>
<path opacity="0.1" d="M385.473 596.687L385.617 599.289C383.892 599.67 380.612 600.17 378.7 599.001C376.229 597.488 372.58 597.119 369.236 595.06C369.295 594.137 369.264 593.21 369.143 592.293L385.473 596.687Z" fill="black"/>
<path opacity="0.1" d="M413.732 602.543C413.617 603.123 413.511 603.479 413.511 603.479C413.511 603.479 400.351 602.132 396.558 600.314C396.558 599 396.52 597.348 396.52 597.348L413.083 599.36L413.732 602.543Z" fill="black"/>
<path d="M410.761 543.378C409.867 545.764 409.418 546.213 410.316 547.404C411.215 548.594 410.761 554.862 409.337 555.455C407.913 556.048 402.556 559.629 402.556 559.629C402.556 559.629 405.523 563.506 405.612 565.138C405.69 566.18 406.093 567.171 406.765 567.972C406.765 567.972 411.359 577.816 412.275 580.948C413.19 584.079 414.029 588.999 414.029 588.999C414.029 588.999 412.423 593.474 413.533 596.012C414.644 598.55 413.533 602.275 413.533 602.275C413.533 602.275 397.508 600.635 395.732 598.529C393.956 596.423 395.139 591.686 395.139 591.686C394.772 589.574 394.013 587.551 392.901 585.719C391.108 582.884 393.325 579.905 392.901 579.753C392.477 579.6 391.108 577.965 389.76 575.282C388.412 572.6 387.573 573.638 387.573 573.638C387.573 573.638 389.319 588.702 387.573 590.046C385.827 591.389 385.59 590.791 386.039 592.588C386.387 594.313 386.636 596.056 386.785 597.809C386.785 597.809 381.415 599.449 378.732 597.809C376.049 596.169 372.01 595.868 368.462 593.334C364.915 590.8 370.068 586.473 370.963 585.876C371.857 585.278 370.666 576.63 370.666 576.63L369.471 568.129C369.471 568.129 373.497 569.023 372.175 565.744C370.853 562.464 369.323 551.128 368.577 549.34C367.831 547.552 371.12 545.162 370.666 543.971C370.213 542.78 372.603 535.92 372.603 535.92C372.603 535.92 372.756 530.254 374.243 529.191C374.811 528.792 375.18 527.555 375.426 526.186C375.687 524.571 375.841 522.94 375.888 521.305C375.888 521.305 410.045 518.919 415.564 522.199C418.047 523.673 417.874 526.39 416.835 529.14C415.564 532.496 412.953 535.92 412.296 537.161C411.062 539.45 411.656 540.992 410.761 543.378Z" fill="black"/>
<path d="M399.421 438.982C399.421 438.982 402.388 435.402 403.003 436.745C403.617 438.088 407.118 440.77 407.118 440.77C407.118 440.77 408.123 443.902 409.89 444.351C411.658 444.8 424.932 462.695 424.932 462.695L420.156 472.387L416.277 495.951C416.277 495.951 416.447 499.68 415.392 501.036C414.336 502.392 410.305 502.079 412.175 503.719C414.044 505.359 416.727 506.85 418.219 514.313C419.711 521.775 421.499 526.093 421.499 526.093C421.499 526.093 407.478 529.674 405.987 531.313C404.495 532.953 399.421 522.067 399.421 522.067C399.421 522.067 399.722 530.25 393.009 526.83C386.295 523.41 374.809 524.453 374.809 524.453V515.639C374.809 515.639 377.047 512.207 375.856 509.821C374.665 507.435 376.669 502.96 376.669 502.96C376.669 502.96 376.004 498.337 374.809 495.655C373.614 492.972 374.063 480.294 374.063 480.294C374.063 480.294 373.156 472.09 373.982 467.912C374.684 464.29 375.922 460.794 377.657 457.538C379.297 454.343 380.336 451.36 379.891 450.165C379.446 448.97 383.828 446.385 383.828 446.385L386.257 450.313L386.876 452.661C386.876 452.661 399.722 443.457 399.421 438.982Z" fill="#FFD749" stroke="black" stroke-width="3" stroke-linecap="round"/>
<path d="M420.893 459.711C420.893 459.711 429.247 467.911 430.141 469.254C431.035 470.597 434.032 477.581 430.154 479.699C426.276 481.818 411.081 485.085 409.572 483.958C408.063 482.831 398.976 485.229 398.976 485.229C398.976 485.229 383.777 488.958 387.058 482.844C390.338 476.729 398.099 477.759 398.099 477.759C398.099 477.759 410.636 477.737 411.975 476.487C413.314 475.237 423.419 472.555 421.13 467.029C418.841 461.503 420.893 459.711 420.893 459.711Z" fill="white" stroke="black" stroke-width="3" stroke-linecap="round"/>
<path opacity="0.1" d="M396.36 427.197C396.362 429.027 396.108 430.849 395.605 432.608C394.783 433.354 393.363 433.363 392.35 432.808C391.163 432.155 390.388 430.969 389.616 429.841C388.845 428.714 387.967 427.587 386.704 427.104C385.107 426.502 383.284 427.104 381.894 428.104C380.504 429.104 379.393 430.426 378.079 431.494C376.765 432.562 375.091 433.426 373.417 433.164C372.336 432.998 371.378 432.388 370.45 431.799C369.179 430.998 367.814 429.752 366.419 429.214C365.025 428.676 363.876 429.638 362.55 429.638C361.494 430.019 360.346 430.888 360.558 431.986C360.671 432.393 360.855 432.777 361.1 433.121C361.526 433.96 361.694 434.906 361.583 435.841C361.473 436.775 361.088 437.655 360.477 438.372C358.72 435.832 357.586 432.915 357.164 429.857C356.743 426.798 357.048 423.683 358.053 420.763C359.058 417.844 360.736 415.202 362.951 413.05C365.166 410.899 367.857 409.299 370.805 408.379C373.753 407.459 376.876 407.245 379.921 407.754C382.967 408.264 385.851 409.482 388.339 411.312C390.827 413.141 392.849 415.53 394.243 418.285C395.637 421.04 396.364 424.084 396.364 427.172L396.36 427.197Z" fill="black"/>
<path d="M362.546 429.065C361.49 429.447 360.342 430.315 360.549 431.417C360.667 431.822 360.852 432.205 361.096 432.549C362.334 434.756 361.287 437.926 358.977 438.951C358.615 439.14 358.201 439.205 357.799 439.138C357.479 439.039 357.189 438.864 356.951 438.629C355.709 437.519 354.852 436.042 354.505 434.413C354.141 432.718 354.365 430.921 354.179 429.18C353.992 427.438 353.395 425.722 353.187 423.968C353.04 423.1 353.132 422.21 353.454 421.391C353.734 420.851 354.094 420.357 354.522 419.925C355.713 418.599 356.955 417.243 357.553 415.56C358.498 412.882 357.811 409.471 359.88 407.509C360.837 406.611 362.177 406.276 363.364 405.708C364.481 405.115 365.551 404.436 366.564 403.678C370.399 401.043 375.062 399.017 379.622 399.949C381.444 400.39 383.189 401.105 384.797 402.068C387.784 403.714 390.621 405.62 393.274 407.763C394.421 408.612 395.423 409.641 396.241 410.81C396.85 411.811 397.288 412.907 397.538 414.052C398.147 416.55 398.231 419.147 397.784 421.679C397.36 424.162 396.398 426.574 396.36 429.095C396.36 429.942 396.427 430.858 395.991 431.587C395.292 432.748 393.558 432.858 392.371 432.214C391.185 431.57 390.409 430.375 389.642 429.247C388.875 428.12 387.993 426.993 386.73 426.514C385.132 425.908 383.31 426.514 381.919 427.51C380.529 428.506 379.423 429.832 378.105 430.9C376.787 431.968 375.138 432.832 373.443 432.57C372.362 432.404 371.404 431.798 370.476 431.209C369.204 430.404 367.839 429.158 366.449 428.625C365.059 428.091 363.868 429.065 362.546 429.065Z" fill="black"/>
<path d="M407.778 459.711C407.778 459.711 385.853 479.992 390.324 490.132C394.796 500.272 414.483 482.377 414.483 482.377L421.502 466.139L407.778 459.711Z" fill="white" stroke="black" stroke-width="3" stroke-linecap="round"/>
<g opacity="0.1">
<path opacity="0.1" d="M358.967 437.749C358.607 437.937 358.194 438.003 357.793 437.935C357.473 437.837 357.181 437.661 356.946 437.423C355.703 436.314 354.845 434.839 354.496 433.21C354.136 431.494 354.36 429.715 354.174 427.973C353.987 426.231 353.385 424.519 353.182 422.761C353.182 422.676 353.182 422.587 353.161 422.498C353.115 422.983 353.122 423.472 353.182 423.956C353.385 425.71 353.987 427.405 354.174 429.168C354.36 430.931 354.136 432.689 354.496 434.401C354.844 436.031 355.702 437.508 356.946 438.618C357.183 438.853 357.474 439.028 357.793 439.126C358.194 439.194 358.607 439.128 358.967 438.94C360.79 438.13 361.82 435.999 361.578 434.05C361.49 434.836 361.204 435.588 360.748 436.234C360.291 436.881 359.679 437.402 358.967 437.749Z" fill="black"/>
<path opacity="0.1" d="M397.752 420.48C397.329 422.963 396.366 425.374 396.333 427.895C396.333 428.743 396.4 429.658 395.96 430.387C395.264 431.548 393.531 431.658 392.344 431.014C391.157 430.37 390.382 429.179 389.61 428.048C388.839 426.917 387.966 425.794 386.699 425.315C385.105 424.713 383.283 425.315 381.892 426.315C380.502 427.315 379.392 428.633 378.078 429.705C376.764 430.777 375.09 431.637 373.415 431.379C372.335 431.209 371.377 430.603 370.449 430.014C369.177 429.209 367.812 427.968 366.422 427.429C365.032 426.891 363.879 427.853 362.552 427.853C361.497 428.239 360.348 429.103 360.552 430.209C360.578 430.329 360.616 430.445 360.666 430.557C361.082 429.833 361.756 429.294 362.552 429.048C363.875 429.048 365.045 428.099 366.422 428.624C367.8 429.15 369.19 430.404 370.449 431.209C371.368 431.798 372.326 432.404 373.415 432.569C375.111 432.832 376.772 431.98 378.078 430.9C379.383 429.819 380.506 428.485 381.892 427.51C383.278 426.535 385.105 425.908 386.699 426.514C387.97 426.993 388.843 428.133 389.61 429.247C390.378 430.362 391.157 431.544 392.344 432.214C393.531 432.883 395.264 432.747 395.96 431.586C396.383 430.858 396.32 429.946 396.333 429.095C396.366 426.573 397.316 424.162 397.752 421.679C397.976 420.404 398.067 419.109 398.024 417.814C397.997 418.708 397.906 419.599 397.752 420.48Z" fill="black"/>
</g>
<path d="M382.72 356.505C382.72 356.505 374.667 371.121 385.687 378.579C396.707 386.037 397.77 385.291 397.77 385.291C397.77 385.291 397.622 387.079 397.77 387.528C397.919 387.977 400.737 389.016 400.737 389.016C400.737 389.016 404.17 394.524 409.091 396.923C414.012 399.321 414.911 404.974 414.911 404.974C414.911 404.974 414.911 406.915 417.454 408.703C419.997 410.491 421.951 415.712 421.951 415.712V420.488C421.951 421.233 422.845 423.454 420.904 423.691C418.962 423.928 420.607 428.391 420.607 428.391C420.607 428.391 418.517 430.933 418.967 432.12C419.416 433.306 418.072 435.696 418.072 435.696C418.072 435.696 416.432 438.082 416.58 438.531C416.729 438.98 414.788 440.62 415.237 441.662C415.686 442.705 412.999 444.048 413.448 445.243C413.898 446.438 411.537 447.031 411.537 447.031L405.094 461.947C405.094 461.947 418.632 464.914 422.154 472.384L439.252 441.065C439.252 441.065 448.801 417.653 449.098 416.161C449.394 414.669 447.008 409.301 447.008 409.301L435.374 388.113L417.924 363.514C417.924 363.514 404.048 333.987 382.72 356.505Z" fill="#FFD749" stroke="black" stroke-width="3" stroke-linecap="round"/>
<g opacity="0.1">
<path opacity="0.1" d="M294.617 363.846C294.46 361.994 294.061 360.171 293.43 358.422C292.816 356.727 291.977 355.058 291.778 353.257C291.778 353.202 291.778 353.151 291.778 353.096C291.733 353.547 291.733 354.001 291.778 354.452C291.977 356.253 292.816 357.91 293.43 359.617C294.062 361.364 294.461 363.186 294.617 365.037C294.677 365.732 294.702 366.435 294.711 367.156C294.723 366.033 294.711 364.935 294.617 363.846Z" fill="black"/>
<path opacity="0.1" d="M309.207 382.413C308.296 384.413 305.528 384.731 303.409 384.142C301.6 383.623 299.939 382.683 298.564 381.398C297.19 380.114 296.139 378.521 295.5 376.751C294.911 374.93 294.624 373.025 294.652 371.111C294.627 373.446 294.716 375.751 295.5 377.942C296.139 379.712 297.189 381.306 298.564 382.591C299.939 383.877 301.599 384.818 303.409 385.337C305.528 385.921 308.296 385.608 309.207 383.604C309.592 382.756 309.554 381.773 309.537 380.807C309.53 381.358 309.417 381.903 309.207 382.413Z" fill="black"/>
<path opacity="0.1" d="M350.386 354.557C350.204 355.913 349.666 357.438 348.373 357.892C347.62 358.102 346.815 358.027 346.114 357.68C343.995 356.756 342.109 354.527 339.845 355.065C337.997 355.489 337.111 357.578 336.624 359.417C336.27 360.579 336.117 361.793 336.171 363.006C336.251 362.195 336.403 361.393 336.624 360.608C337.111 358.773 337.997 356.697 339.845 356.256C342.109 355.722 343.978 357.951 346.114 358.87C346.814 359.22 347.619 359.297 348.373 359.087C349.666 358.633 350.204 357.108 350.386 355.747C350.503 354.881 350.545 354.006 350.513 353.133C350.492 353.607 350.45 354.086 350.386 354.557Z" fill="black"/>
<path opacity="0.1" d="M338.709 371.82C337.437 372.74 335.712 371.761 334.318 371.028C332.826 370.244 330.927 369.756 329.507 370.659C329.02 370.964 328.626 371.405 328.151 371.731C327.174 372.335 326.016 372.575 324.879 372.409C322.179 372.134 321.17 370.426 319.115 369.104C317.606 368.133 314.452 367.718 313.554 369.71C313.338 370.296 313.279 370.928 313.38 371.545C313.408 371.324 313.467 371.109 313.554 370.905C314.457 368.909 317.606 369.324 319.115 370.299C321.17 371.621 322.179 373.329 324.879 373.604C326.016 373.767 327.174 373.525 328.151 372.922C328.626 372.6 329.02 372.159 329.507 371.854C330.94 370.964 332.826 371.43 334.318 372.223C335.712 372.952 337.429 373.918 338.709 373.011C339.455 372.477 339.633 371.528 339.468 370.591C339.381 371.083 339.109 371.522 338.709 371.82Z" fill="black"/>
<path opacity="0.1" d="M313.27 373.88C312.689 375.211 310.905 375.575 310.083 376.774C309.468 377.664 309.519 378.774 309.54 379.889C309.532 379.21 309.721 378.544 310.083 377.969C310.905 376.77 312.689 376.401 313.27 375.071C313.473 374.492 313.528 373.871 313.431 373.266C313.405 373.477 313.351 373.683 313.27 373.88Z" fill="black"/>
</g>
<path d="M211.634 16H17V125.86H211.634V16Z" fill="white" stroke="black" stroke-width="3" stroke-linecap="round"/>
<path d="M34.5 54.5V50.5H193.5V54.5H34.5Z" fill="black" stroke="black" stroke-width="3" stroke-linecap="round"/>
<path d="M34.5 69.5V65.5H193.5V69.5H34.5Z" fill="black" stroke="black" stroke-width="3" stroke-linecap="round"/>
<path d="M34.5 84.5V80.5H193.5V84.5H34.5Z" fill="black" stroke="black" stroke-width="3" stroke-linecap="round"/>
<path d="M34.5 39.5V35.5H104.5V39.5H34.5Z" fill="black" stroke="black" stroke-width="3" stroke-linecap="round"/>
<path d="M389 192.887H242V275.86H389V192.887Z" fill="white" stroke="black" stroke-width="3" stroke-linecap="round"/>
<path d="M255.584 221.597V219.311H374.937V221.597H255.584Z" fill="black" stroke="black" stroke-width="3" stroke-linecap="round"/>
<path d="M255.584 232.927V230.64H374.937V232.927H255.584Z" fill="black" stroke="black" stroke-width="3" stroke-linecap="round"/>
<path d="M255.584 244.255V241.968H374.937V244.255H255.584Z" fill="black" stroke="black" stroke-width="3" stroke-linecap="round"/>
<path d="M255.584 210.268V207.981H307.718V210.268H255.584Z" fill="black" stroke="black" stroke-width="3" stroke-linecap="round"/>
<path d="M212 306H65V388.973H212V306Z" fill="white" stroke="black" stroke-width="3" stroke-linecap="round"/>
<path d="M78.584 334.711V332.424H197.937V334.711H78.584Z" fill="black" stroke="black" stroke-width="3" stroke-linecap="round"/>
<path d="M78.584 346.04V343.753H197.937V346.04H78.584Z" fill="black" stroke="black" stroke-width="3" stroke-linecap="round"/>
<path d="M78.584 357.368V355.082H197.937V357.368H78.584Z" fill="black" stroke="black" stroke-width="3" stroke-linecap="round"/>
<path d="M78.584 323.382V321.095H130.718V323.382H78.584Z" fill="black" stroke="black" stroke-width="3" stroke-linecap="round"/>
<path d="M270 490H175V543.622H270V490Z" fill="white" stroke="black" stroke-width="3" stroke-linecap="round"/>
<path d="M184.31 508.024V507.607H260.381V508.024H184.31Z" fill="black" stroke="black" stroke-width="3" stroke-linecap="round"/>
<path d="M184.31 515.345V514.929H260.381V515.345H184.31Z" fill="black" stroke="black" stroke-width="3" stroke-linecap="round"/>
<path d="M184.31 522.667V522.25H260.381V522.667H184.31Z" fill="black" stroke="black" stroke-width="3" stroke-linecap="round"/>
<path d="M184.31 500.702V500.286H216.941V500.702H184.31Z" fill="black" stroke="black" stroke-width="3" stroke-linecap="round"/>
</svg>
