<svg width="429" height="194" viewBox="0 0 429 194" fill="none" xmlns="http://www.w3.org/2000/svg">
<g clip-path="url(#clip0)">
<path d="M262.972 84.2903C262.972 84.2903 265.642 99.5871 258.827 105.13C252.012 110.673 264.985 145.579 285.76 141.7C306.535 137.82 315 109.952 315 109.952C315 109.952 294.192 105.521 301.906 83L262.972 84.2903Z" fill="white" stroke="black" stroke-width="3" stroke-linecap="round"/>
<path d="M281 97C299.778 97 315 81.7777 315 63C315 44.2223 299.778 29 281 29C262.222 29 247 44.2223 247 63C247 81.7777 262.222 97 281 97Z" fill="white" stroke="black" stroke-width="3" stroke-linecap="round"/>
<path d="M339 129.606V153H224V130.669C224 127.838 224.844 125.069 226.427 122.709C228.01 120.348 230.262 118.501 232.901 117.398L236.196 116.013C244.538 112.502 254.673 108.141 257.984 106.328C258.347 106.149 258.689 105.93 259.002 105.676C260.812 103.888 260.454 106.212 260.454 106.212C260.454 106.212 260.404 106.657 260.37 107.424C260.17 112.691 260.937 133.39 285.487 131.667C309.437 130.018 310.513 114.01 310.271 109.303C310.257 108.868 310.221 108.433 310.162 108.001C311.819 108.39 313.44 108.914 315.009 109.567C320.014 111.397 327.405 114.332 329.382 115.717C329.999 116.145 330.75 116.59 331.567 117.044C332.495 117.555 333.362 118.166 334.153 118.865C335.679 120.219 336.899 121.875 337.734 123.726C338.569 125.576 339 127.58 339 129.606Z" fill="#FFD749" stroke="black" stroke-width="3" stroke-linecap="round"/>
<path d="M237.602 64.5718C238.878 64.2436 240.221 64.3164 241.458 64.7805C242.694 65.2447 243.766 66.0791 244.537 67.176C245.937 69.193 246.149 71.6268 246.324 73.9564C247.991 74.3162 248.93 72.3749 249.087 70.9071C249.704 64.9316 249.75 58.8425 251.702 53.0659C253.655 47.2893 257.919 41.7022 264.468 39.4957C266.705 38.6985 269.096 38.4647 271.44 38.8139C272.831 39.0506 274.138 39.5525 275.52 39.7608C280.309 40.5752 285.513 38.2456 289.998 39.865C292.817 40.8877 294.603 43.2457 295.92 45.6037C296.493 46.8752 297.272 48.0376 298.223 49.0413C300.129 50.8026 303.114 51.2572 305.849 51.8065C308.584 52.3557 311.568 53.3121 312.738 55.4807C313.788 57.441 313.014 59.7043 312.664 61.8255C312.123 65.1859 312.67 68.636 314.221 71.6457C314.728 72.5927 315.759 73.7386 316.984 73.4261C317.533 73.2354 317.997 72.8491 318.292 72.337C321.433 67.8105 321.35 61.9202 325.292 57.8387C326.609 56.4751 328.313 55.4145 329.593 54.0508C330.562 53.0402 331.272 51.7988 331.661 50.4373C332.05 49.0757 332.105 47.6364 331.822 46.2476C331.112 43.1226 328.681 40.5658 326.719 37.8195C324.171 34.3404 322.316 30.3791 321.258 26.1621C321.073 25.6717 321.073 25.128 321.258 24.6375C321.63 24.1402 322.109 23.7382 322.657 23.4632C323.725 22.7273 324.495 21.6167 324.824 20.3391C325.153 19.0615 325.018 17.7045 324.444 16.5219C323.33 14.1828 320.88 12.4025 318.117 11.3419C315.314 10.3952 312.421 9.76023 309.487 9.44791C307.553 9.732 305.287 8.60509 304.688 7.01416C304.421 6.30392 304.421 5.53687 304.154 4.82663C303.792 4.11337 303.268 3.50014 302.627 3.03867C301.986 2.5772 301.246 2.28102 300.47 2.17509C298.823 1.90112 297.136 2.02431 295.543 2.53495C293.701 3.06526 291.61 3.86071 290.017 2.93266C289.179 2.4497 288.718 1.56902 287.815 1.17129C285.973 0.375825 284.076 1.98568 282.759 3.31145C281.49 4.70249 279.931 5.78053 278.2 6.46492C277.286 6.823 276.307 6.97369 275.331 6.90668C274.355 6.83967 273.405 6.55652 272.545 6.07665C271.283 5.25278 270.648 3.927 269.644 2.87585C267.748 1.1372 265.321 0.13258 262.782 0.0348994C260.171 -0.107548 257.556 0.186699 255.037 0.906136C250.228 2.11092 245.637 4.09265 241.433 6.77741C239.318 7.97225 237.524 9.6868 236.211 11.768C235.434 13.3638 235.033 15.1254 235.041 16.9101C234.839 22.5068 236.644 28.397 241.35 32.3175C238.477 33.5486 237.51 36.5695 236.837 39.2495C235.76 43.5298 234.682 47.8765 235.087 52.2326C235.29 54.4864 235.889 56.7402 235.566 58.9846C235.308 60.0413 235.166 61.1245 235.143 62.2138C235.278 62.8137 235.584 63.3585 236.022 63.7785C236.46 64.1985 237.01 64.4747 237.602 64.5718Z" fill="black"/>
<path d="M133 181.668V167.407C133 167.3 133.043 167.198 133.121 167.122C133.198 167.047 133.303 167.004 133.412 167.004H135.068C135.177 167.004 135.282 167.047 135.359 167.122C135.436 167.198 135.479 167.3 135.479 167.407V173.341L142.199 167.249C142.357 167.12 142.549 167.037 142.753 167.01C142.956 166.983 143.164 167.012 143.352 167.094C143.539 167.176 143.7 167.309 143.814 167.476C143.929 167.643 143.993 167.838 144 168.039V180.957C143.993 181.158 143.929 181.353 143.814 181.52C143.7 181.688 143.539 181.82 143.352 181.902C143.164 181.984 142.956 182.014 142.753 181.986C142.549 181.959 142.357 181.876 142.199 181.747L135.479 175.695V181.597C135.479 181.704 135.436 181.806 135.359 181.882C135.282 181.957 135.177 182 135.068 182H133.412C133.314 182.001 133.219 181.969 133.144 181.908C133.068 181.847 133.017 181.762 133 181.668Z" fill="black"/>
<path d="M295 167.38V181.598C295 181.652 294.991 181.705 294.974 181.754C294.956 181.803 294.931 181.848 294.899 181.885C294.867 181.923 294.829 181.952 294.787 181.972C294.745 181.991 294.701 182.001 294.656 182H293.331C293.242 182 293.156 181.958 293.092 181.882C293.029 181.807 292.993 181.705 292.993 181.598V175.683L287.483 181.748C287.353 181.876 287.196 181.957 287.028 181.984C286.861 182.011 286.691 181.982 286.537 181.9C286.382 181.819 286.251 181.687 286.156 181.521C286.061 181.355 286.007 181.161 286 180.96V168.034C286.007 167.833 286.061 167.639 286.156 167.473C286.251 167.307 286.382 167.176 286.537 167.094C286.691 167.012 286.861 166.983 287.028 167.01C287.196 167.037 287.353 167.119 287.483 167.246L292.993 173.28V167.404C292.993 167.297 293.029 167.195 293.092 167.12C293.156 167.044 293.242 167.002 293.331 167.002H294.656C294.743 167 294.828 167.038 294.892 167.109C294.956 167.179 294.995 167.276 295 167.38Z" fill="black"/>
<path d="M210.12 182H206.687C206.239 182 205.81 181.844 205.494 181.567C205.178 181.289 205 180.913 205 180.521V169.478C205 169.086 205.178 168.71 205.494 168.433C205.81 168.156 206.239 168 206.687 168H210.12C210.567 168 210.996 168.156 211.312 168.433C211.629 168.71 211.807 169.086 211.807 169.478V180.521C211.807 180.913 211.629 181.289 211.312 181.567C210.996 181.844 210.567 182 210.12 182ZM221 180.521V169.478C221 169.086 220.822 168.71 220.506 168.433C220.19 168.156 219.761 168 219.313 168H215.847C215.399 168 214.97 168.156 214.654 168.433C214.337 168.71 214.16 169.086 214.16 169.478V180.521C214.16 180.913 214.337 181.289 214.654 181.567C214.97 181.844 215.399 182 215.847 182H219.279C219.504 182.004 219.727 181.968 219.935 181.896C220.144 181.823 220.334 181.715 220.494 181.577C220.654 181.44 220.782 181.275 220.868 181.094C220.955 180.913 221 180.718 221 180.521Z" fill="black"/>
<path d="M429 153H8V155H429V153Z" fill="white" stroke="white" stroke-width="4" stroke-linecap="round"/>
<path d="M258 153H0V155H258V153Z" fill="white" stroke="black" stroke-width="3" stroke-linecap="round"/>
</g>
<defs>
<clipPath id="clip0">
<rect width="429" height="194" fill="white"/>
</clipPath>
</defs>
</svg>
