<svg width="373" height="378" viewBox="0 0 373 378" fill="none" xmlns="http://www.w3.org/2000/svg">
<path d="M319.544 160.508V282.411H2V160.508C1.99958 120.053 17.4932 81.1283 45.3074 51.7078C73.1215 22.2873 111.151 4.59736 151.606 2.26147C154.637 2.08502 157.693 1.99788 160.772 2.00004C162.527 2.00004 164.275 2.02617 166.01 2.09154C206.296 3.36424 244.576 19.9372 273.039 48.428C273.897 49.2843 274.741 50.1471 275.586 51.023C303.81 80.508 319.555 119.724 319.544 160.508Z" fill="white" stroke="black" stroke-width="3" stroke-linecap="round"/>
<path d="M166.012 2.09157V282.411H151.607V2.26147C154.639 2.08502 157.694 1.99788 160.774 2.00004C162.528 2.00004 164.276 2.02617 166.012 2.09157Z" fill="#FFD749" stroke="black" stroke-width="3" stroke-linecap="round"/>
<path fill-rule="evenodd" clip-rule="evenodd" d="M295.378 106.584H182.836V296.793H295.378V106.584ZM222.082 138.717H205.059V155.712H222.082V138.717ZM232.486 138.717H249.51V155.712H232.486V138.717ZM276.935 138.717H259.912V155.712H276.935V138.717ZM205.533 177.428H222.557V194.423H205.533V177.428ZM249.982 177.428H232.959V194.423H249.982V177.428ZM260.385 177.428H277.408V194.423H260.385V177.428Z" fill="#FFD749"/>
<path d="M182.836 106.584V105.084H181.336V106.584H182.836ZM295.378 106.584H296.878V105.084H295.378V106.584ZM182.836 296.793H181.336V298.293H182.836V296.793ZM295.378 296.793V298.293H296.878V296.793H295.378ZM205.059 138.717V137.217H203.559V138.717H205.059ZM222.082 138.717H223.582V137.217H222.082V138.717ZM205.059 155.712H203.559V157.212H205.059V155.712ZM222.082 155.712V157.212H223.582V155.712H222.082ZM249.51 138.717H251.01V137.217H249.51V138.717ZM232.486 138.717V137.217H230.986V138.717H232.486ZM249.51 155.712V157.212H251.01V155.712H249.51ZM232.486 155.712H230.986V157.212H232.486V155.712ZM259.912 138.717V137.217H258.412V138.717H259.912ZM276.935 138.717H278.435V137.217H276.935V138.717ZM259.912 155.712H258.412V157.212H259.912V155.712ZM276.935 155.712V157.212H278.435V155.712H276.935ZM222.557 177.428H224.057V175.928H222.557V177.428ZM205.533 177.428V175.928H204.033V177.428H205.533ZM222.557 194.423V195.923H224.057V194.423H222.557ZM205.533 194.423H204.033V195.923H205.533V194.423ZM232.959 177.428V175.928H231.459V177.428H232.959ZM249.982 177.428H251.482V175.928H249.982V177.428ZM232.959 194.423H231.459V195.923H232.959V194.423ZM249.982 194.423V195.923H251.482V194.423H249.982ZM277.408 177.428H278.908V175.928H277.408V177.428ZM260.385 177.428V175.928H258.885V177.428H260.385ZM277.408 194.423V195.923H278.908V194.423H277.408ZM260.385 194.423H258.885V195.923H260.385V194.423ZM182.836 108.084H295.378V105.084H182.836V108.084ZM184.336 296.793V106.584H181.336V296.793H184.336ZM295.378 295.293H182.836V298.293H295.378V295.293ZM293.878 106.584V296.793H296.878V106.584H293.878ZM205.059 140.217H222.082V137.217H205.059V140.217ZM206.559 155.712V138.717H203.559V155.712H206.559ZM222.082 154.212H205.059V157.212H222.082V154.212ZM220.582 138.717V155.712H223.582V138.717H220.582ZM249.51 137.217H232.486V140.217H249.51V137.217ZM251.01 155.712V138.717H248.01V155.712H251.01ZM232.486 157.212H249.51V154.212H232.486V157.212ZM230.986 138.717V155.712H233.986V138.717H230.986ZM259.912 140.217H276.935V137.217H259.912V140.217ZM261.412 155.712V138.717H258.412V155.712H261.412ZM276.935 154.212H259.912V157.212H276.935V154.212ZM275.435 138.717V155.712H278.435V138.717H275.435ZM222.557 175.928H205.533V178.928H222.557V175.928ZM224.057 194.423V177.428H221.057V194.423H224.057ZM205.533 195.923H222.557V192.923H205.533V195.923ZM204.033 177.428V194.423H207.033V177.428H204.033ZM232.959 178.928H249.982V175.928H232.959V178.928ZM234.459 194.423V177.428H231.459V194.423H234.459ZM249.982 192.923H232.959V195.923H249.982V192.923ZM248.482 177.428V194.423H251.482V177.428H248.482ZM277.408 175.928H260.385V178.928H277.408V175.928ZM278.908 194.423V177.428H275.908V194.423H278.908ZM260.385 195.923H277.408V192.923H260.385V195.923ZM258.885 177.428V194.423H261.885V177.428H258.885Z" fill="black"/>
<path d="M39.7457 243.735C52.7036 243.735 63.2081 233.248 63.2081 220.312C63.2081 207.376 52.7036 196.889 39.7457 196.889C26.7877 196.889 16.2832 207.376 16.2832 220.312C16.2832 233.248 26.7877 243.735 39.7457 243.735Z" fill="#FFD749" stroke="black" stroke-width="3" stroke-linecap="round"/>
<path d="M39.8122 220.312H39.8767L41.0372 286.721H38.5879L39.8122 220.312Z" fill="#FFD749" stroke="black" stroke-width="3" stroke-linecap="round"/>
<path d="M108.726 221.354C128.431 221.354 144.405 205.407 144.405 185.735C144.405 166.063 128.431 150.115 108.726 150.115C89.0208 150.115 73.0469 166.063 73.0469 185.735C73.0469 205.407 89.0208 221.354 108.726 221.354Z" fill="#FFD749" stroke="black" stroke-width="3" stroke-linecap="round"/>
<path d="M108.823 185.734H108.921L110.685 286.721H106.961L108.823 185.734Z" fill="#FFD749" stroke="black" stroke-width="3" stroke-linecap="round"/>
<path d="M363.01 366.671L358.356 367.217C354.68 369.429 350.366 370.262 345.587 370.093C344.92 370.073 344.27 369.879 343.701 369.531C343.132 369.183 342.664 368.692 342.343 368.108C342.065 367.596 341.909 367.026 341.887 366.443C341.866 365.86 341.979 365.281 342.219 364.749C342.458 364.217 342.818 363.748 343.269 363.378C343.72 363.007 344.25 362.746 344.819 362.613L348.355 361.791L356.888 353.459L362.036 344.158L369.514 345.014L371.07 356.828C371.268 359.192 370.538 361.54 369.034 363.377C367.53 365.213 365.37 366.394 363.01 366.671Z" fill="white" stroke="black" stroke-width="3" stroke-linecap="round"/>
<path d="M290.529 360.695L285.968 361.766C282.568 364.383 278.377 365.701 273.61 366.076C272.945 366.132 272.277 366.014 271.672 365.733C271.067 365.452 270.546 365.017 270.161 364.473C269.826 363.996 269.606 363.447 269.518 362.871C269.43 362.295 269.476 361.706 269.654 361.15C269.831 360.595 270.135 360.088 270.54 359.668C270.946 359.249 271.443 358.929 271.993 358.733L275.413 357.514L282.939 348.266L286.992 338.439H294.519L297.414 350C297.88 352.326 297.422 354.741 296.137 356.737C294.853 358.732 292.842 360.151 290.529 360.695Z" fill="white" stroke="black" stroke-width="3" stroke-linecap="round"/>
<path d="M286.788 339.094L295.299 340.402L308.721 272.75L331.964 233.205L360.117 348.245L370.593 350.206C369.418 285.422 375.152 203.863 362.082 193.986L305.12 200.523L280.24 267.194L286.788 339.094Z" fill="black"/>
<path d="M328.034 93.3258C338.882 93.3258 347.676 84.5465 347.676 73.7166C347.676 62.8868 338.882 54.1074 328.034 54.1074C317.187 54.1074 308.393 62.8868 308.393 73.7166C308.393 84.5465 317.187 93.3258 328.034 93.3258Z" fill="white" stroke="black" stroke-width="3" stroke-linecap="round"/>
<path d="M355.535 103.782L331.965 107.704L329 86.4629L343.095 81.5586L355.535 103.782Z" fill="white" stroke="black" stroke-width="3" stroke-linecap="round"/>
<path d="M365.354 196.599L302.5 202.481C307.539 184.989 312.156 167.558 308.393 150.19C303.614 134.685 308.226 125.464 320.832 118.162L329.344 99.2063L352.26 96.5918C358.328 106.333 360.81 117.879 359.28 129.248C356.015 153.97 356.897 176.911 365.354 196.599Z" fill="#FFD749" stroke="black" stroke-width="3" stroke-linecap="round"/>
<path d="M327.593 50.557C321.038 52.0522 313.577 54.1707 313.158 56.1397C306.415 57.8361 301.325 61.8996 300.286 68.0944C300.199 68.6298 300.231 69.1777 300.379 69.6995C300.528 70.2213 300.789 70.7044 301.144 71.1146C301.499 71.5248 301.941 71.8522 302.437 72.0737C302.932 72.2953 303.471 72.4056 304.014 72.3968C307.681 72.3497 313.187 71.999 316.822 70.4832C327.382 77.2762 329.155 94.9439 324.543 106.97L331.8 106.306L339.308 84.3639L341.225 105.443L357.786 103.257L355.653 76.3772C354.997 70.0418 352.838 63.9539 349.353 58.6187C348.991 58.0829 348.595 57.5708 348.168 57.0856C345.649 54.2441 342.405 52.1367 338.783 50.9872C335.16 49.8377 331.293 49.6891 327.593 50.557Z" fill="black"/>
<path d="M286 373.415C285.965 373.735 285.997 374.058 286.094 374.365C286.192 374.672 286.353 374.955 286.566 375.196C286.78 375.437 287.042 375.63 287.336 375.764C287.629 375.898 287.947 375.968 288.269 375.972L295.635 376.047C296.032 376.02 296.403 375.843 296.674 375.553C296.945 375.262 297.096 374.88 297.096 374.483C297.096 374.17 297.002 373.863 296.826 373.604C296.65 373.344 296.4 373.144 296.109 373.027L293.936 372.159L290.775 367.742H288.247C287.006 369.395 286.23 371.349 286.002 373.402L286 373.415H286Z" fill="white" stroke="black" stroke-width="3" stroke-linecap="round"/>
<path d="M268.369 373.415C268.405 373.735 268.373 374.058 268.275 374.365C268.178 374.672 268.017 374.955 267.803 375.196C267.59 375.437 267.327 375.63 267.034 375.764C266.741 375.898 266.423 375.968 266.1 375.972L258.735 376.047C258.338 376.02 257.967 375.843 257.695 375.553C257.424 375.262 257.273 374.88 257.273 374.483C257.273 374.17 257.368 373.863 257.543 373.604C257.719 373.344 257.969 373.144 258.261 373.027L260.434 372.159L263.594 367.742H266.123C267.364 369.395 268.139 371.349 268.368 373.402L268.369 373.415Z" fill="white" stroke="black" stroke-width="3" stroke-linecap="round"/>
<path d="M262.963 367.743H266.755L280.029 310.319L286.982 368.374H291.407L297.411 293.597L266.755 293.281L262.963 367.743Z" fill="black"/>
<path d="M245.896 262.36H250.953V250.37L252.103 248.074C252.334 247.613 252.453 247.104 252.449 246.589C252.446 246.073 252.32 245.566 252.083 245.108C251.846 244.651 251.504 244.255 251.085 243.955C250.666 243.654 250.181 243.456 249.671 243.378C249.204 243.306 248.727 243.336 248.273 243.466C247.819 243.595 247.398 243.821 247.04 244.128C246.681 244.435 246.393 244.816 246.196 245.245C245.999 245.673 245.896 246.139 245.896 246.611V262.36Z" fill="white" stroke="black" stroke-width="3" stroke-linecap="round"/>
<path d="M271.18 240.906H283.189V227.024H271.18V240.906Z" fill="white" stroke="black" stroke-width="3" stroke-linecap="round"/>
<path d="M314.579 238.126L310.156 240.574L304.334 230.087L302.213 228.635C301.787 228.343 301.436 227.956 301.189 227.503C300.942 227.051 300.805 226.546 300.79 226.031C300.776 225.516 300.883 225.005 301.103 224.539C301.324 224.073 301.652 223.666 302.06 223.35C302.433 223.062 302.865 222.857 303.325 222.751C303.785 222.644 304.263 222.638 304.726 222.733C305.189 222.828 305.625 223.022 306.006 223.301C306.387 223.581 306.702 223.939 306.931 224.351L308.757 227.64L314.579 238.126Z" fill="white" stroke="black" stroke-width="3" stroke-linecap="round"/>
<path fill-rule="evenodd" clip-rule="evenodd" d="M296.463 237.125L296.463 237.119L283.189 236.488L269.283 238.381L262.33 244.061L262.415 245.433L254.113 259.203L251.585 256.679L244 262.358L252.849 274.348L263.686 265.988L265.49 295.174C276.121 301.723 287.359 301.083 298.991 295.805L297.099 251.882L306.611 246.84L315.427 242.168L316.692 234.595L311.003 228.916L304.05 233.333L304.682 238.381L296.465 237.119L296.463 237.125Z" fill="#FFD749"/>
<path d="M296.463 237.119L297.961 237.055L297.902 235.686L296.534 235.621L296.463 237.119ZM296.463 237.125L294.964 237.19L297.876 237.629L296.463 237.125ZM283.189 236.488L283.26 234.99L283.123 234.983L282.986 235.002L283.189 236.488ZM269.283 238.381L269.081 236.895L268.662 236.952L268.334 237.22L269.283 238.381ZM262.33 244.061L261.381 242.899L260.785 243.386L260.833 244.153L262.33 244.061ZM262.415 245.433L263.7 246.208L263.941 245.807L263.912 245.341L262.415 245.433ZM254.113 259.203L253.054 260.265L254.409 261.618L255.398 259.978L254.113 259.203ZM251.585 256.679L252.645 255.618L251.726 254.7L250.686 255.478L251.585 256.679ZM244 262.358L243.101 261.158L241.908 262.051L242.793 263.249L244 262.358ZM252.849 274.348L251.642 275.239L252.552 276.472L253.765 275.536L252.849 274.348ZM263.686 265.988L265.183 265.896L265.009 263.073L262.77 264.8L263.686 265.988ZM265.49 295.174L263.993 295.267L264.041 296.043L264.704 296.451L265.49 295.174ZM298.991 295.805L299.611 297.171L300.533 296.753L300.49 295.741L298.991 295.805ZM297.099 251.882L296.396 250.556L295.559 251L295.6 251.946L297.099 251.882ZM306.611 246.84L305.908 245.515L306.611 246.84ZM315.427 242.168L316.13 243.493L316.785 243.146L316.907 242.415L315.427 242.168ZM316.692 234.595L318.171 234.842L318.298 234.08L317.751 233.534L316.692 234.595ZM311.003 228.916L312.063 227.854L311.213 227.006L310.199 227.65L311.003 228.916ZM304.05 233.333L303.246 232.067L302.444 232.577L302.562 233.52L304.05 233.333ZM304.682 238.381L304.454 239.864L306.417 240.166L306.17 238.195L304.682 238.381ZM296.465 237.119L296.693 235.637L295.468 235.449L295.052 236.616L296.465 237.119ZM294.964 237.184L294.964 237.19L297.961 237.061L297.961 237.055L294.964 237.184ZM283.118 237.987L296.391 238.618L296.534 235.621L283.26 234.99L283.118 237.987ZM269.485 239.868L283.391 237.975L282.986 235.002L269.081 236.895L269.485 239.868ZM263.279 245.222L270.232 239.543L268.334 237.22L261.381 242.899L263.279 245.222ZM263.912 245.341L263.827 243.968L260.833 244.153L260.918 245.526L263.912 245.341ZM255.398 259.978L263.7 246.208L261.13 244.659L252.829 258.429L255.398 259.978ZM250.525 257.741L253.054 260.265L255.173 258.142L252.645 255.618L250.525 257.741ZM244.899 263.559L252.484 257.88L250.686 255.478L243.101 261.158L244.899 263.559ZM254.056 273.457L245.207 261.468L242.793 263.249L251.642 275.239L254.056 273.457ZM262.77 264.8L251.933 273.16L253.765 275.536L264.602 267.176L262.77 264.8ZM266.988 295.082L265.183 265.896L262.189 266.081L263.993 295.267L266.988 295.082ZM298.371 294.439C287.056 299.573 276.368 300.114 266.277 293.897L264.704 296.451C275.874 303.333 287.663 302.592 299.611 297.171L298.371 294.439ZM295.6 251.946L297.492 295.87L300.49 295.741L298.597 251.817L295.6 251.946ZM297.801 253.207L307.313 248.166L305.908 245.515L296.396 250.556L297.801 253.207ZM307.313 248.166L316.13 243.493L314.725 240.842L305.908 245.515L307.313 248.166ZM316.907 242.415L318.171 234.842L315.212 234.348L313.948 241.921L316.907 242.415ZM317.751 233.534L312.063 227.854L309.943 229.978L315.632 235.657L317.751 233.534ZM310.199 227.65L303.246 232.067L304.854 234.599L311.807 230.182L310.199 227.65ZM302.562 233.52L303.194 238.568L306.17 238.195L305.538 233.147L302.562 233.52ZM304.91 236.899L296.693 235.637L296.237 238.602L304.454 239.864L304.91 236.899ZM295.052 236.616L295.05 236.622L297.876 237.629L297.878 237.623L295.052 236.616Z" fill="black"/>
<path d="M278.449 230.494C286.129 230.494 292.355 224.278 292.355 216.611C292.355 208.944 286.129 202.729 278.449 202.729C270.769 202.729 264.543 208.944 264.543 216.611C264.543 224.278 270.769 230.494 278.449 230.494Z" fill="black"/>
<path d="M286.036 207.144C289.527 207.144 292.357 204.319 292.357 200.834C292.357 197.349 289.527 194.523 286.036 194.523C282.545 194.523 279.715 197.349 279.715 200.834C279.715 204.319 282.545 207.144 286.036 207.144Z" fill="black"/>
<path d="M285.728 206.11C286.981 206.763 288.417 206.978 289.807 206.72C291.197 206.462 292.46 205.747 293.394 204.688C294.328 203.629 294.88 202.288 294.961 200.879C295.042 199.47 294.647 198.075 293.84 196.916C294.571 197.465 295.174 198.166 295.607 198.97C296.04 199.774 296.293 200.663 296.348 201.574C296.403 202.485 296.26 203.398 295.927 204.248C295.595 205.099 295.081 205.867 294.422 206.5C293.763 207.133 292.974 207.616 292.11 207.915C291.246 208.214 290.327 208.322 289.417 208.231C288.507 208.141 287.628 207.854 286.839 207.391C286.051 206.928 285.373 206.3 284.852 205.55C285.128 205.76 285.421 205.948 285.728 206.11Z" fill="black"/>
<path d="M324.761 216.209L325.195 231.384C325.255 233.476 324.519 235.513 323.134 237.084C321.75 238.656 319.821 239.645 317.735 239.854C316.4 239.987 315.051 239.794 313.806 239.292C312.562 238.79 311.458 237.994 310.589 236.972C309.721 235.949 309.115 234.732 308.822 233.424C308.53 232.115 308.56 230.756 308.91 229.462L312.321 216.863L322.142 163.265L321.487 131.89L342.439 131.236L338.51 166.533L324.761 216.209Z" fill="white" stroke="black" stroke-width="3" stroke-linecap="round"/>
<path d="M343.75 134.502C336.159 131.616 327.77 131.616 320.18 134.502L321.489 108.357C321.489 105.583 322.593 102.923 324.557 100.962C326.522 99.0003 329.187 97.8984 331.965 97.8984C334.743 97.8984 337.408 99.0003 339.372 100.962C341.337 102.923 342.441 105.583 342.441 108.357L343.75 134.502Z" fill="#FFD749" stroke="black" stroke-width="3" stroke-linecap="round"/>
</svg>
