<svg width="351" height="246" viewBox="0 0 351 246" fill="none" xmlns="http://www.w3.org/2000/svg">
<g clip-path="url(#clip0)">
<path d="M220.839 139.624C230.175 139.624 237.744 132.049 237.744 122.704C237.744 113.36 230.175 105.785 220.839 105.785C211.502 105.785 203.934 113.36 203.934 122.704C203.934 132.049 211.502 139.624 220.839 139.624Z" fill="#EAEAEA"/>
<path d="M219.961 101.18C221.649 108.549 223.08 115.972 224.257 123.451C224.611 125.673 224.926 128.017 224.121 130.118C223.447 131.869 222.075 133.238 220.999 134.771C219.923 136.304 219.108 138.269 219.763 140.026C220.417 141.782 222.327 142.743 224.15 143.238C229.367 144.645 234.927 143.621 240.12 142.098C242.471 141.492 244.724 140.558 246.815 139.322C249.016 137.925 250.819 135.984 252.477 133.985C260.045 124.8 265 113.776 269.664 102.82C266.667 103.093 263.648 102.648 260.857 101.523C258.066 100.398 255.582 98.6235 253.612 96.3475C251.702 94.101 250.301 90.9714 251.377 88.2251C248.221 89.9573 244.473 90.0737 241.075 91.2576C238.967 92.0632 236.938 93.0622 235.015 94.2417C232.694 95.5841 230.386 96.9523 228.092 98.3465C225.469 99.9283 223.011 101.335 219.961 101.18Z" fill="white" stroke="black" stroke-width="3" stroke-linecap="round"/>
<path d="M255.319 113.883C252.356 119.652 248.502 125.198 243 128.633C237.497 132.069 230.089 133 224.577 129.604C221.862 127.944 219.807 125.421 217.436 123.296C215.065 121.171 212.103 119.351 208.918 119.628C205.408 119.934 202.659 122.675 200.308 125.3C196.739 129.288 193.292 133.447 190.767 138.168C185.919 147.241 184.77 157.848 184.983 168.134C185.196 178.42 186.685 188.653 186.719 198.94C186.767 211.594 184.624 224.146 182.457 236.611C202.383 234.156 222.332 239.523 242.302 241.556C255.081 242.87 267.958 242.841 280.805 242.807C283.064 242.807 285.469 242.749 287.35 241.497C288.5 240.658 289.429 239.553 290.06 238.276C291.834 235 292.547 231.264 293.041 227.572C294.297 218.246 294.336 208.804 294.37 199.391C294.457 176.586 294.539 153.699 291.645 131.074C290.933 125.509 290.021 119.914 287.888 114.708C285.755 109.502 282.274 104.713 277.406 101.923C274.279 100.127 267.032 97.0027 263.347 98.8125C259.212 100.831 257.301 110.021 255.319 113.883Z" fill="#EAEAEA" stroke="black" stroke-width="3" stroke-linecap="round"/>
<path d="M256.792 178.28C256.041 164.209 252.982 149.192 259.492 136.702C261.092 133.636 255.352 129.808 257.127 126.838C259.292 123.218 260.934 119.309 262.004 115.227C262.372 113.825 262.668 112.34 262.319 110.933C261.674 108.366 259.139 106.838 256.986 105.276C254.61 103.548 253.389 98.2837 252.623 95.4355C251.857 92.5874 258.717 96.0178 261.475 95.0037C265.305 93.6014 270.173 94.4845 273.993 95.9062C276.126 96.6922 276.444 95.7601 278.717 95.8184C283.134 95.9348 287.565 96.0464 291.948 95.503C293.916 95.2555 295.889 94.8819 297.867 94.9935C302.914 95.2798 307.301 98.7345 310.288 102.82C313.274 106.905 315.175 111.665 317.623 116.09C319.664 119.778 324.098 124.262 325.838 128.1C327.38 131.496 328.354 135.145 329.319 138.774L331.806 148.085C332.241 149.417 332.448 150.813 332.417 152.214C332.291 153.704 331.632 155.092 330.963 156.416C328.433 161.326 325.399 165.959 321.911 170.24C316.68 176.659 310.329 182.448 307.222 190.133C306.01 193.127 305.336 196.31 304.72 199.483C302.238 212.175 298.954 246.989 297.916 259.88C292.251 257.257 286.313 255.27 280.211 253.956C277.169 253.304 274.094 252.818 271 252.5C268.29 252.219 264.794 252.752 262.215 252.015C257.9 250.787 258.945 221.492 258.29 217.669C257.243 211.58 257.034 205.383 256.996 199.231C256.947 192.234 257.165 185.252 256.792 178.28Z" fill="#FFD749" stroke="black" stroke-width="3" stroke-linecap="round"/>
<path fill-rule="evenodd" clip-rule="evenodd" d="M224.699 120.525L224.699 120.525L224.517 120.693L224.318 120.873L224.517 122.5C223.408 123.458 223.712 124.439 224.052 125.534L224.052 125.534C224.148 125.846 224.248 126.167 224.318 126.5V130C223.153 132 221.977 137.884 222.665 142.915C223.138 146.388 222.319 149.264 221.479 152.215C220.802 154.592 220.111 157.017 220.072 159.84C220.012 163.965 219.751 168.077 219.491 172.188C219.2 176.78 218.909 181.37 218.898 185.973C218.898 187.953 218.942 189.927 219.029 191.907C219.17 195.124 219.412 198.336 219.703 201.548C219.931 204.098 220.192 206.644 220.453 209.191C220.553 210.163 220.653 211.134 220.75 212.106C221.032 214.828 221.298 217.545 221.521 220.263C221.633 221.67 221.739 223.072 221.827 224.479C221.928 226.129 222.011 227.783 222.059 229.433C222.093 230.481 222.113 231.524 222.113 232.572V234.353C222.113 235.488 222.082 236.62 222.021 237.749C221.956 239.202 221.857 240.657 221.725 242.116C221.574 243.703 221.308 245.435 220.193 246.551C220.125 246.619 220.053 246.682 219.98 246.744L219.979 246.745L218.409 246.551C207.58 245.254 196.649 245.059 185.781 245.969C186.019 244.329 186.237 242.694 186.45 241.049C186.547 240.272 186.644 239.491 186.736 238.71C186.843 237.817 186.945 236.925 187.042 236.032C187.153 235.061 187.255 234.091 187.352 233.121C187.604 230.62 187.825 228.118 188.016 225.614C188.297 221.962 188.511 218.304 188.656 214.639C188.727 212.889 188.782 211.137 188.821 209.384C188.876 207.21 188.902 205.035 188.899 202.858C188.899 200.743 188.881 198.624 188.845 196.502C188.845 195.803 188.816 195.105 188.758 194.411C188.737 194.098 187.329 194.274 185.91 194.451C184.492 194.628 183.065 194.806 183 194.5C182.64 193.087 186 188 186 188V187.789C185.685 188.048 185.361 188.297 185.025 188.55C184.771 188.728 184.51 188.9 184.249 189.072L184.249 189.072C183.49 189.572 182.729 190.074 182.116 190.752C181.804 191.101 181.558 191.504 181.389 191.941C181.237 192.282 181.158 192.652 181.158 193.026C181.158 193.399 181.237 193.769 181.389 194.11C179.399 194.991 177.132 194.88 174.885 194.77L174.884 194.77C174.521 194.753 174.158 194.735 173.797 194.721C171.562 194.639 169.395 194.721 167.601 195.949C165.109 197.667 164.358 200.966 163.955 203.965C163.807 205.058 163.679 206.153 163.572 207.249C163.469 208.268 163.385 209.291 163.32 210.316C163.1 213.708 163.07 217.11 163.228 220.505C163.254 221.126 163.288 221.747 163.33 222.368C155.408 222.179 148.189 218.045 141.358 214.028C139.797 213.111 138.188 212.145 137.174 210.631C136.241 209.145 135.846 207.382 136.055 205.639C136.055 205.442 136.082 205.252 136.11 205.056C136.118 205.005 136.125 204.953 136.132 204.901C136.349 203.461 136.722 202.049 137.242 200.689C139.38 194.898 142.53 189.534 146.546 184.847C146.781 184.573 147.02 184.299 147.26 184.024C148.79 182.271 150.345 180.49 151.045 178.287C151.22 177.739 151.34 177.173 151.46 176.608C151.584 176.029 151.707 175.451 151.888 174.891C152.725 172.399 154.697 170.59 156.676 168.773C158.504 167.096 160.339 165.412 161.294 163.178C161.492 162.723 161.647 162.249 161.802 161.776C162.025 161.094 162.248 160.412 162.603 159.782C163.144 158.894 163.842 158.113 164.663 157.477C164.963 157.226 165.273 156.982 165.582 156.74L165.582 156.74L165.749 156.608C169.152 153.94 172.43 151.121 175.584 148.152C175.665 147.946 175.751 147.726 175.84 147.497C176.693 145.307 177.881 142.257 178.54 141.942C178.722 141.685 179.483 140.626 180.153 140.058C181.063 139.284 182.18 138.751 183.287 138.222C184.957 137.425 186.602 136.639 187.468 135.06C187.809 134.442 187.989 133.756 188.17 133.07L188.17 133.07L188.17 133.069C188.308 132.545 188.446 132.019 188.656 131.523C189.5 129.543 191.3 128.321 193.123 127.084C194.307 126.281 195.5 125.472 196.447 124.444C197.829 122.944 198.615 121.085 199.403 119.223L199.403 119.223C199.986 117.844 200.57 116.463 201.397 115.225C202.849 113.099 204.863 111.419 207.215 110.373C207.408 110.281 207.607 110.188 207.806 110.106C211.83 108.383 216.61 107.99 220.779 108C222.399 108 226.597 108.049 228.653 108.869C228.986 108.988 229.291 109.175 229.55 109.417C231.741 111.804 228.333 116.846 226.713 118.573C226.072 119.25 225.382 119.891 224.699 120.525Z" fill="#FFD749"/>
<path d="M224.699 120.525L225.719 121.624L225.729 121.615L224.699 120.525ZM224.699 120.525L223.679 119.425L223.669 119.434L224.699 120.525ZM224.517 120.693L225.523 121.806L225.53 121.8L225.538 121.793L224.517 120.693ZM224.318 120.873L223.313 119.76L222.735 120.282L222.83 121.055L224.318 120.873ZM224.517 122.5L225.498 123.635L226.103 123.112L226.006 122.318L224.517 122.5ZM224.052 125.534L225.494 125.122L225.489 125.106L225.484 125.09L224.052 125.534ZM224.052 125.534L222.609 125.946L222.614 125.963L222.619 125.979L224.052 125.534ZM224.318 126.5H225.818V126.343L225.786 126.189L224.318 126.5ZM224.318 130L225.615 130.755L225.818 130.405V130H224.318ZM222.665 142.915L224.152 142.713L224.151 142.712L222.665 142.915ZM221.479 152.215L220.036 151.804V151.804L221.479 152.215ZM220.072 159.84L221.571 159.861L221.571 159.861L220.072 159.84ZM219.491 172.188L217.994 172.093L219.491 172.188ZM218.898 185.973L217.398 185.97V185.973H218.898ZM219.029 191.907L220.528 191.842L220.528 191.841L219.029 191.907ZM219.703 201.548L221.197 201.414L221.197 201.413L219.703 201.548ZM220.453 209.191L218.961 209.344V209.344L220.453 209.191ZM220.75 212.106L219.258 212.256L219.258 212.26L220.75 212.106ZM221.521 220.263L223.016 220.144L223.016 220.14L221.521 220.263ZM221.827 224.479L223.324 224.387L223.324 224.386L221.827 224.479ZM222.059 229.433L220.56 229.477L220.56 229.481L222.059 229.433ZM222.021 237.749L220.523 237.668L220.522 237.675L220.522 237.683L222.021 237.749ZM221.725 242.116L223.218 242.258L223.219 242.252L221.725 242.116ZM220.193 246.551L221.254 247.611L221.254 247.611L220.193 246.551ZM219.98 246.744L218.997 245.611L218.995 245.614L219.98 246.744ZM219.979 246.745L219.796 248.234L220.46 248.316L220.965 247.876L219.979 246.745ZM218.409 246.551L218.593 245.062L218.587 245.062L218.409 246.551ZM185.781 245.969L184.297 245.754L184.026 247.621L185.906 247.464L185.781 245.969ZM186.45 241.049L187.938 241.242L187.939 241.235L186.45 241.049ZM186.736 238.71L185.247 238.532L185.247 238.534L186.736 238.71ZM187.042 236.032L185.551 235.861L185.55 235.87L187.042 236.032ZM187.352 233.121L185.86 232.97L185.859 232.971L187.352 233.121ZM188.016 225.614L186.521 225.499L186.521 225.5L188.016 225.614ZM188.656 214.639L187.157 214.578L187.157 214.579L188.656 214.639ZM188.821 209.384L187.321 209.346L187.321 209.351L188.821 209.384ZM188.899 202.858H187.399L187.399 202.86L188.899 202.858ZM188.845 196.502H187.345V196.514L187.345 196.527L188.845 196.502ZM188.758 194.411L187.261 194.511L187.262 194.523L187.263 194.536L188.758 194.411ZM185.91 194.451L186.096 195.939H186.096L185.91 194.451ZM183 194.5L184.468 194.19L184.461 194.16L184.454 194.13L183 194.5ZM186 188L187.252 188.827L187.5 188.451V188H186ZM186 187.789H187.5V184.617L185.048 186.63L186 187.789ZM185.025 188.55L185.888 189.777L185.907 189.763L185.925 189.749L185.025 188.55ZM184.249 189.072L183.423 187.82L183.417 187.824L184.249 189.072ZM184.249 189.072L185.074 190.325L185.081 190.32L184.249 189.072ZM182.116 190.752L181.003 189.747L180.998 189.753L182.116 190.752ZM181.389 191.941L182.759 192.552L182.774 192.517L182.788 192.482L181.389 191.941ZM181.389 194.11L181.996 195.482L183.372 194.873L182.759 193.499L181.389 194.11ZM174.885 194.77L174.799 196.268L174.812 196.269L174.885 194.77ZM174.884 194.77L174.97 193.273L174.957 193.272L174.884 194.77ZM173.797 194.721L173.853 193.222L173.852 193.222L173.797 194.721ZM167.601 195.949L166.754 194.711L166.75 194.714L167.601 195.949ZM163.955 203.965L165.442 204.167L165.442 204.164L163.955 203.965ZM163.572 207.249L165.065 207.401L165.065 207.395L163.572 207.249ZM163.32 210.316L164.817 210.413L164.817 210.41L163.32 210.316ZM163.228 220.505L164.727 220.443L164.726 220.435L163.228 220.505ZM163.33 222.368L163.294 223.868L164.937 223.907L164.826 222.267L163.33 222.368ZM141.358 214.028L142.119 212.735L142.118 212.734L141.358 214.028ZM137.174 210.631L135.904 211.429L135.916 211.447L135.928 211.466L137.174 210.631ZM136.055 205.639L137.544 205.817L137.555 205.728V205.639H136.055ZM136.11 205.056L137.595 205.27L137.595 205.27L136.11 205.056ZM136.132 204.901L134.649 204.677L134.647 204.689L134.646 204.701L136.132 204.901ZM137.242 200.689L138.643 201.226L138.646 201.217L138.65 201.209L137.242 200.689ZM146.546 184.847L147.685 185.823L147.685 185.823L146.546 184.847ZM147.26 184.024L148.39 185.01H148.39L147.26 184.024ZM151.045 178.287L149.616 177.832L149.615 177.833L151.045 178.287ZM151.46 176.608L149.993 176.296L151.46 176.608ZM151.888 174.891L150.466 174.413L150.464 174.421L150.462 174.428L151.888 174.891ZM156.676 168.773L157.69 169.879H157.69L156.676 168.773ZM161.294 163.178L159.919 162.578L159.914 162.589L161.294 163.178ZM161.802 161.776L160.376 161.31L161.802 161.776ZM162.603 159.782L161.322 159L161.308 159.023L161.296 159.046L162.603 159.782ZM164.663 157.477L165.582 158.662L165.604 158.645L165.625 158.628L164.663 157.477ZM165.582 156.74L166.509 157.919L166.519 157.911L165.582 156.74ZM165.582 156.74L164.655 155.561L164.645 155.568L165.582 156.74ZM165.749 156.608L164.823 155.428L164.822 155.429L165.749 156.608ZM175.584 148.152L176.612 149.244L176.857 149.014L176.98 148.7L175.584 148.152ZM175.84 147.497L174.442 146.952L174.442 146.952L175.84 147.497ZM178.54 141.942L179.187 143.296L179.541 143.126L179.767 142.805L178.54 141.942ZM180.153 140.058L181.123 141.201L181.124 141.201L180.153 140.058ZM183.287 138.222L182.641 136.869V136.869L183.287 138.222ZM187.468 135.06L186.154 134.337L186.153 134.339L187.468 135.06ZM188.17 133.07L189.62 133.451L189.628 133.423L189.634 133.395L188.17 133.07ZM188.17 133.07L186.728 132.657L186.715 132.7L186.706 132.744L188.17 133.07ZM188.17 133.069L189.612 133.482L189.616 133.466L189.621 133.451L188.17 133.069ZM188.656 131.523L187.276 130.935L187.275 130.938L188.656 131.523ZM193.123 127.084L193.966 128.326L193.123 127.084ZM196.447 124.444L195.344 123.428L195.344 123.428L196.447 124.444ZM199.403 119.223L200.784 119.807L200.814 119.737L200.836 119.664L199.403 119.223ZM199.403 119.223L198.021 118.638L197.992 118.708L197.969 118.781L199.403 119.223ZM201.397 115.225L200.158 114.379L200.154 114.385L200.149 114.392L201.397 115.225ZM207.215 110.373L207.824 111.743L207.842 111.736L207.859 111.728L207.215 110.373ZM207.806 110.106L208.381 111.491L208.389 111.488L208.396 111.485L207.806 110.106ZM220.779 108L220.776 109.5H220.779V108ZM228.653 108.869L228.097 110.262L228.122 110.272L228.148 110.281L228.653 108.869ZM229.55 109.417L230.655 108.403L230.617 108.362L230.576 108.323L229.55 109.417ZM226.713 118.573L227.803 119.604L227.808 119.599L226.713 118.573ZM225.729 121.615L225.729 121.615L223.669 119.434L223.669 119.434L225.729 121.615ZM225.538 121.793L225.719 121.624L223.678 119.425L223.497 119.594L225.538 121.793ZM225.324 121.986L225.523 121.806L223.512 119.58L223.313 119.76L225.324 121.986ZM226.006 122.318L225.807 120.691L222.83 121.055L223.028 122.682L226.006 122.318ZM225.484 125.09C225.396 124.805 225.332 124.596 225.288 124.402C225.246 124.216 225.237 124.1 225.24 124.026C225.242 123.964 225.253 123.93 225.27 123.896C225.289 123.858 225.343 123.769 225.498 123.635L223.537 121.365C222.694 122.093 222.28 122.956 222.242 123.906C222.21 124.715 222.468 125.493 222.619 125.978L225.484 125.09ZM225.494 125.122L225.494 125.122L222.609 125.946L222.609 125.946L225.494 125.122ZM225.786 126.189C225.699 125.778 225.578 125.392 225.484 125.09L222.619 125.979C222.719 126.301 222.797 126.557 222.851 126.811L225.786 126.189ZM225.818 130V126.5H222.818V130H225.818ZM224.151 142.712C223.831 140.371 223.942 137.79 224.28 135.544C224.625 133.249 225.177 131.506 225.615 130.755L223.022 129.245C222.295 130.494 221.675 132.692 221.313 135.098C220.944 137.551 220.811 140.428 221.179 143.119L224.151 142.712ZM222.921 152.626C223.755 149.697 224.672 146.536 224.152 142.713L221.179 143.118C221.604 146.24 220.883 148.832 220.036 151.804L222.921 152.626ZM221.571 159.861C221.608 157.263 222.24 155.018 222.921 152.626L220.036 151.804C219.364 154.165 218.615 156.77 218.572 159.819L221.571 159.861ZM220.988 172.283C221.248 168.178 221.511 164.029 221.571 159.861L218.572 159.818C218.513 163.901 218.255 167.976 217.994 172.093L220.988 172.283ZM220.398 185.976C220.408 181.426 220.696 176.882 220.988 172.283L217.994 172.093C217.703 176.677 217.409 181.313 217.398 185.97L220.398 185.976ZM220.528 191.841C220.441 189.883 220.398 187.93 220.398 185.973H217.398C217.398 187.975 217.442 189.972 217.531 191.973L220.528 191.841ZM221.197 201.413C220.907 198.215 220.667 195.028 220.528 191.842L217.531 191.973C217.673 195.22 217.917 198.457 218.209 201.683L221.197 201.413ZM221.945 209.038C221.684 206.49 221.424 203.953 221.197 201.414L218.209 201.682C218.438 204.242 218.7 206.799 218.961 209.344L221.945 209.038ZM222.243 211.956C222.145 210.983 222.045 210.009 221.945 209.038L218.961 209.344C219.061 210.316 219.16 211.286 219.258 212.256L222.243 211.956ZM223.016 220.14C222.792 217.407 222.524 214.678 222.242 211.952L219.258 212.26C219.539 214.978 219.804 217.683 220.026 220.385L223.016 220.14ZM223.324 224.386C223.236 222.966 223.128 221.553 223.016 220.144L220.026 220.381C220.137 221.786 220.243 223.178 220.329 224.572L223.324 224.386ZM223.559 229.389C223.51 227.719 223.426 226.048 223.324 224.387L220.329 224.571C220.431 226.21 220.512 227.847 220.56 229.477L223.559 229.389ZM223.613 232.572C223.613 231.506 223.593 230.446 223.559 229.384L220.56 229.481C220.594 230.516 220.613 231.543 220.613 232.572H223.613ZM223.613 234.353V232.572H220.613V234.353H223.613ZM223.518 237.831C223.581 236.675 223.613 235.515 223.613 234.353H220.613C220.613 235.461 220.583 236.566 220.523 237.668L223.518 237.831ZM223.219 242.252C223.353 240.77 223.453 239.292 223.519 237.816L220.522 237.683C220.458 239.112 220.361 240.544 220.231 241.981L223.219 242.252ZM221.254 247.611C222.798 246.066 223.073 243.792 223.218 242.258L220.231 241.975C220.076 243.614 219.818 244.804 219.132 245.491L221.254 247.611ZM220.963 247.877C221.029 247.821 221.142 247.723 221.254 247.611L219.132 245.491C219.108 245.514 219.077 245.543 218.997 245.611L220.963 247.877ZM220.965 247.876L220.966 247.875L218.995 245.614L218.994 245.614L220.965 247.876ZM218.225 248.04L219.796 248.234L220.163 245.256L218.593 245.062L218.225 248.04ZM185.906 247.464C196.673 246.562 207.503 246.755 218.23 248.04L218.587 245.062C207.658 243.752 196.625 243.555 185.656 244.474L185.906 247.464ZM184.963 240.856C184.75 242.498 184.533 244.124 184.297 245.754L187.266 246.184C187.505 244.533 187.724 242.89 187.938 241.242L184.963 240.856ZM185.247 238.534C185.155 239.31 185.059 240.087 184.962 240.863L187.939 241.235C188.036 240.458 188.133 239.672 188.226 238.886L185.247 238.534ZM185.55 235.87C185.454 236.757 185.353 237.645 185.247 238.532L188.226 238.888C188.333 237.99 188.435 237.092 188.533 236.194L185.55 235.87ZM185.859 232.971C185.763 233.937 185.662 234.9 185.552 235.861L188.532 236.203C188.645 235.223 188.747 234.245 188.845 233.27L185.859 232.971ZM186.521 225.5C186.331 227.992 186.11 230.482 185.86 232.97L188.844 233.271C189.098 230.758 189.32 228.244 189.512 225.728L186.521 225.5ZM187.157 214.579C187.013 218.226 186.8 221.866 186.521 225.499L189.512 225.729C189.794 222.059 190.009 218.382 190.155 214.698L187.157 214.579ZM187.321 209.351C187.283 211.095 187.228 212.837 187.157 214.578L190.155 214.7C190.226 212.941 190.282 211.18 190.321 209.417L187.321 209.351ZM187.399 202.86C187.402 205.024 187.376 207.186 187.321 209.346L190.32 209.422C190.376 207.235 190.402 205.046 190.399 202.856L187.399 202.86ZM187.345 196.527C187.381 198.641 187.399 200.751 187.399 202.858H190.399C190.399 200.734 190.381 198.607 190.345 196.477L187.345 196.527ZM187.263 194.536C187.318 195.188 187.345 195.845 187.345 196.502H190.345C190.345 195.762 190.314 195.021 190.253 194.285L187.263 194.536ZM186.096 195.939C186.826 195.848 187.47 195.769 187.934 195.745C188.181 195.733 188.274 195.743 188.271 195.742C188.262 195.741 188.23 195.735 188.181 195.721C188.136 195.708 188.049 195.678 187.943 195.617C187.723 195.492 187.304 195.144 187.261 194.511L190.255 194.311C190.207 193.599 189.739 193.189 189.433 193.013C189.156 192.855 188.884 192.802 188.737 192.778C188.419 192.728 188.068 192.735 187.782 192.749C187.182 192.78 186.413 192.877 185.724 192.963L186.096 195.939ZM181.532 194.81C181.673 195.474 182.154 195.804 182.413 195.934C182.671 196.063 182.921 196.11 183.071 196.131C183.385 196.176 183.733 196.17 184.026 196.155C184.634 196.123 185.406 196.026 186.096 195.939L185.724 192.963C184.996 193.054 184.345 193.134 183.869 193.159C183.755 193.165 183.664 193.167 183.594 193.166C183.52 193.165 183.491 193.161 183.495 193.161C183.498 193.162 183.522 193.165 183.56 193.176C183.596 193.185 183.668 193.207 183.758 193.252C183.921 193.334 184.344 193.603 184.468 194.19L181.532 194.81ZM186 188C184.748 187.173 184.748 187.173 184.748 187.174C184.748 187.174 184.748 187.174 184.748 187.174C184.748 187.174 184.748 187.175 184.747 187.175C184.747 187.176 184.746 187.177 184.745 187.179C184.743 187.182 184.74 187.186 184.736 187.192C184.729 187.202 184.719 187.218 184.706 187.238C184.68 187.278 184.642 187.337 184.595 187.41C184.5 187.558 184.365 187.769 184.206 188.027C183.888 188.54 183.464 189.244 183.05 189.999C182.64 190.746 182.219 191.579 181.92 192.342C181.771 192.722 181.638 193.122 181.557 193.508C181.484 193.861 181.417 194.363 181.547 194.87L184.454 194.13C184.493 194.284 184.453 194.318 184.494 194.123C184.528 193.96 184.598 193.73 184.714 193.435C184.944 192.847 185.295 192.143 185.68 191.442C186.061 190.748 186.455 190.092 186.756 189.607C186.905 189.366 187.031 189.168 187.118 189.032C187.162 188.964 187.196 188.912 187.219 188.877C187.23 188.859 187.239 188.846 187.244 188.838C187.247 188.834 187.249 188.83 187.25 188.829C187.251 188.828 187.251 188.827 187.252 188.827C187.252 188.827 187.252 188.826 187.252 188.826C187.252 188.826 187.252 188.826 187.252 188.826C187.252 188.827 187.252 188.827 186 188ZM184.5 187.789V188H187.5V187.789H184.5ZM185.925 189.749C186.27 189.491 186.613 189.227 186.952 188.949L185.048 186.63C184.757 186.869 184.453 187.104 184.124 187.35L185.925 189.749ZM185.074 190.325C185.332 190.155 185.612 189.971 185.888 189.777L184.162 187.322C183.929 187.486 183.688 187.646 183.423 187.82L185.074 190.325ZM185.081 190.32L185.081 190.32L183.417 187.824L183.417 187.824L185.081 190.32ZM183.229 191.758C183.693 191.245 184.288 190.843 185.074 190.325L183.423 187.82C182.692 188.302 181.766 188.903 181.003 189.747L183.229 191.758ZM182.788 192.482C182.892 192.213 183.043 191.966 183.234 191.752L180.998 189.753C180.565 190.237 180.223 190.795 179.99 191.401L182.788 192.482ZM182.658 193.026C182.658 192.863 182.692 192.701 182.759 192.552L180.019 191.33C179.781 191.863 179.658 192.441 179.658 193.026H182.658ZM182.759 193.499C182.692 193.35 182.658 193.189 182.658 193.026H179.658C179.658 193.61 179.781 194.188 180.019 194.721L182.759 193.499ZM174.812 196.269C176.98 196.375 179.623 196.532 181.996 195.482L180.782 192.738C179.174 193.45 177.284 193.386 174.958 193.272L174.812 196.269ZM174.799 196.268L174.799 196.268L174.971 193.273L174.97 193.273L174.799 196.268ZM173.741 196.22C174.092 196.233 174.446 196.251 174.811 196.269L174.957 193.272C174.595 193.254 174.224 193.236 173.853 193.222L173.741 196.22ZM168.448 197.187C169.8 196.262 171.512 196.138 173.741 196.22L173.852 193.222C171.612 193.14 168.99 193.181 166.754 194.711L168.448 197.187ZM165.442 204.164C165.851 201.119 166.565 198.485 168.452 197.184L166.75 194.714C163.653 196.848 162.865 200.813 162.469 203.765L165.442 204.164ZM165.065 207.395C165.17 206.317 165.295 205.241 165.442 204.167L162.469 203.762C162.318 204.875 162.188 205.989 162.079 207.104L165.065 207.395ZM164.817 210.41C164.881 209.404 164.963 208.401 165.065 207.401L162.08 207.098C161.975 208.136 161.889 209.177 161.823 210.222L164.817 210.41ZM164.726 220.435C164.571 217.095 164.601 213.749 164.817 210.413L161.823 210.219C161.6 213.667 161.569 217.124 161.73 220.575L164.726 220.435ZM164.826 222.267C164.785 221.659 164.752 221.051 164.727 220.443L161.729 220.568C161.756 221.202 161.79 221.836 161.833 222.47L164.826 222.267ZM140.598 215.321C147.37 219.304 154.92 223.668 163.294 223.868L163.366 220.869C155.896 220.69 149.008 216.787 142.119 212.735L140.598 215.321ZM135.928 211.466C137.162 213.31 139.085 214.432 140.599 215.321L142.118 212.734C140.509 211.789 139.213 210.98 138.421 209.797L135.928 211.466ZM134.565 205.46C134.315 207.544 134.788 209.651 135.904 211.429L138.445 209.834C137.694 208.638 137.376 207.22 137.544 205.817L134.565 205.46ZM134.626 204.842C134.6 205.021 134.555 205.317 134.555 205.639H137.555C137.555 205.568 137.564 205.484 137.595 205.27L134.626 204.842ZM134.646 204.701C134.64 204.745 134.633 204.79 134.626 204.842L137.595 205.27C137.602 205.22 137.611 205.161 137.619 205.101L134.646 204.701ZM135.842 200.153C135.282 201.613 134.882 203.13 134.649 204.677L137.615 205.125C137.816 203.792 138.161 202.485 138.643 201.226L135.842 200.153ZM145.407 183.871C141.275 188.693 138.034 194.212 135.835 200.17L138.65 201.209C140.725 195.584 143.785 190.375 147.685 185.823L145.407 183.871ZM146.13 183.038C145.891 183.311 145.647 183.591 145.406 183.872L147.685 185.823C147.915 185.554 148.149 185.286 148.39 185.01L146.13 183.038ZM149.615 177.833C149.026 179.687 147.701 181.238 146.13 183.038L148.39 185.01C149.879 183.305 151.664 181.292 152.474 178.742L149.615 177.833ZM149.993 176.296C149.87 176.873 149.764 177.366 149.616 177.832L152.474 178.743C152.675 178.112 152.81 177.473 152.927 176.921L149.993 176.296ZM150.462 174.428C150.252 175.075 150.114 175.73 149.993 176.296L152.927 176.921C153.053 176.329 153.162 175.827 153.315 175.354L150.462 174.428ZM155.662 167.668C153.743 169.429 151.447 171.491 150.466 174.413L153.31 175.368C154.003 173.306 155.651 171.75 157.69 169.879L155.662 167.668ZM159.914 162.589C159.109 164.474 157.539 165.946 155.662 167.668L157.69 169.879C159.469 168.246 161.57 166.35 162.673 163.767L159.914 162.589ZM160.376 161.31C160.217 161.795 160.084 162.2 159.919 162.578L162.668 163.778C162.901 163.246 163.077 162.704 163.228 162.242L160.376 161.31ZM161.296 159.046C160.856 159.826 160.591 160.651 160.376 161.31L163.228 162.242C163.458 161.537 163.639 160.997 163.91 160.518L161.296 159.046ZM163.744 156.291C162.779 157.04 161.958 157.958 161.322 159L163.883 160.563C164.329 159.831 164.905 159.187 165.582 158.662L163.744 156.291ZM164.655 155.56C164.349 155.801 164.021 156.058 163.701 156.326L165.625 158.628C165.905 158.394 166.197 158.164 166.509 157.919L164.655 155.56ZM164.645 155.568L164.645 155.568L166.519 157.911L166.519 157.911L164.645 155.568ZM164.822 155.429L164.655 155.561L166.509 157.919L166.676 157.788L164.822 155.429ZM174.556 147.06C171.435 149.998 168.19 152.787 164.823 155.428L166.675 157.789C170.113 155.092 173.425 152.244 176.612 149.244L174.556 147.06ZM176.98 148.7C177.062 148.492 177.149 148.27 177.238 148.041L174.442 146.952C174.353 147.182 174.268 147.4 174.188 147.604L176.98 148.7ZM177.238 148.041C177.668 146.937 178.163 145.666 178.63 144.634C178.864 144.115 179.074 143.696 179.248 143.404C179.336 143.257 179.396 143.174 179.427 143.136C179.481 143.071 179.403 143.193 179.187 143.296L177.893 140.589C177.513 140.771 177.254 141.057 177.113 141.227C176.949 141.425 176.802 141.649 176.672 141.867C176.412 142.303 176.148 142.842 175.896 143.399C175.39 144.517 174.865 145.867 174.442 146.952L177.238 148.041ZM179.182 138.914C178.344 139.625 177.48 140.843 177.313 141.079L179.767 142.805C179.847 142.692 180.062 142.392 180.331 142.058C180.612 141.71 180.899 141.392 181.123 141.201L179.182 138.914ZM182.641 136.869C181.569 137.38 180.266 137.993 179.181 138.915L181.124 141.201C181.859 140.576 182.792 140.121 183.933 139.576L182.641 136.869ZM186.153 134.339C185.56 135.42 184.41 136.024 182.641 136.869L183.933 139.576C185.505 138.825 187.644 137.858 188.783 135.782L186.153 134.339ZM186.719 132.688C186.53 133.406 186.39 133.908 186.154 134.337L188.782 135.784C189.228 134.975 189.448 134.106 189.62 133.451L186.719 132.688ZM186.706 132.744L186.706 132.744L189.634 133.395L189.634 133.395L186.706 132.744ZM186.728 132.657L186.728 132.657L189.612 133.482L189.612 133.482L186.728 132.657ZM187.275 130.938C187.016 131.55 186.852 132.181 186.719 132.688L189.621 133.451C189.763 132.908 189.876 132.488 190.037 132.108L187.275 130.938ZM192.281 125.843C190.537 127.026 188.323 128.479 187.276 130.935L190.036 132.111C190.677 130.607 192.063 129.616 193.966 128.326L192.281 125.843ZM195.344 123.428C194.535 124.305 193.493 125.021 192.281 125.843L193.966 128.326C195.121 127.541 196.466 126.638 197.55 125.46L195.344 123.428ZM198.021 118.638C197.216 120.542 196.52 122.151 195.344 123.428L197.55 125.46C199.138 123.737 200.014 121.628 200.784 119.807L198.021 118.638ZM197.969 118.781L197.969 118.781L200.836 119.664L200.836 119.664L197.969 118.781ZM200.149 114.392C199.23 115.768 198.595 117.282 198.021 118.638L200.784 119.807C201.377 118.405 201.909 117.158 202.644 116.058L200.149 114.392ZM206.605 109.002C203.999 110.162 201.767 112.023 200.158 114.379L202.635 116.071C203.931 114.175 205.727 112.676 207.824 111.743L206.605 109.002ZM207.231 108.721C206.997 108.818 206.771 108.923 206.571 109.018L207.859 111.728C208.046 111.638 208.218 111.559 208.381 111.491L207.231 108.721ZM220.783 106.5C216.553 106.49 211.525 106.882 207.216 108.727L208.396 111.485C212.135 109.885 216.667 109.491 220.776 109.5L220.783 106.5ZM229.208 107.475C227.949 106.973 226.182 106.746 224.666 106.631C223.1 106.512 221.601 106.5 220.779 106.5V109.5C221.577 109.5 222.987 109.512 224.439 109.623C225.941 109.737 227.301 109.944 228.097 110.262L229.208 107.475ZM230.576 108.323C230.168 107.94 229.685 107.645 229.158 107.456L228.148 110.281C228.287 110.331 228.415 110.409 228.523 110.51L230.576 108.323ZM227.808 119.599C228.713 118.633 230.073 116.802 230.934 114.846C231.364 113.867 231.709 112.768 231.757 111.678C231.806 110.563 231.543 109.37 230.655 108.403L228.444 110.431C228.652 110.657 228.784 110.99 228.76 111.546C228.735 112.126 228.537 112.843 228.187 113.638C227.486 115.232 226.333 116.785 225.619 117.547L227.808 119.599ZM225.719 121.624C226.396 120.996 227.123 120.323 227.803 119.604L225.624 117.542C225.022 118.178 224.368 118.786 223.679 119.425L225.719 121.624Z" fill="black"/>
<path d="M91.3047 226.488L96.1424 202.004L229.815 224.837L227.544 225.795L173.508 236.446L153.962 233.997L153.954 233.996L91.3047 226.488Z" fill="white" stroke="black" stroke-width="3"/>
<path d="M163 234.743L233.125 216.061C233.475 215.966 233.837 215.982 234.183 216.108C234.529 216.234 234.851 216.467 235.125 216.791C235.4 217.114 235.621 217.52 235.772 217.978C235.924 218.437 236.001 218.937 236 219.444C236.002 220.247 235.804 221.025 235.442 221.643C235.081 222.261 234.577 222.68 234.02 222.826L165.537 241L163 234.743Z" fill="white" stroke="black" stroke-width="3" stroke-linecap="round"/>
<path d="M193.036 195.039C195.222 194.835 197.438 194.49 199.406 193.52C201.83 192.312 203.716 190.23 205.961 188.697C210.896 185.3 217.499 184.844 223.157 186.795C228.815 188.745 233.537 192.923 236.843 197.911C239.039 201.235 240.688 205.475 239.136 209.144C238.604 210.265 237.933 211.315 237.139 212.268L233.096 217.557C232.327 218.669 231.403 219.664 230.352 220.512C228.839 221.613 226.958 222.065 225.106 222.336C220.185 223.054 215.177 222.647 210.218 222.977C201.7 223.545 193.38 226.291 184.843 226.199C179.937 226.145 175.093 225.155 170.299 224.166L149.079 219.799C145.384 219.042 141.21 217.936 139.47 214.583C138.689 213.074 138.544 211.327 138.452 209.629C138.2 204.951 138.452 199.75 141.69 196.378C144.735 193.214 149.549 192.215 153.185 189.876C157.635 187.008 159.104 187.935 163.797 190.089C172.953 194.239 183.026 195.944 193.036 195.039Z" fill="white" stroke="black" stroke-width="3" stroke-linecap="round"/>
<path d="M278.25 188.387C272.297 190.691 266.31 193.006 260.075 194.379C249.623 196.684 238.685 196.32 228.315 198.955C222.837 200.352 217.393 202.603 211.764 202.147C209.248 201.943 206.819 201.177 204.371 200.595C190.617 197.198 174.982 198.3 163.812 207.033C159.992 210.017 156.865 213.739 154.028 217.708C153.422 218.565 153.011 219.546 152.827 220.58C152.643 221.615 152.69 222.677 152.963 223.691C153.237 224.705 153.731 225.647 154.411 226.448C155.09 227.248 155.938 227.889 156.894 228.324C161.238 230.323 165.891 231.566 170.652 231.997C177.018 232.56 183.413 231.658 189.744 230.755C199.14 229.421 208.54 228.082 217.911 226.582C221.276 226.044 224.641 225.486 228.024 225.059C252.376 221.978 277.169 225.723 301.584 223.152C304.052 222.89 306.563 222.55 308.808 221.497C314.49 218.829 317.302 211.793 316.128 205.612C314.955 199.43 310.427 194.292 304.978 191.138C300.411 188.484 295.485 187.412 290.4 186.286C285.678 185.184 282.798 186.64 278.25 188.387Z" fill="white" stroke="black" stroke-width="3" stroke-linecap="round"/>
<path d="M334.9 164.092C335.191 159.682 334.619 154.956 331.933 151.433C329.669 148.483 326.164 146.659 324.831 143.097C323.439 139.356 325.986 136.639 322.5 134.019L298.26 127.76C295.695 128.124 289.934 128.949 288.523 131.127C287.001 133.461 287.559 136.547 288.131 139.283C289.052 143.641 289.808 148.318 288.082 152.418C287.515 153.757 286.696 154.994 286.327 156.402C285.333 160.21 287.864 164.165 287.379 168.047C287.093 170.473 285.678 172.695 285.585 175.121C285.469 178.163 287.229 181.953 284.805 183.855C283.54 184.859 281.726 184.66 280.146 185.014C276.975 185.708 267.958 188.804 268.443 192.016C272.379 188.906 284.427 188.173 289.348 189.066C294.268 189.958 298.748 192.7 302.18 196.344C304.338 198.634 306.156 201.385 306.689 204.486C307.106 206.916 306.713 209.41 306.325 211.836C305.763 215.345 300.372 220.425 299.81 223.933C305.991 221.536 318.315 223.258 324.191 220.197C328.617 217.892 330.643 212.734 332.044 207.935C333.232 203.869 334.236 199.716 334.41 195.48C334.658 189.425 333.193 183.369 333.407 177.295C333.562 172.865 334.609 168.503 334.9 164.092Z" fill="#FFD749"/>
<path d="M11.1502 128.444L37.5091 225.941C37.8325 227.136 38.5119 228.204 39.4569 229.002C40.4018 229.8 41.5674 230.291 42.7983 230.41L161.44 241.817C162.407 241.911 163.382 241.771 164.284 241.409C165.186 241.048 165.988 240.475 166.623 239.74C167.258 239.004 167.708 238.127 167.935 237.182C168.162 236.236 168.159 235.25 167.927 234.306L139.062 116.702C138.718 115.304 137.89 114.073 136.726 113.228C135.561 112.384 134.135 111.979 132.701 112.088L16.5461 120.782C15.6542 120.852 14.7887 121.117 14.0111 121.56C13.2336 122.003 12.5632 122.611 12.0479 123.343C11.5325 124.075 11.1849 124.911 11.0297 125.793C10.8745 126.675 10.9156 127.58 11.1502 128.444Z" fill="white" stroke="black" stroke-width="3" stroke-linecap="round"/>
<path d="M218.634 121.302C238.139 121.302 253.952 105.476 253.952 85.9543C253.952 66.4325 238.139 50.6069 218.634 50.6069C199.128 50.6069 183.315 66.4325 183.315 85.9543C183.315 105.476 199.128 121.302 218.634 121.302Z" fill="white" stroke="black" stroke-width="3" stroke-linecap="round"/>
<path d="M241.833 85.8101L241.829 85.8103C235.562 86.1289 229.199 85.4303 225.221 81.4544C224.032 80.2568 223.11 78.8198 222.093 77.2343C221.879 76.9012 221.662 76.5616 221.436 76.2162C220.19 74.3068 218.73 72.2637 216.555 70.8667C213.915 69.17 211.25 68.6362 208.644 68.9247C206.078 69.2087 203.653 70.2797 201.421 71.6498C199.186 73.021 197.063 74.7436 195.108 76.4112C194.555 76.8825 194.019 77.346 193.498 77.7971C192.14 78.9723 190.88 80.0626 189.675 80.9821L189.643 81.0059L189.613 81.0313C189.06 81.5017 188.436 81.883 187.766 82.1616C186.801 82.4042 185.788 82.3802 184.835 82.0913L184.793 82.0786L184.751 82.0683C177.172 80.2461 171.261 72.896 171.104 65.1218L171.104 65.1049L171.103 65.088C171.042 63.6464 171.267 62.2067 171.765 60.8526C172.607 58.7424 174.279 57.1474 176.4 55.503C176.885 55.1271 177.402 54.744 177.934 54.3496C179.626 53.0939 181.473 51.7237 182.952 50.1079L182.952 50.1075C185.421 47.4091 186.995 43.9068 188.432 40.711C188.721 40.0686 189.004 39.4386 189.288 38.83C191.053 35.0437 192.865 31.975 196.014 30.3593L196.017 30.3578C198.617 29.0166 201.549 28.9944 204.823 29.5463C206.456 29.8217 208.122 30.2297 209.839 30.6576C209.93 30.6804 210.022 30.7033 210.114 30.7262C211.725 31.1281 213.385 31.5421 215.019 31.8401L215.02 31.8402C220.227 32.7872 225.583 32.5343 230.679 31.1008L230.683 31.0997C230.815 31.0621 230.943 31.0253 231.067 30.9897C232.109 30.6901 232.871 30.4712 233.634 30.5079C234.327 30.5829 235.005 30.7583 235.648 31.0285L235.676 31.0403L235.704 31.0509C240.123 32.702 244.359 34.8036 248.348 37.3224C250.543 38.7146 252.559 40.1758 254.103 42.0147C256.055 44.3471 257.252 47.3048 258.166 50.4513C261.682 62.5826 260.488 76.1731 254.029 86.9095L254.026 86.9145C253.851 87.2072 253.705 87.4085 253.578 87.5315C253.568 87.5406 253.559 87.5487 253.551 87.5558C253.374 87.5115 253.206 87.4327 253.057 87.3231L252.985 87.2703L252.908 87.2264C249.684 85.3933 245.841 85.598 242.646 85.7681C242.37 85.7828 242.098 85.7973 241.833 85.8101ZM253.485 87.6061C253.485 87.606 253.486 87.6051 253.489 87.6039C253.487 87.6055 253.485 87.6061 253.485 87.6061Z" fill="black" stroke="black" stroke-width="3"/>
<path d="M331.5 148C332.863 152.418 335.191 159.682 334.9 164.092C334.609 168.503 333.562 172.865 333.407 177.295C333.193 183.37 334.658 189.425 334.41 195.48C334.236 199.716 333.232 203.87 332.044 207.936C330.643 212.734 328.617 217.892 324.191 220.197C318.315 223.258 305.991 221.536 299.81 223.933C303.5 221 305.763 215.345 306.325 211.837C306.713 209.411 307.106 206.917 306.689 204.486C306.156 201.385 304.338 198.634 302.18 196.344C298.748 192.7 294.268 189.959 289.348 189.066C284.427 188.173 273.5 190.5 268.443 192.016C267.958 188.804 276.975 185.708 280.146 185.014C281.726 184.66 283.54 184.859 284.805 183.855C287.229 181.953 285.469 178.163 285.585 175.121C285.678 172.695 287.093 170.473 287.379 168.047C287.864 164.165 285.333 160.211 286.327 156.402C286.696 154.995 287.515 153.757 288.082 152.418C289.808 148.318 289.052 143.641 288.131 139.284" stroke="black" stroke-width="3" stroke-linecap="round"/>
</g>
<defs>
<clipPath id="clip0">
<rect width="351" height="246" fill="white"/>
</clipPath>
</defs>
</svg>
