<svg xmlns="http://www.w3.org/2000/svg" width="174.555" height="99" viewBox="0 0 174.555 99">
  <defs>
    <style>
      .cls-1 {
        fill: #fff;
      }

      .cls-2 {
        fill: #30a1da;
      }

      .cls-3 {
        fill: #fdb912;
      }

      .cls-4 {
        fill: #b5b5b5;
        font-size: 6px;
        font-family: CircularStd-Medium, Circular Std Medium;
        font-weight: 500;
      }
    </style>
  </defs>
  <g id="logo-main-fx" transform="translate(-230 -30)">
    <rect id="Rectangle_146" data-name="Rectangle 146" class="cls-1" width="174" height="99" transform="translate(230 30)"/>
    <g id="Group_3" data-name="Group 3" transform="translate(180.001 11.484)">
      <g id="Group_2" data-name="Group 2" transform="translate(49.999 34)">
        <g id="Group_1" data-name="Group 1" transform="translate(0)">
          <path id="Path_1" data-name="Path 1" class="cls-2" d="M240.69,293s-19.772-.054-19.69,19.69,0,19.69,0,19.69-.184,19.55,19.69,19.69h29.536l9.845,9.845V312.69s.041-19.69-19.69-19.69Z" transform="translate(-220.999 -293)"/>
          <path id="Qbex" class="cls-3" d="M1.47-12.425C1.47-4.27,7.56.525,14.07.525A12.977,12.977,0,0,0,20.545-1.19L23.59,2.135,26.425-.28l-2.94-3.29a12.96,12.96,0,0,0,3.22-8.855A12.449,12.449,0,0,0,14.07-25.34,12.422,12.422,0,0,0,1.47-12.425Zm4.3,0c0-5.985,4.13-8.96,8.3-8.96,4.2,0,8.33,2.975,8.33,8.96a9.483,9.483,0,0,1-1.715,5.74l-4.13-4.585-2.87,2.45L17.78-4.27a8.542,8.542,0,0,1-3.71.805C9.905-3.465,5.775-6.44,5.775-12.425ZM34.755,0V-2.275a5.855,5.855,0,0,0,5.25,2.7c4.97,0,8.015-3.885,8.015-9.03,0-5.005-2.765-8.89-7.875-8.89a6.145,6.145,0,0,0-5.355,2.555v-10.4H30.8V0Zm9.17-8.575c0,3.36-1.925,5.39-4.585,5.39-2.59,0-4.585-2.03-4.585-5.39,0-3.4,1.995-5.32,4.585-5.32C42.035-13.9,43.925-11.97,43.925-8.575Zm10.85-1.82a4.092,4.092,0,0,1,4.165-3.78,3.818,3.818,0,0,1,4.2,3.78ZM63.6-5.95a4.112,4.112,0,0,1-4.27,2.975A4.564,4.564,0,0,1,54.67-7.42H67.13a6.014,6.014,0,0,0,.105-1.295c0-5.39-3.08-8.855-8.33-8.855C54.6-17.57,50.61-14,50.61-8.61,50.61-2.835,54.7.525,59.325.525a7.678,7.678,0,0,0,7.7-5.39ZM68.635,0H73.29c.315-.525,3.5-5.18,3.85-5.7L81.1,0h4.76L79.66-8.68l5.985-8.365h-4.62l-3.71,5.46c-.315-.49-3.43-4.935-3.745-5.46H68.74L74.83-8.61Z" transform="translate(72.609 45.229)"/>
        </g>
        <path id="Path_4" data-name="Path 4" class="cls-1" d="M251.882,304.924V340.56s-11.641-4.5-23.067,0V301.212S239.17,297.855,251.882,304.924Z" transform="translate(-219.198 -290.059)"/>
        <path id="Path_5" data-name="Path 5" class="cls-1" d="M248.545,304.494s3.428-4.214,15.5-3.714V340.7s-8.641-3.356-15.5,0Z" transform="translate(-214.646 -289.985)"/>
      </g>
      <text id="TM" class="cls-4" transform="translate(214.555 65.41)"><tspan x="0" y="0">TM</tspan></text>
    </g>
  </g>
</svg>
