<svg width="40" height="40" viewBox="0 0 40 40" fill="none" xmlns="http://www.w3.org/2000/svg">
<path d="M13.425 30.181L13.4259 30.1809C14.8891 30.1654 16.218 29.4437 17.0318 28.2824L17.0321 28.2819C17.8449 27.1206 17.8429 26.0177 17.8353 25.3578L18.1458 24.5917L17.2286 24.212C14.5978 23.1231 12.7503 20.5318 12.7503 17.511V17.511V17.511V17.511V17.511V17.5109V17.5109V17.5109V17.5109V17.5108V17.5108V17.5108V17.5108V17.5107V17.5107V17.5106V17.5106V17.5106V17.5105V17.5105V17.5104V17.5104V17.5103V17.5102V17.5102V17.5101V17.5101V17.51V17.5099V17.5099V17.5098V17.5097V17.5096V17.5096V17.5095V17.5094V17.5093V17.5092V17.5091V17.509V17.509V17.5089V17.5088V17.5087V17.5086V17.5085V17.5084V17.5082V17.5081V17.508V17.5079V17.5078V17.5077V17.5076V17.5074V17.5073V17.5072V17.5071V17.5069V17.5068V17.5067V17.5065V17.5064V17.5062V17.5061V17.5059V17.5058V17.5057V17.5055V17.5053V17.5052V17.505V17.5049V17.5047V17.5045V17.5044V17.5042V17.504V17.5039V17.5037V17.5035V17.5033V17.5032V17.503V17.5028V17.5026V17.5024V17.5022V17.502V17.5018V17.5016V17.5014V17.5012V17.501V17.5008V17.5006V17.5004V17.5002V17.5V17.4998V17.4996V17.4993V17.4991V17.4989V17.4987V17.4984V17.4982V17.498V17.4977V17.4975V17.4973V17.497V17.4968V17.4965V17.4963V17.496V17.4958V17.4955V17.4953V17.495V17.4948V17.4945V17.4942V17.494V17.4937V17.4934V17.4932V17.4929V17.4926V17.4923V17.4921V17.4918V17.4915V17.4912V17.4909V17.4906V17.4903V17.4901V17.4898V17.4895V17.4892V17.4889V17.4886V17.4883V17.4879V17.4876V17.4873V17.487V17.4867V17.4864V17.4861V17.4857V17.4854V17.4851V17.4848V17.4844V17.4841V17.4838V17.4834V17.4831V17.4828V17.4824V17.4821V17.4817V17.4814V17.481V17.4807V17.4803V17.48V17.4796V17.4792V17.4789V17.4785V17.4782V17.4778V17.4774V17.4771V17.4767V17.4763V17.4759V17.4755V17.4752V17.4748V17.4744V17.474V17.4736V17.4732V17.4728V17.4724V17.472V17.4716V17.4712V17.4708V17.4704V17.47V17.4696V17.4692V17.4688V17.4684V17.468V17.4675V17.4671V17.4667V17.4663V17.4659V17.4654V17.465V17.4646V17.4641V17.4637V17.4633V17.4628V17.4624V17.4619V17.4615V17.461V17.4606V17.4601V17.4597V17.4592V17.4588V17.4583V17.4578V17.4574V17.4569V17.4565V17.456V17.4555V17.455V17.4546V17.4541V17.4536V17.4531V17.4526V17.4522V17.4517V17.4512V17.4507V17.4502V17.4497V17.4492V17.4487V17.4482V17.4477V17.4472V17.4467V17.4462V17.4457V17.4452V17.4447V17.4441V17.4436V17.4431V17.4426V17.4421V17.4415V17.441V17.4405V17.44V17.4394V17.4389V17.4384V17.4378V17.4373V17.4367V17.4362V17.4356V17.4351V17.4345V17.434V17.4334V17.4329V17.4323V17.4318V17.4312V17.4306V17.4301V17.4295V17.4289V17.4284V17.4278V17.4272V17.4267V17.4261V17.4255V17.4249V17.4243V17.4237V17.4232V17.4226V17.422V17.4214V17.4208V17.4202V17.4196V17.419V17.4184V17.4178V17.4172V17.4166V17.416V17.4154V17.4147V17.4141V17.4135V17.4129V17.4123V17.4116V17.411V17.4104V17.4098V17.4091V17.4085V17.4079V17.4072V17.4066V17.406V17.4053V17.4047V17.404V17.4034V17.4027V17.4021V17.4014V17.4008V17.4001V17.3995V17.3988V17.3981V17.3975V17.3968V17.3962V17.3955V17.3948V17.3941V17.3935V17.3928V17.3921V17.3914V17.3908V17.3901V17.3894V17.3887V17.388V17.3873V17.3866V17.3859V17.3852V17.3845V17.3838V17.3831V17.3824V17.3817V17.381V17.3803V17.3796V17.3789V17.3782V17.3775V17.3767V17.376V17.3753V17.3746V17.3739V17.3731V17.3724V17.3717V17.3709V17.3702V17.3695V17.3687V17.368V17.3673V17.3665V17.3658V17.365V17.3643V17.3635V17.3628V17.362V17.3613V17.3605V17.3597V17.359V17.3582V17.3575V17.3567V17.3559V17.3552V17.3544V17.3536V17.3528V17.3521V17.3513V17.3505V17.3497V17.3489V17.3481V17.3474V17.3466V17.3458V17.345V17.3442V17.3434V17.3426V17.3418V17.341V17.3402V17.3394V17.3386V17.3378V17.337V17.3362V17.3353V17.3345V17.3337V17.3329V17.3321V17.3312V17.3304V17.3296V17.3288V17.3279V17.3271V17.3263V17.3254V17.3246V17.3238V17.3229V17.3221V17.3212V17.3204V17.3195V17.3187V17.3179V17.317V17.3161V17.3153V17.3144V17.3136V17.3127V17.3118V17.311V17.3101V17.3093V17.3084V17.3075V17.3066V17.3058V17.3049V17.304V17.3031V17.3022V17.3014V17.3005V17.2996V17.2987V17.2978V17.2969V17.296V17.2951V17.2942V17.2933V17.2924V17.2915V17.2906V17.2897V17.2888V17.2879V17.287V17.2861V17.2852V17.2843V17.2833V17.2824V17.2815V17.2806V17.2797V17.2787V17.2778V17.2769V17.276V17.275V17.2741V17.2731V17.2722V17.2713V17.2703V17.2694V17.2684V17.2675V17.2666V17.2656V17.2647V17.2637V17.2627V17.2618V17.2608V17.2599V17.2589V17.258V17.257V17.256V17.2551V17.2541V17.2531V17.2521V17.2512V17.2502V16.2502H11.7503C11.4056 16.2502 11.1214 16.1093 10.9278 15.8896L10.8486 15.7896C10.8151 15.7472 10.7664 15.666 10.7271 15.5515C10.6885 15.4393 10.667 15.3189 10.667 15.2052V7.08355C10.667 6.39333 11.2268 5.83355 11.917 5.83355H12.5939L12.8454 5.20513C13.699 3.07241 15.7639 1.66689 18.0711 1.66689C18.8456 1.66689 19.5638 1.66577 20.2204 1.66474C21.2513 1.66313 22.1302 1.66176 22.8367 1.66534C23.4151 1.66827 23.8641 1.67449 24.1779 1.68604C24.3109 1.69093 24.4095 1.69645 24.4785 1.70199L24.4917 1.70857L24.6459 1.73196C24.647 1.73215 24.6525 1.73306 24.6645 1.73512L24.7238 1.74554C24.7718 1.75407 24.8317 1.76498 24.8908 1.7761C24.9309 1.78365 24.9683 1.79088 25.0002 1.79725L25.0037 1.799L25.1196 1.82565C25.3804 1.88559 25.6753 1.98768 25.919 2.0848C26.0204 2.12521 26.1066 2.1622 26.1705 2.19101L26.1725 2.19308L26.3157 2.26515C28.1571 3.19186 29.4169 5.09744 29.4169 7.29521V15.0835C29.4169 15.7279 28.8947 16.2502 28.2503 16.2502H27.2503V17.2502V17.511C27.2503 20.5318 25.4028 23.1231 22.772 24.212L21.8548 24.5917L22.1651 25.3572C22.1566 26.0029 22.1519 27.1154 22.9686 28.282L22.9688 28.2823C23.7803 29.4405 25.1073 30.1654 26.5747 30.1809L26.5756 30.181C29.4875 30.2092 31.8336 32.5121 31.8336 35.3768V38.3335H8.16699V35.3768C8.16699 32.5121 10.5131 30.2092 13.425 30.181Z" fill="white" stroke="black" stroke-width="2"/>
<path d="M30.4163 7.29521V15.0835C30.4163 16.2802 29.4463 17.2502 28.2496 17.2502V12.636C28.2496 12.2835 27.9754 11.9919 27.6238 11.971C23.7164 11.738 19.8039 10.5492 16.2805 8.32271C15.8971 8.08021 15.393 8.28021 15.2763 8.71854C15.1021 9.37771 14.7105 10.2219 13.833 10.7502C13.0259 11.236 12.4011 11.14 12.1663 11.2369C11.9205 11.3352 11.7496 11.5752 11.7496 11.8535V17.2502C11.0448 17.2502 10.4419 16.9222 10.0646 16.4119C10.0646 16.411 10.0638 16.411 10.0638 16.4102C9.91439 16.2214 9.7653 15.9111 9.7038 15.5935C9.6503 15.321 9.6663 15.9359 9.6663 7.08354C9.6663 5.84105 10.6738 4.83355 11.9163 4.83355C12.9161 2.33547 15.3406 0.666891 18.0705 0.666891C22.0359 0.666891 24.5845 0.637225 24.7971 0.743558C25.4437 0.841558 26.081 1.04522 26.5896 1.28689C26.5995 1.29181 26.7581 1.36539 26.7646 1.37189C28.9304 2.46189 30.4163 4.70522 30.4163 7.29521Z" fill="black"/>
<path d="M13.425 30.1805L13.4259 30.1805C14.4608 30.1694 15.4284 29.8053 16.1941 29.1822C17.5134 30.6483 17.8017 30.9686 18.0898 31.2889C18.2522 31.4694 18.4144 31.6498 18.761 32.0351L18.7615 32.0357C19.4237 32.7707 20.5769 32.7707 21.2391 32.0356L21.2396 32.0351C21.5322 31.7098 21.6613 31.5662 21.7905 31.4226C22.0452 31.1394 22.2999 30.8564 23.8065 29.1822C24.5709 29.8042 25.5377 30.1695 26.5747 30.1805L26.5756 30.1805C29.4875 30.2087 31.8336 32.5116 31.8336 35.3763V38.333H8.16699V35.3763C8.16699 32.5116 10.5131 30.2087 13.425 30.1805Z" fill="#FFD749" stroke="black" stroke-width="2"/>
<path d="M25.2567 29.3691C25.2463 29.3997 24.4239 34.6038 24.4291 34.5707C24.3206 35.2553 23.6976 35.4758 23.367 34.9465C21.1789 31.4419 21.4774 31.8989 21.2559 31.621L23.7875 27.708C24.1542 28.436 24.6625 29.0144 25.2567 29.3691Z" fill="black"/>
<path d="M16.2123 27.708L18.684 31.5283L16.6337 34.9075C16.3061 35.4476 15.6754 35.2311 15.5661 34.5409C15.5608 34.5079 14.7536 29.3994 14.7432 29.3688C15.3373 29.0143 15.8457 28.4359 16.2123 27.708Z" fill="black"/>
<path d="M12.3241 10.1895L12.3241 10.1895C13.2363 10.1375 14.0101 9.59688 14.3102 8.46211C14.5979 7.37422 15.8575 6.87169 16.8149 7.47653M12.3241 10.1895L16.8149 7.47653M12.3241 10.1895C11.4467 10.2395 10.7517 10.9622 10.75 11.8501M12.3241 10.1895L10.75 11.8501M16.8149 7.47653C20.0819 9.54034 23.8038 10.7407 27.6837 10.9722C28.5656 11.0249 29.25 11.7558 29.25 12.6357V17.5105C29.25 22.6211 25.1063 26.7605 20 26.7605C14.8939 26.7605 10.75 22.6213 10.75 17.5105V17.5097V17.5087V17.5076V17.5064V17.505V17.5036V17.502V17.5002V17.4984V17.4964V17.4944V17.4921V17.4898V17.4874V17.4848V17.4821V17.4793V17.4764V17.4733V17.4702V17.4669V17.4635V17.46V17.4564V17.4526V17.4488V17.4448V17.4407V17.4365V17.4322V17.4278V17.4233V17.4186V17.4139V17.409V17.404V17.3989V17.3938V17.3885V17.3831V17.3776V17.3719V17.3662V17.3604V17.3545V17.3484V17.3423V17.336V17.3297V17.3233V17.3167V17.3101V17.3033V17.2965V17.2895V17.2825V17.2753V17.2681V17.2607V17.2533V17.2458V17.2381V17.2304V17.2226V17.2147V17.2067V17.1986V17.1904V17.1821V17.1737V17.1652V17.1567V17.148V17.1393V17.1304V17.1215V17.1125V17.1034V17.0942V17.0849V17.0756V17.0661V17.0566V17.047V17.0373V17.0275V17.0177V17.0077V16.9977V16.9876V16.9774V16.9671V16.9568V16.9463V16.9358V16.9252V16.9146V16.9038V16.893V16.8821V16.8711V16.8601V16.8489V16.8377V16.8264V16.8151V16.8037V16.7922V16.7806V16.769V16.7573V16.7455V16.7336V16.7217V16.7097V16.6977V16.6856V16.6734V16.6611V16.6488V16.6364V16.6239V16.6114V16.5988V16.5862V16.5735V16.5607V16.5478V16.5349V16.522V16.509V16.4959V16.4827V16.4695V16.4563V16.443V16.4296V16.4161V16.4027V16.3891V16.3755V16.3618V16.3481V16.3344V16.3205V16.3067V16.2927V16.2788V16.2647V16.2507V16.2365V16.2223V16.2081V16.1938V16.1795V16.1651V16.1507V16.1362V16.1217V16.1071V16.0925V16.0779V16.0632V16.0484V16.0336V16.0188V16.0039V15.989V15.9741V15.9591V15.944V15.929V15.9138V15.8987V15.8835V15.8683V15.853V15.8377V15.8223V15.807V15.7916V15.7761V15.7606V15.7451V15.7296V15.714V15.6984V15.6827V15.667V15.6513V15.6356V15.6198V15.604V15.5882V15.5723V15.5564V15.5405V15.5246V15.5086V15.4926V15.4766V15.4606V15.4445V15.4284V15.4123V15.3962V15.3801V15.3639V15.3477V15.3315V15.3152V15.299V15.2827V15.2664V15.2501V15.2337V15.2174V15.201V15.1847V15.1683V15.1519V15.1354V15.119V15.1025V15.0861V15.0696V15.0531V15.0366V15.0201V15.0036V14.987V14.9705V14.9539V14.9374V14.9208V14.9042V14.8877V14.8711V14.8545V14.8379V14.8213V14.8047V14.7881V14.7715V14.7548V14.7382V14.7216V14.705V14.6883V14.6717V14.6551V14.6385V14.6219V14.6052V14.5886V14.572V14.5554V14.5388V14.5222V14.5056V14.489V14.4724V14.4558V14.4393V14.4227V14.4061V14.3896V14.373V14.3565V14.34V14.3235V14.307V14.2905V14.274V14.2576V14.2411V14.2247V14.2083V14.1918V14.1755V14.1591V14.1427V14.1264V14.11V14.0937V14.0774V14.0612V14.0449V14.0287V14.0125V13.9963V13.9801V13.9639V13.9478V13.9317V13.9156V13.8996V13.8835V13.8675V13.8515V13.8356V13.8197V13.8037V13.7879V13.772V13.7562V13.7404V13.7246V13.7089V13.6932V13.6775V13.6619V13.6463V13.6307V13.6152V13.5996V13.5842V13.5687V13.5533V13.5379V13.5226V13.5073V13.492V13.4768V13.4616V13.4465V13.4314V13.4163V13.4013V13.3863V13.3713V13.3564V13.3416V13.3267V13.312V13.2972V13.2825V13.2679V13.2533V13.2387V13.2242V13.2098V13.1953V13.181V13.1666V13.1524V13.1382V13.124V13.1099V13.0958V13.0818V13.0678V13.0539V13.04V13.0262V13.0124V12.9987V12.9851V12.9715V12.958V12.9445V12.9311V12.9177V12.9044V12.8911V12.8779V12.8648V12.8517V12.8387V12.8258V12.8129V12.8001V12.7873V12.7746V12.762V12.7494V12.7369V12.7244V12.712V12.6997V12.6875V12.6753V12.6632V12.6511V12.6392V12.6273V12.6154V12.6037V12.592V12.5803V12.5688V12.5573V12.5459V12.5345V12.5233V12.5121V12.501V12.4899V12.479V12.4681V12.4573V12.4466V12.4359V12.4253V12.4148V12.4044V12.3941V12.3838V12.3736V12.3635V12.3535V12.3436V12.3337V12.324V12.3143V12.3047V12.2952V12.2857V12.2764V12.2671V12.258V12.2489V12.2399V12.231V12.2222V12.2134V12.2048V12.1963V12.1878V12.1794V12.1712V12.163V12.1549V12.1469V12.139V12.1312V12.1235V12.1159V12.1084V12.1009V12.0936V12.0864V12.0793V12.0722V12.0653V12.0585V12.0517V12.0451V12.0386V12.0322V12.0258V12.0196V12.0135V12.0075V12.0016V11.9957V11.99V11.9844V11.979V11.9736V11.9683V11.9631V11.9581V11.9531V11.9483V11.9435V11.9389V11.9344V11.93V11.9257V11.9215V11.9175V11.9135V11.9097V11.906V11.9024V11.8989V11.8955V11.8922V11.8891V11.8861V11.8832V11.8804V11.8777V11.8752V11.8727V11.8704V11.8682V11.8662V11.8642V11.8624V11.8607V11.8591V11.8577V11.8564V11.8552V11.8541V11.8534M16.8149 7.47653L10.75 11.8534M10.75 11.8534V11.8531V11.8525V11.8523V11.8518V11.8516V11.8512V11.851V11.8507V11.8506V11.8503V11.8503V11.8501V11.8501V11.8501H10.75M10.75 11.8534L10.75 11.8501" fill="white" stroke="black" stroke-width="2"/>
<path d="M21.2558 30.5217L22.5 39.3334H17.5L18.6842 30.4551L19.5045 31.3663C19.7693 31.6605 20.2306 31.6605 20.4954 31.3663L21.2558 30.5217Z" fill="black"/>
</svg>
