<svg width="40" height="40" viewBox="0 0 40 40" fill="none" xmlns="http://www.w3.org/2000/svg">
<g clip-path="url(#clip0)">
<path d="M16.2681 32.4986L16.6698 32.1987V31.6974V10.2782C16.6698 6.25874 19.9286 3 23.9479 3H28.1078C32.1272 3 35.386 6.25874 35.386 10.2782V31.7614V32.2525L35.7746 32.5528C37.0076 33.5054 37.7987 34.996 37.7987 36.6718V39.6037H14.1738V36.6718C14.1738 34.9648 14.9949 33.4495 16.2681 32.4986Z" fill="white" stroke="black" stroke-width="2"/>
<path d="M38.7987 36.6717V39.9381C38.7987 40.3058 38.5008 40.6036 38.1331 40.6036H13.8394C13.4717 40.6036 13.1738 40.3058 13.1738 39.9381V36.6717C13.1738 33.2482 15.949 30.4677 19.3779 30.4677C19.8879 30.4677 20.3721 30.357 20.8072 30.159L20.828 30.2039L24.0003 32.6599C26.3856 30.9993 28.6378 30.0684 30.2293 29.5383L30.2335 29.5342C30.8508 30.1132 31.682 30.4677 32.5946 30.4677C36.0054 30.4677 38.7987 33.2313 38.7987 36.6717Z" fill="black"/>
<path d="M32.5948 30.4677C30.6956 30.4677 29.1479 28.9329 29.1479 27.0283V26.4601L29.1355 26.4293C32.1223 25.193 34.223 22.2503 34.223 18.8167V15.5001C34.223 15.2374 34.0694 14.9979 33.8294 14.8911C31.0226 13.6423 28.5433 11.8904 26.4718 9.68771C26.2081 9.40733 25.7647 9.40733 25.5011 9.68771C23.4324 11.8874 20.9541 13.6407 18.1435 14.8911C17.9034 14.9979 17.7499 15.2373 17.7499 15.5001V18.8167C17.7499 22.2503 19.8506 25.193 22.8374 26.4293L22.8249 26.4601V27.0283C22.8249 28.9336 21.2778 30.4677 19.378 30.4677C17.9878 30.4677 16.7049 30.9253 15.6699 31.6974C15.6699 31.0332 15.6699 9.64777 15.6699 10.2782C15.6699 5.70629 19.3762 2 23.9481 2H28.108C32.6798 2 36.3861 5.70629 36.3861 10.2782V31.7614C35.2871 30.9108 33.9551 30.4677 32.5948 30.4677Z" fill="black"/>
<path d="M17.736 13.9776L17.7361 13.9775C20.4238 12.7818 22.7931 11.1067 24.7717 9.00274M17.736 13.9776L29.518 27.3531C32.8651 25.9672 35.2221 22.6685 35.2221 18.8169V15.5003C35.2221 14.8479 34.841 14.2472 34.235 13.9776L33.8285 14.8912L34.235 13.9776C31.5438 12.7803 29.1755 11.104 27.1995 9.00277C26.5409 8.30246 25.4303 8.30243 24.7717 9.00274M17.736 13.9776C17.1303 14.2471 16.749 14.8478 16.749 15.5003V18.8168C16.749 25.4014 23.4581 29.8678 29.5171 27.3535L17.736 13.9776ZM24.7717 9.00274L25.4973 9.68511L24.7717 9.00274Z" fill="white" stroke="black" stroke-width="2"/>
<path d="M19.3779 30.4678C19.8879 30.4678 20.3721 30.3572 20.8072 30.1592L20.828 30.2041L24.0003 32.6601C20.9973 34.75 18.5308 37.4778 16.7513 40.6038H13.8394C13.4718 40.6038 13.1738 40.3058 13.1738 39.9382V36.6719C13.1738 33.2489 15.9485 30.4678 19.3779 30.4678Z" fill="black"/>
<path d="M3.07963 30.6032L3.08106 30.6033C4.41134 30.6052 5.49774 29.6578 6.15169 28.0343L7.0735 25.7458L8.00522 28.0302C8.55587 29.3804 9.58834 30.4448 10.8545 30.9951L11.7341 31.3773L11.4483 32.1181C11.4543 32.5902 11.4485 33.3886 10.9749 34.2468L10.9524 34.3158L9.84097 37.7187L9.79696 37.8534L9.71726 37.9706C8.83129 38.4065 7.90651 37.5871 7.89748 37.2892C7.90324 37.2484 7.91398 37.1922 7.91755 37.1767C7.92231 37.1567 7.92682 37.1407 7.9275 37.1383L7.92756 37.138L7.93274 37.1201L7.93716 37.1056L7.94702 37.0737L7.98133 36.9638L8.10306 36.5754L8.24454 36.1248C8.11574 36.1406 7.98492 36.1494 7.85247 36.1508L7.85154 36.1509C5.8529 36.1712 4.16374 37.8035 4.08267 39.9501L4.29659 40.5598H16.1726C16.1405 40.548 16.1086 40.5345 16.0769 40.5191C15.8367 40.403 15.6968 40.2249 15.6224 40.1014C15.4849 39.8731 15.4532 39.6373 15.442 39.5104C15.4015 39.0495 15.5193 38.3671 15.8061 37.4903C15.684 37.2213 15.5696 36.914 15.4675 36.6207C15.2816 36.0861 15.0899 35.4558 14.9178 34.8429C14.7455 34.229 14.5895 33.6209 14.4758 33.1279C14.4191 32.8821 14.3713 32.6582 14.337 32.473C14.3201 32.3816 14.301 32.272 14.2881 32.1625L13.9852 31.3776L14.8646 30.9951C16.7718 30.1657 18.1468 28.1709 18.1468 25.807H19.1468V24.8871C19.4255 24.8871 19.7345 24.6353 19.7345 24.219V18.9926C19.7345 15.8127 17.293 13.3203 14.3838 13.3203H11.3355C8.42628 13.3203 5.98482 15.8127 5.98482 18.9926V21.7283V22.7283H4.98482C3.93446 22.7283 3.00001 23.6373 3.00001 24.8642V30.6032L3.07963 30.6032ZM9.84923 37.6921C9.8484 37.6948 9.84861 37.6941 9.84931 37.6918L9.84923 37.6921ZM16.8969 40.5598H20.493V40.4916L20.8865 40.1914L21.6131 39.6371C21.4266 37.9838 20.2768 36.685 18.8036 36.2815C18.8094 36.2968 18.8152 36.312 18.821 36.3272C18.8477 36.3973 18.8743 36.4671 18.9038 36.551C18.9149 36.5826 18.9408 36.6565 18.9587 36.736L18.9593 36.7386C18.9652 36.7641 18.995 36.8937 18.9825 37.0531C18.977 37.1228 18.9535 37.3724 18.7596 37.6105C18.6488 37.7465 18.493 37.8643 18.2977 37.9291C18.1328 37.9838 17.9811 37.9872 17.8625 37.973C17.8927 38.6843 17.8117 39.2504 17.6813 39.6441C17.6366 39.7791 17.5747 39.9289 17.4863 40.0687C17.4298 40.158 17.2494 40.4316 16.8969 40.5598Z" fill="white" stroke="black" stroke-width="2"/>
<path d="M2.00036 24.5262V30.5642C2.00036 30.8512 2.22807 31.0836 2.5092 31.0836H3.08164C4.98984 31.0863 6.35326 29.7452 7.08745 27.9744C6.77006 27.2206 6.5907 26.3915 6.58052 25.5215C6.5795 25.479 6.57988 25.6506 6.57988 22.3343C6.57988 22.0584 6.79105 21.8318 7.06137 21.8162C8.06772 21.7575 8.94387 21.1232 9.26653 19.912C9.35685 19.5711 9.75247 19.425 10.0393 19.6224C12.5883 21.375 15.5971 22.1413 18.6208 21.8623C18.9179 21.8351 19.1736 22.0753 19.1736 22.3798V25.5215C20.0519 25.5215 20.7637 24.795 20.7637 23.8984V18.8128C20.7637 15.227 17.9161 12.3203 14.4032 12.3203H11.3502C7.83734 12.3203 4.98977 15.227 4.98977 18.8128V21.4747C3.3386 21.4747 2.00036 22.8407 2.00036 24.5262Z" fill="black"/>
<path d="M6.26529 21.5809L6.26528 21.5809C5.7458 21.6076 5.2528 22.0078 5.2528 22.5925C5.2528 25.6732 5.25236 25.7101 5.25347 25.7471C5.25351 25.7485 5.25356 25.7499 5.2536 25.7514C5.25363 25.7524 5.25366 25.7534 5.25369 25.7544L5.75351 25.7409C5.78784 28.3346 7.55243 30.5822 10.0989 31.5328L6.26529 21.5809ZM6.26529 21.5809C7.22969 21.5313 7.99121 21.0029 8.276 20.0555L8.27601 20.0554C8.48612 19.3566 9.32295 19.1482 9.87824 19.4858L9.87826 19.4858C12.6052 21.1437 15.8579 21.8983 19.1671 21.6275L19.1671 21.6275C19.7374 21.5809 20.3239 21.9933 20.3252 22.635L6.26529 21.5809Z" fill="white" stroke="black"/>
<path d="M17.8343 35.9679L17.8334 35.9679C17.0668 35.9602 16.3377 35.7244 15.7355 35.3082C14.8324 36.2578 14.6209 36.4802 14.4094 36.7026C14.2848 36.8337 14.1603 36.9647 13.8943 37.2445L13.8938 37.2451C13.2962 37.8727 12.2816 37.8727 11.6841 37.2451L11.6835 37.2445C11.459 37.0083 11.3598 36.904 11.2607 36.7997C11.0727 36.6019 10.8848 36.4043 9.84233 35.3082C9.24117 35.7237 8.51253 35.9602 7.74437 35.9679L7.74351 35.9679C5.5779 35.9878 3.93818 37.594 3.93818 39.4681V41.3419H21.6396V39.4681C21.6396 37.594 19.9999 35.9878 17.8343 35.9679Z" fill="#FFD749" stroke="black" stroke-width="2"/>
<circle cx="26" cy="12.5" r="0.5" fill="black"/>
</g>
<defs>
<clipPath id="clip0">
<rect width="40" height="40" fill="white"/>
</clipPath>
</defs>
</svg>
