<svg width="40" height="40" viewBox="0 0 40 40" fill="none" xmlns="http://www.w3.org/2000/svg">
<path d="M12.8794 30.1811L12.8804 30.1811C15.361 30.2018 17.3737 28.205 17.3737 25.7362V25.362L17.6859 24.5919L16.7687 24.2122C14.1378 23.1232 12.2904 20.5319 12.2904 17.5112H11.2904V16.6112C10.6918 16.6112 10.207 16.1264 10.207 15.5278V9.00033C10.207 4.95011 13.4902 1.66699 17.5404 1.66699H21.5404C23.2311 1.66699 24.7854 2.23778 26.0244 3.19818L26.7209 3.73808L27.3441 3.11498L27.3449 3.11415L27.4319 3.02717L27.4952 2.92169C27.9478 2.16782 28.7708 1.66699 29.7095 1.66699C31.1348 1.66699 32.2904 2.82261 32.2904 4.24783C32.2904 5.71629 31.0629 6.82783 29.7912 6.82783H28.6375L28.8013 7.96983C28.8125 8.04737 28.822 8.11222 28.8301 8.17726C28.8926 8.67676 28.8737 9.18646 28.8737 15.5278C28.8737 16.1254 28.3902 16.6112 27.7895 16.6112H26.8012L26.7896 17.5994C26.7545 20.5815 24.9173 23.1335 22.312 24.2122L21.3949 24.592L21.707 25.362V25.7362C21.707 28.2039 23.7186 30.2018 26.2004 30.1811L26.2013 30.1811C29.0457 30.1548 31.3737 32.513 31.3737 35.3953V38.3337H7.70703V35.3953C7.70703 32.513 10.035 30.1548 12.8794 30.1811Z" fill="white" stroke="black" stroke-width="2"/>
<path d="M27.2159 11.8562L27.2159 11.8562C28.0944 11.9063 28.79 12.6307 28.79 13.5201L28.7901 17.1411C28.7901 17.3824 28.79 17.4945 28.7899 17.5496C28.7898 17.5761 28.7897 17.5944 28.7895 17.609C28.7894 17.6143 28.7892 17.6238 28.789 17.6306C28.7889 17.6378 28.7887 17.642 28.7889 17.6351L27.7892 17.6106C27.7492 21.0065 25.6567 23.909 22.6942 25.1356C17.2845 27.3812 11.29 23.392 11.29 17.5106V13.5781C11.29 13.1874 11.6247 12.8786 12.0139 12.9139C16.0128 13.2765 19.9507 12.2666 23.2575 10.039L27.2159 11.8562ZM27.2159 11.8562C26.3033 11.8043 25.5377 11.2637 25.2352 10.1491L24.2754 10.4095L25.2352 10.1491C24.9335 9.03708 23.6318 8.58112 22.6988 9.20958L22.6987 9.2096C19.5836 11.3082 15.875 12.2599 12.1042 11.918L12.1041 11.918M27.2159 11.8562L12.1041 11.918M12.1041 11.918C11.1233 11.8291 10.29 12.6056 10.29 13.5781V17.5106C10.29 24.1051 17.0095 28.5781 23.0776 26.0592L12.1041 11.918Z" fill="white" stroke="black" stroke-width="2"/>
<path d="M29.7912 7.82783C29.9012 8.59458 29.8737 8.43708 29.8737 15.5278C29.8737 16.6766 28.9436 17.6112 27.7895 17.6112C27.7909 17.5567 27.7904 17.7769 27.7904 13.5203C27.7904 13.1662 27.5137 12.8753 27.1595 12.8553C25.8404 12.7799 24.693 11.9654 24.2704 10.4112C24.152 9.97366 23.6337 9.78616 23.2579 10.0395C19.9183 12.289 15.9761 13.2727 12.0145 12.9145C11.6254 12.8795 11.2904 13.1878 11.2904 13.5787V17.6112C10.1395 17.6112 9.20703 16.6787 9.20703 15.5278V9.00033C9.20703 4.39783 12.9379 0.666992 17.5404 0.666992H21.5404C23.4604 0.666992 25.2287 1.31616 26.637 2.40783L26.6379 2.40699C27.2637 1.36449 28.4054 0.666992 29.7095 0.666992C31.687 0.666992 33.2904 2.27033 33.2904 4.24783C33.2904 6.27866 31.605 7.82783 29.7912 7.82783Z" fill="black"/>
<path d="M33.2898 4.24757C33.2898 5.55674 32.5873 6.70091 31.5398 7.32591C31.5398 4.77857 30.3804 2.43624 28.4814 0.882574C30.8029 0.0329076 33.2898 1.75457 33.2898 4.24757Z" fill="black"/>
<path d="M12.7637 30.0141C12.8531 30.0154 12.9539 30.0169 13.0593 30.0176L13.0259 30.1436L13.8134 30.4862L17.101 31.9167L17.6212 32.143L18.0823 31.8127C20.2061 30.2914 21.7575 29.7716 23.2724 29.2639C23.3244 29.2465 23.3763 29.2291 23.4282 29.2117C23.822 29.4745 24.2615 29.6521 24.6805 29.7711C25.2761 29.9402 25.9031 30.0117 26.463 30.0117C29.481 30.0117 32 32.5361 32 35.7373V38.9997H7V35.7373C7 32.5507 9.50353 30.0117 12.537 30.0117C12.5968 30.0117 12.6746 30.0128 12.7637 30.0141Z" fill="#FFD749" stroke="black" stroke-width="2"/>
<path d="M12.5 29C13.0653 29 13.6036 29.3754 14.0859 29.1479L14.5 29L19.1664 32.3522C15.8379 34.7534 11.9376 36.4085 9.96527 40H6.73772C6.33032 40 6 39.6576 6 39.2353V35.4826C6 31.5498 8.69888 29 12.5 29Z" fill="black"/>
</svg>
