<svg width="316" height="165" viewBox="0 0 316 165" fill="none" xmlns="http://www.w3.org/2000/svg">
<g clip-path="url(#clip0)">
<path d="M51.5218 81.0043C55.9111 79.9209 59.6361 76.8451 62.1639 73.0968C64.6918 69.3485 66.1203 64.96 67.0461 60.5348C68.6081 53.051 68.8139 45.3475 67.6538 37.791C69.6112 38.853 71.821 39.3614 74.0457 39.2616C76.2703 39.1617 78.4257 38.4573 80.28 37.2242C86.2925 33.1062 87.1783 23.8202 83.2385 17.6894C79.2988 11.5585 71.7451 8.46574 64.4599 8.28132C57.1746 8.09691 50.0658 10.4229 43.3032 13.139C38.844 14.9299 34.3785 16.9531 30.7969 20.1568C27.2153 23.3605 24.592 27.9441 24.7815 32.7457C24.9003 35.7561 26.0958 38.6635 26.0672 41.676C26.0153 47.1452 22.0402 51.7067 18.1255 55.5263C14.2108 59.3459 9.89946 63.3589 8.83267 68.7232C7.628 74.7808 11.209 81.1353 16.483 84.3495C21.757 87.5638 28.3484 88.0175 34.4199 86.8844C40.4913 85.7513 46.1792 83.1627 51.7971 80.5966" fill="black"/>
<path d="M58.9382 93.9538L41.4235 74.6895C44.7608 66.0501 42.9332 57.8631 37.1625 50.0215L66.3122 53.5937L58.9382 93.9538Z" fill="white" stroke="black" stroke-width="3" stroke-linecap="round"/>
<path d="M240 61.0835C240 61.0835 250.667 81.1103 248.889 84.5932C247.111 88.0761 272 68.0493 272 68.0493C272 68.0493 263.111 54.1177 263.111 49.764C263.111 45.4104 240 61.0835 240 61.0835Z" fill="white" stroke="black" stroke-width="3" stroke-linecap="round"/>
<path d="M272.289 65.2256C272.289 65.2256 268.977 56.395 263.112 61.6925C257.247 66.99 245.744 80.402 245.744 80.402C245.744 80.402 244.581 85.6768 241.926 90.0878C239.271 94.4989 243.168 122.443 243.168 122.443C243.168 122.443 246.16 155.95 247.929 160.361C249.699 164.773 245.744 170.209 251.938 170.209C258.132 170.209 248.398 163.151 268.75 170.209C289.101 177.267 312.107 186.089 313.877 179.913C315.647 173.738 311.222 170.209 313.877 167.562C316.532 164.916 313.877 164.033 312.107 157.858C310.338 151.682 308.568 150.8 307.683 142.86C306.798 134.92 307.683 126.98 305.913 123.452C304.144 119.923 304.144 114.63 304.144 105.807C304.144 96.9853 298.835 79.341 289.101 74.0477C279.368 68.7544 272.289 65.2256 272.289 65.2256Z" fill="black"/>
<path d="M78.9432 125.494C83.4602 109.732 79.3351 92.8031 68.548 80.3558C66.1485 77.583 63.7353 74.7355 60.5865 73.0746C56.8395 71.1085 52.405 71.0407 48.163 71C44.416 71 40.5522 71 37.1078 72.4712C32.4533 74.4305 29.2425 78.6881 26.5337 82.9117C23.6461 87.4134 21.0336 92.2879 20.5935 97.6031C20.3598 100.756 20.9235 103.956 20.4492 107.094C19.8441 111.074 17.596 114.64 16.6747 118.559C16.1728 120.674 16.0697 122.864 15.7466 125.02C15.2597 127.969 14.5519 130.879 13.629 133.725C6.79783 156.091 -2.55589 177.631 -14.2568 197.941C-17.6944 203.927 -21.3726 209.846 -23.6827 216.334C-24.7277 219.269 -25.484 222.436 -24.6314 225.459C-23.2083 230.476 -16.78 233.425 -11.9742 231.263C-12.152 231.82 -12.1158 232.422 -11.8724 232.955C-11.6289 233.487 -11.1954 233.913 -10.6542 234.151C-9.51155 234.659 -8.26235 234.892 -7.01034 234.829L35.4508 235.94C36.5661 235.968 37.675 236.116 38.7578 236.381C43.7492 237.642 41.8722 239.771 42.4085 241.547C43.0616 243.717 46.2173 243.54 48.4174 242.903C48.0805 246.069 48.0049 249.94 52.1507 250.862C53.2261 251.077 54.3376 251.04 55.3957 250.754C62.9186 248.843 70.7191 248.224 78.4551 248.923C81.2877 249.181 84.5259 249.493 86.6228 247.567C88.2041 246.137 88.6166 243.859 88.8848 241.757C93.113 208.537 84.4159 175.27 77.8845 142.45C77.0045 138.023 77.3207 130.85 78.6407 126.525L78.9432 125.494Z" fill="#FFD749" stroke="black" stroke-width="3" stroke-linecap="round"/>
<path d="M265 139H65.0417L40 167H249.333L265 139Z" fill="#EAEAEA" stroke="black" stroke-width="3" stroke-linecap="round"/>
<path d="M220.268 133.657C220.268 133.657 191.492 126.178 189.145 132.611C186.798 139.045 213.713 145 213.713 145H225L220.268 133.657Z" fill="white" stroke="black" stroke-width="3" stroke-linecap="round"/>
<path d="M282.405 76C282.405 76 269.431 85.574 265.971 99.4999C262.511 113.426 259.917 128.222 259.917 128.222L220.13 133.444C220.13 133.444 216.67 147.37 221.86 148.241C227.049 149.111 265.971 151.722 272.026 148.241C278.08 144.759 298.839 101.241 297.974 96.8888C297.109 92.537 295.379 76.8704 282.405 76Z" fill="black"/>
<path d="M29.2337 132.539C28.5149 126.897 29.4911 120.483 31.6542 115.118L58.2976 102C58.6791 110.463 57.6261 118.929 55.1716 127.134C54.8865 127.779 54.8587 128.487 55.0925 129.148C55.3293 129.538 55.6705 129.874 56.0883 130.13C62.2809 134.451 70.9335 134.711 78.9199 134.902C88.2803 135.128 97.6297 135.523 106.968 136.087C111.116 136.358 115.898 136.973 118.001 140.036C119.709 142.524 118.918 145.684 117.909 148.437C117.461 149.656 116.874 150.976 115.555 151.585C114.749 151.898 113.866 152.038 112.983 151.991C105.741 151.991 98.8893 149.108 91.6745 148.606C87.2163 148.296 82.7449 148.894 78.2736 148.77C75.1114 148.614 71.9612 148.315 68.8363 147.873C62.1219 147.077 55.3599 146.61 48.5833 146.474C45.754 146.417 42.872 146.412 40.1813 145.656C33.8502 143.878 29.9526 138.18 29.2337 132.539Z" fill="white" stroke="black" stroke-width="3" stroke-linecap="round"/>
<path d="M26.2944 130C25.3889 121.687 26.6185 112.236 29.3433 104.33L62.9041 85C63.3846 97.4708 62.0583 109.945 58.9665 122.036L26.2944 130Z" fill="#FFD749"/>
<path d="M29.2993 104.545C26.6104 112.385 25.397 121.756 26.2905 130L58.5322 120.955C61.5833 108.966 59.0065 102.366 58.5323 90" stroke="black" stroke-width="3" stroke-linecap="round"/>
<path d="M65.8348 58.8034C77.0005 54.3478 82.44 41.6842 77.9844 30.5186C73.5288 19.3529 60.8653 13.9133 49.6996 18.3689C38.534 22.8245 33.0944 35.4881 37.55 46.6537C42.0056 57.8194 54.6691 63.259 65.8348 58.8034Z" fill="white" stroke="black" stroke-width="3" stroke-linecap="round"/>
<path d="M56.6657 34.4663C60.7281 37.4277 65.6364 39.0015 70.6634 38.9545C74.2198 38.9115 78.2492 37.6455 79.6222 34.3644C80.6167 31.9877 79.9019 29.2257 78.7139 26.9395C75.0057 19.8034 66.837 15.5604 58.795 15.5413C50.753 15.5222 42.9947 19.3238 37.203 24.9033C31.7385 30.1675 27.7154 38.0904 30.173 45.269C31.4325 48.9479 34.3235 52.3986 33.6037 56.2199C33.0616 59.0979 30.6172 61.1549 28.5001 63.1784C26.383 65.2019 24.3155 67.8869 24.8633 70.7638C25.2356 72.7194 26.8044 74.2896 28.6146 75.1181C30.4672 75.8637 32.4518 76.2255 34.4483 76.1817C39.2618 76.2918 44.2267 75.5767 48.3766 73.1355C52.5265 70.6944 55.7266 66.297 55.811 61.4831C55.8759 57.776 54.1731 54.3014 52.6465 50.9226C51.1199 47.5438 49.7045 43.8613 50.379 40.2155C51.0534 36.5696 54.6672 33.2372 58.242 34.2211" fill="black"/>
<path d="M246 69C257.598 69 267 59.1503 267 47C267 34.8497 257.598 25 246 25C234.402 25 225 34.8497 225 47C225 59.1503 234.402 69 246 69Z" fill="white" stroke="black" stroke-width="3" stroke-linecap="round"/>
<path d="M224.607 22.9934C229.683 18.1669 235.018 13.185 241.776 11.0828C250.796 8.27702 260.852 11.2212 268.617 16.4984C270.292 17.6369 271.933 18.9259 272.939 20.657C273.863 22.245 274.186 24.0879 274.478 25.8905C275.509 32.2383 276.354 38.6709 275.85 45.0788C275.346 51.4868 273.406 57.9275 269.354 63C265.762 59.2619 263.006 54.8386 261.259 50.0097C260.798 48.7318 260.383 47.3852 259.452 46.3796C258.52 45.374 256.88 44.8328 255.711 45.566C254.086 46.5846 254.29 49.3049 252.574 50.171C251.987 50.4304 251.329 50.4976 250.7 50.3624C246.227 49.6118 244.67 44.2749 241.759 40.8836C237.469 35.8849 231.462 36.2013 225.599 34.7647C218.795 33.0977 220.48 26.9167 224.607 22.9934Z" fill="black"/>
<path d="M192.842 155.745L199.835 145.565L141.843 145.565L130.328 155.745L192.842 155.745Z" fill="white" stroke="black" stroke-width="3" stroke-linecap="round"/>
</g>
<defs>
<clipPath id="clip0">
<rect width="316" height="165" fill="white"/>
</clipPath>
</defs>
</svg>
