<svg width="420" height="378" viewBox="0 0 420 378" fill="none" xmlns="http://www.w3.org/2000/svg">
<path d="M418.391 160.508V282.411H98.4766V160.508C98.4761 120.053 114.085 81.1283 142.107 51.7078C170.129 22.2873 208.442 4.59736 249.199 2.26147C252.253 2.08502 255.331 1.99788 258.434 2.00004C260.201 2.00004 261.963 2.02617 263.711 2.09154C304.297 3.36424 342.863 19.9372 371.538 48.428C372.402 49.2843 373.253 50.1471 374.104 51.023C402.538 80.508 418.401 119.724 418.391 160.508Z" fill="white" stroke="black" stroke-width="3" stroke-linecap="round"/>
<path d="M263.712 2.09157V282.411H249.2V2.26147C252.254 2.08502 255.332 1.99788 258.435 2.00004C260.203 2.00004 261.964 2.02617 263.712 2.09157Z" fill="#FFD749" stroke="black" stroke-width="3" stroke-linecap="round"/>
<path fill-rule="evenodd" clip-rule="evenodd" d="M394.044 106.584H280.662V296.793H394.044V106.584ZM320.201 138.717H303.051V155.712H320.201V138.717ZM330.683 138.717H347.833V155.712H330.683V138.717ZM375.464 138.717H358.313V155.712H375.464V138.717ZM303.529 177.428H320.679V194.423H303.529V177.428ZM348.31 177.428H331.159V194.423H348.31V177.428ZM358.79 177.428H375.94V194.423H358.79V177.428Z" fill="#FFD749"/>
<path d="M280.662 106.584V105.084H279.162V106.584H280.662ZM394.044 106.584H395.544V105.084H394.044V106.584ZM280.662 296.793H279.162V298.293H280.662V296.793ZM394.044 296.793V298.293H395.544V296.793H394.044ZM303.051 138.717V137.217H301.551V138.717H303.051ZM320.201 138.717H321.701V137.217H320.201V138.717ZM303.051 155.712H301.551V157.212H303.051V155.712ZM320.201 155.712V157.212H321.701V155.712H320.201ZM347.833 138.717H349.333V137.217H347.833V138.717ZM330.683 138.717V137.217H329.183V138.717H330.683ZM347.833 155.712V157.212H349.333V155.712H347.833ZM330.683 155.712H329.183V157.212H330.683V155.712ZM358.313 138.717V137.217H356.813V138.717H358.313ZM375.464 138.717H376.964V137.217H375.464V138.717ZM358.313 155.712H356.813V157.212H358.313V155.712ZM375.464 155.712V157.212H376.964V155.712H375.464ZM320.679 177.428H322.179V175.928H320.679V177.428ZM303.529 177.428V175.928H302.029V177.428H303.529ZM320.679 194.423V195.923H322.179V194.423H320.679ZM303.529 194.423H302.029V195.923H303.529V194.423ZM331.159 177.428V175.928H329.659V177.428H331.159ZM348.31 177.428H349.81V175.928H348.31V177.428ZM331.159 194.423H329.659V195.923H331.159V194.423ZM348.31 194.423V195.923H349.81V194.423H348.31ZM375.94 177.428H377.44V175.928H375.94V177.428ZM358.79 177.428V175.928H357.29V177.428H358.79ZM375.94 194.423V195.923H377.44V194.423H375.94ZM358.79 194.423H357.29V195.923H358.79V194.423ZM280.662 108.084H394.044V105.084H280.662V108.084ZM282.162 296.793V106.584H279.162V296.793H282.162ZM394.044 295.293H280.662V298.293H394.044V295.293ZM392.544 106.584V296.793H395.544V106.584H392.544ZM303.051 140.217H320.201V137.217H303.051V140.217ZM304.551 155.712V138.717H301.551V155.712H304.551ZM320.201 154.212H303.051V157.212H320.201V154.212ZM318.701 138.717V155.712H321.701V138.717H318.701ZM347.833 137.217H330.683V140.217H347.833V137.217ZM349.333 155.712V138.717H346.333V155.712H349.333ZM330.683 157.212H347.833V154.212H330.683V157.212ZM329.183 138.717V155.712H332.183V138.717H329.183ZM358.313 140.217H375.464V137.217H358.313V140.217ZM359.813 155.712V138.717H356.813V155.712H359.813ZM375.464 154.212H358.313V157.212H375.464V154.212ZM373.964 138.717V155.712H376.964V138.717H373.964ZM320.679 175.928H303.529V178.928H320.679V175.928ZM322.179 194.423V177.428H319.179V194.423H322.179ZM303.529 195.923H320.679V192.923H303.529V195.923ZM302.029 177.428V194.423H305.029V177.428H302.029ZM331.159 178.928H348.31V175.928H331.159V178.928ZM332.659 194.423V177.428H329.659V194.423H332.659ZM348.31 192.923H331.159V195.923H348.31V192.923ZM346.81 177.428V194.423H349.81V177.428H346.81ZM375.94 175.928H358.79V178.928H375.94V175.928ZM377.44 194.423V177.428H374.44V194.423H377.44ZM358.79 195.923H375.94V192.923H358.79V195.923ZM357.29 177.428V194.423H360.29V177.428H357.29Z" fill="black"/>
<path d="M136.504 243.735C149.558 243.735 160.141 233.248 160.141 220.312C160.141 207.376 149.558 196.889 136.504 196.889C123.449 196.889 112.866 207.376 112.866 220.312C112.866 233.248 123.449 243.735 136.504 243.735Z" fill="#FFD749" stroke="black" stroke-width="3" stroke-linecap="round"/>
<path d="M136.571 220.312H136.636L137.805 286.721H135.338L136.571 220.312Z" fill="#FFD749" stroke="black" stroke-width="3" stroke-linecap="round"/>
<path d="M205.999 221.354C225.851 221.354 241.944 205.407 241.944 185.735C241.944 166.063 225.851 150.115 205.999 150.115C186.147 150.115 170.054 166.063 170.054 185.735C170.054 205.407 186.147 221.354 205.999 221.354Z" fill="#FFD749" stroke="black" stroke-width="3" stroke-linecap="round"/>
<path d="M206.097 185.734H206.195L207.973 286.721H204.221L206.097 185.734Z" fill="#FFD749" stroke="black" stroke-width="3" stroke-linecap="round"/>
<path d="M58.4234 362.102L58.4085 362.096C57.9504 361.888 57.5434 361.585 57.215 361.208C56.8705 360.606 56.6912 359.926 56.6952 359.234L56.6953 359.211L56.6933 359.187C56.003 351.357 54.432 343.629 52.0096 336.145C51.2257 333.704 50.3462 331.274 49.4694 328.851L49.4166 328.705C48.5212 326.231 47.6306 323.764 46.8417 321.284C45.2636 316.324 44.1022 311.343 44.1336 306.229L44.1336 306.226L44.1336 306.224V306.223V306.221V306.22V306.218V306.217V306.215V306.214V306.212V306.211V306.209V306.208V306.206V306.205V306.203V306.202V306.2V306.199V306.197V306.196V306.194V306.193V306.192V306.19V306.189V306.187V306.186V306.184V306.183V306.181V306.18V306.178V306.177V306.175V306.174V306.172V306.171V306.169V306.168V306.166V306.165V306.163V306.162V306.16V306.159V306.157V306.156V306.154V306.153V306.151V306.15V306.148V306.147V306.145V306.144V306.142V306.141V306.139V306.138V306.136V306.135V306.133V306.132V306.13V306.129V306.127V306.126V306.124V306.123V306.121V306.12V306.118V306.117V306.115V306.114V306.112V306.111V306.109V306.108V306.106V306.104V306.103V306.101V306.1V306.098V306.097V306.095V306.094V306.092V306.091V306.089V306.088V306.086V306.085V306.083V306.082V306.08V306.079V306.077V306.076V306.074V306.073V306.071V306.07V306.068V306.067V306.065V306.064V306.062V306.061V306.059V306.058V306.056V306.055V306.053V306.052V306.05V306.049V306.047V306.046V306.044V306.042V306.041V306.039V306.038V306.036V306.035V306.033V306.032V306.03V306.029V306.027V306.026V306.024V306.023V306.021V306.02V306.018V306.017V306.015V306.014V306.012V306.011V306.009V306.008V306.006V306.005V306.003V306.002V306V305.998V305.997V305.995V305.994V305.992V305.991V305.989V305.988V305.986V305.985V305.983V305.982V305.98V305.979V305.977V305.976V305.974V305.973V305.971V305.97V305.968V305.967V305.965V305.964V305.962V305.961V305.959V305.958V305.956V305.954V305.953V305.951V305.95V305.948V305.947V305.945V305.944V305.942V305.941V305.939V305.938V305.936V305.935V305.933V305.932V305.93V305.929V305.927V305.926V305.924V305.923V305.921V305.92V305.918V305.917V305.915V305.914V305.912V305.911V305.909V305.907V305.906V305.904V305.903V305.901V305.9V305.898V305.897V305.895V305.894V305.892V305.891V305.889V305.888V305.886V305.885V305.883V305.882V305.88V305.879V305.877V305.876V305.874V305.873V305.871V305.87V305.868V305.867V305.865V305.864V305.862V305.861V305.859V305.858V305.856V305.855V305.853V305.852V305.85V305.849V305.847V305.846V305.844V305.843V305.841V305.84V305.838V305.837V305.835V305.834V305.832V305.831V305.829V305.828V305.826V305.825V305.823V305.822V305.82V305.819V305.817V305.816V305.814V305.813V305.811V305.81V305.808V305.807V305.805V305.804V305.802V305.801V305.799V305.798V305.796V305.795V305.793V305.792V305.79V305.789V305.787V305.786V305.784V305.783V305.781V305.78V305.778V305.777V305.775V305.774V305.772V305.771V305.769V305.768V305.766V305.765V305.763V305.762V305.76V305.759V305.757V305.756V305.755V305.753V305.752V305.75V305.749V305.747V305.746V305.744V305.743V305.741V305.74V305.738V305.737V305.735V305.734V305.732V305.731V305.729V305.728V305.726V305.725V305.724V305.722V305.721V305.719V305.718V305.716V305.715V305.713V305.712V305.71V305.709V305.707V305.706V305.704V305.703V305.702V305.7V305.699V305.697V305.696V305.694V305.693V305.691V305.69V305.688V305.687V305.686V305.684V305.683V305.681V305.68V305.678V305.677V305.675V305.674V305.672V305.671V305.67V305.668V305.667V305.665V305.664V305.662V305.661V305.659V305.658V305.657V305.655V305.654V305.652V305.651V305.649V305.648V305.646V305.645V305.644V305.642V305.641V305.639V305.638V305.636V305.635V305.634V305.632V305.631V305.629V305.628V305.626V305.625V305.624V305.622V305.621V305.619V305.618V305.616V305.615V305.614V305.612V305.611V305.609V305.608V305.607V305.605V305.604V305.602V305.601V305.599V305.598V305.597V305.595V305.594V305.592V305.591V305.59V305.588V305.587V305.585V305.584V305.583V305.581V305.58V305.578V305.577V305.576V305.574V305.573V305.571V305.57V305.569V305.567V305.566V305.564V305.563V305.562V305.56V305.559V305.557V305.556V305.555V305.553V305.552V305.551V305.549V305.548V305.546V305.545V305.544V305.542V305.541V305.539V305.538V305.537V305.535V305.534V305.533V305.531V305.53V305.529V305.527V305.526V305.524V305.523V305.522V305.52V305.519V305.518V305.516V305.515V305.514V305.512V305.511V305.509V305.508V305.507V305.505V305.504V305.503V305.501V305.5V305.499V305.497V305.496V305.495V305.493V305.492V305.491V305.489V305.488V305.487V305.485V305.484V305.483V305.481V305.48C44.1952 303.278 44.4811 301.11 44.7712 298.912C44.9056 297.892 45.041 296.866 45.1553 295.826L45.1553 295.826C45.7338 290.512 45.6917 285.161 45.6499 279.859C45.6488 279.728 45.6478 279.597 45.6468 279.466C45.6923 277.305 45.5409 275.145 45.1943 273.011L45.193 273.003L45.1915 272.995C45.1002 272.529 44.948 272.072 44.7932 271.642C44.7469 271.513 44.7008 271.388 44.6556 271.266C44.5458 270.968 44.4416 270.685 44.3523 270.4C44.1012 269.598 44.0317 268.959 44.323 268.389L44.3231 268.389C44.9763 267.111 46.539 266.167 48.4128 265.53C50.2619 264.902 52.2924 264.614 53.707 264.563C57.5384 264.429 61.3211 265.422 65.1181 266.435C66.2934 266.752 67.3707 267.059 68.1354 267.765C69.1488 268.706 69.4789 270.227 69.5206 271.779L69.5206 271.78C69.6188 275.199 68.6746 278.515 67.6369 281.909C67.57 282.128 67.5026 282.347 67.4352 282.566C66.4648 285.726 65.4707 288.963 65.316 292.313M58.4234 362.102L65.8155 292.336M58.4234 362.102L58.4379 362.11C63.4152 364.772 69.2684 365.244 75.0527 365.667M58.4234 362.102L58.2021 362.551M65.316 292.313L65.8155 292.336M65.316 292.313C65.316 292.313 65.316 292.313 65.316 292.313L65.8155 292.336M65.316 292.313C65.3078 292.49 65.3019 292.664 65.2961 292.834C65.2802 293.302 65.2651 293.748 65.2052 294.189C65.1265 294.77 64.9758 295.281 64.6766 295.712M65.8155 292.336C65.808 292.499 65.8024 292.664 65.7968 292.829C65.7588 293.947 65.7196 295.103 65.0722 296.019M64.6766 295.712C64.6818 295.706 64.6871 295.7 64.6923 295.694L65.0722 296.019M64.6766 295.712C64.2067 296.26 63.6969 296.772 63.1515 297.246L63.1304 297.265L63.1115 297.285C61.3595 299.189 61.3406 302.012 61.4509 304.334L61.451 304.336C61.4989 305.285 61.5521 306.235 61.6161 307.185L61.6161 307.186C62.4863 319.867 65.0714 332.376 69.3021 344.375M64.6766 295.712C64.6724 295.718 64.6681 295.725 64.6638 295.731L65.0722 296.019M65.0722 296.019L69.3021 344.375M69.3021 344.375C69.3013 344.373 69.3005 344.37 69.2997 344.368L69.7761 344.216M69.3021 344.375L61.9504 304.311C61.9982 305.258 62.0513 306.205 62.115 307.152C62.9823 319.791 65.559 332.257 69.7761 344.216M69.3021 344.375C69.3029 344.378 69.3038 344.38 69.3046 344.382L69.7761 344.216M69.3021 344.375C69.7184 345.681 70.2644 346.943 70.9321 348.142L70.9401 348.157L70.9492 348.17C72.0427 349.86 73.4085 351.36 74.9918 352.611M69.7761 344.216C70.1827 345.493 70.7162 346.727 71.3689 347.899C72.4341 349.544 73.765 351.005 75.3084 352.223M74.9918 352.611C74.9897 352.609 74.9875 352.607 74.9854 352.605L75.3084 352.223M74.9918 352.611C74.9941 352.612 74.9963 352.614 74.9986 352.616L75.3084 352.223M74.9918 352.611C77.1986 354.477 79.5625 356.154 82.0578 357.621L82.0583 357.621C82.2206 357.716 82.3824 357.81 82.5433 357.904C84.0607 358.785 85.4994 359.621 86.4532 360.917C86.9614 361.607 87.2699 362.476 87.2952 363.307C87.3203 364.132 87.0676 364.884 86.4982 365.411M75.3084 352.223C77.4952 354.074 79.8381 355.736 82.3112 357.19C82.4739 357.285 82.6377 357.38 82.8019 357.475C84.3036 358.346 85.8365 359.235 86.8559 360.62C87.9868 362.156 88.2363 364.487 86.8346 365.781M86.4982 365.411C86.4991 365.411 86.4999 365.41 86.5008 365.409L86.8346 365.781M86.4982 365.411C86.4973 365.412 86.4964 365.413 86.4954 365.414L86.8346 365.781M86.4982 365.411C86.0111 365.847 85.377 366.077 84.6427 366.179C83.9041 366.282 83.102 366.25 82.3102 366.193L75.0527 365.667M86.8346 365.781C85.6613 366.833 83.8668 366.807 82.274 366.691L75.0163 366.165M75.0163 366.165L75.0527 365.667M75.0163 366.165C69.2505 365.744 63.2883 365.271 58.2021 362.551M75.0163 366.165L75.0525 365.667L75.0527 365.667M58.2021 362.551C57.6638 362.307 57.1868 361.948 56.8058 361.499C56.4014 360.811 56.1906 360.028 56.1952 359.231M58.2021 362.551L56.1952 359.231M44.6583 295.772C44.5466 296.788 44.4129 297.802 44.2793 298.815C43.9873 301.03 43.6955 303.243 43.6336 305.473L44.6583 295.772ZM44.6583 295.772C45.2336 290.487 45.1916 285.162 45.1498 279.851L45.1467 279.462L44.6583 295.772ZM56.1952 359.231C55.5082 351.439 53.9447 343.747 51.5337 336.298L56.1952 359.231Z" fill="white" stroke="black"/>
<path d="M86.8346 365.781C85.6613 366.833 83.8668 366.807 82.274 366.691L75.0163 366.165C69.2505 365.744 63.2883 365.271 58.2021 362.551C57.6638 362.307 57.1868 361.948 56.8058 361.499C56.4014 360.811 56.1906 360.028 56.1952 359.231C55.5082 351.439 53.9447 343.747 51.5337 336.298C48.3482 326.381 43.5699 316.606 43.6336 306.226C43.6336 305.973 43.6336 305.7 43.6336 305.473C43.7239 302.222 44.3026 299.007 44.6583 295.772C45.2476 290.358 45.1892 284.902 45.1467 279.462C45.1922 277.33 45.0429 275.197 44.7008 273.091C44.3663 271.381 43.108 269.666 43.8778 268.162C45.3697 265.242 50.7798 264.168 53.6892 264.063C57.6074 263.926 61.4619 264.942 65.2474 265.952C66.3995 266.262 67.6047 266.594 68.4754 267.399C69.6434 268.483 69.9779 270.182 70.0204 271.765C70.2221 278.789 66.1394 285.323 65.8155 292.336C65.7571 293.599 65.8155 294.967 65.0722 296.019C64.5819 296.592 64.0495 297.128 63.4794 297.624C61.8867 299.355 61.8389 301.964 61.9504 304.311C61.9982 305.258 62.0513 306.205 62.115 307.152C62.9823 319.791 65.559 332.257 69.7761 344.216C70.1827 345.493 70.7162 346.727 71.3689 347.899C72.4341 349.544 73.765 351.005 75.3084 352.223C77.4952 354.074 79.8381 355.736 82.3112 357.19C83.9624 358.158 85.725 359.084 86.8559 360.62C87.9868 362.156 88.2363 364.487 86.8346 365.781Z" fill="white" stroke="black" stroke-width="3" stroke-linecap="round"/>
<path d="M81.5241 373.146C80.3508 374.199 78.5563 374.172 76.9635 374.057L69.7058 373.531C63.94 373.11 57.9778 372.636 52.8915 369.916C52.3532 369.672 51.8763 369.313 51.4952 368.864C51.0909 368.176 50.8801 367.393 50.8847 366.596C50.1977 358.804 48.6341 351.112 46.2232 343.663C43.0376 333.746 38.2593 323.971 38.3231 313.591C38.3231 313.338 38.3231 313.065 38.3231 312.839C38.4133 309.587 38.992 306.373 39.3477 303.137C39.9371 297.723 39.8787 292.268 39.8362 286.828C39.8816 284.695 39.7323 282.563 39.3902 280.456C39.0557 278.747 37.7975 277.032 38.5673 275.527C40.0592 272.607 45.4693 271.534 48.3787 271.428C52.2969 271.292 56.1514 272.307 59.9369 273.317C61.089 273.628 62.2941 273.959 63.1648 274.764C64.3329 275.848 64.6674 277.547 64.7098 279.131C64.9116 286.154 60.8288 292.689 60.505 299.702C60.4466 300.964 60.5049 302.332 59.7617 303.384C59.2713 303.957 58.739 304.494 58.1689 304.989C56.5761 306.72 56.5283 309.329 56.6398 311.676C56.6876 312.623 56.7407 313.57 56.8044 314.517C57.6717 327.156 60.2485 339.622 64.4656 351.581C64.8721 352.858 65.4057 354.092 66.0584 355.264C67.1236 356.91 68.4545 358.371 69.9978 359.589C72.1847 361.439 74.5275 363.101 77.0007 364.555C78.6518 365.523 80.4145 366.449 81.5454 367.985C82.6762 369.522 82.9257 371.852 81.5241 373.146Z" fill="white" stroke="black" stroke-width="3" stroke-linecap="round"/>
<path d="M90.498 160.389C87.9125 157.233 87.8434 152.824 87.9072 148.773C87.9072 147.195 87.9549 145.564 88.0133 143.959V143.922C88.0851 140.973 88.3994 138.035 88.9531 135.136C89.2323 133.745 89.6048 132.374 90.068 131.032C89.7176 130.954 89.3672 130.88 89.0062 130.817C83.441 129.728 77.7146 129.728 72.1494 130.817C71.1885 131.006 68.7568 130.964 67.3711 131.432C66.9766 131.526 66.633 131.765 66.4102 132.101C66.1394 132.663 66.6969 134.294 67.1004 135.741C67.3222 136.393 67.4474 137.074 67.472 137.761C67.4183 138.408 67.319 139.049 67.1747 139.682C66.9252 140.844 66.596 141.997 66.442 143.175C66.1713 145.185 66.4102 147.231 66.2774 149.257C66.1447 151.282 65.5554 153.413 63.9998 154.734C73.0383 155.502 81.942 157.402 90.498 160.389Z" fill="white" stroke="black" stroke-width="3" stroke-linecap="round"/>
<path opacity="0.1" d="M66.3748 138.795C67.0809 138.853 67.7818 138.921 68.4985 139C75.5704 139.749 82.5494 141.194 89.3318 143.314V143.278L90.2716 134.492C90.2716 133.966 90.2716 133.439 90.2716 132.887C90.2716 131.987 90.2981 131.077 90.3193 130.172C84.7542 129.083 79.0278 129.083 73.4626 130.172C72.5016 130.362 70.07 130.32 68.6843 130.788C68.6843 131.645 68.6843 132.503 68.6525 133.36C68.6176 133.944 68.5377 134.525 68.4135 135.097C68.1595 136.517 67.4436 137.816 66.3748 138.795Z" fill="black"/>
<path d="M79.77 141.209C68.9209 141.209 60.1259 132.494 60.1259 121.743C60.1259 110.993 68.9209 102.277 79.77 102.277C90.6191 102.277 99.4141 110.993 99.4141 121.743C99.4141 132.494 90.6191 141.209 79.77 141.209Z" fill="white" stroke="black" stroke-width="3" stroke-linecap="round"/>
<path d="M97.0252 195.144C100.513 182.912 97.3278 169.775 88.9976 160.116C87.1447 157.964 85.2812 155.754 82.8496 154.465C79.956 152.94 76.5316 152.887 73.2558 152.855C70.3623 152.855 67.3786 152.855 64.7186 153.997C61.1243 155.518 58.6449 158.822 56.5531 162.099C54.3232 165.593 52.3057 169.375 51.9659 173.5C51.7854 175.946 52.2207 178.43 51.8544 180.866C51.3872 183.954 49.6511 186.721 48.9397 189.762C48.5521 191.404 48.4725 193.103 48.2229 194.776C47.8469 197.065 47.3004 199.323 46.5877 201.531C41.3125 218.888 34.0893 235.603 25.0536 251.364C22.3989 256.01 19.5585 260.603 17.7746 265.638C16.9676 267.916 16.3836 270.373 17.0419 272.719C18.141 276.612 23.1051 278.901 26.8162 277.223C26.6789 277.655 26.7069 278.122 26.8949 278.536C27.0828 278.949 27.4177 279.279 27.8356 279.464C28.7179 279.859 29.6826 280.039 30.6494 279.99L63.4391 280.853C64.3004 280.874 65.1567 280.989 65.9928 281.195C69.8473 282.173 68.3979 283.825 68.812 285.204C69.3164 286.887 71.7533 286.75 73.4523 286.256C73.1921 288.713 73.1337 291.717 76.3352 292.432C77.1656 292.599 78.024 292.57 78.8411 292.348C84.6505 290.865 90.6742 290.385 96.6482 290.928C98.8356 291.128 101.336 291.37 102.956 289.876C104.177 288.765 104.495 286.998 104.702 285.367C107.967 259.587 101.251 233.771 96.2075 208.302C95.528 204.867 95.7722 199.3 96.7915 195.944L97.0252 195.144Z" fill="#FFD749" stroke="black" stroke-width="3" stroke-linecap="round"/>
<path fill-rule="evenodd" clip-rule="evenodd" d="M52.9822 178.777C53.1548 178.311 53.3273 177.844 53.4912 177.376C55.5411 171.34 56.6433 165.034 56.7645 158.678L66.6733 154.533C68.8076 153.644 71.0109 152.734 73.3257 152.697C77.8385 152.623 81.8788 156.006 83.6415 160.125C85.4041 164.245 85.2555 168.922 84.4697 173.326C84.1581 175.485 83.489 177.579 82.4894 179.523C81.4336 181.41 79.9113 182.968 78.3862 184.529C77.6106 185.323 76.8343 186.118 76.1183 186.957C75.0061 188.265 74.0369 189.685 73.0679 191.104C71.9832 192.692 70.8989 194.28 69.6146 195.712C67.9914 197.427 66.232 199.01 64.3531 200.447C58.5358 205.126 52.684 209.825 46.3401 213.761C45.9562 213.272 45.614 212.759 45.4159 212.168C44.8587 210.506 45.6201 208.736 46.3164 207.116C46.3366 207.069 46.3568 207.022 46.3768 206.975C47.8689 203.298 49.1296 199.533 50.1517 195.701C50.7986 193.731 51.2276 191.697 51.4312 189.635C51.4804 188.815 51.4593 187.991 51.4381 187.168C51.4114 186.128 51.3846 185.087 51.5002 184.053C51.705 182.231 52.344 180.503 52.9822 178.777ZM48.3322 218.405C48.7618 218.309 49.1873 218.188 49.6041 218.061C54.3028 216.635 58.6882 214.367 62.9356 211.9C66.2024 210.049 69.3115 207.938 72.232 205.587C81.8257 197.648 87.8039 186.047 90.8142 174.02C91.9185 169.653 92.6247 164.897 90.8142 160.773C89.9128 158.897 88.7156 157.176 87.2677 155.675C85.144 153.344 82.7867 151.129 79.8348 150.05C76.7448 148.93 73.3363 149.167 70.0818 149.63C66.0855 150.115 62.1805 151.168 58.4864 152.755L58.3898 152.799C57.7581 153.086 57.0753 153.397 56.4028 153.743C55.0572 149.481 50.1149 146.551 45.9149 145.636C42.4799 144.894 38.944 145.026 35.4187 145.199L32.9817 145.32L31.4686 145.389C28.1185 145.541 24.7312 145.805 21.912 147.493C17.1656 150.34 15.4826 156.332 14.9145 161.798C14.3307 167.436 14.4855 173.167 14.64 178.882C14.8915 188.188 15.1419 197.453 12.2015 206.207C11.9916 206.831 11.7656 207.451 11.5396 208.07C11.0451 209.426 10.5508 210.781 10.2265 212.179C10.025 213.046 9.88826 213.928 9.75155 214.809C9.56755 215.994 9.38368 217.179 9.04253 218.329C8.51294 220.125 7.62029 221.782 6.72726 223.44C6.39376 224.059 6.0602 224.678 5.74549 225.305C3.84634 229.09 2.62136 233.171 2.12461 237.369C1.90018 238.597 1.97849 239.86 2.35291 241.051C3.48376 243.987 7.30107 244.803 10.4707 244.576C11.1283 244.529 11.794 244.458 12.4616 244.386C15.0117 244.113 17.5905 243.836 19.8627 244.908C20.4368 245.172 21.0154 245.522 21.5955 245.872C23.1985 246.841 24.8123 247.816 26.3717 247.012C26.986 246.637 27.5112 246.134 27.9114 245.539L34.3302 237.284C36.0784 235.165 37.6431 232.904 39.0077 230.524C39.2485 230.073 39.4766 229.613 39.7048 229.153C40.3871 227.778 41.0698 226.402 42.0923 225.263C42.789 224.488 43.622 223.856 44.457 223.222C45.1237 222.716 45.7917 222.209 46.3928 221.627C47.303 220.747 48.0813 219.604 48.3322 218.405Z" fill="white"/>
<path d="M53.4912 177.376L54.9116 177.859L54.9069 177.872L53.4912 177.376ZM52.9822 178.777L51.5754 178.257L51.5754 178.257L52.9822 178.777ZM56.7645 158.678L55.2648 158.649L55.2834 157.671L56.1857 157.294L56.7645 158.678ZM66.6733 154.533L66.0944 153.149L66.0964 153.148L66.6733 154.533ZM73.3257 152.697L73.3502 154.197L73.3495 154.197L73.3257 152.697ZM83.6415 160.125L85.0205 159.535L83.6415 160.125ZM84.4697 173.326L82.9851 173.111L82.9887 173.087L82.993 173.062L84.4697 173.326ZM82.4894 179.523L83.8234 180.209L83.8113 180.233L83.7984 180.256L82.4894 179.523ZM78.3862 184.529L79.4593 185.578H79.4593L78.3862 184.529ZM76.1183 186.957L74.9755 185.985L74.9773 185.983L76.1183 186.957ZM73.0679 191.104L71.8291 190.258L73.0679 191.104ZM69.6146 195.712L70.7309 196.713L70.7177 196.728L70.7041 196.743L69.6146 195.712ZM64.3531 200.447L63.413 199.278L63.4274 199.266L63.4422 199.255L64.3531 200.447ZM46.3401 213.761L47.1309 215.035L45.9903 215.743L45.1608 214.687L46.3401 213.761ZM45.4159 212.168L46.838 211.691L45.4159 212.168ZM46.3164 207.116L47.6944 207.708L47.6944 207.709L46.3164 207.116ZM46.3768 206.975L47.7668 207.539L47.7611 207.553L47.7552 207.567L46.3768 206.975ZM50.1517 195.701L48.7024 195.314L48.7133 195.273L48.7266 195.233L50.1517 195.701ZM51.4312 189.635L52.9285 189.725L52.9268 189.753L52.924 189.782L51.4312 189.635ZM51.4381 187.168L49.9386 187.207V187.207L51.4381 187.168ZM51.5002 184.053L50.0095 183.886L50.0096 183.885L51.5002 184.053ZM49.6041 218.061L49.1667 216.626L49.1686 216.625L49.6041 218.061ZM48.3322 218.405L46.864 218.098L47.0617 217.153L48.0037 216.941L48.3322 218.405ZM62.9356 211.9L62.1821 210.603L62.1891 210.599L62.1963 210.595L62.9356 211.9ZM72.232 205.587L73.1883 206.742L73.1805 206.749L73.1727 206.755L72.232 205.587ZM90.8142 174.02L89.3591 173.656L89.36 173.652L90.8142 174.02ZM90.8142 160.773L92.1662 160.123L92.1773 160.146L92.1877 160.17L90.8142 160.773ZM87.2677 155.675L86.1878 156.716L86.1732 156.7L86.1589 156.685L87.2677 155.675ZM79.8348 150.05L80.3462 148.64L80.3495 148.642L79.8348 150.05ZM70.0818 149.63L70.293 151.115L70.2779 151.117L70.2628 151.119L70.0818 149.63ZM58.4864 152.755L57.8652 151.389L57.8797 151.383L57.8944 151.376L58.4864 152.755ZM58.3898 152.799L59.0111 154.164L59.011 154.164L58.3898 152.799ZM56.4028 153.743L57.09 155.077L55.5082 155.892L54.9724 154.195L56.4028 153.743ZM45.9149 145.636L46.2316 144.17L46.2341 144.171L45.9149 145.636ZM35.4187 145.199L35.3443 143.701L35.3449 143.701L35.4187 145.199ZM32.9817 145.32L33.0561 146.819L33.0494 146.819L32.9817 145.32ZM31.4686 145.389L31.4004 143.89L31.4009 143.89L31.4686 145.389ZM21.912 147.493L21.1406 146.207L21.1412 146.207L21.912 147.493ZM14.9145 161.798L13.4225 161.644L13.4225 161.643L14.9145 161.798ZM14.64 178.882L16.1395 178.842V178.842L14.64 178.882ZM12.2015 206.207L13.6234 206.685L13.6232 206.685L12.2015 206.207ZM11.5396 208.07L12.9487 208.584V208.584L11.5396 208.07ZM10.2265 212.179L11.6876 212.518V212.518L10.2265 212.179ZM9.75155 214.809L8.26929 214.579V214.578L9.75155 214.809ZM9.04253 218.329L7.60374 217.905L7.60447 217.902L9.04253 218.329ZM6.72726 223.44L5.40668 222.729L5.40669 222.729L6.72726 223.44ZM5.74549 225.305L4.40482 224.632L4.40507 224.632L5.74549 225.305ZM2.12461 237.369L3.61422 237.545L3.60867 237.592L3.60017 237.638L2.12461 237.369ZM2.35291 241.051L0.953163 241.591L0.936119 241.546L0.921906 241.501L2.35291 241.051ZM10.4707 244.576L10.3639 243.08H10.3639L10.4707 244.576ZM12.4616 244.386L12.3016 242.895L12.3016 242.895L12.4616 244.386ZM19.8627 244.908L19.2356 246.271L19.2228 246.265L19.8627 244.908ZM21.5955 245.872L20.8197 247.156L21.5955 245.872ZM26.3717 247.012L27.154 248.292L27.1074 248.321L27.0588 248.346L26.3717 247.012ZM27.9114 245.539L26.6667 244.702L26.6955 244.659L26.7273 244.618L27.9114 245.539ZM34.3302 237.284L33.1461 236.364L33.1594 236.347L33.1731 236.33L34.3302 237.284ZM39.0077 230.524L40.3308 231.231L40.3201 231.251L40.3089 231.27L39.0077 230.524ZM39.7048 229.153L38.3611 228.487L38.3611 228.487L39.7048 229.153ZM42.0923 225.263L40.976 224.261L40.9767 224.26L42.0923 225.263ZM44.457 223.222L45.3638 224.417L44.457 223.222ZM46.3928 221.627L47.4358 222.705V222.705L46.3928 221.627ZM54.9069 177.872C54.738 178.355 54.5609 178.833 54.3891 179.298L51.5754 178.257C51.7487 177.788 51.9166 177.334 52.0754 176.881L54.9069 177.872ZM58.2643 158.706C58.1401 165.217 57.0111 171.676 54.9115 177.859L52.0709 176.894C54.0711 171.004 55.1465 164.851 55.2648 158.649L58.2643 158.706ZM67.2521 155.917L57.3434 160.062L56.1857 157.294L66.0944 153.149L67.2521 155.917ZM73.3495 154.197C71.3703 154.228 69.4327 155.008 67.2501 155.918L66.0964 153.148C68.1825 152.279 70.6514 151.239 73.3018 151.197L73.3495 154.197ZM82.2624 160.716C80.6693 156.992 77.0933 154.136 73.3502 154.197L73.3012 151.197C78.5838 151.111 83.0884 155.02 85.0205 159.535L82.2624 160.716ZM82.993 173.062C83.7587 168.771 83.8557 164.439 82.2624 160.716L85.0205 159.535C86.9526 164.051 86.7522 169.073 85.9464 173.589L82.993 173.062ZM81.1554 178.837C82.0791 177.041 82.6972 175.106 82.9851 173.111L85.9543 173.54C85.6189 175.864 84.8988 178.118 83.8234 180.209L81.1554 178.837ZM77.3132 183.481C78.8634 181.894 80.2381 180.474 81.1804 178.791L83.7984 180.256C82.6291 182.345 80.9591 184.042 79.4593 185.578L77.3132 183.481ZM74.9773 185.983C75.7316 185.1 76.5437 184.269 77.3132 183.481L79.4593 185.578C78.6776 186.378 77.937 187.137 77.2593 187.931L74.9773 185.983ZM71.8291 190.258C72.7906 188.85 73.8034 187.364 74.9755 185.985L77.2611 187.929C76.2088 189.166 75.2832 190.52 74.3066 191.95L71.8291 190.258ZM68.4982 194.71C69.705 193.365 70.735 191.86 71.8291 190.258L74.3066 191.95C73.2314 193.524 72.0927 195.196 70.7309 196.713L68.4982 194.71ZM63.4422 199.255C65.2574 197.867 66.9571 196.338 68.525 194.681L70.7041 196.743C69.0258 198.516 67.2066 200.153 65.2641 201.638L63.4422 199.255ZM45.5493 212.486C51.8026 208.606 57.5844 203.966 63.413 199.278L65.2933 201.615C59.4871 206.286 53.5654 211.043 47.1309 215.035L45.5493 212.486ZM46.838 211.691C46.9556 212.042 47.1752 212.396 47.5195 212.834L45.1608 214.687C44.7371 214.148 44.2725 213.476 43.9937 212.645L46.838 211.691ZM47.6944 207.709C47.3365 208.541 47.0262 209.272 46.8534 209.981C46.6851 210.672 46.6805 211.221 46.838 211.691L43.9937 212.645C43.5941 211.453 43.6915 210.286 43.9387 209.271C44.1813 208.275 44.5999 207.311 44.9383 206.524L47.6944 207.709ZM47.7552 207.567C47.7349 207.614 47.7146 207.662 47.6944 207.708L44.9383 206.524C44.9586 206.476 44.9786 206.43 44.9985 206.384L47.7552 207.567ZM51.601 196.087C50.5628 199.98 49.2823 203.804 47.7668 207.539L44.9869 206.411C46.4555 202.792 47.6964 199.086 48.7024 195.314L51.601 196.087ZM52.924 189.782C52.7096 191.953 52.2579 194.095 51.5768 196.169L48.7266 195.233C49.3393 193.367 49.7456 191.44 49.9385 189.487L52.924 189.782ZM52.9376 187.13C52.9585 187.942 52.9822 188.83 52.9285 189.725L49.9339 189.545C49.9786 188.8 49.9601 188.041 49.9386 187.207L52.9376 187.13ZM52.9909 184.219C52.8887 185.134 52.9104 186.072 52.9376 187.13L49.9386 187.207C49.9123 186.184 49.8805 185.04 50.0095 183.886L52.9909 184.219ZM54.3891 179.298C53.7397 181.054 53.1718 182.61 52.9908 184.22L50.0096 183.885C50.2382 181.851 50.9484 179.952 51.5754 178.257L54.3891 179.298ZM50.0416 219.495C49.6081 219.628 49.1425 219.76 48.6607 219.869L48.0037 216.941C48.3811 216.857 48.7664 216.748 49.1667 216.626L50.0416 219.495ZM63.6891 213.197C59.4083 215.684 54.9047 218.02 50.0397 219.496L49.1686 216.625C53.7009 215.25 57.9681 213.051 62.1821 210.603L63.6891 213.197ZM73.1727 206.755C70.1888 209.157 67.0123 211.315 63.6749 213.205L62.1963 210.595C65.3925 208.784 68.4342 206.719 71.2913 204.418L73.1727 206.755ZM92.2693 174.384C89.206 186.623 83.0965 198.543 73.1883 206.742L71.2757 204.431C80.555 196.752 86.4018 185.471 89.3591 173.656L92.2693 174.384ZM92.1877 160.17C94.2174 164.794 93.3801 169.992 92.2684 174.388L89.36 173.652C90.4569 169.315 91.0319 165.001 89.4407 161.375L92.1877 160.17ZM88.3475 154.633C89.9062 156.25 91.1953 158.103 92.1662 160.123L89.4623 161.422C88.6304 159.692 87.5251 158.103 86.1878 156.716L88.3475 154.633ZM80.3495 148.642C83.6634 149.852 86.2263 152.305 88.3764 154.664L86.1589 156.685C84.0617 154.383 81.91 152.406 79.32 151.459L80.3495 148.642ZM69.8705 148.145C73.1538 147.677 76.8832 147.384 80.3462 148.64L79.3234 151.461C76.6064 150.475 73.5188 150.656 70.293 151.115L69.8705 148.145ZM57.8944 151.376C61.7197 149.733 65.7631 148.644 69.9008 148.141L70.2628 151.119C66.4079 151.587 62.6413 152.602 59.0785 154.133L57.8944 151.376ZM57.7686 151.433L57.8652 151.389L59.1077 154.12L59.0111 154.164L57.7686 151.433ZM55.7156 152.41C56.4259 152.044 57.1416 151.719 57.7687 151.433L59.011 154.164C58.3745 154.454 57.7248 154.749 57.09 155.077L55.7156 152.41ZM46.2341 144.171C48.5222 144.669 50.9982 145.71 53.102 147.215C55.1988 148.714 57.0322 150.755 57.8332 153.292L54.9724 154.195C54.4279 152.47 53.1173 150.914 51.3566 149.655C49.6028 148.4 47.5077 147.518 45.5957 147.102L46.2341 144.171ZM35.3449 143.701C38.8528 143.529 42.577 143.381 46.2316 144.17L45.5983 147.102C42.3827 146.408 39.0351 146.523 35.4924 146.698L35.3449 143.701ZM32.9073 143.822L35.3443 143.701L35.493 146.698L33.0561 146.819L32.9073 143.822ZM31.4009 143.89L32.914 143.822L33.0494 146.819L31.5363 146.887L31.4009 143.89ZM21.1412 146.207C24.327 144.298 28.0828 144.042 31.4004 143.89L31.5368 146.887C28.1542 147.041 25.1355 147.311 22.6829 148.78L21.1412 146.207ZM13.4225 161.643C13.9958 156.127 15.7291 149.452 21.1406 146.207L22.6835 148.78C18.6021 151.227 16.9694 156.537 16.4065 161.953L13.4225 161.643ZM13.1406 178.923C12.9866 173.224 12.8269 167.395 13.4225 161.644L16.4065 161.953C15.8345 167.476 15.9845 173.109 16.1395 178.842L13.1406 178.923ZM10.7795 205.73C13.6209 197.27 13.3934 188.278 13.1406 178.923L16.1395 178.842C16.3896 188.098 16.6628 197.636 13.6234 206.685L10.7795 205.73ZM10.1304 207.556C10.3575 206.934 10.577 206.332 10.7798 205.729L13.6232 206.685C13.4063 207.33 13.1737 207.968 12.9487 208.584L10.1304 207.556ZM8.7653 211.839C9.11372 210.338 9.64132 208.897 10.1304 207.556L12.9487 208.584C12.4489 209.955 11.9878 211.224 11.6876 212.518L8.7653 211.839ZM8.26929 214.578C8.40458 213.707 8.54921 212.771 8.7653 211.839L11.6876 212.518C11.5009 213.322 11.3719 214.149 11.2338 215.039L8.26929 214.578ZM7.60447 217.902C7.91212 216.865 8.08269 215.781 8.26929 214.579L11.2338 215.039C11.0524 216.207 10.8552 217.492 10.4806 218.755L7.60447 217.902ZM5.40669 222.729C6.31271 221.047 7.12573 219.526 7.60374 217.905L10.4813 218.753C9.90015 220.724 8.92786 222.518 8.04784 224.151L5.40669 222.729ZM4.40507 224.632C4.73104 223.983 5.07491 223.345 5.40668 222.729L8.04784 224.151C7.71262 224.774 7.38937 225.374 7.08591 225.978L4.40507 224.632ZM0.635002 237.192C1.15224 232.821 2.42773 228.572 4.40482 224.632L7.08616 225.978C5.26496 229.607 4.09048 233.52 3.61422 237.545L0.635002 237.192ZM0.921906 241.501C0.474426 240.077 0.38076 238.567 0.649055 237.099L3.60017 237.638C3.41959 238.626 3.48256 239.643 3.78391 240.602L0.921906 241.501ZM10.5775 246.073C8.84559 246.196 6.87656 246.043 5.13461 245.409C3.38371 244.773 1.72356 243.591 0.953163 241.591L3.75265 240.512C4.11311 241.448 4.92705 242.142 6.15991 242.59C7.40173 243.042 8.92615 243.183 10.3639 243.08L10.5775 246.073ZM12.6216 245.878C11.9587 245.949 11.2663 246.023 10.5774 246.073L10.3639 243.08C10.9903 243.035 11.6292 242.967 12.3016 242.895L12.6216 245.878ZM19.2228 246.265C17.3988 245.404 15.2653 245.594 12.6216 245.878L12.3016 242.895C14.758 242.631 17.7823 242.268 20.5025 243.551L19.2228 246.265ZM20.8197 247.156C20.2239 246.796 19.7192 246.493 19.2356 246.27L20.4897 243.545C21.1544 243.851 21.8069 244.247 22.3712 244.588L20.8197 247.156ZM27.0588 248.346C25.8105 248.989 24.5735 248.877 23.5286 248.531C22.539 248.203 21.5847 247.618 20.8197 247.156L22.3712 244.588C23.2093 245.095 23.8635 245.482 24.4713 245.683C25.0239 245.866 25.3735 245.839 25.6847 245.679L27.0588 248.346ZM29.1562 246.376C28.635 247.151 27.9518 247.805 27.154 248.292L25.5895 245.732C26.0202 245.469 26.3874 245.117 26.6667 244.702L29.1562 246.376ZM35.5144 238.205L29.0956 246.46L26.7273 244.618L33.1461 236.364L35.5144 238.205ZM40.3089 231.27C38.9022 233.723 37.2893 236.055 35.4873 238.239L33.1731 236.33C34.8676 234.276 36.384 232.084 37.7064 229.778L40.3089 231.27ZM41.0485 229.82C40.822 230.277 40.5839 230.757 40.3308 231.231L37.6845 229.817C37.913 229.39 38.1312 228.95 38.3611 228.487L41.0485 229.82ZM43.2087 226.265C42.3456 227.227 41.747 228.412 41.0485 229.82L38.3611 228.487C39.0273 227.144 39.794 225.578 40.976 224.261L43.2087 226.265ZM45.3638 224.417C44.509 225.065 43.7934 225.614 43.208 226.266L40.9767 224.26C41.7847 223.361 42.735 222.646 43.5503 222.027L45.3638 224.417ZM47.4358 222.705C46.7593 223.36 46.0183 223.92 45.3638 224.417L43.5503 222.027C44.2291 221.512 44.8241 221.058 45.3497 220.549L47.4358 222.705ZM49.8004 218.712C49.4674 220.304 48.4755 221.699 47.4358 222.705L45.3497 220.55C46.1306 219.794 46.6952 218.905 46.864 218.098L49.8004 218.712Z" fill="black"/>
<path d="M94.8186 117.061C90.9864 116.217 87.4398 114.405 84.5241 111.8L87.3327 126.405C84.5348 125.132 81.8216 123.684 79.2096 122.07C78.8326 128.751 79.3795 135.586 81.8642 141.804C84.3489 148.023 88.9307 153.589 95.0788 156.351C89.6209 157.256 84.7205 153.373 79.8626 150.748C76.4753 148.922 70.6883 150.801 66.9825 149.696C63.8394 148.78 60.6114 147.981 57.7763 146.344C52.5096 143.298 51.315 134.402 50.2478 128.457C49.1807 122.512 50.1523 116.356 51.9255 110.569C52.5157 108.519 53.3144 106.535 54.3094 104.645C55.677 102.164 57.5492 99.9902 59.8077 98.2622C62.0661 96.5343 64.6617 95.2893 67.4304 94.606C70.1991 93.9227 73.0807 93.8159 75.8932 94.2924C78.7056 94.7688 81.3878 95.8182 83.7702 97.3742C88.6653 100.568 93.2046 105.266 96.9423 109.722C97.4732 110.337 99.666 112.526 98.9386 113.447C98.052 114.562 92.8489 111.384 91.9676 110.953C92.2224 111.905 93.8046 116.814 94.8186 117.061Z" fill="black"/>
<g opacity="0.1">
<path opacity="0.1" d="M74.7291 288.221C75.5596 288.388 76.4179 288.359 77.2351 288.137C83.0445 286.654 89.0682 286.174 95.0422 286.717C97.2296 286.916 99.7302 287.159 101.35 285.664C102.571 284.554 102.889 282.787 103.096 281.156C106.361 255.376 99.6453 229.56 94.6015 204.091C93.9219 200.656 94.1662 195.089 95.1855 191.733L95.4244 190.917C97.3899 183.962 97.2737 176.59 95.09 169.699C98.7122 177.696 99.3977 186.697 97.0278 195.142L96.7889 195.957C95.7695 199.314 95.5253 204.901 96.2049 208.316C101.233 233.785 107.949 259.617 104.7 285.38C104.493 287.011 104.169 288.779 102.953 289.889C101.36 291.367 98.833 291.125 96.6456 290.941C90.6716 290.398 84.6479 290.879 78.8385 292.362C78.0213 292.584 77.163 292.613 76.3325 292.446C73.7204 291.862 73.2797 289.752 73.3434 287.664C73.7675 287.931 74.237 288.12 74.7291 288.221Z" fill="black"/>
<path opacity="0.1" d="M25.2119 273.011C25.0745 273.444 25.1025 273.911 25.2905 274.324C25.4785 274.738 25.8133 275.068 26.2312 275.252C27.1136 275.647 28.0783 275.827 29.0451 275.779L61.8348 276.641C62.6961 276.663 63.5524 276.777 64.3886 276.983C68.243 277.962 66.7936 279.614 67.2077 280.992C67.7121 282.676 70.149 282.539 71.848 282.044C71.6887 283.544 71.6091 285.243 72.2939 286.506C70.8021 286.727 69.1987 286.532 68.8005 285.201C68.4023 283.87 69.8358 282.171 65.9813 281.192C65.1452 280.986 64.2888 280.872 63.4276 280.85L30.6591 279.987C29.6923 280.036 28.7276 279.856 27.8453 279.461C27.4273 279.277 27.0925 278.946 26.9045 278.533C26.7165 278.12 26.6886 277.652 26.8259 277.22C23.1095 278.898 18.1506 276.61 17.0516 272.717C16.8861 272.127 16.7934 271.519 16.7755 270.907C18.7612 273.264 22.3555 274.316 25.2119 273.011Z" fill="black"/>
</g>
<path d="M62.9999 166.348C61.9999 170.5 60.4999 176 59.9999 180.5C59.4999 185 58.4543 191.575 59.033 196.837C59.6117 202.098 62.7494 207.411 67.8463 209.069C70.0124 209.774 72.3326 209.779 74.6102 209.831C80.0657 209.958 85.5094 210.394 90.9148 211.136C93.4305 211.549 95.9666 211.828 98.5123 211.973C102.112 212.088 105.712 211.531 109.301 211.82C115.109 212.288 120.625 214.977 126.455 214.977C127.166 215.02 127.877 214.89 128.525 214.598C129.587 214.03 130.06 212.799 130.421 211.662C131.233 209.095 131.87 206.149 130.495 203.829C128.801 200.972 124.952 200.398 121.613 200.146C114.095 199.62 106.568 199.251 99.0326 199.041C92.6031 198.862 85.6374 198.62 80.6521 194.59C80.3158 194.352 80.0411 194.038 79.8504 193.675C79.6622 193.059 79.6846 192.398 79.9141 191.796C81.8902 184.145 82.7378 176.25 82.4307 168.358C82.4648 167.65 82.2796 166.949 81.8998 166.348C81.4486 165.867 80.8625 165.53 80.2168 165.38C75.7657 163.965 71.0001 163.834 66.4765 165.002" fill="white"/>
<path d="M62.9999 166.348C61.9999 170.5 60.4999 176 59.9999 180.5C59.4999 185 58.4543 191.575 59.033 196.837C59.6117 202.098 62.7494 207.411 67.8463 209.069C70.0124 209.774 72.3326 209.779 74.6102 209.831C80.0657 209.958 85.5094 210.394 90.9148 211.136C93.4305 211.548 95.9666 211.828 98.5123 211.973C102.112 212.088 105.712 211.531 109.301 211.82C115.109 212.288 120.625 214.977 126.455 214.977C127.166 215.02 127.877 214.89 128.525 214.598C129.587 214.03 130.06 212.799 130.421 211.662C131.233 209.095 131.87 206.149 130.495 203.829C128.801 200.972 124.952 200.398 121.613 200.146C114.095 199.62 106.568 199.251 99.0326 199.041C92.6031 198.862 85.6374 198.62 80.6521 194.59C80.3158 194.352 80.0411 194.038 79.8504 193.675C79.6622 193.059 79.6846 192.398 79.9141 191.796C81.8902 184.145 82.7378 176.25 82.4307 168.358C82.4648 167.65 82.2796 166.949 81.8998 166.348C81.4486 165.867 80.8625 165.53 80.2168 165.38C75.7657 163.965 71.0001 163.834 66.4765 165.002" stroke="black" stroke-width="3" stroke-linecap="round"/>
<path d="M82.5643 168.352C83.3347 168.614 84.0055 169.104 84.4862 169.756C84.2739 167.562 84.5606 165.347 84.5181 163.138C84.4756 160.928 84.0615 158.624 82.6546 156.909C80.8654 154.72 77.8232 153.936 74.9774 153.862C70.8469 153.752 66.573 154.941 63.5467 157.729C61.5988 159.537 60.3341 161.95 59.963 164.569C59.8674 165.29 59.5489 167.994 60.3081 168.457C60.9718 168.867 63.4936 167.452 64.3059 167.226C70.3371 165.469 76.7994 165.868 82.5643 168.352Z" fill="#FFD749" stroke="black" stroke-width="3" stroke-linecap="round"/>
</svg>
