<svg width="352" height="200" viewBox="0 0 352 200" fill="none" xmlns="http://www.w3.org/2000/svg">
    <g clip-path="url(#clip0)">
        <rect width="352" height="200" fill="#FEF6E0"/>
        <path d="M146.874 57.5664C146.874 57.5664 145.566 69.576 144.049 80.7438C146.909 87.5535 156.299 99.0756 156.299 99.0756L171.891 95.6072C171.891 95.6072 163.44 75 169.984 65.4507C176.529 55.9014 146.874 57.5664 146.874 57.5664Z" fill="white" stroke="black" stroke-width="3" stroke-linecap="round"/>
        <path d="M164.967 74.9204C175.653 74.9204 184.316 65.9065 184.316 54.7873C184.316 43.6682 175.653 34.6543 164.967 34.6543C154.282 34.6543 145.619 43.6682 145.619 54.7873C145.619 65.9065 154.282 74.9204 164.967 74.9204Z" fill="white" stroke="black" stroke-width="3" stroke-linecap="round"/>
        <path d="M180.379 48.7386C182.985 49.0789 186.306 48.2303 186.807 45.7167C187.443 42.5347 183.08 40.4694 182.406 37.3114C182.152 36.1106 182.456 34.8778 182.308 33.673C181.996 31.2195 179.968 29.3383 177.916 27.9334C171.42 23.49 163.52 21.4351 155.618 22.1337C154.641 22.2257 153.611 22.3778 152.855 22.9862C151.997 23.6747 151.665 24.7914 151.078 25.716C149.058 28.894 144.51 29.2702 141.28 31.2515C137.474 33.569 135.594 38.1199 135.422 42.4907C135.25 46.8614 136.53 51.1482 137.795 55.3429C138.87 58.9131 139.999 62.5755 142.359 65.4973C144.719 68.4192 148.64 70.4605 152.342 69.5799C150.643 68.3792 151.878 65.6134 153.717 64.6448C155.556 63.6762 157.822 63.5081 159.419 62.1632C161.016 60.8183 161.472 58.6249 161.976 56.6277C162.625 54.1061 163.561 51.5524 165.445 49.7113C169.144 46.105 175.822 48.1503 180.379 48.7386Z" fill="black"/>
        <path d="M259.179 77.5989C259.179 77.5989 260.827 95.1155 257.943 99.1605C255.059 103.206 269.47 105.469 270.706 105.469C271.942 105.469 285.117 100.529 287.585 99.1605C290.053 97.7925 292.113 87.9322 292.113 87.9322C292.113 87.9322 279.762 90.6289 276.058 74.9219L259.179 77.5989Z" fill="white" stroke="black" stroke-width="3" stroke-linecap="round"/>
        <path d="M254.167 33.3857C250.799 34.5704 247.692 36.8407 246.256 40.0404C245.757 41.1527 245.456 42.3679 244.73 43.3583C243.111 45.56 239.949 45.9752 237.705 47.5484C234.817 49.5864 233.748 53.4185 234.15 56.8773C234.552 60.3361 236.175 63.5244 237.776 66.6328C239.458 69.8973 241.198 73.2418 243.957 75.7102C245.245 76.853 246.826 77.9348 247.236 79.5956C247.587 81.0203 246.967 82.5097 247.095 83.9686C247.415 87.576 251.833 89.2558 255.521 89.6558C257.125 89.831 258.96 89.8387 260.091 88.7149C260.669 88.1359 260.962 87.3512 261.325 86.6275C262.164 84.9698 263.457 83.5715 265.061 82.5877C266.665 81.6039 268.517 81.0731 270.411 81.0541C272.306 81.0352 274.168 81.5289 275.793 82.4804C277.417 83.4319 278.739 84.8041 279.613 86.4446C280.479 88.0674 280.983 90.0406 282.556 91.0157C284.964 92.5394 288.187 90.7529 289.971 88.5511C291.755 86.3494 293.035 83.5991 295.568 82.2773C296.348 81.8621 297.293 81.584 297.831 80.8755C298.803 79.5994 297.976 77.6948 298.639 76.2435C299.139 75.1502 300.36 74.5522 301.074 73.577C302.538 71.5848 301.465 68.8307 300.383 66.6251L294.03 53.807C292.27 50.2568 290.494 46.6799 288.035 43.5526C280.483 33.999 265.985 29.2336 254.167 33.3857Z" fill="black"/>
        <path d="M269.405 100.613C269.405 100.613 286.203 100.613 290.513 84.6406L304.654 95.9383C305.63 96.7182 306.442 97.6949 307.04 98.8088C307.638 99.9226 308.01 101.15 308.132 102.417L308.799 109.289L309.467 116.161C309.467 116.161 309.467 121.869 309.251 124.373C309.251 124.373 298.677 127.262 298.246 132.603L307.04 168.828C307.04 168.828 280.755 170.462 275.587 166.901C275.587 166.901 257.76 162.31 252.592 157.429C247.423 152.548 242.255 152.992 246.542 141.893C246.542 141.893 237.926 133.014 241.805 120.587C245.684 108.159 242.02 120.809 242.02 120.809C242.02 120.809 233.653 116.594 234.084 108.603L234.946 100.613C234.946 100.613 234.992 100.348 235.113 99.873C237.741 89.3545 244.796 83.5109 254.716 87.2352C257.616 88.3182 260.58 87.0755 260.58 87.0755C260.58 87.0755 257.344 101.501 269.405 100.613Z" fill="#FFD749" stroke="black" stroke-width="3" stroke-linecap="round"/>
        <path d="M308.79 124.338C308.79 124.338 307.842 145.596 306.987 149.586C306.131 153.577 296.9 160.395 287.323 165.981C287.323 165.981 280.142 172.407 272.447 169.751C264.752 167.094 264.239 163.324 268.088 161.551L293.735 144.713V116.064L301.283 120.881L308.79 124.338Z" fill="white" stroke="black" stroke-width="3" stroke-linecap="round"/>
        <path d="M290.33 113.347C290.33 113.347 300.311 121.48 309.384 123.739C309.384 123.739 309.673 115.076 308.544 108.654" stroke="black" stroke-width="3" stroke-linecap="round"/>
        <path d="M267.237 86.0282C277.923 86.0282 286.585 77.6359 286.585 67.2836C286.585 56.9313 277.923 48.5391 267.237 48.5391C256.551 48.5391 247.889 56.9313 247.889 67.2836C247.889 77.6359 256.551 86.0282 267.237 86.0282Z" fill="white" stroke="black" stroke-width="3" stroke-linecap="round"/>
        <path d="M272.065 62.5229C271.237 62.8551 270.351 62.9902 269.469 62.9187C266.032 62.8949 262.597 62.763 259.163 62.5229C256.568 62.3369 253.786 62.0083 251.78 60.2312C249.081 57.8563 248.654 53.3559 250.049 49.9203C251.443 46.4847 254.287 43.9515 257.291 42.0041C258.986 40.865 260.822 39.9831 262.746 39.3838C268.308 37.7689 274.479 39.7519 278.903 43.71C283.327 47.6681 286.149 53.3836 287.643 59.3366C288.158 61.3948 288.822 63.8488 290.732 64.4821C289.46 66.7383 286.356 67.0984 284.131 65.9664C280.846 64.3001 279.162 57.9196 276.214 56.9143C272.929 55.7783 274.842 61.1534 272.065 62.5229Z" fill="black"/>
        <path d="M149.087 89.3449C150.203 88.4438 143.51 87.5111 149.087 89.3449C148.438 89.868 148.158 90.708 147.653 91.3686C145.978 93.5526 142.6 93.1441 139.934 93.9268C136.012 95.0723 133.594 98.9364 132.203 102.709C126.062 119.391 132.906 138.482 127.562 155.424C126.007 160.411 123.415 165.947 125.957 170.533C126.804 172.06 128.184 173.339 128.608 175.031C129.183 177.322 128.075 180.338 130.011 181.736C130.613 182.171 131.379 182.305 132.102 182.499C136.459 183.645 139.763 187.013 143.082 190.01C146.401 193.007 150.397 195.905 154.898 195.711C156.351 195.591 157.786 195.308 159.173 194.867L181.526 188.685C183.769 188.063 186.19 187.314 187.5 185.417C188.277 184.271 188.546 182.828 188.748 181.442C189.519 176.17 189.884 170.849 189.84 165.523C189.84 163.767 189.758 161.968 189.101 160.334C188.324 158.448 186.863 156.94 185.774 155.21C183.679 151.881 183.112 147.864 182.595 143.981C181.771 137.799 180.947 131.495 182.086 125.363C182.576 122.732 183.419 120.174 183.979 117.558C184.886 113.298 185.031 108.915 184.406 104.607C183.885 101.029 182.762 97.3976 180.306 94.7057C178.706 92.914 176.518 91.7292 174.122 91.3571C171.098 90.9753 169.594 92.7164 166.9 93.3617C154.898 96.2371 152.919 90.605 149.087 89.3449Z" fill="#EAEAEA"/>
        <path d="M149.087 89.3449C143.51 87.5111 150.203 88.4438 149.087 89.3449ZM149.087 89.3449C148.438 89.868 148.158 90.708 147.653 91.3686C145.978 93.5526 142.6 93.1441 139.934 93.9268C136.012 95.0723 133.594 98.9364 132.203 102.709C126.062 119.391 132.906 138.482 127.562 155.424C126.007 160.411 123.415 165.947 125.957 170.533C126.804 172.06 128.184 173.339 128.608 175.031C129.183 177.322 128.075 180.338 130.011 181.736C130.613 182.171 131.379 182.305 132.102 182.499C136.459 183.645 139.763 187.013 143.082 190.01C146.401 193.007 150.397 195.905 154.898 195.711C156.351 195.591 157.786 195.308 159.173 194.867L181.526 188.685C183.769 188.063 186.19 187.314 187.5 185.417C188.277 184.271 188.546 182.828 188.748 181.442C189.519 176.17 189.884 170.849 189.84 165.523C189.84 163.767 189.758 161.968 189.101 160.334C188.324 158.448 186.863 156.94 185.774 155.21C183.679 151.881 183.112 147.864 182.595 143.981C181.771 137.799 180.947 131.495 182.086 125.363C182.576 122.732 183.419 120.174 183.979 117.558C184.886 113.298 185.031 108.915 184.406 104.607C183.885 101.029 182.762 97.3976 180.306 94.7057C178.706 92.914 176.518 91.7292 174.122 91.3571C171.098 90.9753 169.594 92.7164 166.9 93.3617C154.898 96.2371 152.919 90.605 149.087 89.3449Z" stroke="black" stroke-width="3" stroke-linecap="round"/>
        <path d="M116.58 197.932C116.58 197.932 113.158 221.97 104.596 215.414C96.0336 208.858 97.3185 197.932 97.3185 197.932C97.3185 197.932 114.011 151.604 113.154 144.611C112.297 137.617 141.662 83.252 141.662 83.252L152.531 172.58C152.531 172.58 120.003 184.821 116.58 197.932Z" fill="black"/>
        <path d="M146.574 65.6504C137.298 75.499 138.218 74.9466 128.628 76.4381C126.585 76.7559 123.527 77.8557 123.527 77.8557C118.461 79.2631 113.886 82.0736 110.316 85.9699C106.747 89.8663 104.325 94.6936 103.324 99.9073L103.244 100.331C100.616 114.491 99.7441 153.428 99.7441 153.428C99.7441 153.428 100.182 163.604 104.557 166.245L132.566 185.733C132.566 185.733 131.69 164.493 142.196 162.283C152.703 160.073 139.569 161.398 139.569 161.398L120.311 149.89C120.311 149.89 144.365 159.18 149.617 153.428C149.617 144.565 152.024 88.7999 152.024 88.7999C152.024 88.7999 147.84 83.715 146.574 79.8056C144.871 74.5485 144.815 68.2996 146.574 65.6504Z" fill="black"/>
        <path d="M167.502 79.0859C167.502 79.0859 178.23 81.9221 185.731 83.2962C186.905 83.5111 188.011 84.0005 188.959 84.7243C189.908 85.448 190.671 86.3857 191.187 87.4606C193.451 92.1876 196.903 100.727 196.309 107.854L202.857 133.582L221.63 156.257L204.608 164.107L185.402 142.738L201.11 183.309L171.866 184.611C171.866 184.611 167.019 108.819 169.203 97.9183C169.203 97.9183 169.203 91.0737 169.203 88.284C169.203 83.2962 167.502 79.0859 167.502 79.0859Z" fill="black"/>
        <path d="M360.465 169.984H112.363V207.751H360.465V169.984Z" fill="#EAEAEA" stroke="black" stroke-width="3" stroke-linecap="round"/>
        <path d="M191.252 163.818H166.356C165.383 163.818 164.594 165.03 164.594 166.525V167.278C164.594 168.773 165.383 169.984 166.356 169.984H191.252C192.225 169.984 193.014 168.773 193.014 167.278V166.525C193.014 165.03 192.225 163.818 191.252 163.818Z" fill="white" stroke="black" stroke-width="3" stroke-linecap="round"/>
        <path d="M266.541 102.691H191.924C186.196 102.691 181.553 107.221 181.553 112.809V159.221C181.553 164.809 186.196 169.339 191.924 169.339H266.541C272.269 169.339 276.912 164.809 276.912 159.221V112.809C276.912 107.221 272.269 102.691 266.541 102.691Z" fill="white" stroke="black" stroke-width="3" stroke-linecap="round"/>
    </g>
    <defs>
        <clipPath id="clip0">
            <rect width="352" height="200" fill="white"/>
        </clipPath>
    </defs>
</svg>
