<svg width="300" height="300" viewBox="0 0 300 300" fill="none" xmlns="http://www.w3.org/2000/svg">
<rect y="50" width="300" height="165" rx="10" fill="black"/>
<rect x="98" y="239" width="104" height="16" rx="4" fill="black"/>
<rect x="144" y="215" width="12" height="32" fill="black"/>
<g clip-path="url(#clip0)">
<rect x="8" y="58" width="284" height="149" rx="10" fill="white"/>
<path d="M131.489 150.616C131.489 150.616 134.146 164.782 128.215 169.407C122.285 174.032 133.241 201.755 151.32 198.518C169.399 195.281 176.766 172.028 176.766 172.028C176.766 172.028 158.658 168.33 165.371 149.539L131.489 150.616Z" fill="white" stroke="black" stroke-width="3" stroke-linecap="round"/>
<path d="M147.035 161.617C163.455 161.617 176.766 148.098 176.766 131.422C176.766 114.746 163.455 101.227 147.035 101.227C130.615 101.227 117.305 114.746 117.305 131.422C117.305 148.098 130.615 161.617 147.035 161.617Z" fill="white" stroke="black" stroke-width="3" stroke-linecap="round"/>
<path d="M197.205 188.624V209H97.7939V189.55C97.7938 187.083 98.5235 184.672 99.8919 182.616C101.26 180.56 103.207 178.951 105.488 177.99L108.336 176.784C115.548 173.725 124.309 169.927 127.172 168.348C127.485 168.192 127.78 168.002 128.051 167.781C129.616 166.223 129.306 168.247 129.306 168.247C129.306 168.247 129.263 168.635 129.234 169.303C129.061 173.891 129.724 191.919 150.946 190.419C171.649 188.983 172.58 175.039 172.37 170.94C172.359 170.56 172.327 170.182 172.277 169.805C173.709 170.144 175.11 170.601 176.466 171.169C180.793 172.763 187.182 175.319 188.891 176.526C189.425 176.899 190.074 177.287 190.78 177.682C191.582 178.127 192.332 178.659 193.016 179.268C194.334 180.448 195.389 181.89 196.111 183.502C196.833 185.114 197.206 186.859 197.205 188.624Z" fill="#FFD749" stroke="black" stroke-width="3" stroke-linecap="round"/>
<path d="M109.328 132.317C110.428 132.041 111.586 132.102 112.652 132.493C113.717 132.883 114.642 133.585 115.306 134.508C116.513 136.205 116.695 138.252 116.846 140.212C118.283 140.514 119.093 138.881 119.228 137.646C119.76 132.62 119.8 127.498 121.483 122.639C123.166 117.779 126.842 113.08 132.487 111.223C134.416 110.553 136.477 110.356 138.497 110.65C139.696 110.849 140.823 111.271 142.014 111.447C146.143 112.132 150.629 110.172 154.495 111.534C156.925 112.394 158.465 114.378 159.6 116.361C160.094 117.431 160.765 118.409 161.585 119.253C163.229 120.735 165.801 121.117 168.159 121.579C170.517 122.041 173.089 122.846 174.098 124.67C175.003 126.319 174.336 128.223 174.034 130.007C173.568 132.834 174.039 135.736 175.376 138.268C175.813 139.064 176.702 140.028 177.758 139.765C178.231 139.605 178.631 139.28 178.885 138.849C181.592 135.042 181.521 130.087 184.919 126.653C186.054 125.506 187.523 124.614 188.627 123.467C189.462 122.617 190.075 121.573 190.41 120.427C190.745 119.282 190.793 118.071 190.548 116.903C189.937 114.274 187.841 112.124 186.15 109.813C183.954 106.887 182.354 103.555 181.442 100.007C181.282 99.5948 181.282 99.1375 181.442 98.7249C181.762 98.3065 182.176 97.9684 182.648 97.7371C183.569 97.118 184.233 96.1838 184.516 95.1091C184.8 94.0344 184.683 92.8929 184.189 91.8981C183.228 89.9305 181.116 88.4329 178.734 87.5407C176.318 86.7443 173.824 86.2102 171.295 85.9475C169.628 86.1865 167.675 85.2385 167.159 83.9003C166.928 83.3028 166.928 82.6576 166.698 82.0601C166.386 81.4601 165.934 80.9443 165.381 80.5561C164.829 80.1679 164.191 79.9188 163.522 79.8297C162.102 79.5992 160.648 79.7028 159.275 80.1324C157.687 80.5785 155.885 81.2476 154.511 80.4669C153.789 80.0607 153.392 79.3198 152.614 78.9853C151.026 78.3161 149.39 79.6703 148.255 80.7856C147.161 81.9557 145.817 82.8625 144.325 83.4382C143.537 83.7395 142.693 83.8662 141.852 83.8098C141.01 83.7535 140.191 83.5153 139.45 83.1116C138.362 82.4186 137.814 81.3034 136.949 80.4191C135.314 78.9566 133.223 78.1115 131.034 78.0294C128.784 77.9095 126.529 78.157 124.357 78.7622C120.212 79.7757 116.254 81.4427 112.63 83.7011C110.808 84.7062 109.261 86.1485 108.129 87.8992C107.459 89.2416 107.113 90.7234 107.121 92.2247C106.946 96.9326 108.502 101.887 112.559 105.185C110.082 106.221 109.248 108.762 108.669 111.016C107.74 114.617 106.811 118.273 107.16 121.938C107.335 123.834 107.851 125.729 107.573 127.617C107.35 128.506 107.228 129.417 107.208 130.334C107.325 130.838 107.589 131.297 107.966 131.65C108.344 132.003 108.818 132.236 109.328 132.317Z" fill="black"/>
<rect x="220.758" y="167.261" width="27.1608" height="52.624" rx="5.12037" transform="rotate(90.2842 220.758 167.261)" fill="black"/>
<path d="M194.835 186H192.865V180.942H187.776V186H185.798V174.617H187.776V179.355H192.865V174.617H194.835V186ZM201.363 181.614H199.158V186H197.18V174.617H201.183C202.497 174.617 203.51 174.912 204.224 175.501C204.938 176.09 205.295 176.942 205.295 178.057C205.295 178.818 205.11 179.456 204.74 179.972C204.375 180.483 203.865 180.877 203.208 181.153L205.764 185.898V186H203.646L201.363 181.614ZM199.158 180.027H201.191C201.858 180.027 202.379 179.86 202.755 179.527C203.13 179.188 203.317 178.727 203.317 178.143C203.317 177.533 203.143 177.062 202.794 176.728C202.45 176.395 201.934 176.223 201.246 176.212H199.158V180.027Z" fill="white"/>
</g>
<defs>
<clipPath id="clip0">
<rect x="8" y="58" width="284" height="149" rx="10" fill="white"/>
</clipPath>
</defs>
</svg>
