<svg width="300" height="300" viewBox="0 0 300 300" fill="none" xmlns="http://www.w3.org/2000/svg">
<rect y="50" width="300" height="165" rx="10" fill="black"/>
<rect x="98" y="239" width="104" height="16" rx="4" fill="black"/>
<rect x="144" y="215" width="12" height="32" fill="black"/>
<g clip-path="url(#clip0)">
<rect x="8" y="58" width="284" height="149" rx="10" fill="white"/>
<path d="M183.803 132.875C183.803 132.875 185.61 143.243 181 147C176.389 150.757 185.165 174.417 199.219 171.787C213.273 169.158 219 150.268 219 150.268C219 150.268 204.923 147.265 210.142 132L183.803 132.875Z" fill="white" stroke="black" stroke-width="3" stroke-linecap="round"/>
<path d="M195.5 142C208.479 142 219 131.479 219 118.5C219 105.521 208.479 95 195.5 95C182.521 95 172 105.521 172 118.5C172 131.479 182.521 142 195.5 142Z" fill="white" stroke="black" stroke-width="3" stroke-linecap="round"/>
<path d="M236 163.917V180H156V164.648C156 162.701 156.587 160.797 157.688 159.175C158.79 157.552 160.356 156.282 162.192 155.524L164.484 154.572C170.287 152.157 177.338 149.16 179.641 147.913C179.894 147.79 180.131 147.64 180.349 147.465C181.609 146.235 181.359 147.833 181.359 147.833C181.359 147.833 181.324 148.139 181.301 148.666C181.162 152.288 181.696 166.518 198.774 165.333C215.434 164.2 216.183 153.195 216.015 149.959C216.005 149.659 215.98 149.36 215.939 149.063C217.091 149.331 218.219 149.691 219.311 150.14C222.792 151.398 227.934 153.416 229.309 154.368C229.739 154.662 230.261 154.968 230.83 155.28C231.475 155.631 232.078 156.051 232.628 156.532C233.69 157.463 234.538 158.602 235.119 159.874C235.7 161.146 236 162.524 236 163.917Z" fill="#FFD749" stroke="black" stroke-width="3" stroke-linecap="round"/>
<path d="M165.797 119.502C166.679 119.276 167.607 119.326 168.46 119.646C169.314 119.966 170.055 120.541 170.587 121.297C171.554 122.687 171.701 124.364 171.822 125.97C172.973 126.218 173.622 124.88 173.73 123.868C174.156 119.75 174.188 115.554 175.537 111.572C176.885 107.591 179.831 103.741 184.354 102.22C185.9 101.671 187.551 101.509 189.17 101.75C190.13 101.913 191.034 102.259 191.988 102.403C195.296 102.964 198.89 101.358 201.988 102.475C203.935 103.179 205.169 104.804 206.079 106.43C206.475 107.306 207.013 108.107 207.669 108.799C208.986 110.013 211.047 110.326 212.937 110.704C214.826 111.083 216.887 111.742 217.695 113.237C218.421 114.588 217.886 116.148 217.645 117.609C217.271 119.925 217.648 122.303 218.72 124.377C219.07 125.03 219.782 125.82 220.628 125.604C221.007 125.473 221.327 125.207 221.532 124.854C223.701 121.734 223.644 117.675 226.366 114.862C227.276 113.922 228.453 113.191 229.337 112.251C230.007 111.555 230.497 110.699 230.766 109.761C231.035 108.822 231.073 107.83 230.877 106.873C230.387 104.72 228.707 102.957 227.352 101.065C225.593 98.667 224.311 95.937 223.58 93.0307C223.452 92.6926 223.452 92.3179 223.58 91.9799C223.837 91.6372 224.168 91.3601 224.547 91.1706C225.284 90.6634 225.816 89.898 226.044 89.0175C226.271 88.137 226.177 87.2017 225.781 86.3867C225.011 84.7746 223.319 83.5477 221.411 82.8167C219.475 82.1642 217.476 81.7266 215.45 81.5114C214.114 81.7072 212.549 80.9305 212.135 79.8341C211.951 79.3446 211.951 78.8159 211.766 78.3265C211.516 77.8349 211.154 77.4123 210.711 77.0942C210.268 76.7762 209.758 76.5721 209.222 76.499C208.084 76.3102 206.919 76.3951 205.818 76.7471C204.546 77.1125 203.102 77.6608 202.001 77.0212C201.422 76.6883 201.104 76.0814 200.481 75.8072C199.208 75.259 197.898 76.3685 196.988 77.2822C196.112 78.2409 195.035 78.9839 193.839 79.4556C193.208 79.7023 192.532 79.8062 191.858 79.76C191.183 79.7138 190.527 79.5187 189.933 79.188C189.062 78.6202 188.623 77.7064 187.929 76.982C186.619 75.7837 184.943 75.0914 183.19 75.0241C181.386 74.9259 179.58 75.1287 177.84 75.6245C174.519 76.4548 171.347 77.8206 168.443 79.6709C166.983 80.4944 165.744 81.676 164.836 83.1104C164.3 84.2102 164.023 85.4243 164.028 86.6543C163.889 90.5114 165.135 94.5709 168.386 97.2729C166.401 98.1213 165.733 100.203 165.269 102.05C164.525 105 163.78 107.996 164.06 110.998C164.2 112.551 164.614 114.105 164.391 115.652C164.213 116.38 164.114 117.126 164.098 117.877C164.192 118.291 164.404 118.666 164.706 118.955C165.009 119.245 165.388 119.435 165.797 119.502Z" fill="black"/>
<path d="M96 200.757V190.299C96 190.22 96.0276 190.145 96.0768 190.09C96.1259 190.034 96.1926 190.003 96.2621 190.003H97.3157C97.3852 190.003 97.4519 190.034 97.5011 190.09C97.5502 190.145 97.5778 190.22 97.5778 190.299V194.65L101.854 190.183C101.954 190.088 102.077 190.027 102.206 190.007C102.336 189.987 102.468 190.009 102.587 190.069C102.707 190.129 102.809 190.226 102.882 190.349C102.955 190.471 102.996 190.615 103 190.762V200.235C102.996 200.383 102.955 200.526 102.882 200.648C102.809 200.771 102.707 200.868 102.587 200.928C102.468 200.989 102.336 201.01 102.206 200.99C102.077 200.97 101.954 200.909 101.854 200.815L97.5778 196.376V200.704C97.5778 200.783 97.5502 200.858 97.5011 200.913C97.4519 200.969 97.3852 201 97.3157 201H96.2621C96.1999 201.001 96.1394 200.977 96.0914 200.933C96.0434 200.888 96.011 200.826 96 200.757Z" fill="black"/>
<path d="M207 190.279V200.705C207 200.745 206.994 200.783 206.982 200.819C206.971 200.856 206.954 200.888 206.932 200.916C206.911 200.943 206.886 200.965 206.858 200.979C206.83 200.994 206.8 201.001 206.77 201H205.887C205.828 201 205.77 200.969 205.728 200.914C205.686 200.858 205.662 200.783 205.662 200.705V196.367L201.989 200.815C201.902 200.909 201.797 200.969 201.686 200.989C201.574 201.008 201.461 200.987 201.358 200.927C201.255 200.867 201.167 200.771 201.104 200.649C201.041 200.527 201.005 200.385 201 200.237V190.758C201.005 190.611 201.041 190.469 201.104 190.347C201.167 190.225 201.255 190.129 201.358 190.069C201.461 190.009 201.574 189.987 201.686 190.007C201.797 190.027 201.902 190.087 201.989 190.181L205.662 194.605V190.296C205.662 190.218 205.686 190.143 205.728 190.088C205.77 190.033 205.828 190.002 205.887 190.002H206.77C206.829 190 206.885 190.028 206.928 190.08C206.971 190.131 206.997 190.203 207 190.279Z" fill="black"/>
<path d="M149.2 201H147.054C146.775 201 146.507 200.889 146.309 200.69C146.111 200.492 146 200.224 146 199.944V192.056C146 191.776 146.111 191.507 146.309 191.309C146.507 191.111 146.775 191 147.054 191H149.2C149.479 191 149.748 191.111 149.945 191.309C150.143 191.507 150.254 191.776 150.254 192.056V199.944C150.254 200.224 150.143 200.492 149.945 200.69C149.748 200.889 149.479 201 149.2 201ZM156 199.944V192.056C156 191.776 155.889 191.507 155.691 191.309C155.493 191.111 155.225 191 154.946 191H152.779C152.499 191 152.231 191.111 152.034 191.309C151.836 191.507 151.725 191.776 151.725 192.056V199.944C151.725 200.224 151.836 200.492 152.034 200.69C152.231 200.889 152.499 201 152.779 201H154.925C155.065 201.003 155.204 200.977 155.335 200.926C155.465 200.874 155.584 200.796 155.684 200.698C155.784 200.6 155.863 200.482 155.918 200.353C155.972 200.223 156 200.084 156 199.944Z" fill="black"/>
<path d="M292 180H8V182H292V180Z" fill="white" stroke="#FEF6E0" stroke-width="5" stroke-linecap="round"/>
<path d="M180 180H8V182H180V180Z" fill="white" stroke="black" stroke-width="3" stroke-linecap="round"/>
</g>
<path d="M30.5 115.5V78.5H138.5V115.5H30.5Z" fill="#FFD749" stroke="black" stroke-width="3" stroke-linecap="round"/>
<path d="M30.5 150.5V89.5H138.5V150.5H30.5Z" fill="white" stroke="black" stroke-width="3" stroke-linecap="round"/>
<path d="M43.166 116.204V114.278H118.277V116.204H43.166Z" fill="white" stroke="black" stroke-width="3" stroke-linecap="round"/>
<path d="M43.166 126.056V124.13H118.277V126.056H43.166Z" fill="white" stroke="black" stroke-width="3" stroke-linecap="round"/>
<path d="M43.166 138.722V136.796H57.0549V138.722H43.166Z" fill="white" stroke="black" stroke-width="3" stroke-linecap="round"/>
<path d="M43.166 104.944V103.019H47.2031V104.944H43.166Z" fill="white" stroke="black" stroke-width="3" stroke-linecap="round"/>
<path d="M62.8711 138.722V136.796H76.76V138.722H62.8711Z" fill="white" stroke="black" stroke-width="3" stroke-linecap="round"/>
<defs>
<clipPath id="clip0">
<rect x="8" y="58" width="284" height="149" rx="10" fill="white"/>
</clipPath>
</defs>
</svg>
